<?xml version="1.0" encoding="utf-8" standalone="no"?>
<!DOCTYPE svg PUBLIC "-//W3C//DTD SVG 1.1//EN"
  "http://www.w3.org/Graphics/SVG/1.1/DTD/svg11.dtd">
<svg xmlns:xlink="http://www.w3.org/1999/xlink" width="432pt" height="288pt" viewBox="0 0 432 288" xmlns="http://www.w3.org/2000/svg" version="1.1">
 <metadata>
  <rdf:RDF xmlns:dc="http://purl.org/dc/elements/1.1/" xmlns:cc="http://creativecommons.org/ns#" xmlns:rdf="http://www.w3.org/1999/02/22-rdf-syntax-ns#">
   <cc:Work>
    <dc:type rdf:resource="http://purl.org/dc/dcmitype/StillImage"/>
    <dc:date>2025-10-05T05:04:48.527557</dc:date>
    <dc:format>image/svg+xml</dc:format>
    <dc:creator>
     <cc:Agent>
      <dc:title>Matplotlib v3.10.6, https://matplotlib.org/</dc:title>
     </cc:Agent>
    </dc:creator>
   </cc:Work>
  </rdf:RDF>
 </metadata>
 <defs>
  <style type="text/css">*{stroke-linejoin: round; stroke-linecap: butt}</style>
 </defs>
 <g id="figure_1">
  <g id="patch_1">
   <path d="M 0 288 
L 432 288 
L 432 0 
L 0 0 
z
" style="fill: #ffffff"/>
  </g>
  <g id="axes_1">
   <g id="patch_2">
    <path d="M 56.09 246.04 
L 421.2 246.04 
L 421.2 26.88 
L 56.09 26.88 
z
" style="fill: #ffffff"/>
   </g>
   <g id="matplotlib.axis_1">
    <g id="xtick_1">
     <g id="line2d_1">
      <defs>
       <path id="m9b253a90fd" d="M 0 0 
L 0 3.5 
" style="stroke: #000000; stroke-width: 0.8"/>
      </defs>
      <g>
       <use xlink:href="#m9b253a90fd" x="64.460622" y="246.04" style="stroke: #000000; stroke-width: 0.8"/>
      </g>
     </g>
     <g id="text_1">
      <!-- 97 -->
      <g transform="translate(58.098122 260.638438) scale(0.1 -0.1)">
       <defs>
        <path id="DejaVuSans-39" d="M 703 97 
L 703 672 
Q 941 559 1184 500 
Q 1428 441 1663 441 
Q 2288 441 2617 861 
Q 2947 1281 2994 2138 
Q 2813 1869 2534 1725 
Q 2256 1581 1919 1581 
Q 1219 1581 811 2004 
Q 403 2428 403 3163 
Q 403 3881 828 4315 
Q 1253 4750 1959 4750 
Q 2769 4750 3195 4129 
Q 3622 3509 3622 2328 
Q 3622 1225 3098 567 
Q 2575 -91 1691 -91 
Q 1453 -91 1209 -44 
Q 966 3 703 97 
z
M 1959 2075 
Q 2384 2075 2632 2365 
Q 2881 2656 2881 3163 
Q 2881 3666 2632 3958 
Q 2384 4250 1959 4250 
Q 1534 4250 1286 3958 
Q 1038 3666 1038 3163 
Q 1038 2656 1286 2365 
Q 1534 2075 1959 2075 
z
" transform="scale(0.015625)"/>
        <path id="DejaVuSans-37" d="M 525 4666 
L 3525 4666 
L 3525 4397 
L 1831 0 
L 1172 0 
L 2766 4134 
L 525 4134 
L 525 4666 
z
" transform="scale(0.015625)"/>
       </defs>
       <use xlink:href="#DejaVuSans-39"/>
       <use xlink:href="#DejaVuSans-37" transform="translate(63.623047 0)"/>
      </g>
     </g>
    </g>
    <g id="xtick_2">
     <g id="line2d_2">
      <g>
       <use xlink:href="#m9b253a90fd" x="109.668419" y="246.04" style="stroke: #000000; stroke-width: 0.8"/>
      </g>
     </g>
     <g id="text_2">
      <!-- 98 -->
      <g transform="translate(103.305919 260.638438) scale(0.1 -0.1)">
       <defs>
        <path id="DejaVuSans-38" d="M 2034 2216 
Q 1584 2216 1326 1975 
Q 1069 1734 1069 1313 
Q 1069 891 1326 650 
Q 1584 409 2034 409 
Q 2484 409 2743 651 
Q 3003 894 3003 1313 
Q 3003 1734 2745 1975 
Q 2488 2216 2034 2216 
z
M 1403 2484 
Q 997 2584 770 2862 
Q 544 3141 544 3541 
Q 544 4100 942 4425 
Q 1341 4750 2034 4750 
Q 2731 4750 3128 4425 
Q 3525 4100 3525 3541 
Q 3525 3141 3298 2862 
Q 3072 2584 2669 2484 
Q 3125 2378 3379 2068 
Q 3634 1759 3634 1313 
Q 3634 634 3220 271 
Q 2806 -91 2034 -91 
Q 1263 -91 848 271 
Q 434 634 434 1313 
Q 434 1759 690 2068 
Q 947 2378 1403 2484 
z
M 1172 3481 
Q 1172 3119 1398 2916 
Q 1625 2713 2034 2713 
Q 2441 2713 2670 2916 
Q 2900 3119 2900 3481 
Q 2900 3844 2670 4047 
Q 2441 4250 2034 4250 
Q 1625 4250 1398 4047 
Q 1172 3844 1172 3481 
z
" transform="scale(0.015625)"/>
       </defs>
       <use xlink:href="#DejaVuSans-39"/>
       <use xlink:href="#DejaVuSans-38" transform="translate(63.623047 0)"/>
      </g>
     </g>
    </g>
    <g id="xtick_3">
     <g id="line2d_3">
      <g>
       <use xlink:href="#m9b253a90fd" x="154.876217" y="246.04" style="stroke: #000000; stroke-width: 0.8"/>
      </g>
     </g>
     <g id="text_3">
      <!-- 99 -->
      <g transform="translate(148.513717 260.638438) scale(0.1 -0.1)">
       <use xlink:href="#DejaVuSans-39"/>
       <use xlink:href="#DejaVuSans-39" transform="translate(63.623047 0)"/>
      </g>
     </g>
    </g>
    <g id="xtick_4">
     <g id="line2d_4">
      <g>
       <use xlink:href="#m9b253a90fd" x="200.084014" y="246.04" style="stroke: #000000; stroke-width: 0.8"/>
      </g>
     </g>
     <g id="text_4">
      <!-- 100 -->
      <g transform="translate(190.540264 260.638438) scale(0.1 -0.1)">
       <defs>
        <path id="DejaVuSans-31" d="M 794 531 
L 1825 531 
L 1825 4091 
L 703 3866 
L 703 4441 
L 1819 4666 
L 2450 4666 
L 2450 531 
L 3481 531 
L 3481 0 
L 794 0 
L 794 531 
z
" transform="scale(0.015625)"/>
        <path id="DejaVuSans-30" d="M 2034 4250 
Q 1547 4250 1301 3770 
Q 1056 3291 1056 2328 
Q 1056 1369 1301 889 
Q 1547 409 2034 409 
Q 2525 409 2770 889 
Q 3016 1369 3016 2328 
Q 3016 3291 2770 3770 
Q 2525 4250 2034 4250 
z
M 2034 4750 
Q 2819 4750 3233 4129 
Q 3647 3509 3647 2328 
Q 3647 1150 3233 529 
Q 2819 -91 2034 -91 
Q 1250 -91 836 529 
Q 422 1150 422 2328 
Q 422 3509 836 4129 
Q 1250 4750 2034 4750 
z
" transform="scale(0.015625)"/>
       </defs>
       <use xlink:href="#DejaVuSans-31"/>
       <use xlink:href="#DejaVuSans-30" transform="translate(63.623047 0)"/>
       <use xlink:href="#DejaVuSans-30" transform="translate(127.246094 0)"/>
      </g>
     </g>
    </g>
    <g id="xtick_5">
     <g id="line2d_5">
      <g>
       <use xlink:href="#m9b253a90fd" x="245.291812" y="246.04" style="stroke: #000000; stroke-width: 0.8"/>
      </g>
     </g>
     <g id="text_5">
      <!-- 101 -->
      <g transform="translate(235.748062 260.638438) scale(0.1 -0.1)">
       <use xlink:href="#DejaVuSans-31"/>
       <use xlink:href="#DejaVuSans-30" transform="translate(63.623047 0)"/>
       <use xlink:href="#DejaVuSans-31" transform="translate(127.246094 0)"/>
      </g>
     </g>
    </g>
    <g id="xtick_6">
     <g id="line2d_6">
      <g>
       <use xlink:href="#m9b253a90fd" x="290.49961" y="246.04" style="stroke: #000000; stroke-width: 0.8"/>
      </g>
     </g>
     <g id="text_6">
      <!-- 102 -->
      <g transform="translate(280.95586 260.638438) scale(0.1 -0.1)">
       <defs>
        <path id="DejaVuSans-32" d="M 1228 531 
L 3431 531 
L 3431 0 
L 469 0 
L 469 531 
Q 828 903 1448 1529 
Q 2069 2156 2228 2338 
Q 2531 2678 2651 2914 
Q 2772 3150 2772 3378 
Q 2772 3750 2511 3984 
Q 2250 4219 1831 4219 
Q 1534 4219 1204 4116 
Q 875 4013 500 3803 
L 500 4441 
Q 881 4594 1212 4672 
Q 1544 4750 1819 4750 
Q 2544 4750 2975 4387 
Q 3406 4025 3406 3419 
Q 3406 3131 3298 2873 
Q 3191 2616 2906 2266 
Q 2828 2175 2409 1742 
Q 1991 1309 1228 531 
z
" transform="scale(0.015625)"/>
       </defs>
       <use xlink:href="#DejaVuSans-31"/>
       <use xlink:href="#DejaVuSans-30" transform="translate(63.623047 0)"/>
       <use xlink:href="#DejaVuSans-32" transform="translate(127.246094 0)"/>
      </g>
     </g>
    </g>
    <g id="xtick_7">
     <g id="line2d_7">
      <g>
       <use xlink:href="#m9b253a90fd" x="335.707407" y="246.04" style="stroke: #000000; stroke-width: 0.8"/>
      </g>
     </g>
     <g id="text_7">
      <!-- 103 -->
      <g transform="translate(326.163657 260.638438) scale(0.1 -0.1)">
       <defs>
        <path id="DejaVuSans-33" d="M 2597 2516 
Q 3050 2419 3304 2112 
Q 3559 1806 3559 1356 
Q 3559 666 3084 287 
Q 2609 -91 1734 -91 
Q 1441 -91 1130 -33 
Q 819 25 488 141 
L 488 750 
Q 750 597 1062 519 
Q 1375 441 1716 441 
Q 2309 441 2620 675 
Q 2931 909 2931 1356 
Q 2931 1769 2642 2001 
Q 2353 2234 1838 2234 
L 1294 2234 
L 1294 2753 
L 1863 2753 
Q 2328 2753 2575 2939 
Q 2822 3125 2822 3475 
Q 2822 3834 2567 4026 
Q 2313 4219 1838 4219 
Q 1578 4219 1281 4162 
Q 984 4106 628 3988 
L 628 4550 
Q 988 4650 1302 4700 
Q 1616 4750 1894 4750 
Q 2613 4750 3031 4423 
Q 3450 4097 3450 3541 
Q 3450 3153 3228 2886 
Q 3006 2619 2597 2516 
z
" transform="scale(0.015625)"/>
       </defs>
       <use xlink:href="#DejaVuSans-31"/>
       <use xlink:href="#DejaVuSans-30" transform="translate(63.623047 0)"/>
       <use xlink:href="#DejaVuSans-33" transform="translate(127.246094 0)"/>
      </g>
     </g>
    </g>
    <g id="xtick_8">
     <g id="line2d_8">
      <g>
       <use xlink:href="#m9b253a90fd" x="380.915205" y="246.04" style="stroke: #000000; stroke-width: 0.8"/>
      </g>
     </g>
     <g id="text_8">
      <!-- 104 -->
      <g transform="translate(371.371455 260.638438) scale(0.1 -0.1)">
       <defs>
        <path id="DejaVuSans-34" d="M 2419 4116 
L 825 1625 
L 2419 1625 
L 2419 4116 
z
M 2253 4666 
L 3047 4666 
L 3047 1625 
L 3713 1625 
L 3713 1100 
L 3047 1100 
L 3047 0 
L 2419 0 
L 2419 1100 
L 313 1100 
L 313 1709 
L 2253 4666 
z
" transform="scale(0.015625)"/>
       </defs>
       <use xlink:href="#DejaVuSans-31"/>
       <use xlink:href="#DejaVuSans-30" transform="translate(63.623047 0)"/>
       <use xlink:href="#DejaVuSans-34" transform="translate(127.246094 0)"/>
      </g>
     </g>
    </g>
    <g id="text_9">
     <!-- H (T) -->
     <g transform="translate(226.340312 274.316562) scale(0.1 -0.1)">
      <defs>
       <path id="DejaVuSans-48" d="M 628 4666 
L 1259 4666 
L 1259 2753 
L 3553 2753 
L 3553 4666 
L 4184 4666 
L 4184 0 
L 3553 0 
L 3553 2222 
L 1259 2222 
L 1259 0 
L 628 0 
L 628 4666 
z
" transform="scale(0.015625)"/>
       <path id="DejaVuSans-20" transform="scale(0.015625)"/>
       <path id="DejaVuSans-28" d="M 1984 4856 
Q 1566 4138 1362 3434 
Q 1159 2731 1159 2009 
Q 1159 1288 1364 580 
Q 1569 -128 1984 -844 
L 1484 -844 
Q 1016 -109 783 600 
Q 550 1309 550 2009 
Q 550 2706 781 3412 
Q 1013 4119 1484 4856 
L 1984 4856 
z
" transform="scale(0.015625)"/>
       <path id="DejaVuSans-54" d="M -19 4666 
L 3928 4666 
L 3928 4134 
L 2272 4134 
L 2272 0 
L 1638 0 
L 1638 4134 
L -19 4134 
L -19 4666 
z
" transform="scale(0.015625)"/>
       <path id="DejaVuSans-29" d="M 513 4856 
L 1013 4856 
Q 1481 4119 1714 3412 
Q 1947 2706 1947 2009 
Q 1947 1309 1714 600 
Q 1481 -109 1013 -844 
L 513 -844 
Q 928 -128 1133 580 
Q 1338 1288 1338 2009 
Q 1338 2731 1133 3434 
Q 928 4138 513 4856 
z
" transform="scale(0.015625)"/>
      </defs>
      <use xlink:href="#DejaVuSans-48"/>
      <use xlink:href="#DejaVuSans-20" transform="translate(75.195312 0)"/>
      <use xlink:href="#DejaVuSans-28" transform="translate(106.982422 0)"/>
      <use xlink:href="#DejaVuSans-54" transform="translate(145.996094 0)"/>
      <use xlink:href="#DejaVuSans-29" transform="translate(207.080078 0)"/>
     </g>
    </g>
   </g>
   <g id="matplotlib.axis_2">
    <g id="ytick_1">
     <g id="line2d_9">
      <defs>
       <path id="meb64ed5952" d="M 0 0 
L -3.5 0 
" style="stroke: #000000; stroke-width: 0.8"/>
      </defs>
      <g>
       <use xlink:href="#meb64ed5952" x="56.09" y="228.688411" style="stroke: #000000; stroke-width: 0.8"/>
      </g>
     </g>
     <g id="text_10">
      <!-- −0.3 -->
      <g transform="translate(24.807188 232.487629) scale(0.1 -0.1)">
       <defs>
        <path id="DejaVuSans-2212" d="M 678 2272 
L 4684 2272 
L 4684 1741 
L 678 1741 
L 678 2272 
z
" transform="scale(0.015625)"/>
        <path id="DejaVuSans-2e" d="M 684 794 
L 1344 794 
L 1344 0 
L 684 0 
L 684 794 
z
" transform="scale(0.015625)"/>
       </defs>
       <use xlink:href="#DejaVuSans-2212"/>
       <use xlink:href="#DejaVuSans-30" transform="translate(83.789062 0)"/>
       <use xlink:href="#DejaVuSans-2e" transform="translate(147.412109 0)"/>
       <use xlink:href="#DejaVuSans-33" transform="translate(179.199219 0)"/>
      </g>
     </g>
    </g>
    <g id="ytick_2">
     <g id="line2d_10">
      <g>
       <use xlink:href="#meb64ed5952" x="56.09" y="199.386015" style="stroke: #000000; stroke-width: 0.8"/>
      </g>
     </g>
     <g id="text_11">
      <!-- −0.2 -->
      <g transform="translate(24.807188 203.185234) scale(0.1 -0.1)">
       <use xlink:href="#DejaVuSans-2212"/>
       <use xlink:href="#DejaVuSans-30" transform="translate(83.789062 0)"/>
       <use xlink:href="#DejaVuSans-2e" transform="translate(147.412109 0)"/>
       <use xlink:href="#DejaVuSans-32" transform="translate(179.199219 0)"/>
      </g>
     </g>
    </g>
    <g id="ytick_3">
     <g id="line2d_11">
      <g>
       <use xlink:href="#meb64ed5952" x="56.09" y="170.08362" style="stroke: #000000; stroke-width: 0.8"/>
      </g>
     </g>
     <g id="text_12">
      <!-- −0.1 -->
      <g transform="translate(24.807188 173.882838) scale(0.1 -0.1)">
       <use xlink:href="#DejaVuSans-2212"/>
       <use xlink:href="#DejaVuSans-30" transform="translate(83.789062 0)"/>
       <use xlink:href="#DejaVuSans-2e" transform="translate(147.412109 0)"/>
       <use xlink:href="#DejaVuSans-31" transform="translate(179.199219 0)"/>
      </g>
     </g>
    </g>
    <g id="ytick_4">
     <g id="line2d_12">
      <g>
       <use xlink:href="#meb64ed5952" x="56.09" y="140.781224" style="stroke: #000000; stroke-width: 0.8"/>
      </g>
     </g>
     <g id="text_13">
      <!-- 0.0 -->
      <g transform="translate(33.186875 144.580443) scale(0.1 -0.1)">
       <use xlink:href="#DejaVuSans-30"/>
       <use xlink:href="#DejaVuSans-2e" transform="translate(63.623047 0)"/>
       <use xlink:href="#DejaVuSans-30" transform="translate(95.410156 0)"/>
      </g>
     </g>
    </g>
    <g id="ytick_5">
     <g id="line2d_13">
      <g>
       <use xlink:href="#meb64ed5952" x="56.09" y="111.478829" style="stroke: #000000; stroke-width: 0.8"/>
      </g>
     </g>
     <g id="text_14">
      <!-- 0.1 -->
      <g transform="translate(33.186875 115.278048) scale(0.1 -0.1)">
       <use xlink:href="#DejaVuSans-30"/>
       <use xlink:href="#DejaVuSans-2e" transform="translate(63.623047 0)"/>
       <use xlink:href="#DejaVuSans-31" transform="translate(95.410156 0)"/>
      </g>
     </g>
    </g>
    <g id="ytick_6">
     <g id="line2d_14">
      <g>
       <use xlink:href="#meb64ed5952" x="56.09" y="82.176433" style="stroke: #000000; stroke-width: 0.8"/>
      </g>
     </g>
     <g id="text_15">
      <!-- 0.2 -->
      <g transform="translate(33.186875 85.975652) scale(0.1 -0.1)">
       <use xlink:href="#DejaVuSans-30"/>
       <use xlink:href="#DejaVuSans-2e" transform="translate(63.623047 0)"/>
       <use xlink:href="#DejaVuSans-32" transform="translate(95.410156 0)"/>
      </g>
     </g>
    </g>
    <g id="ytick_7">
     <g id="line2d_15">
      <g>
       <use xlink:href="#meb64ed5952" x="56.09" y="52.874038" style="stroke: #000000; stroke-width: 0.8"/>
      </g>
     </g>
     <g id="text_16">
      <!-- 0.3 -->
      <g transform="translate(33.186875 56.673257) scale(0.1 -0.1)">
       <use xlink:href="#DejaVuSans-30"/>
       <use xlink:href="#DejaVuSans-2e" transform="translate(63.623047 0)"/>
       <use xlink:href="#DejaVuSans-33" transform="translate(95.410156 0)"/>
      </g>
     </g>
    </g>
    <g id="text_17">
     <!-- dP/dH -->
     <g transform="translate(18.7275 151.267812) rotate(-90) scale(0.1 -0.1)">
      <defs>
       <path id="DejaVuSans-64" d="M 2906 2969 
L 2906 4863 
L 3481 4863 
L 3481 0 
L 2906 0 
L 2906 525 
Q 2725 213 2448 61 
Q 2172 -91 1784 -91 
Q 1150 -91 751 415 
Q 353 922 353 1747 
Q 353 2572 751 3078 
Q 1150 3584 1784 3584 
Q 2172 3584 2448 3432 
Q 2725 3281 2906 2969 
z
M 947 1747 
Q 947 1113 1208 752 
Q 1469 391 1925 391 
Q 2381 391 2643 752 
Q 2906 1113 2906 1747 
Q 2906 2381 2643 2742 
Q 2381 3103 1925 3103 
Q 1469 3103 1208 2742 
Q 947 2381 947 1747 
z
" transform="scale(0.015625)"/>
       <path id="DejaVuSans-50" d="M 1259 4147 
L 1259 2394 
L 2053 2394 
Q 2494 2394 2734 2622 
Q 2975 2850 2975 3272 
Q 2975 3691 2734 3919 
Q 2494 4147 2053 4147 
L 1259 4147 
z
M 628 4666 
L 2053 4666 
Q 2838 4666 3239 4311 
Q 3641 3956 3641 3272 
Q 3641 2581 3239 2228 
Q 2838 1875 2053 1875 
L 1259 1875 
L 1259 0 
L 628 0 
L 628 4666 
z
" transform="scale(0.015625)"/>
       <path id="DejaVuSans-2f" d="M 1625 4666 
L 2156 4666 
L 531 -594 
L 0 -594 
L 1625 4666 
z
" transform="scale(0.015625)"/>
      </defs>
      <use xlink:href="#DejaVuSans-64"/>
      <use xlink:href="#DejaVuSans-50" transform="translate(63.476562 0)"/>
      <use xlink:href="#DejaVuSans-2f" transform="translate(123.779297 0)"/>
      <use xlink:href="#DejaVuSans-64" transform="translate(157.470703 0)"/>
      <use xlink:href="#DejaVuSans-48" transform="translate(220.947266 0)"/>
     </g>
    </g>
   </g>
   <g id="line2d_16">
    <path d="M 404.604091 143.658426 
L 404.604091 161.925247 
L 404.604091 159.234701 
L 398.780965 169.193999 
L 398.780965 150.974356 
L 398.780965 169.855061 
L 392.957839 200.583018 
L 392.957839 152.909779 
L 392.957839 164.332439 
L 387.134713 88.05508 
L 387.134713 180.711306 
L 387.134713 151.163356 
L 381.311587 147.48151 
L 381.311587 153.240017 
L 381.311587 144.838434 
L 381.311587 144.838434 
L 375.488461 149.086402 
L 375.488461 158.196224 
L 375.488461 117.886384 
L 369.665335 138.607866 
L 369.665335 153.334664 
L 369.665335 138.371688 
L 363.842209 200.06378 
L 363.842209 135.586789 
L 363.842209 151.25771 
L 358.019083 152.201833 
L 358.019083 91.97281 
L 358.019083 145.310203 
L 352.195957 150.927179 
L 352.195957 161.500362 
L 352.195957 130.772405 
L 346.372831 161.925247 
L 346.372831 139.551696 
L 346.372831 149.133579 
L 340.549705 151.776948 
L 340.549705 143.799957 
L 340.549705 152.815425 
L 334.726579 160.839593 
L 334.726579 141.109411 
L 334.726579 148.992048 
L 328.903453 150.502587 
L 328.903453 152.815425 
L 328.903453 148.944872 
L 323.080327 159.89547 
L 323.080327 153.617725 
L 323.080327 156.16674 
L 317.257201 160.226001 
L 317.257201 151.069002 
L 317.257201 155.033909 
L 311.434075 126.241083 
L 311.434075 150.45541 
L 311.434075 149.46411 
L 305.610949 124.258483 
L 305.610949 157.724162 
L 299.787823 147.528687 
L 299.787823 154.892086 
L 299.787823 138.418865 
L 293.964697 146.490503 
L 293.964697 124.824898 
L 293.964697 164.238085 
L 288.141571 162.066777 
L 288.141571 162.633193 
L 288.141571 134.831666 
L 288.141571 154.561848 
L 282.318445 149.46411 
L 282.318445 143.847134 
L 282.318445 152.579248 
L 276.495319 140.684526 
L 276.495319 170.751714 
L 276.495319 163.530139 
L 270.672193 142.855834 
L 270.672193 160.084177 
L 270.672193 146.67921 
L 264.849067 152.673601 
L 264.849067 175.23586 
L 264.849067 151.729771 
L 259.025941 157.393924 
L 259.025941 147.859218 
L 259.025941 153.948256 
L 253.202815 145.215849 
L 253.202815 184.204151 
L 253.202815 151.210533 
L 247.379689 147.434333 
L 247.379689 178.398467 
L 247.379689 161.453185 
L 241.556563 152.956956 
L 241.556563 139.83505 
L 241.556563 159.753939 
L 235.733437 145.54638 
L 235.733437 114.204831 
L 235.733437 155.741855 
L 229.910311 128.931629 
L 229.910311 135.539612 
L 229.910311 97.117725 
L 229.910311 109.626331 
L 224.087185 134.784489 
L 224.087185 47.226001 
L 218.264059 61.056146 
L 218.264059 45.149047 
L 212.440933 36.841818 
L 212.440933 63.416161 
L 212.440933 52.135031 
L 206.617807 50.435785 
L 206.617807 86.214303 
L 200.794681 94.096941 
L 200.794681 90.226387 
L 200.794681 129.498044 
L 200.794681 126.42979 
L 194.971555 134.737312 
L 194.971555 156.733155 
L 189.148429 168.53323 
L 189.148429 157.441101 
L 189.148429 165.418092 
L 183.325303 105.283716 
L 183.325303 171.978899 
L 183.325303 125.769021 
L 177.502177 161.87807 
L 177.502177 163.058077 
L 177.502177 156.449801 
L 177.502177 158.621109 
L 171.679051 147.387156 
L 171.679051 161.594716 
L 171.679051 133.651658 
L 165.855925 165.842977 
L 165.855925 140.920704 
L 165.855925 188.310589 
L 165.855925 159.989824 
L 160.032799 175.613568 
L 160.032799 200.394018 
L 160.032799 171.601484 
L 154.209673 187.64982 
L 154.209673 194.588334 
L 154.209673 168.438876 
L 154.209673 193.313973 
L 148.386547 191.614727 
L 148.386547 209.078955 
L 148.386547 178.351291 
L 142.563421 189.160358 
L 142.563421 194.069096 
L 142.563421 168.013992 
L 142.563421 185.289805 
L 136.740295 180.852836 
L 136.740295 157.393924 
L 130.917169 163.718846 
L 130.917169 166.645277 
L 130.917169 138.324511 
L 125.094043 146.395856 
L 125.094043 204.264571 
L 125.094043 161.0283 
L 119.270917 154.372847 
L 119.270917 209.503839 
L 113.447791 166.220392 
L 113.447791 142.289419 
L 113.447791 177.832052 
L 107.624665 162.302662 
L 107.624665 141.345295 
L 107.624665 236.078182 
L 101.801539 147.198449 
L 101.801539 161.87807 
L 101.801539 160.839593 
L 95.978413 164.946031 
L 95.978413 170.987892 
L 95.978413 150.219233 
L 90.155287 160.414708 
L 90.155287 153.004132 
L 90.155287 161.0283 
L 84.332161 178.303821 
L 84.332161 163.482669 
L 78.509035 155.316971 
L 78.509035 178.917706 
L 78.509035 159.565232 
L 72.685909 153.995433 
L 72.685909 156.449801 
L 72.685909 156.449801 
" clip-path="url(#p54baa6c99c)" style="fill: none; stroke: #000080; stroke-opacity: 0.5; stroke-width: 1.5; stroke-linecap: square"/>
   </g>
   <g id="line2d_17">
    <path d="M 404.604091 145.854393 
L 404.604091 157.034826 
L 398.780965 160.371009 
L 398.780965 175.047223 
L 392.957839 170.111684 
L 392.957839 151.691182 
L 387.134713 144.349885 
L 387.134713 140.700845 
L 387.134713 147.569798 
L 381.311587 150.232577 
L 381.311587 155.845585 
L 381.311587 146.539524 
L 375.488461 146.726033 
L 375.488461 137.217552 
L 369.665335 141.373685 
L 369.665335 152.565466 
L 363.842209 158.502926 
L 363.842209 161.802505 
L 363.842209 146.211117 
L 358.019083 139.317081 
L 358.019083 132.436004 
L 358.019083 139.617639 
L 352.195957 141.465653 
L 352.195957 153.357462 
L 346.372831 148.164337 
L 346.372831 145.76541 
L 346.372831 146.559136 
L 340.549705 149.840684 
L 340.549705 149.269781 
L 340.549705 151.22651 
L 340.549705 150.19753 
L 334.726579 149.556856 
L 334.726579 149.57247 
L 334.726579 148.739032 
L 328.903453 148.377264 
L 328.903453 153.832237 
L 323.080327 155.028876 
L 323.080327 159.32642 
L 317.257201 156.486662 
L 317.257201 149.754179 
L 311.434075 147.47255 
L 311.434075 138.640459 
L 305.610949 139.418317 
L 305.610949 145.204427 
L 299.787823 149.520103 
L 299.787823 150.703342 
L 299.787823 142.74578 
L 293.964697 142.283264 
L 293.964697 150.266792 
L 288.141571 154.162053 
L 288.141571 154.770658 
L 288.141571 151.717329 
L 282.318445 146.090025 
L 282.318445 153.549964 
L 276.495319 153.416277 
L 276.495319 154.823399 
L 276.495319 153.628864 
L 270.672193 151.13855 
L 270.672193 154.372274 
L 264.849067 155.499274 
L 264.849067 158.448752 
L 264.849067 155.858549 
L 259.025941 152.143399 
L 259.025941 155.852174 
L 253.202815 155.369473 
L 253.202815 154.088226 
L 253.202815 160.274578 
L 247.379689 162.162628 
L 247.379689 155.987537 
L 247.379689 158.672068 
L 241.556563 156.859067 
L 241.556563 157.019048 
L 241.556563 145.026738 
L 235.733437 143.903724 
L 235.733437 145.60892 
L 235.733437 132.744605 
L 229.910311 128.789607 
L 229.910311 115.578373 
L 224.087185 101.130943 
L 224.087185 70.020326 
L 218.264059 54.520218 
L 218.264059 45.706024 
L 218.264059 46.871757 
L 212.440933 47.777725 
L 212.440933 46.830053 
L 212.440933 50.390192 
L 206.617807 56.729925 
L 206.617807 80.195666 
L 200.794681 91.451129 
L 200.794681 126.211252 
L 194.971555 135.626206 
L 194.971555 159.885411 
L 189.148429 158.954931 
L 189.148429 152.764382 
L 183.325303 148.122696 
L 183.325303 146.575869 
L 183.325303 151.453433 
L 177.502177 153.894599 
L 177.502177 158.897596 
L 177.502177 154.09009 
L 171.679051 158.387469 
L 171.679051 150.05134 
L 171.679051 152.949341 
L 165.855925 155.325022 
L 165.855925 170.642329 
L 160.032799 177.346873 
L 160.032799 184.548177 
L 160.032799 182.563972 
L 154.209673 184.922944 
L 154.209673 190.087945 
L 148.386547 193.501947 
L 148.386547 195.098561 
L 148.386547 193.838872 
L 142.563421 189.574381 
L 142.563421 178.448511 
L 136.740295 176.131787 
L 136.740295 168.020717 
L 130.917169 157.154192 
L 130.917169 162.135839 
L 125.094043 164.462189 
L 125.094043 159.557919 
L 125.094043 164.23095 
L 119.270917 171.249628 
L 119.270917 161.539138 
L 119.270917 166.420895 
L 113.447791 169.431339 
L 113.447791 157.828289 
L 113.447791 162.101606 
L 107.624665 161.247933 
L 107.624665 172.497884 
L 107.624665 170.697324 
L 101.801539 168.573628 
L 101.801539 170.514064 
L 101.801539 164.06497 
L 95.978413 157.695671 
L 95.978413 164.600119 
L 95.978413 158.881171 
L 90.155287 158.896678 
L 90.155287 158.722506 
L 90.155287 163.788922 
L 84.332161 166.678315 
L 84.332161 165.44896 
L 84.332161 168.301628 
L 78.509035 166.706961 
L 78.509035 160.116884 
L 72.685909 158.526832 
L 72.685909 155.559607 
L 72.685909 155.559607 
" clip-path="url(#p54baa6c99c)" style="fill: none; stroke: #dc143c; stroke-width: 2; stroke-linecap: square"/>
   </g>
   <g id="patch_3">
    <path d="M 56.09 246.04 
L 56.09 26.88 
" style="fill: none; stroke: #000000; stroke-width: 0.8; stroke-linejoin: miter; stroke-linecap: square"/>
   </g>
   <g id="patch_4">
    <path d="M 421.2 246.04 
L 421.2 26.88 
" style="fill: none; stroke: #000000; stroke-width: 0.8; stroke-linejoin: miter; stroke-linecap: square"/>
   </g>
   <g id="patch_5">
    <path d="M 56.09 246.04 
L 421.2 246.04 
" style="fill: none; stroke: #000000; stroke-width: 0.8; stroke-linejoin: miter; stroke-linecap: square"/>
   </g>
   <g id="patch_6">
    <path d="M 56.09 26.88 
L 421.2 26.88 
" style="fill: none; stroke: #000000; stroke-width: 0.8; stroke-linejoin: miter; stroke-linecap: square"/>
   </g>
   <g id="text_18">
    <!-- AZ5, f=5 GHz, 20 dB -->
    <g transform="translate(176.343437 20.88) scale(0.12 -0.12)">
     <defs>
      <path id="DejaVuSans-41" d="M 2188 4044 
L 1331 1722 
L 3047 1722 
L 2188 4044 
z
M 1831 4666 
L 2547 4666 
L 4325 0 
L 3669 0 
L 3244 1197 
L 1141 1197 
L 716 0 
L 50 0 
L 1831 4666 
z
" transform="scale(0.015625)"/>
      <path id="DejaVuSans-5a" d="M 359 4666 
L 4025 4666 
L 4025 4184 
L 1075 531 
L 4097 531 
L 4097 0 
L 288 0 
L 288 481 
L 3238 4134 
L 359 4134 
L 359 4666 
z
" transform="scale(0.015625)"/>
      <path id="DejaVuSans-35" d="M 691 4666 
L 3169 4666 
L 3169 4134 
L 1269 4134 
L 1269 2991 
Q 1406 3038 1543 3061 
Q 1681 3084 1819 3084 
Q 2600 3084 3056 2656 
Q 3513 2228 3513 1497 
Q 3513 744 3044 326 
Q 2575 -91 1722 -91 
Q 1428 -91 1123 -41 
Q 819 9 494 109 
L 494 744 
Q 775 591 1075 516 
Q 1375 441 1709 441 
Q 2250 441 2565 725 
Q 2881 1009 2881 1497 
Q 2881 1984 2565 2268 
Q 2250 2553 1709 2553 
Q 1456 2553 1204 2497 
Q 953 2441 691 2322 
L 691 4666 
z
" transform="scale(0.015625)"/>
      <path id="DejaVuSans-2c" d="M 750 794 
L 1409 794 
L 1409 256 
L 897 -744 
L 494 -744 
L 750 256 
L 750 794 
z
" transform="scale(0.015625)"/>
      <path id="DejaVuSans-66" d="M 2375 4863 
L 2375 4384 
L 1825 4384 
Q 1516 4384 1395 4259 
Q 1275 4134 1275 3809 
L 1275 3500 
L 2222 3500 
L 2222 3053 
L 1275 3053 
L 1275 0 
L 697 0 
L 697 3053 
L 147 3053 
L 147 3500 
L 697 3500 
L 697 3744 
Q 697 4328 969 4595 
Q 1241 4863 1831 4863 
L 2375 4863 
z
" transform="scale(0.015625)"/>
      <path id="DejaVuSans-3d" d="M 678 2906 
L 4684 2906 
L 4684 2381 
L 678 2381 
L 678 2906 
z
M 678 1631 
L 4684 1631 
L 4684 1100 
L 678 1100 
L 678 1631 
z
" transform="scale(0.015625)"/>
      <path id="DejaVuSans-47" d="M 3809 666 
L 3809 1919 
L 2778 1919 
L 2778 2438 
L 4434 2438 
L 4434 434 
Q 4069 175 3628 42 
Q 3188 -91 2688 -91 
Q 1594 -91 976 548 
Q 359 1188 359 2328 
Q 359 3472 976 4111 
Q 1594 4750 2688 4750 
Q 3144 4750 3555 4637 
Q 3966 4525 4313 4306 
L 4313 3634 
Q 3963 3931 3569 4081 
Q 3175 4231 2741 4231 
Q 1884 4231 1454 3753 
Q 1025 3275 1025 2328 
Q 1025 1384 1454 906 
Q 1884 428 2741 428 
Q 3075 428 3337 486 
Q 3600 544 3809 666 
z
" transform="scale(0.015625)"/>
      <path id="DejaVuSans-7a" d="M 353 3500 
L 3084 3500 
L 3084 2975 
L 922 459 
L 3084 459 
L 3084 0 
L 275 0 
L 275 525 
L 2438 3041 
L 353 3041 
L 353 3500 
z
" transform="scale(0.015625)"/>
      <path id="DejaVuSans-42" d="M 1259 2228 
L 1259 519 
L 2272 519 
Q 2781 519 3026 730 
Q 3272 941 3272 1375 
Q 3272 1813 3026 2020 
Q 2781 2228 2272 2228 
L 1259 2228 
z
M 1259 4147 
L 1259 2741 
L 2194 2741 
Q 2656 2741 2882 2914 
Q 3109 3088 3109 3444 
Q 3109 3797 2882 3972 
Q 2656 4147 2194 4147 
L 1259 4147 
z
M 628 4666 
L 2241 4666 
Q 2963 4666 3353 4366 
Q 3744 4066 3744 3513 
Q 3744 3084 3544 2831 
Q 3344 2578 2956 2516 
Q 3422 2416 3680 2098 
Q 3938 1781 3938 1306 
Q 3938 681 3513 340 
Q 3088 0 2303 0 
L 628 0 
L 628 4666 
z
" transform="scale(0.015625)"/>
     </defs>
     <use xlink:href="#DejaVuSans-41"/>
     <use xlink:href="#DejaVuSans-5a" transform="translate(68.408203 0)"/>
     <use xlink:href="#DejaVuSans-35" transform="translate(136.914062 0)"/>
     <use xlink:href="#DejaVuSans-2c" transform="translate(200.537109 0)"/>
     <use xlink:href="#DejaVuSans-20" transform="translate(232.324219 0)"/>
     <use xlink:href="#DejaVuSans-66" transform="translate(264.111328 0)"/>
     <use xlink:href="#DejaVuSans-3d" transform="translate(299.316406 0)"/>
     <use xlink:href="#DejaVuSans-35" transform="translate(383.105469 0)"/>
     <use xlink:href="#DejaVuSans-20" transform="translate(446.728516 0)"/>
     <use xlink:href="#DejaVuSans-47" transform="translate(478.515625 0)"/>
     <use xlink:href="#DejaVuSans-48" transform="translate(556.005859 0)"/>
     <use xlink:href="#DejaVuSans-7a" transform="translate(631.201172 0)"/>
     <use xlink:href="#DejaVuSans-2c" transform="translate(683.691406 0)"/>
     <use xlink:href="#DejaVuSans-20" transform="translate(715.478516 0)"/>
     <use xlink:href="#DejaVuSans-32" transform="translate(747.265625 0)"/>
     <use xlink:href="#DejaVuSans-30" transform="translate(810.888672 0)"/>
     <use xlink:href="#DejaVuSans-20" transform="translate(874.511719 0)"/>
     <use xlink:href="#DejaVuSans-64" transform="translate(906.298828 0)"/>
     <use xlink:href="#DejaVuSans-42" transform="translate(969.775391 0)"/>
    </g>
   </g>
   <g id="legend_1">
    <g id="patch_7">
     <path d="M 218.826562 241.04 
L 414.2 241.04 
Q 416.2 241.04 416.2 239.04 
L 416.2 210.68375 
Q 416.2 208.68375 414.2 208.68375 
L 218.826562 208.68375 
Q 216.826562 208.68375 216.826562 210.68375 
L 216.826562 239.04 
Q 216.826562 241.04 218.826562 241.04 
z
" style="fill: #ffffff; opacity: 0.8; stroke: #cccccc; stroke-linejoin: miter"/>
    </g>
    <g id="line2d_18">
     <path d="M 220.826562 216.782187 
L 230.826562 216.782187 
L 240.826562 216.782187 
" style="fill: none; stroke: #000080; stroke-opacity: 0.5; stroke-width: 1.5; stroke-linecap: square"/>
    </g>
    <g id="text_19">
     <!-- Raw Data -->
     <g transform="translate(248.826562 220.282187) scale(0.1 -0.1)">
      <defs>
       <path id="DejaVuSans-52" d="M 2841 2188 
Q 3044 2119 3236 1894 
Q 3428 1669 3622 1275 
L 4263 0 
L 3584 0 
L 2988 1197 
Q 2756 1666 2539 1819 
Q 2322 1972 1947 1972 
L 1259 1972 
L 1259 0 
L 628 0 
L 628 4666 
L 2053 4666 
Q 2853 4666 3247 4331 
Q 3641 3997 3641 3322 
Q 3641 2881 3436 2590 
Q 3231 2300 2841 2188 
z
M 1259 4147 
L 1259 2491 
L 2053 2491 
Q 2509 2491 2742 2702 
Q 2975 2913 2975 3322 
Q 2975 3731 2742 3939 
Q 2509 4147 2053 4147 
L 1259 4147 
z
" transform="scale(0.015625)"/>
       <path id="DejaVuSans-61" d="M 2194 1759 
Q 1497 1759 1228 1600 
Q 959 1441 959 1056 
Q 959 750 1161 570 
Q 1363 391 1709 391 
Q 2188 391 2477 730 
Q 2766 1069 2766 1631 
L 2766 1759 
L 2194 1759 
z
M 3341 1997 
L 3341 0 
L 2766 0 
L 2766 531 
Q 2569 213 2275 61 
Q 1981 -91 1556 -91 
Q 1019 -91 701 211 
Q 384 513 384 1019 
Q 384 1609 779 1909 
Q 1175 2209 1959 2209 
L 2766 2209 
L 2766 2266 
Q 2766 2663 2505 2880 
Q 2244 3097 1772 3097 
Q 1472 3097 1187 3025 
Q 903 2953 641 2809 
L 641 3341 
Q 956 3463 1253 3523 
Q 1550 3584 1831 3584 
Q 2591 3584 2966 3190 
Q 3341 2797 3341 1997 
z
" transform="scale(0.015625)"/>
       <path id="DejaVuSans-77" d="M 269 3500 
L 844 3500 
L 1563 769 
L 2278 3500 
L 2956 3500 
L 3675 769 
L 4391 3500 
L 4966 3500 
L 4050 0 
L 3372 0 
L 2619 2869 
L 1863 0 
L 1184 0 
L 269 3500 
z
" transform="scale(0.015625)"/>
       <path id="DejaVuSans-44" d="M 1259 4147 
L 1259 519 
L 2022 519 
Q 2988 519 3436 956 
Q 3884 1394 3884 2338 
Q 3884 3275 3436 3711 
Q 2988 4147 2022 4147 
L 1259 4147 
z
M 628 4666 
L 1925 4666 
Q 3281 4666 3915 4102 
Q 4550 3538 4550 2338 
Q 4550 1131 3912 565 
Q 3275 0 1925 0 
L 628 0 
L 628 4666 
z
" transform="scale(0.015625)"/>
       <path id="DejaVuSans-74" d="M 1172 4494 
L 1172 3500 
L 2356 3500 
L 2356 3053 
L 1172 3053 
L 1172 1153 
Q 1172 725 1289 603 
Q 1406 481 1766 481 
L 2356 481 
L 2356 0 
L 1766 0 
Q 1100 0 847 248 
Q 594 497 594 1153 
L 594 3053 
L 172 3053 
L 172 3500 
L 594 3500 
L 594 4494 
L 1172 4494 
z
" transform="scale(0.015625)"/>
      </defs>
      <use xlink:href="#DejaVuSans-52"/>
      <use xlink:href="#DejaVuSans-61" transform="translate(67.232422 0)"/>
      <use xlink:href="#DejaVuSans-77" transform="translate(128.511719 0)"/>
      <use xlink:href="#DejaVuSans-20" transform="translate(210.298828 0)"/>
      <use xlink:href="#DejaVuSans-44" transform="translate(242.085938 0)"/>
      <use xlink:href="#DejaVuSans-61" transform="translate(319.087891 0)"/>
      <use xlink:href="#DejaVuSans-74" transform="translate(380.367188 0)"/>
      <use xlink:href="#DejaVuSans-61" transform="translate(419.576172 0)"/>
     </g>
    </g>
    <g id="line2d_19">
     <path d="M 220.826562 231.460312 
L 230.826562 231.460312 
L 240.826562 231.460312 
" style="fill: none; stroke: #dc143c; stroke-width: 2; stroke-linecap: square"/>
    </g>
    <g id="text_20">
     <!-- Smoothed (window=11, poly=2) -->
     <g transform="translate(248.826562 234.960312) scale(0.1 -0.1)">
      <defs>
       <path id="DejaVuSans-53" d="M 3425 4513 
L 3425 3897 
Q 3066 4069 2747 4153 
Q 2428 4238 2131 4238 
Q 1616 4238 1336 4038 
Q 1056 3838 1056 3469 
Q 1056 3159 1242 3001 
Q 1428 2844 1947 2747 
L 2328 2669 
Q 3034 2534 3370 2195 
Q 3706 1856 3706 1288 
Q 3706 609 3251 259 
Q 2797 -91 1919 -91 
Q 1588 -91 1214 -16 
Q 841 59 441 206 
L 441 856 
Q 825 641 1194 531 
Q 1563 422 1919 422 
Q 2459 422 2753 634 
Q 3047 847 3047 1241 
Q 3047 1584 2836 1778 
Q 2625 1972 2144 2069 
L 1759 2144 
Q 1053 2284 737 2584 
Q 422 2884 422 3419 
Q 422 4038 858 4394 
Q 1294 4750 2059 4750 
Q 2388 4750 2728 4690 
Q 3069 4631 3425 4513 
z
" transform="scale(0.015625)"/>
       <path id="DejaVuSans-6d" d="M 3328 2828 
Q 3544 3216 3844 3400 
Q 4144 3584 4550 3584 
Q 5097 3584 5394 3201 
Q 5691 2819 5691 2113 
L 5691 0 
L 5113 0 
L 5113 2094 
Q 5113 2597 4934 2840 
Q 4756 3084 4391 3084 
Q 3944 3084 3684 2787 
Q 3425 2491 3425 1978 
L 3425 0 
L 2847 0 
L 2847 2094 
Q 2847 2600 2669 2842 
Q 2491 3084 2119 3084 
Q 1678 3084 1418 2786 
Q 1159 2488 1159 1978 
L 1159 0 
L 581 0 
L 581 3500 
L 1159 3500 
L 1159 2956 
Q 1356 3278 1631 3431 
Q 1906 3584 2284 3584 
Q 2666 3584 2933 3390 
Q 3200 3197 3328 2828 
z
" transform="scale(0.015625)"/>
       <path id="DejaVuSans-6f" d="M 1959 3097 
Q 1497 3097 1228 2736 
Q 959 2375 959 1747 
Q 959 1119 1226 758 
Q 1494 397 1959 397 
Q 2419 397 2687 759 
Q 2956 1122 2956 1747 
Q 2956 2369 2687 2733 
Q 2419 3097 1959 3097 
z
M 1959 3584 
Q 2709 3584 3137 3096 
Q 3566 2609 3566 1747 
Q 3566 888 3137 398 
Q 2709 -91 1959 -91 
Q 1206 -91 779 398 
Q 353 888 353 1747 
Q 353 2609 779 3096 
Q 1206 3584 1959 3584 
z
" transform="scale(0.015625)"/>
       <path id="DejaVuSans-68" d="M 3513 2113 
L 3513 0 
L 2938 0 
L 2938 2094 
Q 2938 2591 2744 2837 
Q 2550 3084 2163 3084 
Q 1697 3084 1428 2787 
Q 1159 2491 1159 1978 
L 1159 0 
L 581 0 
L 581 4863 
L 1159 4863 
L 1159 2956 
Q 1366 3272 1645 3428 
Q 1925 3584 2291 3584 
Q 2894 3584 3203 3211 
Q 3513 2838 3513 2113 
z
" transform="scale(0.015625)"/>
       <path id="DejaVuSans-65" d="M 3597 1894 
L 3597 1613 
L 953 1613 
Q 991 1019 1311 708 
Q 1631 397 2203 397 
Q 2534 397 2845 478 
Q 3156 559 3463 722 
L 3463 178 
Q 3153 47 2828 -22 
Q 2503 -91 2169 -91 
Q 1331 -91 842 396 
Q 353 884 353 1716 
Q 353 2575 817 3079 
Q 1281 3584 2069 3584 
Q 2775 3584 3186 3129 
Q 3597 2675 3597 1894 
z
M 3022 2063 
Q 3016 2534 2758 2815 
Q 2500 3097 2075 3097 
Q 1594 3097 1305 2825 
Q 1016 2553 972 2059 
L 3022 2063 
z
" transform="scale(0.015625)"/>
       <path id="DejaVuSans-69" d="M 603 3500 
L 1178 3500 
L 1178 0 
L 603 0 
L 603 3500 
z
M 603 4863 
L 1178 4863 
L 1178 4134 
L 603 4134 
L 603 4863 
z
" transform="scale(0.015625)"/>
       <path id="DejaVuSans-6e" d="M 3513 2113 
L 3513 0 
L 2938 0 
L 2938 2094 
Q 2938 2591 2744 2837 
Q 2550 3084 2163 3084 
Q 1697 3084 1428 2787 
Q 1159 2491 1159 1978 
L 1159 0 
L 581 0 
L 581 3500 
L 1159 3500 
L 1159 2956 
Q 1366 3272 1645 3428 
Q 1925 3584 2291 3584 
Q 2894 3584 3203 3211 
Q 3513 2838 3513 2113 
z
" transform="scale(0.015625)"/>
       <path id="DejaVuSans-70" d="M 1159 525 
L 1159 -1331 
L 581 -1331 
L 581 3500 
L 1159 3500 
L 1159 2969 
Q 1341 3281 1617 3432 
Q 1894 3584 2278 3584 
Q 2916 3584 3314 3078 
Q 3713 2572 3713 1747 
Q 3713 922 3314 415 
Q 2916 -91 2278 -91 
Q 1894 -91 1617 61 
Q 1341 213 1159 525 
z
M 3116 1747 
Q 3116 2381 2855 2742 
Q 2594 3103 2138 3103 
Q 1681 3103 1420 2742 
Q 1159 2381 1159 1747 
Q 1159 1113 1420 752 
Q 1681 391 2138 391 
Q 2594 391 2855 752 
Q 3116 1113 3116 1747 
z
" transform="scale(0.015625)"/>
       <path id="DejaVuSans-6c" d="M 603 4863 
L 1178 4863 
L 1178 0 
L 603 0 
L 603 4863 
z
" transform="scale(0.015625)"/>
       <path id="DejaVuSans-79" d="M 2059 -325 
Q 1816 -950 1584 -1140 
Q 1353 -1331 966 -1331 
L 506 -1331 
L 506 -850 
L 844 -850 
Q 1081 -850 1212 -737 
Q 1344 -625 1503 -206 
L 1606 56 
L 191 3500 
L 800 3500 
L 1894 763 
L 2988 3500 
L 3597 3500 
L 2059 -325 
z
" transform="scale(0.015625)"/>
      </defs>
      <use xlink:href="#DejaVuSans-53"/>
      <use xlink:href="#DejaVuSans-6d" transform="translate(63.476562 0)"/>
      <use xlink:href="#DejaVuSans-6f" transform="translate(160.888672 0)"/>
      <use xlink:href="#DejaVuSans-6f" transform="translate(222.070312 0)"/>
      <use xlink:href="#DejaVuSans-74" transform="translate(283.251953 0)"/>
      <use xlink:href="#DejaVuSans-68" transform="translate(322.460938 0)"/>
      <use xlink:href="#DejaVuSans-65" transform="translate(385.839844 0)"/>
      <use xlink:href="#DejaVuSans-64" transform="translate(447.363281 0)"/>
      <use xlink:href="#DejaVuSans-20" transform="translate(510.839844 0)"/>
      <use xlink:href="#DejaVuSans-28" transform="translate(542.626953 0)"/>
      <use xlink:href="#DejaVuSans-77" transform="translate(581.640625 0)"/>
      <use xlink:href="#DejaVuSans-69" transform="translate(663.427734 0)"/>
      <use xlink:href="#DejaVuSans-6e" transform="translate(691.210938 0)"/>
      <use xlink:href="#DejaVuSans-64" transform="translate(754.589844 0)"/>
      <use xlink:href="#DejaVuSans-6f" transform="translate(818.066406 0)"/>
      <use xlink:href="#DejaVuSans-77" transform="translate(879.248047 0)"/>
      <use xlink:href="#DejaVuSans-3d" transform="translate(961.035156 0)"/>
      <use xlink:href="#DejaVuSans-31" transform="translate(1044.824219 0)"/>
      <use xlink:href="#DejaVuSans-31" transform="translate(1108.447266 0)"/>
      <use xlink:href="#DejaVuSans-2c" transform="translate(1172.070312 0)"/>
      <use xlink:href="#DejaVuSans-20" transform="translate(1203.857422 0)"/>
      <use xlink:href="#DejaVuSans-70" transform="translate(1235.644531 0)"/>
      <use xlink:href="#DejaVuSans-6f" transform="translate(1299.121094 0)"/>
      <use xlink:href="#DejaVuSans-6c" transform="translate(1360.302734 0)"/>
      <use xlink:href="#DejaVuSans-79" transform="translate(1388.085938 0)"/>
      <use xlink:href="#DejaVuSans-3d" transform="translate(1447.265625 0)"/>
      <use xlink:href="#DejaVuSans-32" transform="translate(1531.054688 0)"/>
      <use xlink:href="#DejaVuSans-29" transform="translate(1594.677734 0)"/>
     </g>
    </g>
   </g>
  </g>
 </g>
 <defs>
  <clipPath id="p54baa6c99c">
   <rect x="56.09" y="26.88" width="365.11" height="219.16"/>
  </clipPath>
 </defs>
</svg>
