<?xml version="1.0" encoding="utf-8" standalone="no"?>
<!DOCTYPE svg PUBLIC "-//W3C//DTD SVG 1.1//EN"
  "http://www.w3.org/Graphics/SVG/1.1/DTD/svg11.dtd">
<svg xmlns:xlink="http://www.w3.org/1999/xlink" width="504pt" height="288pt" viewBox="0 0 504 288" xmlns="http://www.w3.org/2000/svg" version="1.1">
 <metadata>
  <rdf:RDF xmlns:dc="http://purl.org/dc/elements/1.1/" xmlns:cc="http://creativecommons.org/ns#" xmlns:rdf="http://www.w3.org/1999/02/22-rdf-syntax-ns#">
   <cc:Work>
    <dc:type rdf:resource="http://purl.org/dc/dcmitype/StillImage"/>
    <dc:date>2025-10-06T17:42:40.404877</dc:date>
    <dc:format>image/svg+xml</dc:format>
    <dc:creator>
     <cc:Agent>
      <dc:title>Matplotlib v3.10.6, https://matplotlib.org/</dc:title>
     </cc:Agent>
    </dc:creator>
   </cc:Work>
  </rdf:RDF>
 </metadata>
 <defs>
  <style type="text/css">*{stroke-linejoin: round; stroke-linecap: butt}</style>
 </defs>
 <g id="figure_1">
  <g id="patch_1">
   <path d="M 0 288 
L 504 288 
L 504 0 
L 0 0 
z
" style="fill: #ffffff"/>
  </g>
  <g id="axes_1">
   <g id="patch_2">
    <path d="M 58.844 234.736 
L 489.096 234.736 
L 489.096 67.56 
L 58.844 67.56 
z
" style="fill: #ffffff"/>
   </g>
   <g id="matplotlib.axis_1">
    <g id="xtick_1">
     <g id="line2d_1">
      <defs>
       <path id="m60dc151922" d="M 0 0 
L 0 3.5 
" style="stroke: #000000; stroke-width: 0.8"/>
      </defs>
      <g>
       <use xlink:href="#m60dc151922" x="97.261177" y="234.736" style="stroke: #000000; stroke-width: 0.8"/>
      </g>
     </g>
     <g id="text_1">
      <!-- 152.5 -->
      <g transform="translate(79.153888 251.348023) scale(0.1265 -0.1265)">
       <defs>
        <path id="DejaVuSans-31" d="M 794 531 
L 1825 531 
L 1825 4091 
L 703 3866 
L 703 4441 
L 1819 4666 
L 2450 4666 
L 2450 531 
L 3481 531 
L 3481 0 
L 794 0 
L 794 531 
z
" transform="scale(0.015625)"/>
        <path id="DejaVuSans-35" d="M 691 4666 
L 3169 4666 
L 3169 4134 
L 1269 4134 
L 1269 2991 
Q 1406 3038 1543 3061 
Q 1681 3084 1819 3084 
Q 2600 3084 3056 2656 
Q 3513 2228 3513 1497 
Q 3513 744 3044 326 
Q 2575 -91 1722 -91 
Q 1428 -91 1123 -41 
Q 819 9 494 109 
L 494 744 
Q 775 591 1075 516 
Q 1375 441 1709 441 
Q 2250 441 2565 725 
Q 2881 1009 2881 1497 
Q 2881 1984 2565 2268 
Q 2250 2553 1709 2553 
Q 1456 2553 1204 2497 
Q 953 2441 691 2322 
L 691 4666 
z
" transform="scale(0.015625)"/>
        <path id="DejaVuSans-32" d="M 1228 531 
L 3431 531 
L 3431 0 
L 469 0 
L 469 531 
Q 828 903 1448 1529 
Q 2069 2156 2228 2338 
Q 2531 2678 2651 2914 
Q 2772 3150 2772 3378 
Q 2772 3750 2511 3984 
Q 2250 4219 1831 4219 
Q 1534 4219 1204 4116 
Q 875 4013 500 3803 
L 500 4441 
Q 881 4594 1212 4672 
Q 1544 4750 1819 4750 
Q 2544 4750 2975 4387 
Q 3406 4025 3406 3419 
Q 3406 3131 3298 2873 
Q 3191 2616 2906 2266 
Q 2828 2175 2409 1742 
Q 1991 1309 1228 531 
z
" transform="scale(0.015625)"/>
        <path id="DejaVuSans-2e" d="M 684 794 
L 1344 794 
L 1344 0 
L 684 0 
L 684 794 
z
" transform="scale(0.015625)"/>
       </defs>
       <use xlink:href="#DejaVuSans-31"/>
       <use xlink:href="#DejaVuSans-35" transform="translate(63.623047 0)"/>
       <use xlink:href="#DejaVuSans-32" transform="translate(127.246094 0)"/>
       <use xlink:href="#DejaVuSans-2e" transform="translate(190.869141 0)"/>
       <use xlink:href="#DejaVuSans-35" transform="translate(222.65625 0)"/>
      </g>
     </g>
    </g>
    <g id="xtick_2">
     <g id="line2d_2">
      <g>
       <use xlink:href="#m60dc151922" x="153.914135" y="234.736" style="stroke: #000000; stroke-width: 0.8"/>
      </g>
     </g>
     <g id="text_2">
      <!-- 155.0 -->
      <g transform="translate(135.806846 251.348023) scale(0.1265 -0.1265)">
       <defs>
        <path id="DejaVuSans-30" d="M 2034 4250 
Q 1547 4250 1301 3770 
Q 1056 3291 1056 2328 
Q 1056 1369 1301 889 
Q 1547 409 2034 409 
Q 2525 409 2770 889 
Q 3016 1369 3016 2328 
Q 3016 3291 2770 3770 
Q 2525 4250 2034 4250 
z
M 2034 4750 
Q 2819 4750 3233 4129 
Q 3647 3509 3647 2328 
Q 3647 1150 3233 529 
Q 2819 -91 2034 -91 
Q 1250 -91 836 529 
Q 422 1150 422 2328 
Q 422 3509 836 4129 
Q 1250 4750 2034 4750 
z
" transform="scale(0.015625)"/>
       </defs>
       <use xlink:href="#DejaVuSans-31"/>
       <use xlink:href="#DejaVuSans-35" transform="translate(63.623047 0)"/>
       <use xlink:href="#DejaVuSans-35" transform="translate(127.246094 0)"/>
       <use xlink:href="#DejaVuSans-2e" transform="translate(190.869141 0)"/>
       <use xlink:href="#DejaVuSans-30" transform="translate(222.65625 0)"/>
      </g>
     </g>
    </g>
    <g id="xtick_3">
     <g id="line2d_3">
      <g>
       <use xlink:href="#m60dc151922" x="210.567092" y="234.736" style="stroke: #000000; stroke-width: 0.8"/>
      </g>
     </g>
     <g id="text_3">
      <!-- 157.5 -->
      <g transform="translate(192.459803 251.348023) scale(0.1265 -0.1265)">
       <defs>
        <path id="DejaVuSans-37" d="M 525 4666 
L 3525 4666 
L 3525 4397 
L 1831 0 
L 1172 0 
L 2766 4134 
L 525 4134 
L 525 4666 
z
" transform="scale(0.015625)"/>
       </defs>
       <use xlink:href="#DejaVuSans-31"/>
       <use xlink:href="#DejaVuSans-35" transform="translate(63.623047 0)"/>
       <use xlink:href="#DejaVuSans-37" transform="translate(127.246094 0)"/>
       <use xlink:href="#DejaVuSans-2e" transform="translate(190.869141 0)"/>
       <use xlink:href="#DejaVuSans-35" transform="translate(222.65625 0)"/>
      </g>
     </g>
    </g>
    <g id="xtick_4">
     <g id="line2d_4">
      <g>
       <use xlink:href="#m60dc151922" x="267.220049" y="234.736" style="stroke: #000000; stroke-width: 0.8"/>
      </g>
     </g>
     <g id="text_4">
      <!-- 160.0 -->
      <g transform="translate(249.11276 251.348023) scale(0.1265 -0.1265)">
       <defs>
        <path id="DejaVuSans-36" d="M 2113 2584 
Q 1688 2584 1439 2293 
Q 1191 2003 1191 1497 
Q 1191 994 1439 701 
Q 1688 409 2113 409 
Q 2538 409 2786 701 
Q 3034 994 3034 1497 
Q 3034 2003 2786 2293 
Q 2538 2584 2113 2584 
z
M 3366 4563 
L 3366 3988 
Q 3128 4100 2886 4159 
Q 2644 4219 2406 4219 
Q 1781 4219 1451 3797 
Q 1122 3375 1075 2522 
Q 1259 2794 1537 2939 
Q 1816 3084 2150 3084 
Q 2853 3084 3261 2657 
Q 3669 2231 3669 1497 
Q 3669 778 3244 343 
Q 2819 -91 2113 -91 
Q 1303 -91 875 529 
Q 447 1150 447 2328 
Q 447 3434 972 4092 
Q 1497 4750 2381 4750 
Q 2619 4750 2861 4703 
Q 3103 4656 3366 4563 
z
" transform="scale(0.015625)"/>
       </defs>
       <use xlink:href="#DejaVuSans-31"/>
       <use xlink:href="#DejaVuSans-36" transform="translate(63.623047 0)"/>
       <use xlink:href="#DejaVuSans-30" transform="translate(127.246094 0)"/>
       <use xlink:href="#DejaVuSans-2e" transform="translate(190.869141 0)"/>
       <use xlink:href="#DejaVuSans-30" transform="translate(222.65625 0)"/>
      </g>
     </g>
    </g>
    <g id="xtick_5">
     <g id="line2d_5">
      <g>
       <use xlink:href="#m60dc151922" x="323.873007" y="234.736" style="stroke: #000000; stroke-width: 0.8"/>
      </g>
     </g>
     <g id="text_5">
      <!-- 162.5 -->
      <g transform="translate(305.765718 251.348023) scale(0.1265 -0.1265)">
       <use xlink:href="#DejaVuSans-31"/>
       <use xlink:href="#DejaVuSans-36" transform="translate(63.623047 0)"/>
       <use xlink:href="#DejaVuSans-32" transform="translate(127.246094 0)"/>
       <use xlink:href="#DejaVuSans-2e" transform="translate(190.869141 0)"/>
       <use xlink:href="#DejaVuSans-35" transform="translate(222.65625 0)"/>
      </g>
     </g>
    </g>
    <g id="xtick_6">
     <g id="line2d_6">
      <g>
       <use xlink:href="#m60dc151922" x="380.525964" y="234.736" style="stroke: #000000; stroke-width: 0.8"/>
      </g>
     </g>
     <g id="text_6">
      <!-- 165.0 -->
      <g transform="translate(362.418675 251.348023) scale(0.1265 -0.1265)">
       <use xlink:href="#DejaVuSans-31"/>
       <use xlink:href="#DejaVuSans-36" transform="translate(63.623047 0)"/>
       <use xlink:href="#DejaVuSans-35" transform="translate(127.246094 0)"/>
       <use xlink:href="#DejaVuSans-2e" transform="translate(190.869141 0)"/>
       <use xlink:href="#DejaVuSans-30" transform="translate(222.65625 0)"/>
      </g>
     </g>
    </g>
    <g id="xtick_7">
     <g id="line2d_7">
      <g>
       <use xlink:href="#m60dc151922" x="437.178922" y="234.736" style="stroke: #000000; stroke-width: 0.8"/>
      </g>
     </g>
     <g id="text_7">
      <!-- 167.5 -->
      <g transform="translate(419.071633 251.348023) scale(0.1265 -0.1265)">
       <use xlink:href="#DejaVuSans-31"/>
       <use xlink:href="#DejaVuSans-36" transform="translate(63.623047 0)"/>
       <use xlink:href="#DejaVuSans-37" transform="translate(127.246094 0)"/>
       <use xlink:href="#DejaVuSans-2e" transform="translate(190.869141 0)"/>
       <use xlink:href="#DejaVuSans-35" transform="translate(222.65625 0)"/>
      </g>
     </g>
    </g>
    <g id="text_8">
     <!-- H (T) -->
     <g transform="translate(255.574492 269.338492) scale(0.1495 -0.1495)">
      <defs>
       <path id="DejaVuSans-48" d="M 628 4666 
L 1259 4666 
L 1259 2753 
L 3553 2753 
L 3553 4666 
L 4184 4666 
L 4184 0 
L 3553 0 
L 3553 2222 
L 1259 2222 
L 1259 0 
L 628 0 
L 628 4666 
z
" transform="scale(0.015625)"/>
       <path id="DejaVuSans-20" transform="scale(0.015625)"/>
       <path id="DejaVuSans-28" d="M 1984 4856 
Q 1566 4138 1362 3434 
Q 1159 2731 1159 2009 
Q 1159 1288 1364 580 
Q 1569 -128 1984 -844 
L 1484 -844 
Q 1016 -109 783 600 
Q 550 1309 550 2009 
Q 550 2706 781 3412 
Q 1013 4119 1484 4856 
L 1984 4856 
z
" transform="scale(0.015625)"/>
       <path id="DejaVuSans-54" d="M -19 4666 
L 3928 4666 
L 3928 4134 
L 2272 4134 
L 2272 0 
L 1638 0 
L 1638 4134 
L -19 4134 
L -19 4666 
z
" transform="scale(0.015625)"/>
       <path id="DejaVuSans-29" d="M 513 4856 
L 1013 4856 
Q 1481 4119 1714 3412 
Q 1947 2706 1947 2009 
Q 1947 1309 1714 600 
Q 1481 -109 1013 -844 
L 513 -844 
Q 928 -128 1133 580 
Q 1338 1288 1338 2009 
Q 1338 2731 1133 3434 
Q 928 4138 513 4856 
z
" transform="scale(0.015625)"/>
      </defs>
      <use xlink:href="#DejaVuSans-48"/>
      <use xlink:href="#DejaVuSans-20" transform="translate(75.195312 0)"/>
      <use xlink:href="#DejaVuSans-28" transform="translate(106.982422 0)"/>
      <use xlink:href="#DejaVuSans-54" transform="translate(145.996094 0)"/>
      <use xlink:href="#DejaVuSans-29" transform="translate(207.080078 0)"/>
     </g>
    </g>
   </g>
   <g id="matplotlib.axis_2">
    <g id="ytick_1">
     <g id="line2d_8">
      <defs>
       <path id="meeec9438f7" d="M 0 0 
L -3.5 0 
" style="stroke: #000000; stroke-width: 0.8"/>
      </defs>
      <g>
       <use xlink:href="#meeec9438f7" x="58.844" y="218.087238" style="stroke: #000000; stroke-width: 0.8"/>
      </g>
     </g>
     <g id="text_9">
      <!-- −2 -->
      <g transform="translate(33.195133 222.89325) scale(0.1265 -0.1265)">
       <defs>
        <path id="DejaVuSans-2212" d="M 678 2272 
L 4684 2272 
L 4684 1741 
L 678 1741 
L 678 2272 
z
" transform="scale(0.015625)"/>
       </defs>
       <use xlink:href="#DejaVuSans-2212"/>
       <use xlink:href="#DejaVuSans-32" transform="translate(83.789062 0)"/>
      </g>
     </g>
    </g>
    <g id="ytick_2">
     <g id="line2d_9">
      <g>
       <use xlink:href="#meeec9438f7" x="58.844" y="169.693725" style="stroke: #000000; stroke-width: 0.8"/>
      </g>
     </g>
     <g id="text_10">
      <!-- 0 -->
      <g transform="translate(43.795438 174.499737) scale(0.1265 -0.1265)">
       <use xlink:href="#DejaVuSans-30"/>
      </g>
     </g>
    </g>
    <g id="ytick_3">
     <g id="line2d_10">
      <g>
       <use xlink:href="#meeec9438f7" x="58.844" y="121.300212" style="stroke: #000000; stroke-width: 0.8"/>
      </g>
     </g>
     <g id="text_11">
      <!-- 2 -->
      <g transform="translate(43.795438 126.106224) scale(0.1265 -0.1265)">
       <use xlink:href="#DejaVuSans-32"/>
      </g>
     </g>
    </g>
    <g id="ytick_4">
     <g id="line2d_11">
      <g>
       <use xlink:href="#meeec9438f7" x="58.844" y="72.906699" style="stroke: #000000; stroke-width: 0.8"/>
      </g>
     </g>
     <g id="text_12">
      <!-- 4 -->
      <g transform="translate(43.795438 77.712711) scale(0.1265 -0.1265)">
       <defs>
        <path id="DejaVuSans-34" d="M 2419 4116 
L 825 1625 
L 2419 1625 
L 2419 4116 
z
M 2253 4666 
L 3047 4666 
L 3047 1625 
L 3713 1625 
L 3713 1100 
L 3047 1100 
L 3047 0 
L 2419 0 
L 2419 1100 
L 313 1100 
L 313 1709 
L 2253 4666 
z
" transform="scale(0.015625)"/>
       </defs>
       <use xlink:href="#DejaVuSans-34"/>
      </g>
     </g>
    </g>
    <g id="text_13">
     <!-- dP/dH -->
     <g transform="translate(26.086 173.28568) rotate(-90) scale(0.1495 -0.1495)">
      <defs>
       <path id="DejaVuSans-64" d="M 2906 2969 
L 2906 4863 
L 3481 4863 
L 3481 0 
L 2906 0 
L 2906 525 
Q 2725 213 2448 61 
Q 2172 -91 1784 -91 
Q 1150 -91 751 415 
Q 353 922 353 1747 
Q 353 2572 751 3078 
Q 1150 3584 1784 3584 
Q 2172 3584 2448 3432 
Q 2725 3281 2906 2969 
z
M 947 1747 
Q 947 1113 1208 752 
Q 1469 391 1925 391 
Q 2381 391 2643 752 
Q 2906 1113 2906 1747 
Q 2906 2381 2643 2742 
Q 2381 3103 1925 3103 
Q 1469 3103 1208 2742 
Q 947 2381 947 1747 
z
" transform="scale(0.015625)"/>
       <path id="DejaVuSans-50" d="M 1259 4147 
L 1259 2394 
L 2053 2394 
Q 2494 2394 2734 2622 
Q 2975 2850 2975 3272 
Q 2975 3691 2734 3919 
Q 2494 4147 2053 4147 
L 1259 4147 
z
M 628 4666 
L 2053 4666 
Q 2838 4666 3239 4311 
Q 3641 3956 3641 3272 
Q 3641 2581 3239 2228 
Q 2838 1875 2053 1875 
L 1259 1875 
L 1259 0 
L 628 0 
L 628 4666 
z
" transform="scale(0.015625)"/>
       <path id="DejaVuSans-2f" d="M 1625 4666 
L 2156 4666 
L 531 -594 
L 0 -594 
L 1625 4666 
z
" transform="scale(0.015625)"/>
      </defs>
      <use xlink:href="#DejaVuSans-64"/>
      <use xlink:href="#DejaVuSans-50" transform="translate(63.476562 0)"/>
      <use xlink:href="#DejaVuSans-2f" transform="translate(123.779297 0)"/>
      <use xlink:href="#DejaVuSans-64" transform="translate(157.470703 0)"/>
      <use xlink:href="#DejaVuSans-48" transform="translate(220.947266 0)"/>
     </g>
    </g>
   </g>
   <g id="line2d_12">
    <path d="M 78.400909 170.533909 
L 78.400909 170.541724 
L 78.400909 170.315582 
L 81.319851 168.662483 
L 81.319851 169.824339 
L 84.238792 170.775659 
L 84.238792 169.543608 
L 84.238792 170.323373 
L 87.157734 168.444132 
L 87.157734 169.941306 
L 87.157734 169.411058 
L 90.076676 169.395452 
L 90.076676 166.268577 
L 90.076676 170.760052 
L 92.995617 169.949098 
L 92.995617 174.713487 
L 95.914559 170.986195 
L 95.914559 171.532025 
L 95.914559 169.707372 
L 98.833501 169.239503 
L 98.833501 170.931607 
L 98.833501 170.47153 
L 101.752442 168.514327 
L 101.752442 171.22792 
L 101.752442 170.455947 
L 104.671384 171.118745 
L 104.671384 169.839922 
L 107.590326 170.565099 
L 107.590326 169.496836 
L 107.590326 170.619686 
L 107.590326 169.988078 
L 110.509267 170.245411 
L 110.509267 168.358354 
L 113.428209 169.730746 
L 113.428209 169.411058 
L 113.428209 170.214221 
L 116.347151 169.301883 
L 116.347151 170.916 
L 116.347151 169.567007 
L 119.266092 169.96468 
L 119.266092 173.933723 
L 119.266092 170.611895 
L 122.185034 170.260994 
L 122.185034 171.009569 
L 122.185034 169.824339 
L 125.103976 169.021176 
L 125.103976 171.781542 
L 128.022917 168.319373 
L 128.022917 166.128212 
L 128.022917 169.886718 
L 128.022917 168.748237 
L 130.941859 170.042666 
L 130.941859 169.660575 
L 130.941859 170.666483 
L 133.860801 171.438456 
L 133.860801 169.629386 
L 133.860801 170.541724 
L 136.779742 170.331189 
L 136.779742 171.812732 
L 136.779742 170.533909 
L 139.698684 172.600312 
L 139.698684 169.855529 
L 139.698684 173.177332 
L 142.617626 172.405359 
L 142.617626 172.187031 
L 142.617626 173.278716 
L 142.617626 172.21043 
L 145.536567 173.497044 
L 145.536567 175.150142 
L 145.536567 173.083763 
L 148.455509 173.029175 
L 148.455509 174.440572 
L 148.455509 172.693881 
L 151.37445 176.015684 
L 151.37445 173.598404 
L 151.37445 176.959212 
L 154.293392 175.337304 
L 154.293392 176.397775 
L 154.293392 175.118952 
L 154.293392 175.579029 
L 157.212334 177.294507 
L 157.212334 175.048782 
L 157.212334 175.610219 
L 160.131275 173.458063 
L 160.131275 173.489252 
L 160.131275 176.662899 
L 163.050217 172.530117 
L 163.050217 173.512626 
L 163.050217 172.545724 
L 165.969159 172.405359 
L 165.969159 172.2806 
L 165.969159 173.754376 
L 168.8881 171.352679 
L 168.8881 171.430665 
L 168.8881 171.672391 
L 168.8881 171.454039 
L 171.807042 171.22792 
L 171.807042 173.67639 
L 171.807042 168.685857 
L 174.725984 171.890718 
L 174.725984 170.416942 
L 174.725984 171.048574 
L 177.644925 170.713255 
L 177.644925 170.393568 
L 177.644925 171.687973 
L 177.644925 170.791241 
L 180.563867 171.173332 
L 180.563867 170.806848 
L 180.563867 171.352679 
L 180.563867 171.017384 
L 183.482809 170.565099 
L 183.482809 171.625594 
L 183.482809 169.988078 
L 183.482809 170.845829 
L 186.40175 172.366378 
L 186.40175 170.315582 
L 186.40175 171.493044 
L 189.320692 174.994194 
L 189.320692 172.007685 
L 192.239634 176.0235 
L 192.239634 176.662899 
L 192.239634 174.736861 
L 195.158575 176.896833 
L 195.158575 176.015684 
L 195.158575 179.930139 
L 198.077517 182.674922 
L 198.077517 179.618218 
L 198.077517 182.199262 
L 200.996459 190.176255 
L 200.996459 185.497667 
L 200.996459 187.93053 
L 203.9154 194.581952 
L 203.9154 197.654214 
L 203.9154 191.852752 
L 203.9154 197.45147 
L 206.834342 202.847443 
L 206.834342 204.999599 
L 206.834342 200.648514 
L 206.834342 202.363992 
L 209.753284 196.804279 
L 209.753284 201.825953 
L 212.672225 190.34781 
L 212.672225 196.461169 
L 212.672225 192.827469 
L 215.591167 188.967627 
L 215.591167 182.854268 
L 218.510109 178.721486 
L 218.510109 181.411682 
L 218.510109 179.719603 
L 221.42905 178.464154 
L 221.42905 178.581121 
L 221.42905 177.169748 
L 224.347992 183.485876 
L 224.347992 179.056781 
L 224.347992 181.801564 
L 227.266934 193.71641 
L 227.266934 184.546347 
L 227.266934 194.129691 
L 230.185875 210.559312 
L 230.185875 198.636724 
L 230.185875 202.855259 
L 233.104817 223.994634 
L 233.104817 214.996175 
L 233.104817 217.639574 
L 236.023758 225.133091 
L 236.023758 222.94977 
L 236.023758 227.137091 
L 238.9427 219.651365 
L 238.9427 216.150215 
L 238.9427 224.696437 
L 238.9427 222.591077 
L 241.861642 196.851051 
L 241.861642 186.636124 
L 241.861642 210.185037 
L 241.861642 204.430371 
L 244.780583 164.436109 
L 244.780583 174.658899 
L 244.780583 139.02332 
L 244.780583 150.189687 
L 247.699525 126.422109 
L 247.699525 96.267893 
L 247.699525 115.762518 
L 250.618467 81.03076 
L 250.618467 75.158909 
L 250.618467 87.775969 
L 253.537408 76.453387 
L 253.537408 87.331499 
L 253.537408 80.562892 
L 256.45635 97.882035 
L 256.45635 119.26374 
L 256.45635 104.447849 
L 259.375292 131.935146 
L 259.375292 126.336331 
L 259.375292 143.413458 
L 262.294233 151.554288 
L 262.294233 153.987175 
L 262.294233 144.840438 
L 265.213175 157.496164 
L 265.213175 158.993314 
L 265.213175 154.883931 
L 268.132117 160.677626 
L 268.132117 163.39122 
L 268.132117 160.334516 
L 271.051058 163.492604 
L 271.051058 163.710932 
L 271.051058 162.003246 
L 273.97 165.091115 
L 273.97 162.135795 
L 273.97 164.896186 
L 276.888942 167.07174 
L 276.888942 167.032759 
L 276.888942 165.340656 
L 279.807883 159.929051 
L 279.807883 167.375845 
L 279.807883 166.541493 
L 282.726825 167.656576 
L 282.726825 169.426641 
L 282.726825 167.539609 
L 285.645767 167.750145 
L 285.645767 163.671951 
L 285.645767 168.576706 
L 288.564708 167.750145 
L 288.564708 168.12442 
L 288.564708 167.44604 
L 291.48365 168.771635 
L 291.48365 168.732654 
L 291.48365 168.327165 
L 294.402592 164.888394 
L 294.402592 168.989986 
L 294.402592 168.678066 
L 297.321533 168.763844 
L 297.321533 169.559215 
L 297.321533 168.740445 
L 297.321533 168.982171 
L 300.240475 170.245411 
L 300.240475 167.796917 
L 300.240475 169.902301 
L 303.159417 169.395452 
L 303.159417 167.344655 
L 303.159417 170.003685 
L 306.078358 169.309674 
L 306.078358 172.982403 
L 306.078358 168.295975 
L 306.078358 169.761936 
L 308.9973 168.763844 
L 308.9973 170.705464 
L 311.916242 169.86332 
L 311.916242 165.886486 
L 311.916242 175.501043 
L 314.835183 169.457831 
L 314.835183 170.097254 
L 314.835183 169.86332 
L 317.754125 168.857412 
L 317.754125 170.502719 
L 317.754125 167.594197 
L 320.673066 170.222013 
L 320.673066 168.264786 
L 320.673066 170.33898 
L 323.592008 169.808732 
L 323.592008 170.416942 
L 323.592008 169.013361 
L 326.51095 170.011477 
L 326.51095 171.945306 
L 329.429891 170.40915 
L 329.429891 167.633178 
L 329.429891 169.746353 
L 332.348833 167.968472 
L 332.348833 170.003685 
L 332.348833 169.808732 
L 335.267775 169.481229 
L 335.267775 169.184916 
L 335.267775 171.80494 
L 335.267775 169.83213 
L 338.186716 174.495136 
L 338.186716 169.340864 
L 338.186716 169.676182 
L 341.105658 167.851505 
L 341.105658 170.643085 
L 341.105658 168.849621 
L 344.0246 169.886718 
L 344.0246 169.348679 
L 344.0246 170.81464 
L 346.943541 169.83213 
L 346.943541 168.451923 
L 346.943541 168.553308 
L 349.862483 170.572914 
L 349.862483 174.074064 
L 349.862483 169.590405 
L 349.862483 170.159634 
L 352.781425 169.871111 
L 352.781425 166.572682 
L 352.781425 170.533909 
L 355.700366 169.949098 
L 355.700366 165.075532 
L 355.700366 170.027059 
L 358.619308 168.888602 
L 358.619308 170.159634 
L 361.53825 170.432549 
L 361.53825 169.652784 
L 361.53825 170.541724 
L 364.457191 168.756052 
L 364.457191 170.931607 
L 367.376133 170.877019 
L 367.376133 166.401151 
L 367.376133 170.869228 
L 370.295075 170.066065 
L 370.295075 170.128444 
L 370.295075 170.908209 
L 370.295075 168.849621 
L 373.214016 168.896393 
L 373.214016 169.972496 
L 376.132958 171.095346 
L 376.132958 173.13056 
L 376.132958 169.89451 
L 379.0519 170.229804 
L 379.0519 168.919792 
L 379.0519 170.549516 
L 381.970841 170.214221 
L 381.970841 169.130328 
L 381.970841 170.019268 
L 384.889783 171.446248 
L 384.889783 169.878903 
L 384.889783 170.549516 
L 387.808725 170.370169 
L 387.808725 170.073856 
L 387.808725 172.467738 
L 390.727666 170.229804 
L 390.727666 172.038875 
L 390.727666 168.56889 
L 393.646608 170.229804 
L 393.646608 170.198614 
L 393.646608 168.12442 
L 393.646608 170.830222 
L 396.56555 170.354563 
L 396.56555 170.377961 
L 396.56555 169.052366 
L 399.484491 169.738562 
L 399.484491 169.270693 
L 399.484491 170.323373 
L 402.403433 168.950981 
L 402.403433 170.299999 
L 405.322374 170.058249 
L 405.322374 169.761936 
L 405.322374 170.33898 
L 405.322374 170.214221 
L 408.241316 175.329488 
L 408.241316 169.278484 
L 408.241316 169.598196 
L 411.160258 170.253202 
L 411.160258 170.88481 
L 411.160258 170.276601 
L 414.079199 169.96468 
L 414.079199 171.83613 
L 416.998141 169.824339 
L 416.998141 166.619479 
L 416.998141 171.118745 
L 419.917083 169.535817 
L 419.917083 170.728862 
L 419.917083 169.535817 
L 422.836024 169.956889 
L 422.836024 172.140235 
L 425.754966 170.416942 
L 425.754966 175.134559 
L 425.754966 169.707372 
L 428.673908 171.781542 
L 428.673908 169.200522 
L 431.592849 170.167425 
L 431.592849 168.896393 
L 431.592849 171.181124 
L 434.511791 170.346771 
L 434.511791 171.22792 
L 434.511791 168.748237 
L 437.430733 170.284392 
L 437.430733 171.968704 
L 437.430733 169.270693 
L 440.349674 164.085231 
L 440.349674 170.697673 
L 443.268616 171.36047 
L 443.268616 168.412942 
L 446.187558 171.064157 
L 446.187558 169.902301 
L 446.187558 171.976495 
L 449.106499 171.695765 
L 449.106499 170.416942 
L 452.025441 170.042666 
L 452.025441 171.368261 
L 452.025441 170.416942 
L 454.944383 170.565099 
L 454.944383 169.067948 
L 457.863324 170.955005 
L 457.863324 169.972496 
L 457.863324 170.385752 
L 460.782266 169.177124 
L 460.782266 170.666483 
L 460.782266 168.966588 
L 463.701208 170.128444 
L 463.701208 170.518326 
L 463.701208 170.299999 
L 466.620149 170.775659 
L 466.620149 170.370169 
L 466.620149 170.40915 
L 469.539091 170.385752 
L 469.539091 171.173332 
L 469.539091 171.173332 
" clip-path="url(#pe5c0eaaab5)" style="fill: none; stroke: #cc7000; stroke-opacity: 0.7; stroke-width: 1.4; stroke-linecap: square"/>
   </g>
   <g id="line2d_13">
    <path d="M 78.400909 170.533909 
L 81.319851 169.301883 
L 84.238792 170.159621 
L 87.157734 169.169321 
L 90.076676 169.871111 
L 92.995617 171.15383 
L 95.914559 170.99009 
L 98.833501 170.64698 
L 101.752442 170.019268 
L 104.671384 170.553424 
L 107.590326 170.276589 
L 110.509267 169.750261 
L 116.347151 169.70736 
L 119.266092 170.362366 
L 125.103976 170.066053 
L 128.022917 168.533805 
L 130.941859 170.030967 
L 133.860801 170.958901 
L 136.779742 170.853621 
L 139.698684 172.116849 
L 142.617626 172.307894 
L 145.536567 173.508743 
L 148.455509 173.637397 
L 151.37445 175.859736 
L 154.293392 175.458167 
L 157.212334 175.551735 
L 160.131275 173.691985 
L 163.050217 172.830338 
L 165.969159 172.865424 
L 168.8881 171.442352 
L 171.807042 170.674286 
L 177.644925 170.752248 
L 180.563867 171.095358 
L 183.482809 170.705464 
L 186.40175 171.426757 
L 189.320692 174.553631 
L 192.239634 175.859748 
L 195.158575 176.670702 
L 198.077517 181.602739 
L 203.9154 196.016711 
L 206.834342 202.605718 
L 209.753284 200.079286 
L 212.672225 193.774881 
L 215.591167 186.055209 
L 218.510109 180.164061 
L 221.42905 178.382284 
L 224.347992 180.507159 
L 230.185875 205.07369 
L 233.104817 218.82092 
L 236.023758 225.858268 
L 238.9427 221.121221 
L 241.861642 200.640711 
L 244.780583 157.312898 
L 247.699525 109.220127 
L 250.618467 79.560856 
L 253.537408 82.984152 
L 256.45635 107.414928 
L 259.375292 134.609783 
L 262.294233 150.07272 
L 265.213175 156.622819 
L 268.132117 161.067509 
L 271.051058 163.079324 
L 273.97 164.802617 
L 276.888942 166.677962 
L 279.807883 166.736434 
L 282.726825 167.633178 
L 285.645767 167.843714 
L 288.564708 167.750145 
L 291.48365 168.592289 
L 294.402592 168.132224 
L 297.321533 168.873007 
L 300.240475 169.496824 
L 308.9973 169.333072 
L 311.916242 170.288288 
L 317.754125 169.239503 
L 320.673066 169.995882 
L 323.592008 169.617687 
L 326.51095 170.354575 
L 332.348833 169.563111 
L 335.267775 169.65668 
L 338.186716 170.241515 
L 341.105658 169.106942 
L 344.0246 169.859424 
L 346.943541 169.075752 
L 349.862483 170.366274 
L 352.781425 169.21221 
L 355.700366 169.761948 
L 358.619308 169.290196 
L 361.53825 170.124536 
L 364.457191 170.350679 
L 367.376133 170.779554 
L 370.295075 170.097254 
L 373.214016 169.613803 
L 376.132958 170.674274 
L 379.0519 169.972484 
L 381.970841 169.750249 
L 384.889783 170.522222 
L 387.808725 170.249307 
L 393.646608 170.214209 
L 396.56555 170.089451 
L 399.484491 169.695673 
L 402.403433 170.034863 
L 408.241316 170.315582 
L 411.160258 170.518326 
L 414.079199 170.841922 
L 416.998141 169.54362 
L 419.917083 169.67617 
L 422.836024 171.56711 
L 425.754966 170.140131 
L 428.673908 170.397451 
L 431.592849 170.18302 
L 434.511791 170.272693 
L 437.430733 169.917896 
L 440.349674 169.266797 
L 443.268616 170.670379 
L 446.187558 170.533921 
L 449.106499 170.880927 
L 454.944383 170.030967 
L 457.863324 170.179124 
L 460.782266 169.687869 
L 463.701208 170.30779 
L 469.539091 170.596312 
L 469.539091 170.596312 
" clip-path="url(#pe5c0eaaab5)" style="fill: none; stroke: #2980b9; stroke-width: 2; stroke-linecap: square"/>
   </g>
   <g id="line2d_14">
    <path d="M 78.400909 170.418289 
L 110.509267 171.231223 
L 133.860801 172.033697 
L 151.37445 172.858706 
L 163.050217 173.594979 
L 171.807042 174.304553 
L 180.563867 175.220982 
L 186.40175 176.00061 
L 192.239634 176.976312 
L 198.077517 178.233255 
L 200.996459 179.007353 
L 203.9154 179.90977 
L 206.834342 180.973355 
L 209.753284 182.242105 
L 212.672225 183.775799 
L 215.591167 185.656763 
L 218.510109 187.999593 
L 221.42905 190.964366 
L 224.347992 194.771439 
L 227.266934 199.705376 
L 230.185875 206.054757 
L 236.023758 221.326087 
L 238.9427 222.170495 
L 241.861642 202.299025 
L 244.780583 156.592669 
L 247.699525 108.488607 
L 250.618467 80.661436 
L 253.537408 82.398169 
L 259.375292 133.823452 
L 262.294233 149.787919 
L 265.213175 158.001328 
L 268.132117 162.139264 
L 271.051058 164.303992 
L 273.97 165.506347 
L 276.888942 166.222753 
L 279.807883 166.68336 
L 285.645767 167.243276 
L 294.402592 167.739267 
L 311.916242 168.405372 
L 338.186716 169.156132 
L 376.132958 169.989434 
L 428.673908 170.890624 
L 469.539091 171.485743 
L 469.539091 171.485743 
" clip-path="url(#pe5c0eaaab5)" style="fill: none; stroke: #ffa500; stroke-width: 2.5; stroke-linecap: square"/>
   </g>
   <g id="patch_3">
    <path d="M 58.844 234.736 
L 58.844 67.56 
" style="fill: none; stroke: #000000; stroke-width: 0.8; stroke-linejoin: miter; stroke-linecap: square"/>
   </g>
   <g id="patch_4">
    <path d="M 489.096 234.736 
L 489.096 67.56 
" style="fill: none; stroke: #000000; stroke-width: 0.8; stroke-linejoin: miter; stroke-linecap: square"/>
   </g>
   <g id="patch_5">
    <path d="M 58.844 234.736 
L 489.096 234.736 
" style="fill: none; stroke: #000000; stroke-width: 0.8; stroke-linejoin: miter; stroke-linecap: square"/>
   </g>
   <g id="patch_6">
    <path d="M 58.844 67.56 
L 489.096 67.56 
" style="fill: none; stroke: #000000; stroke-width: 0.8; stroke-linejoin: miter; stroke-linecap: square"/>
   </g>
   <g id="text_14">
    <!-- AZ5, f=7 GHz, 10 dB -->
    <g transform="translate(190.38207 25.503044) scale(0.161 -0.161)">
     <defs>
      <path id="DejaVuSans-41" d="M 2188 4044 
L 1331 1722 
L 3047 1722 
L 2188 4044 
z
M 1831 4666 
L 2547 4666 
L 4325 0 
L 3669 0 
L 3244 1197 
L 1141 1197 
L 716 0 
L 50 0 
L 1831 4666 
z
" transform="scale(0.015625)"/>
      <path id="DejaVuSans-5a" d="M 359 4666 
L 4025 4666 
L 4025 4184 
L 1075 531 
L 4097 531 
L 4097 0 
L 288 0 
L 288 481 
L 3238 4134 
L 359 4134 
L 359 4666 
z
" transform="scale(0.015625)"/>
      <path id="DejaVuSans-2c" d="M 750 794 
L 1409 794 
L 1409 256 
L 897 -744 
L 494 -744 
L 750 256 
L 750 794 
z
" transform="scale(0.015625)"/>
      <path id="DejaVuSans-66" d="M 2375 4863 
L 2375 4384 
L 1825 4384 
Q 1516 4384 1395 4259 
Q 1275 4134 1275 3809 
L 1275 3500 
L 2222 3500 
L 2222 3053 
L 1275 3053 
L 1275 0 
L 697 0 
L 697 3053 
L 147 3053 
L 147 3500 
L 697 3500 
L 697 3744 
Q 697 4328 969 4595 
Q 1241 4863 1831 4863 
L 2375 4863 
z
" transform="scale(0.015625)"/>
      <path id="DejaVuSans-3d" d="M 678 2906 
L 4684 2906 
L 4684 2381 
L 678 2381 
L 678 2906 
z
M 678 1631 
L 4684 1631 
L 4684 1100 
L 678 1100 
L 678 1631 
z
" transform="scale(0.015625)"/>
      <path id="DejaVuSans-47" d="M 3809 666 
L 3809 1919 
L 2778 1919 
L 2778 2438 
L 4434 2438 
L 4434 434 
Q 4069 175 3628 42 
Q 3188 -91 2688 -91 
Q 1594 -91 976 548 
Q 359 1188 359 2328 
Q 359 3472 976 4111 
Q 1594 4750 2688 4750 
Q 3144 4750 3555 4637 
Q 3966 4525 4313 4306 
L 4313 3634 
Q 3963 3931 3569 4081 
Q 3175 4231 2741 4231 
Q 1884 4231 1454 3753 
Q 1025 3275 1025 2328 
Q 1025 1384 1454 906 
Q 1884 428 2741 428 
Q 3075 428 3337 486 
Q 3600 544 3809 666 
z
" transform="scale(0.015625)"/>
      <path id="DejaVuSans-7a" d="M 353 3500 
L 3084 3500 
L 3084 2975 
L 922 459 
L 3084 459 
L 3084 0 
L 275 0 
L 275 525 
L 2438 3041 
L 353 3041 
L 353 3500 
z
" transform="scale(0.015625)"/>
      <path id="DejaVuSans-42" d="M 1259 2228 
L 1259 519 
L 2272 519 
Q 2781 519 3026 730 
Q 3272 941 3272 1375 
Q 3272 1813 3026 2020 
Q 2781 2228 2272 2228 
L 1259 2228 
z
M 1259 4147 
L 1259 2741 
L 2194 2741 
Q 2656 2741 2882 2914 
Q 3109 3088 3109 3444 
Q 3109 3797 2882 3972 
Q 2656 4147 2194 4147 
L 1259 4147 
z
M 628 4666 
L 2241 4666 
Q 2963 4666 3353 4366 
Q 3744 4066 3744 3513 
Q 3744 3084 3544 2831 
Q 3344 2578 2956 2516 
Q 3422 2416 3680 2098 
Q 3938 1781 3938 1306 
Q 3938 681 3513 340 
Q 3088 0 2303 0 
L 628 0 
L 628 4666 
z
" transform="scale(0.015625)"/>
     </defs>
     <use xlink:href="#DejaVuSans-41"/>
     <use xlink:href="#DejaVuSans-5a" transform="translate(68.408203 0)"/>
     <use xlink:href="#DejaVuSans-35" transform="translate(136.914062 0)"/>
     <use xlink:href="#DejaVuSans-2c" transform="translate(200.537109 0)"/>
     <use xlink:href="#DejaVuSans-20" transform="translate(232.324219 0)"/>
     <use xlink:href="#DejaVuSans-66" transform="translate(264.111328 0)"/>
     <use xlink:href="#DejaVuSans-3d" transform="translate(299.316406 0)"/>
     <use xlink:href="#DejaVuSans-37" transform="translate(383.105469 0)"/>
     <use xlink:href="#DejaVuSans-20" transform="translate(446.728516 0)"/>
     <use xlink:href="#DejaVuSans-47" transform="translate(478.515625 0)"/>
     <use xlink:href="#DejaVuSans-48" transform="translate(556.005859 0)"/>
     <use xlink:href="#DejaVuSans-7a" transform="translate(631.201172 0)"/>
     <use xlink:href="#DejaVuSans-2c" transform="translate(683.691406 0)"/>
     <use xlink:href="#DejaVuSans-20" transform="translate(715.478516 0)"/>
     <use xlink:href="#DejaVuSans-31" transform="translate(747.265625 0)"/>
     <use xlink:href="#DejaVuSans-30" transform="translate(810.888672 0)"/>
     <use xlink:href="#DejaVuSans-20" transform="translate(874.511719 0)"/>
     <use xlink:href="#DejaVuSans-64" transform="translate(906.298828 0)"/>
     <use xlink:href="#DejaVuSans-42" transform="translate(969.775391 0)"/>
    </g>
    <!-- Double Asymmetric Lorentzian -->
    <g transform="translate(149.993711 43.531522) scale(0.161 -0.161)">
     <defs>
      <path id="DejaVuSans-44" d="M 1259 4147 
L 1259 519 
L 2022 519 
Q 2988 519 3436 956 
Q 3884 1394 3884 2338 
Q 3884 3275 3436 3711 
Q 2988 4147 2022 4147 
L 1259 4147 
z
M 628 4666 
L 1925 4666 
Q 3281 4666 3915 4102 
Q 4550 3538 4550 2338 
Q 4550 1131 3912 565 
Q 3275 0 1925 0 
L 628 0 
L 628 4666 
z
" transform="scale(0.015625)"/>
      <path id="DejaVuSans-6f" d="M 1959 3097 
Q 1497 3097 1228 2736 
Q 959 2375 959 1747 
Q 959 1119 1226 758 
Q 1494 397 1959 397 
Q 2419 397 2687 759 
Q 2956 1122 2956 1747 
Q 2956 2369 2687 2733 
Q 2419 3097 1959 3097 
z
M 1959 3584 
Q 2709 3584 3137 3096 
Q 3566 2609 3566 1747 
Q 3566 888 3137 398 
Q 2709 -91 1959 -91 
Q 1206 -91 779 398 
Q 353 888 353 1747 
Q 353 2609 779 3096 
Q 1206 3584 1959 3584 
z
" transform="scale(0.015625)"/>
      <path id="DejaVuSans-75" d="M 544 1381 
L 544 3500 
L 1119 3500 
L 1119 1403 
Q 1119 906 1312 657 
Q 1506 409 1894 409 
Q 2359 409 2629 706 
Q 2900 1003 2900 1516 
L 2900 3500 
L 3475 3500 
L 3475 0 
L 2900 0 
L 2900 538 
Q 2691 219 2414 64 
Q 2138 -91 1772 -91 
Q 1169 -91 856 284 
Q 544 659 544 1381 
z
M 1991 3584 
L 1991 3584 
z
" transform="scale(0.015625)"/>
      <path id="DejaVuSans-62" d="M 3116 1747 
Q 3116 2381 2855 2742 
Q 2594 3103 2138 3103 
Q 1681 3103 1420 2742 
Q 1159 2381 1159 1747 
Q 1159 1113 1420 752 
Q 1681 391 2138 391 
Q 2594 391 2855 752 
Q 3116 1113 3116 1747 
z
M 1159 2969 
Q 1341 3281 1617 3432 
Q 1894 3584 2278 3584 
Q 2916 3584 3314 3078 
Q 3713 2572 3713 1747 
Q 3713 922 3314 415 
Q 2916 -91 2278 -91 
Q 1894 -91 1617 61 
Q 1341 213 1159 525 
L 1159 0 
L 581 0 
L 581 4863 
L 1159 4863 
L 1159 2969 
z
" transform="scale(0.015625)"/>
      <path id="DejaVuSans-6c" d="M 603 4863 
L 1178 4863 
L 1178 0 
L 603 0 
L 603 4863 
z
" transform="scale(0.015625)"/>
      <path id="DejaVuSans-65" d="M 3597 1894 
L 3597 1613 
L 953 1613 
Q 991 1019 1311 708 
Q 1631 397 2203 397 
Q 2534 397 2845 478 
Q 3156 559 3463 722 
L 3463 178 
Q 3153 47 2828 -22 
Q 2503 -91 2169 -91 
Q 1331 -91 842 396 
Q 353 884 353 1716 
Q 353 2575 817 3079 
Q 1281 3584 2069 3584 
Q 2775 3584 3186 3129 
Q 3597 2675 3597 1894 
z
M 3022 2063 
Q 3016 2534 2758 2815 
Q 2500 3097 2075 3097 
Q 1594 3097 1305 2825 
Q 1016 2553 972 2059 
L 3022 2063 
z
" transform="scale(0.015625)"/>
      <path id="DejaVuSans-73" d="M 2834 3397 
L 2834 2853 
Q 2591 2978 2328 3040 
Q 2066 3103 1784 3103 
Q 1356 3103 1142 2972 
Q 928 2841 928 2578 
Q 928 2378 1081 2264 
Q 1234 2150 1697 2047 
L 1894 2003 
Q 2506 1872 2764 1633 
Q 3022 1394 3022 966 
Q 3022 478 2636 193 
Q 2250 -91 1575 -91 
Q 1294 -91 989 -36 
Q 684 19 347 128 
L 347 722 
Q 666 556 975 473 
Q 1284 391 1588 391 
Q 1994 391 2212 530 
Q 2431 669 2431 922 
Q 2431 1156 2273 1281 
Q 2116 1406 1581 1522 
L 1381 1569 
Q 847 1681 609 1914 
Q 372 2147 372 2553 
Q 372 3047 722 3315 
Q 1072 3584 1716 3584 
Q 2034 3584 2315 3537 
Q 2597 3491 2834 3397 
z
" transform="scale(0.015625)"/>
      <path id="DejaVuSans-79" d="M 2059 -325 
Q 1816 -950 1584 -1140 
Q 1353 -1331 966 -1331 
L 506 -1331 
L 506 -850 
L 844 -850 
Q 1081 -850 1212 -737 
Q 1344 -625 1503 -206 
L 1606 56 
L 191 3500 
L 800 3500 
L 1894 763 
L 2988 3500 
L 3597 3500 
L 2059 -325 
z
" transform="scale(0.015625)"/>
      <path id="DejaVuSans-6d" d="M 3328 2828 
Q 3544 3216 3844 3400 
Q 4144 3584 4550 3584 
Q 5097 3584 5394 3201 
Q 5691 2819 5691 2113 
L 5691 0 
L 5113 0 
L 5113 2094 
Q 5113 2597 4934 2840 
Q 4756 3084 4391 3084 
Q 3944 3084 3684 2787 
Q 3425 2491 3425 1978 
L 3425 0 
L 2847 0 
L 2847 2094 
Q 2847 2600 2669 2842 
Q 2491 3084 2119 3084 
Q 1678 3084 1418 2786 
Q 1159 2488 1159 1978 
L 1159 0 
L 581 0 
L 581 3500 
L 1159 3500 
L 1159 2956 
Q 1356 3278 1631 3431 
Q 1906 3584 2284 3584 
Q 2666 3584 2933 3390 
Q 3200 3197 3328 2828 
z
" transform="scale(0.015625)"/>
      <path id="DejaVuSans-74" d="M 1172 4494 
L 1172 3500 
L 2356 3500 
L 2356 3053 
L 1172 3053 
L 1172 1153 
Q 1172 725 1289 603 
Q 1406 481 1766 481 
L 2356 481 
L 2356 0 
L 1766 0 
Q 1100 0 847 248 
Q 594 497 594 1153 
L 594 3053 
L 172 3053 
L 172 3500 
L 594 3500 
L 594 4494 
L 1172 4494 
z
" transform="scale(0.015625)"/>
      <path id="DejaVuSans-72" d="M 2631 2963 
Q 2534 3019 2420 3045 
Q 2306 3072 2169 3072 
Q 1681 3072 1420 2755 
Q 1159 2438 1159 1844 
L 1159 0 
L 581 0 
L 581 3500 
L 1159 3500 
L 1159 2956 
Q 1341 3275 1631 3429 
Q 1922 3584 2338 3584 
Q 2397 3584 2469 3576 
Q 2541 3569 2628 3553 
L 2631 2963 
z
" transform="scale(0.015625)"/>
      <path id="DejaVuSans-69" d="M 603 3500 
L 1178 3500 
L 1178 0 
L 603 0 
L 603 3500 
z
M 603 4863 
L 1178 4863 
L 1178 4134 
L 603 4134 
L 603 4863 
z
" transform="scale(0.015625)"/>
      <path id="DejaVuSans-63" d="M 3122 3366 
L 3122 2828 
Q 2878 2963 2633 3030 
Q 2388 3097 2138 3097 
Q 1578 3097 1268 2742 
Q 959 2388 959 1747 
Q 959 1106 1268 751 
Q 1578 397 2138 397 
Q 2388 397 2633 464 
Q 2878 531 3122 666 
L 3122 134 
Q 2881 22 2623 -34 
Q 2366 -91 2075 -91 
Q 1284 -91 818 406 
Q 353 903 353 1747 
Q 353 2603 823 3093 
Q 1294 3584 2113 3584 
Q 2378 3584 2631 3529 
Q 2884 3475 3122 3366 
z
" transform="scale(0.015625)"/>
      <path id="DejaVuSans-4c" d="M 628 4666 
L 1259 4666 
L 1259 531 
L 3531 531 
L 3531 0 
L 628 0 
L 628 4666 
z
" transform="scale(0.015625)"/>
      <path id="DejaVuSans-6e" d="M 3513 2113 
L 3513 0 
L 2938 0 
L 2938 2094 
Q 2938 2591 2744 2837 
Q 2550 3084 2163 3084 
Q 1697 3084 1428 2787 
Q 1159 2491 1159 1978 
L 1159 0 
L 581 0 
L 581 3500 
L 1159 3500 
L 1159 2956 
Q 1366 3272 1645 3428 
Q 1925 3584 2291 3584 
Q 2894 3584 3203 3211 
Q 3513 2838 3513 2113 
z
" transform="scale(0.015625)"/>
      <path id="DejaVuSans-61" d="M 2194 1759 
Q 1497 1759 1228 1600 
Q 959 1441 959 1056 
Q 959 750 1161 570 
Q 1363 391 1709 391 
Q 2188 391 2477 730 
Q 2766 1069 2766 1631 
L 2766 1759 
L 2194 1759 
z
M 3341 1997 
L 3341 0 
L 2766 0 
L 2766 531 
Q 2569 213 2275 61 
Q 1981 -91 1556 -91 
Q 1019 -91 701 211 
Q 384 513 384 1019 
Q 384 1609 779 1909 
Q 1175 2209 1959 2209 
L 2766 2209 
L 2766 2266 
Q 2766 2663 2505 2880 
Q 2244 3097 1772 3097 
Q 1472 3097 1187 3025 
Q 903 2953 641 2809 
L 641 3341 
Q 956 3463 1253 3523 
Q 1550 3584 1831 3584 
Q 2591 3584 2966 3190 
Q 3341 2797 3341 1997 
z
" transform="scale(0.015625)"/>
     </defs>
     <use xlink:href="#DejaVuSans-44"/>
     <use xlink:href="#DejaVuSans-6f" transform="translate(77.001953 0)"/>
     <use xlink:href="#DejaVuSans-75" transform="translate(138.183594 0)"/>
     <use xlink:href="#DejaVuSans-62" transform="translate(201.5625 0)"/>
     <use xlink:href="#DejaVuSans-6c" transform="translate(265.039062 0)"/>
     <use xlink:href="#DejaVuSans-65" transform="translate(292.822266 0)"/>
     <use xlink:href="#DejaVuSans-20" transform="translate(354.345703 0)"/>
     <use xlink:href="#DejaVuSans-41" transform="translate(386.132812 0)"/>
     <use xlink:href="#DejaVuSans-73" transform="translate(454.541016 0)"/>
     <use xlink:href="#DejaVuSans-79" transform="translate(506.640625 0)"/>
     <use xlink:href="#DejaVuSans-6d" transform="translate(565.820312 0)"/>
     <use xlink:href="#DejaVuSans-6d" transform="translate(663.232422 0)"/>
     <use xlink:href="#DejaVuSans-65" transform="translate(760.644531 0)"/>
     <use xlink:href="#DejaVuSans-74" transform="translate(822.167969 0)"/>
     <use xlink:href="#DejaVuSans-72" transform="translate(861.376953 0)"/>
     <use xlink:href="#DejaVuSans-69" transform="translate(902.490234 0)"/>
     <use xlink:href="#DejaVuSans-63" transform="translate(930.273438 0)"/>
     <use xlink:href="#DejaVuSans-20" transform="translate(985.253906 0)"/>
     <use xlink:href="#DejaVuSans-4c" transform="translate(1017.041016 0)"/>
     <use xlink:href="#DejaVuSans-6f" transform="translate(1071.003906 0)"/>
     <use xlink:href="#DejaVuSans-72" transform="translate(1132.185547 0)"/>
     <use xlink:href="#DejaVuSans-65" transform="translate(1171.048828 0)"/>
     <use xlink:href="#DejaVuSans-6e" transform="translate(1232.572266 0)"/>
     <use xlink:href="#DejaVuSans-74" transform="translate(1295.951172 0)"/>
     <use xlink:href="#DejaVuSans-7a" transform="translate(1335.160156 0)"/>
     <use xlink:href="#DejaVuSans-69" transform="translate(1387.650391 0)"/>
     <use xlink:href="#DejaVuSans-61" transform="translate(1415.433594 0)"/>
     <use xlink:href="#DejaVuSans-6e" transform="translate(1476.712891 0)"/>
    </g>
    <!-- $H_1$=158.9403 T, $H_2$=159.4163 T, R²=0.951 -->
    <g transform="translate(100.573 61.56) scale(0.161 -0.161)">
     <defs>
      <path id="DejaVuSans-Oblique-48" d="M 1081 4666 
L 1716 4666 
L 1344 2753 
L 3634 2753 
L 4006 4666 
L 4641 4666 
L 3731 0 
L 3097 0 
L 3531 2222 
L 1241 2222 
L 806 0 
L 172 0 
L 1081 4666 
z
" transform="scale(0.015625)"/>
      <path id="DejaVuSans-38" d="M 2034 2216 
Q 1584 2216 1326 1975 
Q 1069 1734 1069 1313 
Q 1069 891 1326 650 
Q 1584 409 2034 409 
Q 2484 409 2743 651 
Q 3003 894 3003 1313 
Q 3003 1734 2745 1975 
Q 2488 2216 2034 2216 
z
M 1403 2484 
Q 997 2584 770 2862 
Q 544 3141 544 3541 
Q 544 4100 942 4425 
Q 1341 4750 2034 4750 
Q 2731 4750 3128 4425 
Q 3525 4100 3525 3541 
Q 3525 3141 3298 2862 
Q 3072 2584 2669 2484 
Q 3125 2378 3379 2068 
Q 3634 1759 3634 1313 
Q 3634 634 3220 271 
Q 2806 -91 2034 -91 
Q 1263 -91 848 271 
Q 434 634 434 1313 
Q 434 1759 690 2068 
Q 947 2378 1403 2484 
z
M 1172 3481 
Q 1172 3119 1398 2916 
Q 1625 2713 2034 2713 
Q 2441 2713 2670 2916 
Q 2900 3119 2900 3481 
Q 2900 3844 2670 4047 
Q 2441 4250 2034 4250 
Q 1625 4250 1398 4047 
Q 1172 3844 1172 3481 
z
" transform="scale(0.015625)"/>
      <path id="DejaVuSans-39" d="M 703 97 
L 703 672 
Q 941 559 1184 500 
Q 1428 441 1663 441 
Q 2288 441 2617 861 
Q 2947 1281 2994 2138 
Q 2813 1869 2534 1725 
Q 2256 1581 1919 1581 
Q 1219 1581 811 2004 
Q 403 2428 403 3163 
Q 403 3881 828 4315 
Q 1253 4750 1959 4750 
Q 2769 4750 3195 4129 
Q 3622 3509 3622 2328 
Q 3622 1225 3098 567 
Q 2575 -91 1691 -91 
Q 1453 -91 1209 -44 
Q 966 3 703 97 
z
M 1959 2075 
Q 2384 2075 2632 2365 
Q 2881 2656 2881 3163 
Q 2881 3666 2632 3958 
Q 2384 4250 1959 4250 
Q 1534 4250 1286 3958 
Q 1038 3666 1038 3163 
Q 1038 2656 1286 2365 
Q 1534 2075 1959 2075 
z
" transform="scale(0.015625)"/>
      <path id="DejaVuSans-33" d="M 2597 2516 
Q 3050 2419 3304 2112 
Q 3559 1806 3559 1356 
Q 3559 666 3084 287 
Q 2609 -91 1734 -91 
Q 1441 -91 1130 -33 
Q 819 25 488 141 
L 488 750 
Q 750 597 1062 519 
Q 1375 441 1716 441 
Q 2309 441 2620 675 
Q 2931 909 2931 1356 
Q 2931 1769 2642 2001 
Q 2353 2234 1838 2234 
L 1294 2234 
L 1294 2753 
L 1863 2753 
Q 2328 2753 2575 2939 
Q 2822 3125 2822 3475 
Q 2822 3834 2567 4026 
Q 2313 4219 1838 4219 
Q 1578 4219 1281 4162 
Q 984 4106 628 3988 
L 628 4550 
Q 988 4650 1302 4700 
Q 1616 4750 1894 4750 
Q 2613 4750 3031 4423 
Q 3450 4097 3450 3541 
Q 3450 3153 3228 2886 
Q 3006 2619 2597 2516 
z
" transform="scale(0.015625)"/>
      <path id="DejaVuSans-52" d="M 2841 2188 
Q 3044 2119 3236 1894 
Q 3428 1669 3622 1275 
L 4263 0 
L 3584 0 
L 2988 1197 
Q 2756 1666 2539 1819 
Q 2322 1972 1947 1972 
L 1259 1972 
L 1259 0 
L 628 0 
L 628 4666 
L 2053 4666 
Q 2853 4666 3247 4331 
Q 3641 3997 3641 3322 
Q 3641 2881 3436 2590 
Q 3231 2300 2841 2188 
z
M 1259 4147 
L 1259 2491 
L 2053 2491 
Q 2509 2491 2742 2702 
Q 2975 2913 2975 3322 
Q 2975 3731 2742 3939 
Q 2509 4147 2053 4147 
L 1259 4147 
z
" transform="scale(0.015625)"/>
      <path id="DejaVuSans-b2" d="M 838 2444 
L 2163 2444 
L 2163 2088 
L 294 2088 
L 294 2431 
Q 400 2528 597 2703 
Q 1672 3656 1672 3950 
Q 1672 4156 1509 4282 
Q 1347 4409 1081 4409 
Q 919 4409 728 4354 
Q 538 4300 313 4191 
L 313 4575 
Q 553 4663 761 4706 
Q 969 4750 1147 4750 
Q 1600 4750 1872 4544 
Q 2144 4338 2144 4000 
Q 2144 3566 1109 2678 
Q 934 2528 838 2444 
z
" transform="scale(0.015625)"/>
     </defs>
     <use xlink:href="#DejaVuSans-Oblique-48" transform="translate(0 0.78125)"/>
     <use xlink:href="#DejaVuSans-31" transform="translate(75.195312 -15.625) scale(0.7)"/>
     <use xlink:href="#DejaVuSans-3d" transform="translate(122.46582 0.78125)"/>
     <use xlink:href="#DejaVuSans-31" transform="translate(206.254883 0.78125)"/>
     <use xlink:href="#DejaVuSans-35" transform="translate(269.87793 0.78125)"/>
     <use xlink:href="#DejaVuSans-38" transform="translate(333.500977 0.78125)"/>
     <use xlink:href="#DejaVuSans-2e" transform="translate(397.124023 0.78125)"/>
     <use xlink:href="#DejaVuSans-39" transform="translate(428.911133 0.78125)"/>
     <use xlink:href="#DejaVuSans-34" transform="translate(492.53418 0.78125)"/>
     <use xlink:href="#DejaVuSans-30" transform="translate(556.157227 0.78125)"/>
     <use xlink:href="#DejaVuSans-33" transform="translate(619.780273 0.78125)"/>
     <use xlink:href="#DejaVuSans-20" transform="translate(683.40332 0.78125)"/>
     <use xlink:href="#DejaVuSans-54" transform="translate(715.19043 0.78125)"/>
     <use xlink:href="#DejaVuSans-2c" transform="translate(776.274414 0.78125)"/>
     <use xlink:href="#DejaVuSans-20" transform="translate(808.061523 0.78125)"/>
     <use xlink:href="#DejaVuSans-Oblique-48" transform="translate(839.848633 0.78125)"/>
     <use xlink:href="#DejaVuSans-32" transform="translate(915.043945 -15.625) scale(0.7)"/>
     <use xlink:href="#DejaVuSans-3d" transform="translate(962.314453 0.78125)"/>
     <use xlink:href="#DejaVuSans-31" transform="translate(1046.103516 0.78125)"/>
     <use xlink:href="#DejaVuSans-35" transform="translate(1109.726562 0.78125)"/>
     <use xlink:href="#DejaVuSans-39" transform="translate(1167.849609 0.78125)"/>
     <use xlink:href="#DejaVuSans-2e" transform="translate(1231.472656 0.78125)"/>
     <use xlink:href="#DejaVuSans-34" transform="translate(1263.259766 0.78125)"/>
     <use xlink:href="#DejaVuSans-31" transform="translate(1326.882812 0.78125)"/>
     <use xlink:href="#DejaVuSans-36" transform="translate(1390.505859 0.78125)"/>
     <use xlink:href="#DejaVuSans-33" transform="translate(1454.128906 0.78125)"/>
     <use xlink:href="#DejaVuSans-20" transform="translate(1517.751953 0.78125)"/>
     <use xlink:href="#DejaVuSans-54" transform="translate(1549.539062 0.78125)"/>
     <use xlink:href="#DejaVuSans-2c" transform="translate(1610.623047 0.78125)"/>
     <use xlink:href="#DejaVuSans-20" transform="translate(1642.410156 0.78125)"/>
     <use xlink:href="#DejaVuSans-52" transform="translate(1674.197266 0.78125)"/>
     <use xlink:href="#DejaVuSans-b2" transform="translate(1743.679688 0.78125)"/>
     <use xlink:href="#DejaVuSans-3d" transform="translate(1783.767578 0.78125)"/>
     <use xlink:href="#DejaVuSans-30" transform="translate(1867.556641 0.78125)"/>
     <use xlink:href="#DejaVuSans-2e" transform="translate(1931.179688 0.78125)"/>
     <use xlink:href="#DejaVuSans-39" transform="translate(1962.966797 0.78125)"/>
     <use xlink:href="#DejaVuSans-35" transform="translate(2026.589844 0.78125)"/>
     <use xlink:href="#DejaVuSans-31" transform="translate(2090.212891 0.78125)"/>
    </g>
   </g>
   <g id="legend_1">
    <g id="patch_7">
     <path d="M 287.695781 139.367437 
L 479.436 139.367437 
Q 482.196 139.367437 482.196 136.607438 
L 482.196 77.22 
Q 482.196 74.46 479.436 74.46 
L 287.695781 74.46 
Q 284.935781 74.46 284.935781 77.22 
L 284.935781 136.607438 
Q 284.935781 139.367437 287.695781 139.367437 
z
" style="fill: #ffffff; opacity: 0.8; stroke: #cccccc; stroke-linejoin: miter"/>
    </g>
    <g id="line2d_15">
     <path d="M 290.455781 85.635844 
L 304.255781 85.635844 
L 318.055781 85.635844 
" style="fill: none; stroke: #cc7000; stroke-opacity: 0.7; stroke-width: 1.4; stroke-linecap: square"/>
    </g>
    <g id="text_15">
     <!-- Raw data (curve) -->
     <g transform="translate(329.095781 90.465844) scale(0.138 -0.138)">
      <defs>
       <path id="DejaVuSans-77" d="M 269 3500 
L 844 3500 
L 1563 769 
L 2278 3500 
L 2956 3500 
L 3675 769 
L 4391 3500 
L 4966 3500 
L 4050 0 
L 3372 0 
L 2619 2869 
L 1863 0 
L 1184 0 
L 269 3500 
z
" transform="scale(0.015625)"/>
       <path id="DejaVuSans-76" d="M 191 3500 
L 800 3500 
L 1894 563 
L 2988 3500 
L 3597 3500 
L 2284 0 
L 1503 0 
L 191 3500 
z
" transform="scale(0.015625)"/>
      </defs>
      <use xlink:href="#DejaVuSans-52"/>
      <use xlink:href="#DejaVuSans-61" transform="translate(67.232422 0)"/>
      <use xlink:href="#DejaVuSans-77" transform="translate(128.511719 0)"/>
      <use xlink:href="#DejaVuSans-20" transform="translate(210.298828 0)"/>
      <use xlink:href="#DejaVuSans-64" transform="translate(242.085938 0)"/>
      <use xlink:href="#DejaVuSans-61" transform="translate(305.5625 0)"/>
      <use xlink:href="#DejaVuSans-74" transform="translate(366.841797 0)"/>
      <use xlink:href="#DejaVuSans-61" transform="translate(406.050781 0)"/>
      <use xlink:href="#DejaVuSans-20" transform="translate(467.330078 0)"/>
      <use xlink:href="#DejaVuSans-28" transform="translate(499.117188 0)"/>
      <use xlink:href="#DejaVuSans-63" transform="translate(538.130859 0)"/>
      <use xlink:href="#DejaVuSans-75" transform="translate(593.111328 0)"/>
      <use xlink:href="#DejaVuSans-72" transform="translate(656.490234 0)"/>
      <use xlink:href="#DejaVuSans-76" transform="translate(697.603516 0)"/>
      <use xlink:href="#DejaVuSans-65" transform="translate(756.783203 0)"/>
      <use xlink:href="#DejaVuSans-29" transform="translate(818.306641 0)"/>
     </g>
    </g>
    <g id="line2d_16">
     <path d="M 290.455781 105.891656 
L 304.255781 105.891656 
L 318.055781 105.891656 
" style="fill: none; stroke: #2980b9; stroke-width: 2; stroke-linecap: square"/>
    </g>
    <g id="text_16">
     <!-- Aggregated (median) -->
     <g transform="translate(329.095781 110.721656) scale(0.138 -0.138)">
      <defs>
       <path id="DejaVuSans-67" d="M 2906 1791 
Q 2906 2416 2648 2759 
Q 2391 3103 1925 3103 
Q 1463 3103 1205 2759 
Q 947 2416 947 1791 
Q 947 1169 1205 825 
Q 1463 481 1925 481 
Q 2391 481 2648 825 
Q 2906 1169 2906 1791 
z
M 3481 434 
Q 3481 -459 3084 -895 
Q 2688 -1331 1869 -1331 
Q 1566 -1331 1297 -1286 
Q 1028 -1241 775 -1147 
L 775 -588 
Q 1028 -725 1275 -790 
Q 1522 -856 1778 -856 
Q 2344 -856 2625 -561 
Q 2906 -266 2906 331 
L 2906 616 
Q 2728 306 2450 153 
Q 2172 0 1784 0 
Q 1141 0 747 490 
Q 353 981 353 1791 
Q 353 2603 747 3093 
Q 1141 3584 1784 3584 
Q 2172 3584 2450 3431 
Q 2728 3278 2906 2969 
L 2906 3500 
L 3481 3500 
L 3481 434 
z
" transform="scale(0.015625)"/>
      </defs>
      <use xlink:href="#DejaVuSans-41"/>
      <use xlink:href="#DejaVuSans-67" transform="translate(68.408203 0)"/>
      <use xlink:href="#DejaVuSans-67" transform="translate(131.884766 0)"/>
      <use xlink:href="#DejaVuSans-72" transform="translate(195.361328 0)"/>
      <use xlink:href="#DejaVuSans-65" transform="translate(234.224609 0)"/>
      <use xlink:href="#DejaVuSans-67" transform="translate(295.748047 0)"/>
      <use xlink:href="#DejaVuSans-61" transform="translate(359.224609 0)"/>
      <use xlink:href="#DejaVuSans-74" transform="translate(420.503906 0)"/>
      <use xlink:href="#DejaVuSans-65" transform="translate(459.712891 0)"/>
      <use xlink:href="#DejaVuSans-64" transform="translate(521.236328 0)"/>
      <use xlink:href="#DejaVuSans-20" transform="translate(584.712891 0)"/>
      <use xlink:href="#DejaVuSans-28" transform="translate(616.5 0)"/>
      <use xlink:href="#DejaVuSans-6d" transform="translate(655.513672 0)"/>
      <use xlink:href="#DejaVuSans-65" transform="translate(752.925781 0)"/>
      <use xlink:href="#DejaVuSans-64" transform="translate(814.449219 0)"/>
      <use xlink:href="#DejaVuSans-69" transform="translate(877.925781 0)"/>
      <use xlink:href="#DejaVuSans-61" transform="translate(905.708984 0)"/>
      <use xlink:href="#DejaVuSans-6e" transform="translate(966.988281 0)"/>
      <use xlink:href="#DejaVuSans-29" transform="translate(1030.367188 0)"/>
     </g>
    </g>
    <g id="line2d_17">
     <path d="M 290.455781 126.147469 
L 304.255781 126.147469 
L 318.055781 126.147469 
" style="fill: none; stroke: #ffa500; stroke-width: 2.5; stroke-linecap: square"/>
    </g>
    <g id="text_17">
     <!-- Fit -->
     <g transform="translate(329.095781 130.977469) scale(0.138 -0.138)">
      <defs>
       <path id="DejaVuSans-46" d="M 628 4666 
L 3309 4666 
L 3309 4134 
L 1259 4134 
L 1259 2759 
L 3109 2759 
L 3109 2228 
L 1259 2228 
L 1259 0 
L 628 0 
L 628 4666 
z
" transform="scale(0.015625)"/>
      </defs>
      <use xlink:href="#DejaVuSans-46"/>
      <use xlink:href="#DejaVuSans-69" transform="translate(50.269531 0)"/>
      <use xlink:href="#DejaVuSans-74" transform="translate(78.052734 0)"/>
     </g>
    </g>
   </g>
  </g>
 </g>
 <defs>
  <clipPath id="pe5c0eaaab5">
   <rect x="58.844" y="67.56" width="430.252" height="167.176"/>
  </clipPath>
 </defs>
</svg>
