<?xml version="1.0" encoding="utf-8" standalone="no"?>
<!DOCTYPE svg PUBLIC "-//W3C//DTD SVG 1.1//EN"
  "http://www.w3.org/Graphics/SVG/1.1/DTD/svg11.dtd">
<svg xmlns:xlink="http://www.w3.org/1999/xlink" width="504pt" height="288pt" viewBox="0 0 504 288" xmlns="http://www.w3.org/2000/svg" version="1.1">
 <metadata>
  <rdf:RDF xmlns:dc="http://purl.org/dc/elements/1.1/" xmlns:cc="http://creativecommons.org/ns#" xmlns:rdf="http://www.w3.org/1999/02/22-rdf-syntax-ns#">
   <cc:Work>
    <dc:type rdf:resource="http://purl.org/dc/dcmitype/StillImage"/>
    <dc:date>2025-10-06T17:42:33.206610</dc:date>
    <dc:format>image/svg+xml</dc:format>
    <dc:creator>
     <cc:Agent>
      <dc:title>Matplotlib v3.10.6, https://matplotlib.org/</dc:title>
     </cc:Agent>
    </dc:creator>
   </cc:Work>
  </rdf:RDF>
 </metadata>
 <defs>
  <style type="text/css">*{stroke-linejoin: round; stroke-linecap: butt}</style>
 </defs>
 <g id="figure_1">
  <g id="patch_1">
   <path d="M 0 288 
L 504 288 
L 504 0 
L 0 0 
z
" style="fill: #ffffff"/>
  </g>
  <g id="axes_1">
   <g id="patch_2">
    <path d="M 58.844 234.736 
L 489.096 234.736 
L 489.096 67.56 
L 58.844 67.56 
z
" style="fill: #ffffff"/>
   </g>
   <g id="matplotlib.axis_1">
    <g id="xtick_1">
     <g id="line2d_1">
      <defs>
       <path id="m63a85569f9" d="M 0 0 
L 0 3.5 
" style="stroke: #000000; stroke-width: 0.8"/>
      </defs>
      <g>
       <use xlink:href="#m63a85569f9" x="64.919303" y="234.736" style="stroke: #000000; stroke-width: 0.8"/>
      </g>
     </g>
     <g id="text_1">
      <!-- 90 -->
      <g transform="translate(56.870741 251.348023) scale(0.1265 -0.1265)">
       <defs>
        <path id="DejaVuSans-39" d="M 703 97 
L 703 672 
Q 941 559 1184 500 
Q 1428 441 1663 441 
Q 2288 441 2617 861 
Q 2947 1281 2994 2138 
Q 2813 1869 2534 1725 
Q 2256 1581 1919 1581 
Q 1219 1581 811 2004 
Q 403 2428 403 3163 
Q 403 3881 828 4315 
Q 1253 4750 1959 4750 
Q 2769 4750 3195 4129 
Q 3622 3509 3622 2328 
Q 3622 1225 3098 567 
Q 2575 -91 1691 -91 
Q 1453 -91 1209 -44 
Q 966 3 703 97 
z
M 1959 2075 
Q 2384 2075 2632 2365 
Q 2881 2656 2881 3163 
Q 2881 3666 2632 3958 
Q 2384 4250 1959 4250 
Q 1534 4250 1286 3958 
Q 1038 3666 1038 3163 
Q 1038 2656 1286 2365 
Q 1534 2075 1959 2075 
z
" transform="scale(0.015625)"/>
        <path id="DejaVuSans-30" d="M 2034 4250 
Q 1547 4250 1301 3770 
Q 1056 3291 1056 2328 
Q 1056 1369 1301 889 
Q 1547 409 2034 409 
Q 2525 409 2770 889 
Q 3016 1369 3016 2328 
Q 3016 3291 2770 3770 
Q 2525 4250 2034 4250 
z
M 2034 4750 
Q 2819 4750 3233 4129 
Q 3647 3509 3647 2328 
Q 3647 1150 3233 529 
Q 2819 -91 2034 -91 
Q 1250 -91 836 529 
Q 422 1150 422 2328 
Q 422 3509 836 4129 
Q 1250 4750 2034 4750 
z
" transform="scale(0.015625)"/>
       </defs>
       <use xlink:href="#DejaVuSans-39"/>
       <use xlink:href="#DejaVuSans-30" transform="translate(63.623047 0)"/>
      </g>
     </g>
    </g>
    <g id="xtick_2">
     <g id="line2d_2">
      <g>
       <use xlink:href="#m63a85569f9" x="120.636707" y="234.736" style="stroke: #000000; stroke-width: 0.8"/>
      </g>
     </g>
     <g id="text_2">
      <!-- 92 -->
      <g transform="translate(112.588145 251.348023) scale(0.1265 -0.1265)">
       <defs>
        <path id="DejaVuSans-32" d="M 1228 531 
L 3431 531 
L 3431 0 
L 469 0 
L 469 531 
Q 828 903 1448 1529 
Q 2069 2156 2228 2338 
Q 2531 2678 2651 2914 
Q 2772 3150 2772 3378 
Q 2772 3750 2511 3984 
Q 2250 4219 1831 4219 
Q 1534 4219 1204 4116 
Q 875 4013 500 3803 
L 500 4441 
Q 881 4594 1212 4672 
Q 1544 4750 1819 4750 
Q 2544 4750 2975 4387 
Q 3406 4025 3406 3419 
Q 3406 3131 3298 2873 
Q 3191 2616 2906 2266 
Q 2828 2175 2409 1742 
Q 1991 1309 1228 531 
z
" transform="scale(0.015625)"/>
       </defs>
       <use xlink:href="#DejaVuSans-39"/>
       <use xlink:href="#DejaVuSans-32" transform="translate(63.623047 0)"/>
      </g>
     </g>
    </g>
    <g id="xtick_3">
     <g id="line2d_3">
      <g>
       <use xlink:href="#m63a85569f9" x="176.354111" y="234.736" style="stroke: #000000; stroke-width: 0.8"/>
      </g>
     </g>
     <g id="text_3">
      <!-- 94 -->
      <g transform="translate(168.305549 251.348023) scale(0.1265 -0.1265)">
       <defs>
        <path id="DejaVuSans-34" d="M 2419 4116 
L 825 1625 
L 2419 1625 
L 2419 4116 
z
M 2253 4666 
L 3047 4666 
L 3047 1625 
L 3713 1625 
L 3713 1100 
L 3047 1100 
L 3047 0 
L 2419 0 
L 2419 1100 
L 313 1100 
L 313 1709 
L 2253 4666 
z
" transform="scale(0.015625)"/>
       </defs>
       <use xlink:href="#DejaVuSans-39"/>
       <use xlink:href="#DejaVuSans-34" transform="translate(63.623047 0)"/>
      </g>
     </g>
    </g>
    <g id="xtick_4">
     <g id="line2d_4">
      <g>
       <use xlink:href="#m63a85569f9" x="232.071515" y="234.736" style="stroke: #000000; stroke-width: 0.8"/>
      </g>
     </g>
     <g id="text_4">
      <!-- 96 -->
      <g transform="translate(224.022953 251.348023) scale(0.1265 -0.1265)">
       <defs>
        <path id="DejaVuSans-36" d="M 2113 2584 
Q 1688 2584 1439 2293 
Q 1191 2003 1191 1497 
Q 1191 994 1439 701 
Q 1688 409 2113 409 
Q 2538 409 2786 701 
Q 3034 994 3034 1497 
Q 3034 2003 2786 2293 
Q 2538 2584 2113 2584 
z
M 3366 4563 
L 3366 3988 
Q 3128 4100 2886 4159 
Q 2644 4219 2406 4219 
Q 1781 4219 1451 3797 
Q 1122 3375 1075 2522 
Q 1259 2794 1537 2939 
Q 1816 3084 2150 3084 
Q 2853 3084 3261 2657 
Q 3669 2231 3669 1497 
Q 3669 778 3244 343 
Q 2819 -91 2113 -91 
Q 1303 -91 875 529 
Q 447 1150 447 2328 
Q 447 3434 972 4092 
Q 1497 4750 2381 4750 
Q 2619 4750 2861 4703 
Q 3103 4656 3366 4563 
z
" transform="scale(0.015625)"/>
       </defs>
       <use xlink:href="#DejaVuSans-39"/>
       <use xlink:href="#DejaVuSans-36" transform="translate(63.623047 0)"/>
      </g>
     </g>
    </g>
    <g id="xtick_5">
     <g id="line2d_5">
      <g>
       <use xlink:href="#m63a85569f9" x="287.788919" y="234.736" style="stroke: #000000; stroke-width: 0.8"/>
      </g>
     </g>
     <g id="text_5">
      <!-- 98 -->
      <g transform="translate(279.740357 251.348023) scale(0.1265 -0.1265)">
       <defs>
        <path id="DejaVuSans-38" d="M 2034 2216 
Q 1584 2216 1326 1975 
Q 1069 1734 1069 1313 
Q 1069 891 1326 650 
Q 1584 409 2034 409 
Q 2484 409 2743 651 
Q 3003 894 3003 1313 
Q 3003 1734 2745 1975 
Q 2488 2216 2034 2216 
z
M 1403 2484 
Q 997 2584 770 2862 
Q 544 3141 544 3541 
Q 544 4100 942 4425 
Q 1341 4750 2034 4750 
Q 2731 4750 3128 4425 
Q 3525 4100 3525 3541 
Q 3525 3141 3298 2862 
Q 3072 2584 2669 2484 
Q 3125 2378 3379 2068 
Q 3634 1759 3634 1313 
Q 3634 634 3220 271 
Q 2806 -91 2034 -91 
Q 1263 -91 848 271 
Q 434 634 434 1313 
Q 434 1759 690 2068 
Q 947 2378 1403 2484 
z
M 1172 3481 
Q 1172 3119 1398 2916 
Q 1625 2713 2034 2713 
Q 2441 2713 2670 2916 
Q 2900 3119 2900 3481 
Q 2900 3844 2670 4047 
Q 2441 4250 2034 4250 
Q 1625 4250 1398 4047 
Q 1172 3844 1172 3481 
z
" transform="scale(0.015625)"/>
       </defs>
       <use xlink:href="#DejaVuSans-39"/>
       <use xlink:href="#DejaVuSans-38" transform="translate(63.623047 0)"/>
      </g>
     </g>
    </g>
    <g id="xtick_6">
     <g id="line2d_6">
      <g>
       <use xlink:href="#m63a85569f9" x="343.506323" y="234.736" style="stroke: #000000; stroke-width: 0.8"/>
      </g>
     </g>
     <g id="text_6">
      <!-- 100 -->
      <g transform="translate(331.433479 251.348023) scale(0.1265 -0.1265)">
       <defs>
        <path id="DejaVuSans-31" d="M 794 531 
L 1825 531 
L 1825 4091 
L 703 3866 
L 703 4441 
L 1819 4666 
L 2450 4666 
L 2450 531 
L 3481 531 
L 3481 0 
L 794 0 
L 794 531 
z
" transform="scale(0.015625)"/>
       </defs>
       <use xlink:href="#DejaVuSans-31"/>
       <use xlink:href="#DejaVuSans-30" transform="translate(63.623047 0)"/>
       <use xlink:href="#DejaVuSans-30" transform="translate(127.246094 0)"/>
      </g>
     </g>
    </g>
    <g id="xtick_7">
     <g id="line2d_7">
      <g>
       <use xlink:href="#m63a85569f9" x="399.223727" y="234.736" style="stroke: #000000; stroke-width: 0.8"/>
      </g>
     </g>
     <g id="text_7">
      <!-- 102 -->
      <g transform="translate(387.150883 251.348023) scale(0.1265 -0.1265)">
       <use xlink:href="#DejaVuSans-31"/>
       <use xlink:href="#DejaVuSans-30" transform="translate(63.623047 0)"/>
       <use xlink:href="#DejaVuSans-32" transform="translate(127.246094 0)"/>
      </g>
     </g>
    </g>
    <g id="xtick_8">
     <g id="line2d_8">
      <g>
       <use xlink:href="#m63a85569f9" x="454.941131" y="234.736" style="stroke: #000000; stroke-width: 0.8"/>
      </g>
     </g>
     <g id="text_8">
      <!-- 104 -->
      <g transform="translate(442.868287 251.348023) scale(0.1265 -0.1265)">
       <use xlink:href="#DejaVuSans-31"/>
       <use xlink:href="#DejaVuSans-30" transform="translate(63.623047 0)"/>
       <use xlink:href="#DejaVuSans-34" transform="translate(127.246094 0)"/>
      </g>
     </g>
    </g>
    <g id="text_9">
     <!-- H (T) -->
     <g transform="translate(255.574492 269.338492) scale(0.1495 -0.1495)">
      <defs>
       <path id="DejaVuSans-48" d="M 628 4666 
L 1259 4666 
L 1259 2753 
L 3553 2753 
L 3553 4666 
L 4184 4666 
L 4184 0 
L 3553 0 
L 3553 2222 
L 1259 2222 
L 1259 0 
L 628 0 
L 628 4666 
z
" transform="scale(0.015625)"/>
       <path id="DejaVuSans-20" transform="scale(0.015625)"/>
       <path id="DejaVuSans-28" d="M 1984 4856 
Q 1566 4138 1362 3434 
Q 1159 2731 1159 2009 
Q 1159 1288 1364 580 
Q 1569 -128 1984 -844 
L 1484 -844 
Q 1016 -109 783 600 
Q 550 1309 550 2009 
Q 550 2706 781 3412 
Q 1013 4119 1484 4856 
L 1984 4856 
z
" transform="scale(0.015625)"/>
       <path id="DejaVuSans-54" d="M -19 4666 
L 3928 4666 
L 3928 4134 
L 2272 4134 
L 2272 0 
L 1638 0 
L 1638 4134 
L -19 4134 
L -19 4666 
z
" transform="scale(0.015625)"/>
       <path id="DejaVuSans-29" d="M 513 4856 
L 1013 4856 
Q 1481 4119 1714 3412 
Q 1947 2706 1947 2009 
Q 1947 1309 1714 600 
Q 1481 -109 1013 -844 
L 513 -844 
Q 928 -128 1133 580 
Q 1338 1288 1338 2009 
Q 1338 2731 1133 3434 
Q 928 4138 513 4856 
z
" transform="scale(0.015625)"/>
      </defs>
      <use xlink:href="#DejaVuSans-48"/>
      <use xlink:href="#DejaVuSans-20" transform="translate(75.195312 0)"/>
      <use xlink:href="#DejaVuSans-28" transform="translate(106.982422 0)"/>
      <use xlink:href="#DejaVuSans-54" transform="translate(145.996094 0)"/>
      <use xlink:href="#DejaVuSans-29" transform="translate(207.080078 0)"/>
     </g>
    </g>
   </g>
   <g id="matplotlib.axis_2">
    <g id="ytick_1">
     <g id="line2d_9">
      <defs>
       <path id="mfe36225c67" d="M 0 0 
L -3.5 0 
" style="stroke: #000000; stroke-width: 0.8"/>
      </defs>
      <g>
       <use xlink:href="#mfe36225c67" x="58.844" y="216.063931" style="stroke: #000000; stroke-width: 0.8"/>
      </g>
     </g>
     <g id="text_10">
      <!-- −1 -->
      <g transform="translate(33.195133 220.869942) scale(0.1265 -0.1265)">
       <defs>
        <path id="DejaVuSans-2212" d="M 678 2272 
L 4684 2272 
L 4684 1741 
L 678 1741 
L 678 2272 
z
" transform="scale(0.015625)"/>
       </defs>
       <use xlink:href="#DejaVuSans-2212"/>
       <use xlink:href="#DejaVuSans-31" transform="translate(83.789062 0)"/>
      </g>
     </g>
    </g>
    <g id="ytick_2">
     <g id="line2d_10">
      <g>
       <use xlink:href="#mfe36225c67" x="58.844" y="185.333492" style="stroke: #000000; stroke-width: 0.8"/>
      </g>
     </g>
     <g id="text_11">
      <!-- 0 -->
      <g transform="translate(43.795438 190.139504) scale(0.1265 -0.1265)">
       <use xlink:href="#DejaVuSans-30"/>
      </g>
     </g>
    </g>
    <g id="ytick_3">
     <g id="line2d_11">
      <g>
       <use xlink:href="#mfe36225c67" x="58.844" y="154.603054" style="stroke: #000000; stroke-width: 0.8"/>
      </g>
     </g>
     <g id="text_12">
      <!-- 1 -->
      <g transform="translate(43.795438 159.409066) scale(0.1265 -0.1265)">
       <use xlink:href="#DejaVuSans-31"/>
      </g>
     </g>
    </g>
    <g id="ytick_4">
     <g id="line2d_12">
      <g>
       <use xlink:href="#mfe36225c67" x="58.844" y="123.872616" style="stroke: #000000; stroke-width: 0.8"/>
      </g>
     </g>
     <g id="text_13">
      <!-- 2 -->
      <g transform="translate(43.795438 128.678627) scale(0.1265 -0.1265)">
       <use xlink:href="#DejaVuSans-32"/>
      </g>
     </g>
    </g>
    <g id="ytick_5">
     <g id="line2d_13">
      <g>
       <use xlink:href="#mfe36225c67" x="58.844" y="93.142177" style="stroke: #000000; stroke-width: 0.8"/>
      </g>
     </g>
     <g id="text_14">
      <!-- 3 -->
      <g transform="translate(43.795438 97.948189) scale(0.1265 -0.1265)">
       <defs>
        <path id="DejaVuSans-33" d="M 2597 2516 
Q 3050 2419 3304 2112 
Q 3559 1806 3559 1356 
Q 3559 666 3084 287 
Q 2609 -91 1734 -91 
Q 1441 -91 1130 -33 
Q 819 25 488 141 
L 488 750 
Q 750 597 1062 519 
Q 1375 441 1716 441 
Q 2309 441 2620 675 
Q 2931 909 2931 1356 
Q 2931 1769 2642 2001 
Q 2353 2234 1838 2234 
L 1294 2234 
L 1294 2753 
L 1863 2753 
Q 2328 2753 2575 2939 
Q 2822 3125 2822 3475 
Q 2822 3834 2567 4026 
Q 2313 4219 1838 4219 
Q 1578 4219 1281 4162 
Q 984 4106 628 3988 
L 628 4550 
Q 988 4650 1302 4700 
Q 1616 4750 1894 4750 
Q 2613 4750 3031 4423 
Q 3450 4097 3450 3541 
Q 3450 3153 3228 2886 
Q 3006 2619 2597 2516 
z
" transform="scale(0.015625)"/>
       </defs>
       <use xlink:href="#DejaVuSans-33"/>
      </g>
     </g>
    </g>
    <g id="text_15">
     <!-- dP/dH -->
     <g transform="translate(26.086 173.28568) rotate(-90) scale(0.1495 -0.1495)">
      <defs>
       <path id="DejaVuSans-64" d="M 2906 2969 
L 2906 4863 
L 3481 4863 
L 3481 0 
L 2906 0 
L 2906 525 
Q 2725 213 2448 61 
Q 2172 -91 1784 -91 
Q 1150 -91 751 415 
Q 353 922 353 1747 
Q 353 2572 751 3078 
Q 1150 3584 1784 3584 
Q 2172 3584 2448 3432 
Q 2725 3281 2906 2969 
z
M 947 1747 
Q 947 1113 1208 752 
Q 1469 391 1925 391 
Q 2381 391 2643 752 
Q 2906 1113 2906 1747 
Q 2906 2381 2643 2742 
Q 2381 3103 1925 3103 
Q 1469 3103 1208 2742 
Q 947 2381 947 1747 
z
" transform="scale(0.015625)"/>
       <path id="DejaVuSans-50" d="M 1259 4147 
L 1259 2394 
L 2053 2394 
Q 2494 2394 2734 2622 
Q 2975 2850 2975 3272 
Q 2975 3691 2734 3919 
Q 2494 4147 2053 4147 
L 1259 4147 
z
M 628 4666 
L 2053 4666 
Q 2838 4666 3239 4311 
Q 3641 3956 3641 3272 
Q 3641 2581 3239 2228 
Q 2838 1875 2053 1875 
L 1259 1875 
L 1259 0 
L 628 0 
L 628 4666 
z
" transform="scale(0.015625)"/>
       <path id="DejaVuSans-2f" d="M 1625 4666 
L 2156 4666 
L 531 -594 
L 0 -594 
L 1625 4666 
z
" transform="scale(0.015625)"/>
      </defs>
      <use xlink:href="#DejaVuSans-64"/>
      <use xlink:href="#DejaVuSans-50" transform="translate(63.476562 0)"/>
      <use xlink:href="#DejaVuSans-2f" transform="translate(123.779297 0)"/>
      <use xlink:href="#DejaVuSans-64" transform="translate(157.470703 0)"/>
      <use xlink:href="#DejaVuSans-48" transform="translate(220.947266 0)"/>
     </g>
    </g>
   </g>
   <g id="line2d_14">
    <path d="M 78.400909 185.551064 
L 78.400909 186.288656 
L 81.989333 186.308446 
L 81.989333 186.303499 
L 81.989333 185.709479 
L 81.989333 186.021332 
L 85.577756 186.4916 
L 85.577756 185.808462 
L 85.577756 187.080671 
L 89.16618 186.392586 
L 89.16618 185.343172 
L 92.754604 187.585572 
L 92.754604 186.298551 
L 96.343028 187.828128 
L 96.343028 184.808555 
L 96.343028 185.674815 
L 99.931451 188.060788 
L 99.931451 184.892695 
L 103.519875 185.798567 
L 103.519875 185.788672 
L 103.519875 187.29351 
L 103.519875 185.046163 
L 107.108299 186.189642 
L 107.108299 189.194372 
L 110.696722 186.382691 
L 110.696722 188.758768 
L 114.285146 186.630194 
L 114.285146 189.917091 
L 114.285146 185.793619 
L 117.87357 184.476881 
L 117.87357 186.466862 
L 117.87357 186.357953 
L 121.461993 184.080858 
L 121.461993 186.714365 
L 125.050417 186.902466 
L 125.050417 185.902528 
L 125.050417 188.956765 
L 125.050417 187.174706 
L 128.638841 186.308446 
L 128.638841 188.234046 
L 128.638841 186.768819 
L 132.227264 188.209308 
L 132.227264 184.96694 
L 132.227264 186.402481 
L 135.815688 186.654963 
L 135.815688 189.318124 
L 135.815688 186.476757 
L 139.404112 186.565844 
L 139.404112 182.323569 
L 139.404112 188.506318 
L 142.992535 191.446698 
L 142.992535 186.768819 
L 146.580959 185.125355 
L 146.580959 187.491537 
L 146.580959 184.778839 
L 146.580959 187.248982 
L 150.169383 186.224275 
L 150.169383 186.105472 
L 150.169383 187.006427 
L 150.169383 186.585635 
L 153.757807 185.74906 
L 153.757807 188.545899 
L 157.34623 186.466862 
L 157.34623 187.536066 
L 157.34623 186.734155 
L 160.934654 185.98172 
L 160.934654 187.48659 
L 164.523078 185.343172 
L 164.523078 186.798504 
L 168.111501 184.749153 
L 168.111501 186.818295 
L 168.111501 185.402574 
L 171.699925 184.739227 
L 171.699925 189.397347 
L 171.699925 186.630194 
L 175.288349 186.481704 
L 175.288349 187.743988 
L 175.288349 187.743988 
L 178.876772 186.382691 
L 178.876772 187.476664 
L 182.465196 188.135033 
L 182.465196 186.471809 
L 182.465196 186.981658 
L 186.05362 185.43226 
L 186.05362 187.907351 
L 186.05362 187.214318 
L 189.642043 186.838116 
L 189.642043 183.5908 
L 193.230467 186.917308 
L 193.230467 187.59052 
L 193.230467 186.387638 
L 196.818891 186.590613 
L 196.818891 188.402357 
L 196.818891 186.635141 
L 200.407314 186.19459 
L 200.407314 187.303436 
L 203.995738 186.333184 
L 203.995738 189.625029 
L 207.584162 193.332687 
L 207.584162 186.664858 
L 207.584162 186.843064 
L 211.172585 187.768726 
L 211.172585 194.25838 
L 211.172585 186.714365 
L 214.761009 187.29351 
L 214.761009 186.19459 
L 214.761009 187.857844 
L 218.349433 187.065829 
L 218.349433 187.748935 
L 218.349433 186.773766 
L 221.937857 189.194372 
L 221.937857 186.848011 
L 221.937857 187.402419 
L 225.52628 185.546116 
L 225.52628 191.27344 
L 225.52628 187.164811 
L 229.114704 187.996438 
L 229.114704 191.223933 
L 229.114704 187.407367 
L 229.114704 187.437083 
L 232.703128 187.862792 
L 232.703128 185.89758 
L 232.703128 190.144803 
L 236.291551 188.971607 
L 236.291551 185.249106 
L 236.291551 187.29351 
L 239.879975 187.689534 
L 239.879975 186.219328 
L 239.879975 188.37264 
L 243.468399 188.852834 
L 243.468399 187.709324 
L 247.056822 188.704314 
L 247.056822 190.818015 
L 247.056822 188.635017 
L 250.645246 190.362621 
L 250.645246 188.219203 
L 250.645246 189.288438 
L 254.23367 193.040655 
L 254.23367 189.595343 
L 254.23367 189.922038 
L 257.822093 191.288283 
L 257.822093 189.288438 
L 257.822093 194.218768 
L 261.410517 193.312896 
L 261.410517 191.070496 
L 261.410517 193.535661 
L 264.998941 194.124733 
L 264.998941 193.278263 
L 264.998941 195.090007 
L 268.587364 197.634364 
L 268.587364 199.42137 
L 268.587364 197.901688 
L 272.175788 201.064803 
L 272.175788 203.29236 
L 272.175788 201.55984 
L 275.764212 206.079304 
L 275.764212 199.723327 
L 279.352636 199.04022 
L 279.352636 197.416578 
L 279.352636 201.64398 
L 279.352636 198.357083 
L 282.941059 196.248329 
L 282.941059 194.461324 
L 282.941059 202.584516 
L 286.529483 192.481269 
L 286.529483 195.065238 
L 286.529483 195.065238 
L 290.117907 192.045665 
L 290.117907 190.97643 
L 290.117907 192.842629 
L 290.117907 191.65459 
L 293.70633 191.555607 
L 293.70633 191.065549 
L 293.70633 193.49605 
L 297.294754 196.594846 
L 297.294754 190.912081 
L 300.883178 199.050116 
L 300.883178 194.951382 
L 304.471601 202.302349 
L 304.471601 209.851281 
L 308.060025 214.311343 
L 308.060025 224.023452 
L 311.648449 224.137308 
L 311.648449 227.112322 
L 311.648449 226.12231 
L 315.236872 227.137091 
L 315.236872 223.152244 
L 318.825296 211.940244 
L 318.825296 211.969929 
L 318.825296 219.216904 
L 322.41372 198.520446 
L 322.41372 206.579257 
L 326.002143 194.441533 
L 326.002143 199.218426 
L 329.590567 196.005774 
L 329.590567 194.392026 
L 333.178991 198.04523 
L 333.178991 206.856477 
L 336.767415 202.495397 
L 336.767415 196.466147 
L 340.355838 195.565222 
L 340.355838 172.383624 
L 343.944262 165.453357 
L 343.944262 133.336177 
L 347.532686 123.361292 
L 347.532686 92.08966 
L 351.121109 83.149069 
L 351.121109 75.158909 
L 354.709533 80.832209 
L 354.709533 96.708414 
L 358.297957 102.85192 
L 358.297957 133.454981 
L 361.88638 144.2862 
L 361.88638 172.294506 
L 365.474804 176.462567 
L 365.474804 186.481704 
L 369.063228 187.882582 
L 369.063228 193.837619 
L 372.651651 191.65459 
L 372.651651 194.377184 
L 372.651651 189.694357 
L 376.240075 190.590333 
L 376.240075 189.674535 
L 376.240075 192.609968 
L 376.240075 190.159646 
L 379.828499 189.5805 
L 379.828499 187.714272 
L 379.828499 190.654683 
L 383.416922 190.486372 
L 383.416922 189.253774 
L 383.416922 189.852741 
L 387.005346 192.788174 
L 387.005346 186.343079 
L 387.005346 189.530994 
L 390.59377 189.139918 
L 390.59377 190.788329 
L 390.59377 188.719157 
L 394.182193 190.996221 
L 394.182193 187.580625 
L 397.770617 188.342955 
L 397.770617 187.432135 
L 397.770617 189.040935 
L 397.770617 188.293448 
L 401.359041 188.278605 
L 401.359041 188.164749 
L 401.359041 191.412034 
L 401.359041 188.813223 
L 404.947465 187.541044 
L 404.947465 188.308291 
L 404.947465 186.595561 
L 408.535888 186.843064 
L 408.535888 186.773766 
L 408.535888 188.526108 
L 412.124312 186.44704 
L 412.124312 191.892198 
L 412.124312 187.669743 
L 415.712736 187.026217 
L 415.712736 185.05111 
L 415.712736 186.72426 
L 419.301159 187.263825 
L 419.301159 185.43226 
L 419.301159 188.689471 
L 419.301159 187.372733 
L 422.889583 187.046007 
L 422.889583 190.050768 
L 422.889583 188.169697 
L 426.478007 186.531211 
L 426.478007 187.427188 
L 426.478007 185.303561 
L 430.06643 187.055903 
L 430.06643 186.8084 
L 430.06643 186.882644 
L 433.654854 187.303436 
L 433.654854 187.229161 
L 433.654854 182.343359 
L 437.243278 186.907413 
L 437.243278 187.605394 
L 437.243278 184.343235 
L 437.243278 186.912361 
L 440.831701 186.551001 
L 440.831701 189.639902 
L 440.831701 186.922256 
L 444.420125 183.288843 
L 444.420125 188.149906 
L 444.420125 186.961867 
L 448.008549 187.248982 
L 448.008549 186.674753 
L 448.008549 187.555887 
L 448.008549 186.783662 
L 451.596972 186.857906 
L 451.596972 183.011623 
L 451.596972 186.942046 
L 455.185396 186.768819 
L 455.185396 186.773766 
L 455.185396 186.541106 
L 455.185396 187.184632 
L 458.77382 187.323227 
L 458.77382 187.867739 
L 458.77382 186.773766 
L 458.77382 187.169759 
L 462.362244 186.704439 
L 462.362244 186.951972 
L 462.362244 185.407522 
L 465.950667 186.357953 
L 465.950667 185.333246 
L 465.950667 186.570792 
L 469.539091 185.13525 
L 469.539091 188.461759 
L 469.539091 187.729145 
" clip-path="url(#p4f72ece58e)" style="fill: none; stroke: #cc7000; stroke-opacity: 0.7; stroke-width: 1.4; stroke-linecap: square"/>
   </g>
   <g id="line2d_15">
    <path d="M 78.400909 186.120345 
L 81.989333 186.162415 
L 85.577756 186.278745 
L 89.16618 185.924792 
L 92.754604 187.05097 
L 96.343028 185.27386 
L 99.931451 186.348042 
L 103.519875 185.793619 
L 107.108299 186.590613 
L 110.696722 186.694559 
L 114.285146 186.729207 
L 117.87357 186.328252 
L 121.461993 186.13024 
L 125.050417 187.038586 
L 128.638841 186.684664 
L 132.227264 186.422287 
L 135.815688 186.627735 
L 139.404112 186.335658 
L 142.992535 188.763716 
L 146.580959 186.187168 
L 150.169383 186.404955 
L 153.757807 186.258939 
L 157.34623 186.880186 
L 160.934654 186.773751 
L 164.523078 185.902528 
L 168.111501 185.508994 
L 171.699925 186.929677 
L 175.288349 187.476679 
L 178.876772 186.751487 
L 182.465196 187.033638 
L 186.05362 186.706928 
L 189.642043 186.486637 
L 193.230467 186.805926 
L 196.818891 187.162337 
L 200.407314 186.706928 
L 203.995738 187.778636 
L 207.584162 187.120267 
L 211.172585 187.263809 
L 214.761009 187.154916 
L 218.349433 187.197001 
L 221.937857 187.692007 
L 225.52628 186.506442 
L 229.114704 187.716761 
L 232.703128 187.169774 
L 236.291551 187.461821 
L 239.879975 187.607852 
L 243.468399 188.51125 
L 247.056822 188.704314 
L 250.645246 189.023603 
L 254.23367 190.773471 
L 257.822093 191.535801 
L 261.410517 192.577809 
L 264.998941 193.911879 
L 268.587364 198.312539 
L 272.175788 201.478158 
L 275.764212 202.002865 
L 279.352636 198.698652 
L 282.941059 197.270531 
L 286.529483 194.231153 
L 290.117907 191.850128 
L 293.70633 191.82539 
L 297.294754 193.713867 
L 300.883178 196.993327 
L 304.471601 208.00243 
L 308.060025 219.323339 
L 311.648449 226.270815 
L 315.236872 223.652198 
L 318.825296 214.704877 
L 322.41372 203.871537 
L 326.002143 196.723545 
L 329.590567 195.231075 
L 333.178991 199.99311 
L 336.767415 199.441176 
L 340.355838 185.860458 
L 343.944262 149.89976 
L 347.532686 106.720652 
L 351.121109 76.381689 
L 354.709533 84.985704 
L 358.297957 117.967885 
L 361.88638 157.872112 
L 365.474804 181.016711 
L 369.063228 190.154699 
L 372.651651 191.926861 
L 376.240075 190.37499 
L 379.828499 189.585448 
L 383.416922 189.738885 
L 387.005346 188.746399 
L 390.59377 189.649782 
L 394.182193 189.323087 
L 397.770617 188.318201 
L 401.359041 188.545914 
L 404.947465 187.402434 
L 408.535888 187.352928 
L 412.124312 187.446978 
L 415.712736 186.080734 
L 419.301159 187.318279 
L 422.889583 187.808337 
L 426.478007 186.231728 
L 430.06643 186.927204 
L 433.654854 187.226687 
L 437.243278 186.909887 
L 440.831701 186.994042 
L 444.420125 186.749013 
L 448.008549 187.016322 
L 451.596972 186.387638 
L 455.185396 186.771293 
L 458.77382 187.246493 
L 462.362244 186.105472 
L 465.950667 185.909965 
L 469.539091 187.674691 
" clip-path="url(#p4f72ece58e)" style="fill: none; stroke: #2980b9; stroke-width: 2; stroke-linecap: square"/>
   </g>
   <g id="line2d_16">
    <path d="M 78.400909 184.03155 
L 81.989333 184.141662 
L 85.577756 184.252748 
L 89.16618 184.364849 
L 92.754604 184.478011 
L 96.343028 184.592282 
L 99.931451 184.707712 
L 103.519875 184.824355 
L 107.108299 184.942269 
L 110.696722 185.061515 
L 114.285146 185.182156 
L 117.87357 185.304263 
L 121.461993 185.427909 
L 125.050417 185.553172 
L 128.638841 185.680135 
L 132.227264 185.808889 
L 135.815688 185.939529 
L 139.404112 186.072158 
L 142.992535 186.206885 
L 146.580959 186.343829 
L 150.169383 186.483117 
L 153.757807 186.624885 
L 157.34623 186.769281 
L 160.934654 186.916463 
L 164.523078 187.066603 
L 168.111501 187.219886 
L 171.699925 187.376514 
L 175.288349 187.536706 
L 178.876772 187.700697 
L 182.465196 187.868746 
L 186.05362 188.041134 
L 189.642043 188.218168 
L 193.230467 188.400185 
L 196.818891 188.587551 
L 200.407314 188.780671 
L 203.995738 188.979988 
L 207.584162 189.185993 
L 211.172585 189.399226 
L 214.761009 189.620284 
L 218.349433 189.849829 
L 221.937857 190.0886 
L 225.52628 190.337416 
L 229.114704 190.597193 
L 232.703128 190.868956 
L 236.291551 191.153855 
L 239.879975 191.453183 
L 243.468399 191.768398 
L 247.056822 192.101147 
L 250.645246 192.453299 
L 254.23367 192.826974 
L 257.822093 193.224585 
L 261.410517 193.648888 
L 264.998941 194.10303 
L 268.587364 194.590613 
L 272.175788 195.115761 
L 275.764212 195.683194 
L 279.352636 196.298301 
L 282.941059 196.967207 
L 286.529483 197.696816 
L 290.117907 198.494789 
L 293.70633 199.369407 
L 297.294754 200.329189 
L 300.883178 201.38206 
L 304.471601 202.533656 
L 308.060025 203.784003 
L 311.648449 205.121106 
L 315.236872 206.508627 
L 318.825296 207.862123 
L 322.41372 209.003079 
L 326.002143 209.57007 
L 329.590567 208.849878 
L 333.178991 205.474325 
L 336.767415 196.963253 
L 340.355838 179.415749 
L 343.944262 148.905755 
L 347.532686 108.25796 
L 351.121109 77.600573 
L 354.709533 83.244377 
L 358.297957 119.717634 
L 361.88638 156.900842 
L 365.474804 179.514533 
L 369.063228 189.579192 
L 372.651651 192.778684 
L 376.240075 192.962046 
L 379.828499 192.051893 
L 383.416922 190.883187 
L 387.005346 189.78008 
L 390.59377 188.846427 
L 394.182193 188.097209 
L 397.770617 187.515093 
L 401.359041 187.073828 
L 404.947465 186.747365 
L 408.535888 186.512946 
L 412.124312 186.351751 
L 415.712736 186.248622 
L 419.301159 186.191504 
L 422.889583 186.170867 
L 426.478007 186.179187 
L 430.06643 186.210518 
L 433.654854 186.260154 
L 437.243278 186.32436 
L 440.831701 186.400158 
L 444.420125 186.485171 
L 448.008549 186.577493 
L 451.596972 186.675591 
L 455.185396 186.778228 
L 458.77382 186.884403 
L 462.362244 186.993308 
L 465.950667 187.104283 
L 469.539091 187.216795 
" clip-path="url(#p4f72ece58e)" style="fill: none; stroke: #ffa500; stroke-width: 2.5; stroke-linecap: square"/>
   </g>
   <g id="patch_3">
    <path d="M 58.844 234.736 
L 58.844 67.56 
" style="fill: none; stroke: #000000; stroke-width: 0.8; stroke-linejoin: miter; stroke-linecap: square"/>
   </g>
   <g id="patch_4">
    <path d="M 489.096 234.736 
L 489.096 67.56 
" style="fill: none; stroke: #000000; stroke-width: 0.8; stroke-linejoin: miter; stroke-linecap: square"/>
   </g>
   <g id="patch_5">
    <path d="M 58.844 234.736 
L 489.096 234.736 
" style="fill: none; stroke: #000000; stroke-width: 0.8; stroke-linejoin: miter; stroke-linecap: square"/>
   </g>
   <g id="patch_6">
    <path d="M 58.844 67.56 
L 489.096 67.56 
" style="fill: none; stroke: #000000; stroke-width: 0.8; stroke-linejoin: miter; stroke-linecap: square"/>
   </g>
   <g id="text_16">
    <!-- AZ5, f=5 GHz, 10 dB -->
    <g transform="translate(190.38207 25.503044) scale(0.161 -0.161)">
     <defs>
      <path id="DejaVuSans-41" d="M 2188 4044 
L 1331 1722 
L 3047 1722 
L 2188 4044 
z
M 1831 4666 
L 2547 4666 
L 4325 0 
L 3669 0 
L 3244 1197 
L 1141 1197 
L 716 0 
L 50 0 
L 1831 4666 
z
" transform="scale(0.015625)"/>
      <path id="DejaVuSans-5a" d="M 359 4666 
L 4025 4666 
L 4025 4184 
L 1075 531 
L 4097 531 
L 4097 0 
L 288 0 
L 288 481 
L 3238 4134 
L 359 4134 
L 359 4666 
z
" transform="scale(0.015625)"/>
      <path id="DejaVuSans-35" d="M 691 4666 
L 3169 4666 
L 3169 4134 
L 1269 4134 
L 1269 2991 
Q 1406 3038 1543 3061 
Q 1681 3084 1819 3084 
Q 2600 3084 3056 2656 
Q 3513 2228 3513 1497 
Q 3513 744 3044 326 
Q 2575 -91 1722 -91 
Q 1428 -91 1123 -41 
Q 819 9 494 109 
L 494 744 
Q 775 591 1075 516 
Q 1375 441 1709 441 
Q 2250 441 2565 725 
Q 2881 1009 2881 1497 
Q 2881 1984 2565 2268 
Q 2250 2553 1709 2553 
Q 1456 2553 1204 2497 
Q 953 2441 691 2322 
L 691 4666 
z
" transform="scale(0.015625)"/>
      <path id="DejaVuSans-2c" d="M 750 794 
L 1409 794 
L 1409 256 
L 897 -744 
L 494 -744 
L 750 256 
L 750 794 
z
" transform="scale(0.015625)"/>
      <path id="DejaVuSans-66" d="M 2375 4863 
L 2375 4384 
L 1825 4384 
Q 1516 4384 1395 4259 
Q 1275 4134 1275 3809 
L 1275 3500 
L 2222 3500 
L 2222 3053 
L 1275 3053 
L 1275 0 
L 697 0 
L 697 3053 
L 147 3053 
L 147 3500 
L 697 3500 
L 697 3744 
Q 697 4328 969 4595 
Q 1241 4863 1831 4863 
L 2375 4863 
z
" transform="scale(0.015625)"/>
      <path id="DejaVuSans-3d" d="M 678 2906 
L 4684 2906 
L 4684 2381 
L 678 2381 
L 678 2906 
z
M 678 1631 
L 4684 1631 
L 4684 1100 
L 678 1100 
L 678 1631 
z
" transform="scale(0.015625)"/>
      <path id="DejaVuSans-47" d="M 3809 666 
L 3809 1919 
L 2778 1919 
L 2778 2438 
L 4434 2438 
L 4434 434 
Q 4069 175 3628 42 
Q 3188 -91 2688 -91 
Q 1594 -91 976 548 
Q 359 1188 359 2328 
Q 359 3472 976 4111 
Q 1594 4750 2688 4750 
Q 3144 4750 3555 4637 
Q 3966 4525 4313 4306 
L 4313 3634 
Q 3963 3931 3569 4081 
Q 3175 4231 2741 4231 
Q 1884 4231 1454 3753 
Q 1025 3275 1025 2328 
Q 1025 1384 1454 906 
Q 1884 428 2741 428 
Q 3075 428 3337 486 
Q 3600 544 3809 666 
z
" transform="scale(0.015625)"/>
      <path id="DejaVuSans-7a" d="M 353 3500 
L 3084 3500 
L 3084 2975 
L 922 459 
L 3084 459 
L 3084 0 
L 275 0 
L 275 525 
L 2438 3041 
L 353 3041 
L 353 3500 
z
" transform="scale(0.015625)"/>
      <path id="DejaVuSans-42" d="M 1259 2228 
L 1259 519 
L 2272 519 
Q 2781 519 3026 730 
Q 3272 941 3272 1375 
Q 3272 1813 3026 2020 
Q 2781 2228 2272 2228 
L 1259 2228 
z
M 1259 4147 
L 1259 2741 
L 2194 2741 
Q 2656 2741 2882 2914 
Q 3109 3088 3109 3444 
Q 3109 3797 2882 3972 
Q 2656 4147 2194 4147 
L 1259 4147 
z
M 628 4666 
L 2241 4666 
Q 2963 4666 3353 4366 
Q 3744 4066 3744 3513 
Q 3744 3084 3544 2831 
Q 3344 2578 2956 2516 
Q 3422 2416 3680 2098 
Q 3938 1781 3938 1306 
Q 3938 681 3513 340 
Q 3088 0 2303 0 
L 628 0 
L 628 4666 
z
" transform="scale(0.015625)"/>
     </defs>
     <use xlink:href="#DejaVuSans-41"/>
     <use xlink:href="#DejaVuSans-5a" transform="translate(68.408203 0)"/>
     <use xlink:href="#DejaVuSans-35" transform="translate(136.914062 0)"/>
     <use xlink:href="#DejaVuSans-2c" transform="translate(200.537109 0)"/>
     <use xlink:href="#DejaVuSans-20" transform="translate(232.324219 0)"/>
     <use xlink:href="#DejaVuSans-66" transform="translate(264.111328 0)"/>
     <use xlink:href="#DejaVuSans-3d" transform="translate(299.316406 0)"/>
     <use xlink:href="#DejaVuSans-35" transform="translate(383.105469 0)"/>
     <use xlink:href="#DejaVuSans-20" transform="translate(446.728516 0)"/>
     <use xlink:href="#DejaVuSans-47" transform="translate(478.515625 0)"/>
     <use xlink:href="#DejaVuSans-48" transform="translate(556.005859 0)"/>
     <use xlink:href="#DejaVuSans-7a" transform="translate(631.201172 0)"/>
     <use xlink:href="#DejaVuSans-2c" transform="translate(683.691406 0)"/>
     <use xlink:href="#DejaVuSans-20" transform="translate(715.478516 0)"/>
     <use xlink:href="#DejaVuSans-31" transform="translate(747.265625 0)"/>
     <use xlink:href="#DejaVuSans-30" transform="translate(810.888672 0)"/>
     <use xlink:href="#DejaVuSans-20" transform="translate(874.511719 0)"/>
     <use xlink:href="#DejaVuSans-64" transform="translate(906.298828 0)"/>
     <use xlink:href="#DejaVuSans-42" transform="translate(969.775391 0)"/>
    </g>
    <!-- Double Asymmetric Lorentzian -->
    <g transform="translate(149.993711 43.531522) scale(0.161 -0.161)">
     <defs>
      <path id="DejaVuSans-44" d="M 1259 4147 
L 1259 519 
L 2022 519 
Q 2988 519 3436 956 
Q 3884 1394 3884 2338 
Q 3884 3275 3436 3711 
Q 2988 4147 2022 4147 
L 1259 4147 
z
M 628 4666 
L 1925 4666 
Q 3281 4666 3915 4102 
Q 4550 3538 4550 2338 
Q 4550 1131 3912 565 
Q 3275 0 1925 0 
L 628 0 
L 628 4666 
z
" transform="scale(0.015625)"/>
      <path id="DejaVuSans-6f" d="M 1959 3097 
Q 1497 3097 1228 2736 
Q 959 2375 959 1747 
Q 959 1119 1226 758 
Q 1494 397 1959 397 
Q 2419 397 2687 759 
Q 2956 1122 2956 1747 
Q 2956 2369 2687 2733 
Q 2419 3097 1959 3097 
z
M 1959 3584 
Q 2709 3584 3137 3096 
Q 3566 2609 3566 1747 
Q 3566 888 3137 398 
Q 2709 -91 1959 -91 
Q 1206 -91 779 398 
Q 353 888 353 1747 
Q 353 2609 779 3096 
Q 1206 3584 1959 3584 
z
" transform="scale(0.015625)"/>
      <path id="DejaVuSans-75" d="M 544 1381 
L 544 3500 
L 1119 3500 
L 1119 1403 
Q 1119 906 1312 657 
Q 1506 409 1894 409 
Q 2359 409 2629 706 
Q 2900 1003 2900 1516 
L 2900 3500 
L 3475 3500 
L 3475 0 
L 2900 0 
L 2900 538 
Q 2691 219 2414 64 
Q 2138 -91 1772 -91 
Q 1169 -91 856 284 
Q 544 659 544 1381 
z
M 1991 3584 
L 1991 3584 
z
" transform="scale(0.015625)"/>
      <path id="DejaVuSans-62" d="M 3116 1747 
Q 3116 2381 2855 2742 
Q 2594 3103 2138 3103 
Q 1681 3103 1420 2742 
Q 1159 2381 1159 1747 
Q 1159 1113 1420 752 
Q 1681 391 2138 391 
Q 2594 391 2855 752 
Q 3116 1113 3116 1747 
z
M 1159 2969 
Q 1341 3281 1617 3432 
Q 1894 3584 2278 3584 
Q 2916 3584 3314 3078 
Q 3713 2572 3713 1747 
Q 3713 922 3314 415 
Q 2916 -91 2278 -91 
Q 1894 -91 1617 61 
Q 1341 213 1159 525 
L 1159 0 
L 581 0 
L 581 4863 
L 1159 4863 
L 1159 2969 
z
" transform="scale(0.015625)"/>
      <path id="DejaVuSans-6c" d="M 603 4863 
L 1178 4863 
L 1178 0 
L 603 0 
L 603 4863 
z
" transform="scale(0.015625)"/>
      <path id="DejaVuSans-65" d="M 3597 1894 
L 3597 1613 
L 953 1613 
Q 991 1019 1311 708 
Q 1631 397 2203 397 
Q 2534 397 2845 478 
Q 3156 559 3463 722 
L 3463 178 
Q 3153 47 2828 -22 
Q 2503 -91 2169 -91 
Q 1331 -91 842 396 
Q 353 884 353 1716 
Q 353 2575 817 3079 
Q 1281 3584 2069 3584 
Q 2775 3584 3186 3129 
Q 3597 2675 3597 1894 
z
M 3022 2063 
Q 3016 2534 2758 2815 
Q 2500 3097 2075 3097 
Q 1594 3097 1305 2825 
Q 1016 2553 972 2059 
L 3022 2063 
z
" transform="scale(0.015625)"/>
      <path id="DejaVuSans-73" d="M 2834 3397 
L 2834 2853 
Q 2591 2978 2328 3040 
Q 2066 3103 1784 3103 
Q 1356 3103 1142 2972 
Q 928 2841 928 2578 
Q 928 2378 1081 2264 
Q 1234 2150 1697 2047 
L 1894 2003 
Q 2506 1872 2764 1633 
Q 3022 1394 3022 966 
Q 3022 478 2636 193 
Q 2250 -91 1575 -91 
Q 1294 -91 989 -36 
Q 684 19 347 128 
L 347 722 
Q 666 556 975 473 
Q 1284 391 1588 391 
Q 1994 391 2212 530 
Q 2431 669 2431 922 
Q 2431 1156 2273 1281 
Q 2116 1406 1581 1522 
L 1381 1569 
Q 847 1681 609 1914 
Q 372 2147 372 2553 
Q 372 3047 722 3315 
Q 1072 3584 1716 3584 
Q 2034 3584 2315 3537 
Q 2597 3491 2834 3397 
z
" transform="scale(0.015625)"/>
      <path id="DejaVuSans-79" d="M 2059 -325 
Q 1816 -950 1584 -1140 
Q 1353 -1331 966 -1331 
L 506 -1331 
L 506 -850 
L 844 -850 
Q 1081 -850 1212 -737 
Q 1344 -625 1503 -206 
L 1606 56 
L 191 3500 
L 800 3500 
L 1894 763 
L 2988 3500 
L 3597 3500 
L 2059 -325 
z
" transform="scale(0.015625)"/>
      <path id="DejaVuSans-6d" d="M 3328 2828 
Q 3544 3216 3844 3400 
Q 4144 3584 4550 3584 
Q 5097 3584 5394 3201 
Q 5691 2819 5691 2113 
L 5691 0 
L 5113 0 
L 5113 2094 
Q 5113 2597 4934 2840 
Q 4756 3084 4391 3084 
Q 3944 3084 3684 2787 
Q 3425 2491 3425 1978 
L 3425 0 
L 2847 0 
L 2847 2094 
Q 2847 2600 2669 2842 
Q 2491 3084 2119 3084 
Q 1678 3084 1418 2786 
Q 1159 2488 1159 1978 
L 1159 0 
L 581 0 
L 581 3500 
L 1159 3500 
L 1159 2956 
Q 1356 3278 1631 3431 
Q 1906 3584 2284 3584 
Q 2666 3584 2933 3390 
Q 3200 3197 3328 2828 
z
" transform="scale(0.015625)"/>
      <path id="DejaVuSans-74" d="M 1172 4494 
L 1172 3500 
L 2356 3500 
L 2356 3053 
L 1172 3053 
L 1172 1153 
Q 1172 725 1289 603 
Q 1406 481 1766 481 
L 2356 481 
L 2356 0 
L 1766 0 
Q 1100 0 847 248 
Q 594 497 594 1153 
L 594 3053 
L 172 3053 
L 172 3500 
L 594 3500 
L 594 4494 
L 1172 4494 
z
" transform="scale(0.015625)"/>
      <path id="DejaVuSans-72" d="M 2631 2963 
Q 2534 3019 2420 3045 
Q 2306 3072 2169 3072 
Q 1681 3072 1420 2755 
Q 1159 2438 1159 1844 
L 1159 0 
L 581 0 
L 581 3500 
L 1159 3500 
L 1159 2956 
Q 1341 3275 1631 3429 
Q 1922 3584 2338 3584 
Q 2397 3584 2469 3576 
Q 2541 3569 2628 3553 
L 2631 2963 
z
" transform="scale(0.015625)"/>
      <path id="DejaVuSans-69" d="M 603 3500 
L 1178 3500 
L 1178 0 
L 603 0 
L 603 3500 
z
M 603 4863 
L 1178 4863 
L 1178 4134 
L 603 4134 
L 603 4863 
z
" transform="scale(0.015625)"/>
      <path id="DejaVuSans-63" d="M 3122 3366 
L 3122 2828 
Q 2878 2963 2633 3030 
Q 2388 3097 2138 3097 
Q 1578 3097 1268 2742 
Q 959 2388 959 1747 
Q 959 1106 1268 751 
Q 1578 397 2138 397 
Q 2388 397 2633 464 
Q 2878 531 3122 666 
L 3122 134 
Q 2881 22 2623 -34 
Q 2366 -91 2075 -91 
Q 1284 -91 818 406 
Q 353 903 353 1747 
Q 353 2603 823 3093 
Q 1294 3584 2113 3584 
Q 2378 3584 2631 3529 
Q 2884 3475 3122 3366 
z
" transform="scale(0.015625)"/>
      <path id="DejaVuSans-4c" d="M 628 4666 
L 1259 4666 
L 1259 531 
L 3531 531 
L 3531 0 
L 628 0 
L 628 4666 
z
" transform="scale(0.015625)"/>
      <path id="DejaVuSans-6e" d="M 3513 2113 
L 3513 0 
L 2938 0 
L 2938 2094 
Q 2938 2591 2744 2837 
Q 2550 3084 2163 3084 
Q 1697 3084 1428 2787 
Q 1159 2491 1159 1978 
L 1159 0 
L 581 0 
L 581 3500 
L 1159 3500 
L 1159 2956 
Q 1366 3272 1645 3428 
Q 1925 3584 2291 3584 
Q 2894 3584 3203 3211 
Q 3513 2838 3513 2113 
z
" transform="scale(0.015625)"/>
      <path id="DejaVuSans-61" d="M 2194 1759 
Q 1497 1759 1228 1600 
Q 959 1441 959 1056 
Q 959 750 1161 570 
Q 1363 391 1709 391 
Q 2188 391 2477 730 
Q 2766 1069 2766 1631 
L 2766 1759 
L 2194 1759 
z
M 3341 1997 
L 3341 0 
L 2766 0 
L 2766 531 
Q 2569 213 2275 61 
Q 1981 -91 1556 -91 
Q 1019 -91 701 211 
Q 384 513 384 1019 
Q 384 1609 779 1909 
Q 1175 2209 1959 2209 
L 2766 2209 
L 2766 2266 
Q 2766 2663 2505 2880 
Q 2244 3097 1772 3097 
Q 1472 3097 1187 3025 
Q 903 2953 641 2809 
L 641 3341 
Q 956 3463 1253 3523 
Q 1550 3584 1831 3584 
Q 2591 3584 2966 3190 
Q 3341 2797 3341 1997 
z
" transform="scale(0.015625)"/>
     </defs>
     <use xlink:href="#DejaVuSans-44"/>
     <use xlink:href="#DejaVuSans-6f" transform="translate(77.001953 0)"/>
     <use xlink:href="#DejaVuSans-75" transform="translate(138.183594 0)"/>
     <use xlink:href="#DejaVuSans-62" transform="translate(201.5625 0)"/>
     <use xlink:href="#DejaVuSans-6c" transform="translate(265.039062 0)"/>
     <use xlink:href="#DejaVuSans-65" transform="translate(292.822266 0)"/>
     <use xlink:href="#DejaVuSans-20" transform="translate(354.345703 0)"/>
     <use xlink:href="#DejaVuSans-41" transform="translate(386.132812 0)"/>
     <use xlink:href="#DejaVuSans-73" transform="translate(454.541016 0)"/>
     <use xlink:href="#DejaVuSans-79" transform="translate(506.640625 0)"/>
     <use xlink:href="#DejaVuSans-6d" transform="translate(565.820312 0)"/>
     <use xlink:href="#DejaVuSans-6d" transform="translate(663.232422 0)"/>
     <use xlink:href="#DejaVuSans-65" transform="translate(760.644531 0)"/>
     <use xlink:href="#DejaVuSans-74" transform="translate(822.167969 0)"/>
     <use xlink:href="#DejaVuSans-72" transform="translate(861.376953 0)"/>
     <use xlink:href="#DejaVuSans-69" transform="translate(902.490234 0)"/>
     <use xlink:href="#DejaVuSans-63" transform="translate(930.273438 0)"/>
     <use xlink:href="#DejaVuSans-20" transform="translate(985.253906 0)"/>
     <use xlink:href="#DejaVuSans-4c" transform="translate(1017.041016 0)"/>
     <use xlink:href="#DejaVuSans-6f" transform="translate(1071.003906 0)"/>
     <use xlink:href="#DejaVuSans-72" transform="translate(1132.185547 0)"/>
     <use xlink:href="#DejaVuSans-65" transform="translate(1171.048828 0)"/>
     <use xlink:href="#DejaVuSans-6e" transform="translate(1232.572266 0)"/>
     <use xlink:href="#DejaVuSans-74" transform="translate(1295.951172 0)"/>
     <use xlink:href="#DejaVuSans-7a" transform="translate(1335.160156 0)"/>
     <use xlink:href="#DejaVuSans-69" transform="translate(1387.650391 0)"/>
     <use xlink:href="#DejaVuSans-61" transform="translate(1415.433594 0)"/>
     <use xlink:href="#DejaVuSans-6e" transform="translate(1476.712891 0)"/>
    </g>
    <!-- $H_1$=100.3464 T, $H_2$=100.3454 T, R²=0.953 -->
    <g transform="translate(100.09 61.56) scale(0.161 -0.161)">
     <defs>
      <path id="DejaVuSans-Oblique-48" d="M 1081 4666 
L 1716 4666 
L 1344 2753 
L 3634 2753 
L 4006 4666 
L 4641 4666 
L 3731 0 
L 3097 0 
L 3531 2222 
L 1241 2222 
L 806 0 
L 172 0 
L 1081 4666 
z
" transform="scale(0.015625)"/>
      <path id="DejaVuSans-2e" d="M 684 794 
L 1344 794 
L 1344 0 
L 684 0 
L 684 794 
z
" transform="scale(0.015625)"/>
      <path id="DejaVuSans-52" d="M 2841 2188 
Q 3044 2119 3236 1894 
Q 3428 1669 3622 1275 
L 4263 0 
L 3584 0 
L 2988 1197 
Q 2756 1666 2539 1819 
Q 2322 1972 1947 1972 
L 1259 1972 
L 1259 0 
L 628 0 
L 628 4666 
L 2053 4666 
Q 2853 4666 3247 4331 
Q 3641 3997 3641 3322 
Q 3641 2881 3436 2590 
Q 3231 2300 2841 2188 
z
M 1259 4147 
L 1259 2491 
L 2053 2491 
Q 2509 2491 2742 2702 
Q 2975 2913 2975 3322 
Q 2975 3731 2742 3939 
Q 2509 4147 2053 4147 
L 1259 4147 
z
" transform="scale(0.015625)"/>
      <path id="DejaVuSans-b2" d="M 838 2444 
L 2163 2444 
L 2163 2088 
L 294 2088 
L 294 2431 
Q 400 2528 597 2703 
Q 1672 3656 1672 3950 
Q 1672 4156 1509 4282 
Q 1347 4409 1081 4409 
Q 919 4409 728 4354 
Q 538 4300 313 4191 
L 313 4575 
Q 553 4663 761 4706 
Q 969 4750 1147 4750 
Q 1600 4750 1872 4544 
Q 2144 4338 2144 4000 
Q 2144 3566 1109 2678 
Q 934 2528 838 2444 
z
" transform="scale(0.015625)"/>
     </defs>
     <use xlink:href="#DejaVuSans-Oblique-48" transform="translate(0 0.78125)"/>
     <use xlink:href="#DejaVuSans-31" transform="translate(75.195312 -15.625) scale(0.7)"/>
     <use xlink:href="#DejaVuSans-3d" transform="translate(122.46582 0.78125)"/>
     <use xlink:href="#DejaVuSans-31" transform="translate(206.254883 0.78125)"/>
     <use xlink:href="#DejaVuSans-30" transform="translate(269.87793 0.78125)"/>
     <use xlink:href="#DejaVuSans-30" transform="translate(333.500977 0.78125)"/>
     <use xlink:href="#DejaVuSans-2e" transform="translate(397.124023 0.78125)"/>
     <use xlink:href="#DejaVuSans-33" transform="translate(428.911133 0.78125)"/>
     <use xlink:href="#DejaVuSans-34" transform="translate(492.53418 0.78125)"/>
     <use xlink:href="#DejaVuSans-36" transform="translate(556.157227 0.78125)"/>
     <use xlink:href="#DejaVuSans-34" transform="translate(619.780273 0.78125)"/>
     <use xlink:href="#DejaVuSans-20" transform="translate(683.40332 0.78125)"/>
     <use xlink:href="#DejaVuSans-54" transform="translate(715.19043 0.78125)"/>
     <use xlink:href="#DejaVuSans-2c" transform="translate(776.274414 0.78125)"/>
     <use xlink:href="#DejaVuSans-20" transform="translate(808.061523 0.78125)"/>
     <use xlink:href="#DejaVuSans-Oblique-48" transform="translate(839.848633 0.78125)"/>
     <use xlink:href="#DejaVuSans-32" transform="translate(915.043945 -15.625) scale(0.7)"/>
     <use xlink:href="#DejaVuSans-3d" transform="translate(962.314453 0.78125)"/>
     <use xlink:href="#DejaVuSans-31" transform="translate(1046.103516 0.78125)"/>
     <use xlink:href="#DejaVuSans-30" transform="translate(1109.726562 0.78125)"/>
     <use xlink:href="#DejaVuSans-30" transform="translate(1173.349609 0.78125)"/>
     <use xlink:href="#DejaVuSans-2e" transform="translate(1236.972656 0.78125)"/>
     <use xlink:href="#DejaVuSans-33" transform="translate(1268.759766 0.78125)"/>
     <use xlink:href="#DejaVuSans-34" transform="translate(1332.382812 0.78125)"/>
     <use xlink:href="#DejaVuSans-35" transform="translate(1396.005859 0.78125)"/>
     <use xlink:href="#DejaVuSans-34" transform="translate(1459.628906 0.78125)"/>
     <use xlink:href="#DejaVuSans-20" transform="translate(1523.251953 0.78125)"/>
     <use xlink:href="#DejaVuSans-54" transform="translate(1555.039062 0.78125)"/>
     <use xlink:href="#DejaVuSans-2c" transform="translate(1616.123047 0.78125)"/>
     <use xlink:href="#DejaVuSans-20" transform="translate(1647.910156 0.78125)"/>
     <use xlink:href="#DejaVuSans-52" transform="translate(1679.697266 0.78125)"/>
     <use xlink:href="#DejaVuSans-b2" transform="translate(1749.179688 0.78125)"/>
     <use xlink:href="#DejaVuSans-3d" transform="translate(1789.267578 0.78125)"/>
     <use xlink:href="#DejaVuSans-30" transform="translate(1873.056641 0.78125)"/>
     <use xlink:href="#DejaVuSans-2e" transform="translate(1936.679688 0.78125)"/>
     <use xlink:href="#DejaVuSans-39" transform="translate(1968.466797 0.78125)"/>
     <use xlink:href="#DejaVuSans-35" transform="translate(2032.089844 0.78125)"/>
     <use xlink:href="#DejaVuSans-33" transform="translate(2095.712891 0.78125)"/>
    </g>
   </g>
   <g id="legend_1">
    <g id="patch_7">
     <path d="M 68.504 139.367437 
L 260.244219 139.367437 
Q 263.004219 139.367437 263.004219 136.607438 
L 263.004219 77.22 
Q 263.004219 74.46 260.244219 74.46 
L 68.504 74.46 
Q 65.744 74.46 65.744 77.22 
L 65.744 136.607438 
Q 65.744 139.367437 68.504 139.367437 
z
" style="fill: #ffffff; opacity: 0.8; stroke: #cccccc; stroke-linejoin: miter"/>
    </g>
    <g id="line2d_17">
     <path d="M 71.264 85.635844 
L 85.064 85.635844 
L 98.864 85.635844 
" style="fill: none; stroke: #cc7000; stroke-opacity: 0.7; stroke-width: 1.4; stroke-linecap: square"/>
    </g>
    <g id="text_17">
     <!-- Raw data (curve) -->
     <g transform="translate(109.904 90.465844) scale(0.138 -0.138)">
      <defs>
       <path id="DejaVuSans-77" d="M 269 3500 
L 844 3500 
L 1563 769 
L 2278 3500 
L 2956 3500 
L 3675 769 
L 4391 3500 
L 4966 3500 
L 4050 0 
L 3372 0 
L 2619 2869 
L 1863 0 
L 1184 0 
L 269 3500 
z
" transform="scale(0.015625)"/>
       <path id="DejaVuSans-76" d="M 191 3500 
L 800 3500 
L 1894 563 
L 2988 3500 
L 3597 3500 
L 2284 0 
L 1503 0 
L 191 3500 
z
" transform="scale(0.015625)"/>
      </defs>
      <use xlink:href="#DejaVuSans-52"/>
      <use xlink:href="#DejaVuSans-61" transform="translate(67.232422 0)"/>
      <use xlink:href="#DejaVuSans-77" transform="translate(128.511719 0)"/>
      <use xlink:href="#DejaVuSans-20" transform="translate(210.298828 0)"/>
      <use xlink:href="#DejaVuSans-64" transform="translate(242.085938 0)"/>
      <use xlink:href="#DejaVuSans-61" transform="translate(305.5625 0)"/>
      <use xlink:href="#DejaVuSans-74" transform="translate(366.841797 0)"/>
      <use xlink:href="#DejaVuSans-61" transform="translate(406.050781 0)"/>
      <use xlink:href="#DejaVuSans-20" transform="translate(467.330078 0)"/>
      <use xlink:href="#DejaVuSans-28" transform="translate(499.117188 0)"/>
      <use xlink:href="#DejaVuSans-63" transform="translate(538.130859 0)"/>
      <use xlink:href="#DejaVuSans-75" transform="translate(593.111328 0)"/>
      <use xlink:href="#DejaVuSans-72" transform="translate(656.490234 0)"/>
      <use xlink:href="#DejaVuSans-76" transform="translate(697.603516 0)"/>
      <use xlink:href="#DejaVuSans-65" transform="translate(756.783203 0)"/>
      <use xlink:href="#DejaVuSans-29" transform="translate(818.306641 0)"/>
     </g>
    </g>
    <g id="line2d_18">
     <path d="M 71.264 105.891656 
L 85.064 105.891656 
L 98.864 105.891656 
" style="fill: none; stroke: #2980b9; stroke-width: 2; stroke-linecap: square"/>
    </g>
    <g id="text_18">
     <!-- Aggregated (median) -->
     <g transform="translate(109.904 110.721656) scale(0.138 -0.138)">
      <defs>
       <path id="DejaVuSans-67" d="M 2906 1791 
Q 2906 2416 2648 2759 
Q 2391 3103 1925 3103 
Q 1463 3103 1205 2759 
Q 947 2416 947 1791 
Q 947 1169 1205 825 
Q 1463 481 1925 481 
Q 2391 481 2648 825 
Q 2906 1169 2906 1791 
z
M 3481 434 
Q 3481 -459 3084 -895 
Q 2688 -1331 1869 -1331 
Q 1566 -1331 1297 -1286 
Q 1028 -1241 775 -1147 
L 775 -588 
Q 1028 -725 1275 -790 
Q 1522 -856 1778 -856 
Q 2344 -856 2625 -561 
Q 2906 -266 2906 331 
L 2906 616 
Q 2728 306 2450 153 
Q 2172 0 1784 0 
Q 1141 0 747 490 
Q 353 981 353 1791 
Q 353 2603 747 3093 
Q 1141 3584 1784 3584 
Q 2172 3584 2450 3431 
Q 2728 3278 2906 2969 
L 2906 3500 
L 3481 3500 
L 3481 434 
z
" transform="scale(0.015625)"/>
      </defs>
      <use xlink:href="#DejaVuSans-41"/>
      <use xlink:href="#DejaVuSans-67" transform="translate(68.408203 0)"/>
      <use xlink:href="#DejaVuSans-67" transform="translate(131.884766 0)"/>
      <use xlink:href="#DejaVuSans-72" transform="translate(195.361328 0)"/>
      <use xlink:href="#DejaVuSans-65" transform="translate(234.224609 0)"/>
      <use xlink:href="#DejaVuSans-67" transform="translate(295.748047 0)"/>
      <use xlink:href="#DejaVuSans-61" transform="translate(359.224609 0)"/>
      <use xlink:href="#DejaVuSans-74" transform="translate(420.503906 0)"/>
      <use xlink:href="#DejaVuSans-65" transform="translate(459.712891 0)"/>
      <use xlink:href="#DejaVuSans-64" transform="translate(521.236328 0)"/>
      <use xlink:href="#DejaVuSans-20" transform="translate(584.712891 0)"/>
      <use xlink:href="#DejaVuSans-28" transform="translate(616.5 0)"/>
      <use xlink:href="#DejaVuSans-6d" transform="translate(655.513672 0)"/>
      <use xlink:href="#DejaVuSans-65" transform="translate(752.925781 0)"/>
      <use xlink:href="#DejaVuSans-64" transform="translate(814.449219 0)"/>
      <use xlink:href="#DejaVuSans-69" transform="translate(877.925781 0)"/>
      <use xlink:href="#DejaVuSans-61" transform="translate(905.708984 0)"/>
      <use xlink:href="#DejaVuSans-6e" transform="translate(966.988281 0)"/>
      <use xlink:href="#DejaVuSans-29" transform="translate(1030.367188 0)"/>
     </g>
    </g>
    <g id="line2d_19">
     <path d="M 71.264 126.147469 
L 85.064 126.147469 
L 98.864 126.147469 
" style="fill: none; stroke: #ffa500; stroke-width: 2.5; stroke-linecap: square"/>
    </g>
    <g id="text_19">
     <!-- Fit -->
     <g transform="translate(109.904 130.977469) scale(0.138 -0.138)">
      <defs>
       <path id="DejaVuSans-46" d="M 628 4666 
L 3309 4666 
L 3309 4134 
L 1259 4134 
L 1259 2759 
L 3109 2759 
L 3109 2228 
L 1259 2228 
L 1259 0 
L 628 0 
L 628 4666 
z
" transform="scale(0.015625)"/>
      </defs>
      <use xlink:href="#DejaVuSans-46"/>
      <use xlink:href="#DejaVuSans-69" transform="translate(50.269531 0)"/>
      <use xlink:href="#DejaVuSans-74" transform="translate(78.052734 0)"/>
     </g>
    </g>
   </g>
  </g>
 </g>
 <defs>
  <clipPath id="p4f72ece58e">
   <rect x="58.844" y="67.56" width="430.252" height="167.176"/>
  </clipPath>
 </defs>
</svg>
