<?xml version="1.0" encoding="utf-8" standalone="no"?>
<!DOCTYPE svg PUBLIC "-//W3C//DTD SVG 1.1//EN"
  "http://www.w3.org/Graphics/SVG/1.1/DTD/svg11.dtd">
<svg xmlns:xlink="http://www.w3.org/1999/xlink" width="504pt" height="288pt" viewBox="0 0 504 288" xmlns="http://www.w3.org/2000/svg" version="1.1">
 <metadata>
  <rdf:RDF xmlns:dc="http://purl.org/dc/elements/1.1/" xmlns:cc="http://creativecommons.org/ns#" xmlns:rdf="http://www.w3.org/1999/02/22-rdf-syntax-ns#">
   <cc:Work>
    <dc:type rdf:resource="http://purl.org/dc/dcmitype/StillImage"/>
    <dc:date>2025-10-06T14:03:12.602959</dc:date>
    <dc:format>image/svg+xml</dc:format>
    <dc:creator>
     <cc:Agent>
      <dc:title>Matplotlib v3.10.6, https://matplotlib.org/</dc:title>
     </cc:Agent>
    </dc:creator>
   </cc:Work>
  </rdf:RDF>
 </metadata>
 <defs>
  <style type="text/css">*{stroke-linejoin: round; stroke-linecap: butt}</style>
 </defs>
 <g id="figure_1">
  <g id="patch_1">
   <path d="M 0 288 
L 504 288 
L 504 0 
L 0 0 
z
" style="fill: #ffffff"/>
  </g>
  <g id="axes_1">
   <g id="patch_2">
    <path d="M 58.844 234.736 
L 489.096 234.736 
L 489.096 67.56 
L 58.844 67.56 
z
" style="fill: #ffffff"/>
   </g>
   <g id="matplotlib.axis_1">
    <g id="xtick_1">
     <g id="line2d_1">
      <defs>
       <path id="m81785f4030" d="M 0 0 
L 0 3.5 
" style="stroke: #000000; stroke-width: 0.8"/>
      </defs>
      <g>
       <use xlink:href="#m81785f4030" x="61.20335" y="234.736" style="stroke: #000000; stroke-width: 0.8"/>
      </g>
     </g>
     <g id="text_1">
      <!-- 280 -->
      <g transform="translate(49.130507 251.348023) scale(0.1265 -0.1265)">
       <defs>
        <path id="DejaVuSans-32" d="M 1228 531 
L 3431 531 
L 3431 0 
L 469 0 
L 469 531 
Q 828 903 1448 1529 
Q 2069 2156 2228 2338 
Q 2531 2678 2651 2914 
Q 2772 3150 2772 3378 
Q 2772 3750 2511 3984 
Q 2250 4219 1831 4219 
Q 1534 4219 1204 4116 
Q 875 4013 500 3803 
L 500 4441 
Q 881 4594 1212 4672 
Q 1544 4750 1819 4750 
Q 2544 4750 2975 4387 
Q 3406 4025 3406 3419 
Q 3406 3131 3298 2873 
Q 3191 2616 2906 2266 
Q 2828 2175 2409 1742 
Q 1991 1309 1228 531 
z
" transform="scale(0.015625)"/>
        <path id="DejaVuSans-38" d="M 2034 2216 
Q 1584 2216 1326 1975 
Q 1069 1734 1069 1313 
Q 1069 891 1326 650 
Q 1584 409 2034 409 
Q 2484 409 2743 651 
Q 3003 894 3003 1313 
Q 3003 1734 2745 1975 
Q 2488 2216 2034 2216 
z
M 1403 2484 
Q 997 2584 770 2862 
Q 544 3141 544 3541 
Q 544 4100 942 4425 
Q 1341 4750 2034 4750 
Q 2731 4750 3128 4425 
Q 3525 4100 3525 3541 
Q 3525 3141 3298 2862 
Q 3072 2584 2669 2484 
Q 3125 2378 3379 2068 
Q 3634 1759 3634 1313 
Q 3634 634 3220 271 
Q 2806 -91 2034 -91 
Q 1263 -91 848 271 
Q 434 634 434 1313 
Q 434 1759 690 2068 
Q 947 2378 1403 2484 
z
M 1172 3481 
Q 1172 3119 1398 2916 
Q 1625 2713 2034 2713 
Q 2441 2713 2670 2916 
Q 2900 3119 2900 3481 
Q 2900 3844 2670 4047 
Q 2441 4250 2034 4250 
Q 1625 4250 1398 4047 
Q 1172 3844 1172 3481 
z
" transform="scale(0.015625)"/>
        <path id="DejaVuSans-30" d="M 2034 4250 
Q 1547 4250 1301 3770 
Q 1056 3291 1056 2328 
Q 1056 1369 1301 889 
Q 1547 409 2034 409 
Q 2525 409 2770 889 
Q 3016 1369 3016 2328 
Q 3016 3291 2770 3770 
Q 2525 4250 2034 4250 
z
M 2034 4750 
Q 2819 4750 3233 4129 
Q 3647 3509 3647 2328 
Q 3647 1150 3233 529 
Q 2819 -91 2034 -91 
Q 1250 -91 836 529 
Q 422 1150 422 2328 
Q 422 3509 836 4129 
Q 1250 4750 2034 4750 
z
" transform="scale(0.015625)"/>
       </defs>
       <use xlink:href="#DejaVuSans-32"/>
       <use xlink:href="#DejaVuSans-38" transform="translate(63.623047 0)"/>
       <use xlink:href="#DejaVuSans-30" transform="translate(127.246094 0)"/>
      </g>
     </g>
    </g>
    <g id="xtick_2">
     <g id="line2d_2">
      <g>
       <use xlink:href="#m81785f4030" x="133.503315" y="234.736" style="stroke: #000000; stroke-width: 0.8"/>
      </g>
     </g>
     <g id="text_2">
      <!-- 282 -->
      <g transform="translate(121.430471 251.348023) scale(0.1265 -0.1265)">
       <use xlink:href="#DejaVuSans-32"/>
       <use xlink:href="#DejaVuSans-38" transform="translate(63.623047 0)"/>
       <use xlink:href="#DejaVuSans-32" transform="translate(127.246094 0)"/>
      </g>
     </g>
    </g>
    <g id="xtick_3">
     <g id="line2d_3">
      <g>
       <use xlink:href="#m81785f4030" x="205.80328" y="234.736" style="stroke: #000000; stroke-width: 0.8"/>
      </g>
     </g>
     <g id="text_3">
      <!-- 284 -->
      <g transform="translate(193.730436 251.348023) scale(0.1265 -0.1265)">
       <defs>
        <path id="DejaVuSans-34" d="M 2419 4116 
L 825 1625 
L 2419 1625 
L 2419 4116 
z
M 2253 4666 
L 3047 4666 
L 3047 1625 
L 3713 1625 
L 3713 1100 
L 3047 1100 
L 3047 0 
L 2419 0 
L 2419 1100 
L 313 1100 
L 313 1709 
L 2253 4666 
z
" transform="scale(0.015625)"/>
       </defs>
       <use xlink:href="#DejaVuSans-32"/>
       <use xlink:href="#DejaVuSans-38" transform="translate(63.623047 0)"/>
       <use xlink:href="#DejaVuSans-34" transform="translate(127.246094 0)"/>
      </g>
     </g>
    </g>
    <g id="xtick_4">
     <g id="line2d_4">
      <g>
       <use xlink:href="#m81785f4030" x="278.103244" y="234.736" style="stroke: #000000; stroke-width: 0.8"/>
      </g>
     </g>
     <g id="text_4">
      <!-- 286 -->
      <g transform="translate(266.030401 251.348023) scale(0.1265 -0.1265)">
       <defs>
        <path id="DejaVuSans-36" d="M 2113 2584 
Q 1688 2584 1439 2293 
Q 1191 2003 1191 1497 
Q 1191 994 1439 701 
Q 1688 409 2113 409 
Q 2538 409 2786 701 
Q 3034 994 3034 1497 
Q 3034 2003 2786 2293 
Q 2538 2584 2113 2584 
z
M 3366 4563 
L 3366 3988 
Q 3128 4100 2886 4159 
Q 2644 4219 2406 4219 
Q 1781 4219 1451 3797 
Q 1122 3375 1075 2522 
Q 1259 2794 1537 2939 
Q 1816 3084 2150 3084 
Q 2853 3084 3261 2657 
Q 3669 2231 3669 1497 
Q 3669 778 3244 343 
Q 2819 -91 2113 -91 
Q 1303 -91 875 529 
Q 447 1150 447 2328 
Q 447 3434 972 4092 
Q 1497 4750 2381 4750 
Q 2619 4750 2861 4703 
Q 3103 4656 3366 4563 
z
" transform="scale(0.015625)"/>
       </defs>
       <use xlink:href="#DejaVuSans-32"/>
       <use xlink:href="#DejaVuSans-38" transform="translate(63.623047 0)"/>
       <use xlink:href="#DejaVuSans-36" transform="translate(127.246094 0)"/>
      </g>
     </g>
    </g>
    <g id="xtick_5">
     <g id="line2d_5">
      <g>
       <use xlink:href="#m81785f4030" x="350.403209" y="234.736" style="stroke: #000000; stroke-width: 0.8"/>
      </g>
     </g>
     <g id="text_5">
      <!-- 288 -->
      <g transform="translate(338.330365 251.348023) scale(0.1265 -0.1265)">
       <use xlink:href="#DejaVuSans-32"/>
       <use xlink:href="#DejaVuSans-38" transform="translate(63.623047 0)"/>
       <use xlink:href="#DejaVuSans-38" transform="translate(127.246094 0)"/>
      </g>
     </g>
    </g>
    <g id="xtick_6">
     <g id="line2d_6">
      <g>
       <use xlink:href="#m81785f4030" x="422.703174" y="234.736" style="stroke: #000000; stroke-width: 0.8"/>
      </g>
     </g>
     <g id="text_6">
      <!-- 290 -->
      <g transform="translate(410.63033 251.348023) scale(0.1265 -0.1265)">
       <defs>
        <path id="DejaVuSans-39" d="M 703 97 
L 703 672 
Q 941 559 1184 500 
Q 1428 441 1663 441 
Q 2288 441 2617 861 
Q 2947 1281 2994 2138 
Q 2813 1869 2534 1725 
Q 2256 1581 1919 1581 
Q 1219 1581 811 2004 
Q 403 2428 403 3163 
Q 403 3881 828 4315 
Q 1253 4750 1959 4750 
Q 2769 4750 3195 4129 
Q 3622 3509 3622 2328 
Q 3622 1225 3098 567 
Q 2575 -91 1691 -91 
Q 1453 -91 1209 -44 
Q 966 3 703 97 
z
M 1959 2075 
Q 2384 2075 2632 2365 
Q 2881 2656 2881 3163 
Q 2881 3666 2632 3958 
Q 2384 4250 1959 4250 
Q 1534 4250 1286 3958 
Q 1038 3666 1038 3163 
Q 1038 2656 1286 2365 
Q 1534 2075 1959 2075 
z
" transform="scale(0.015625)"/>
       </defs>
       <use xlink:href="#DejaVuSans-32"/>
       <use xlink:href="#DejaVuSans-39" transform="translate(63.623047 0)"/>
       <use xlink:href="#DejaVuSans-30" transform="translate(127.246094 0)"/>
      </g>
     </g>
    </g>
    <g id="text_7">
     <!-- H (T) -->
     <g transform="translate(255.574492 269.338492) scale(0.1495 -0.1495)">
      <defs>
       <path id="DejaVuSans-48" d="M 628 4666 
L 1259 4666 
L 1259 2753 
L 3553 2753 
L 3553 4666 
L 4184 4666 
L 4184 0 
L 3553 0 
L 3553 2222 
L 1259 2222 
L 1259 0 
L 628 0 
L 628 4666 
z
" transform="scale(0.015625)"/>
       <path id="DejaVuSans-20" transform="scale(0.015625)"/>
       <path id="DejaVuSans-28" d="M 1984 4856 
Q 1566 4138 1362 3434 
Q 1159 2731 1159 2009 
Q 1159 1288 1364 580 
Q 1569 -128 1984 -844 
L 1484 -844 
Q 1016 -109 783 600 
Q 550 1309 550 2009 
Q 550 2706 781 3412 
Q 1013 4119 1484 4856 
L 1984 4856 
z
" transform="scale(0.015625)"/>
       <path id="DejaVuSans-54" d="M -19 4666 
L 3928 4666 
L 3928 4134 
L 2272 4134 
L 2272 0 
L 1638 0 
L 1638 4134 
L -19 4134 
L -19 4666 
z
" transform="scale(0.015625)"/>
       <path id="DejaVuSans-29" d="M 513 4856 
L 1013 4856 
Q 1481 4119 1714 3412 
Q 1947 2706 1947 2009 
Q 1947 1309 1714 600 
Q 1481 -109 1013 -844 
L 513 -844 
Q 928 -128 1133 580 
Q 1338 1288 1338 2009 
Q 1338 2731 1133 3434 
Q 928 4138 513 4856 
z
" transform="scale(0.015625)"/>
      </defs>
      <use xlink:href="#DejaVuSans-48"/>
      <use xlink:href="#DejaVuSans-20" transform="translate(75.195312 0)"/>
      <use xlink:href="#DejaVuSans-28" transform="translate(106.982422 0)"/>
      <use xlink:href="#DejaVuSans-54" transform="translate(145.996094 0)"/>
      <use xlink:href="#DejaVuSans-29" transform="translate(207.080078 0)"/>
     </g>
    </g>
   </g>
   <g id="matplotlib.axis_2">
    <g id="ytick_1">
     <g id="line2d_7">
      <defs>
       <path id="m27a10260c2" d="M 0 0 
L -3.5 0 
" style="stroke: #000000; stroke-width: 0.8"/>
      </defs>
      <g>
       <use xlink:href="#m27a10260c2" x="58.844" y="199.228267" style="stroke: #000000; stroke-width: 0.8"/>
      </g>
     </g>
     <g id="text_8">
      <!-- −1 -->
      <g transform="translate(33.195133 204.034278) scale(0.1265 -0.1265)">
       <defs>
        <path id="DejaVuSans-2212" d="M 678 2272 
L 4684 2272 
L 4684 1741 
L 678 1741 
L 678 2272 
z
" transform="scale(0.015625)"/>
        <path id="DejaVuSans-31" d="M 794 531 
L 1825 531 
L 1825 4091 
L 703 3866 
L 703 4441 
L 1819 4666 
L 2450 4666 
L 2450 531 
L 3481 531 
L 3481 0 
L 794 0 
L 794 531 
z
" transform="scale(0.015625)"/>
       </defs>
       <use xlink:href="#DejaVuSans-2212"/>
       <use xlink:href="#DejaVuSans-31" transform="translate(83.789062 0)"/>
      </g>
     </g>
    </g>
    <g id="ytick_2">
     <g id="line2d_8">
      <g>
       <use xlink:href="#m27a10260c2" x="58.844" y="163.481224" style="stroke: #000000; stroke-width: 0.8"/>
      </g>
     </g>
     <g id="text_9">
      <!-- 0 -->
      <g transform="translate(43.795438 168.287236) scale(0.1265 -0.1265)">
       <use xlink:href="#DejaVuSans-30"/>
      </g>
     </g>
    </g>
    <g id="ytick_3">
     <g id="line2d_9">
      <g>
       <use xlink:href="#m27a10260c2" x="58.844" y="127.734181" style="stroke: #000000; stroke-width: 0.8"/>
      </g>
     </g>
     <g id="text_10">
      <!-- 1 -->
      <g transform="translate(43.795438 132.540193) scale(0.1265 -0.1265)">
       <use xlink:href="#DejaVuSans-31"/>
      </g>
     </g>
    </g>
    <g id="ytick_4">
     <g id="line2d_10">
      <g>
       <use xlink:href="#m27a10260c2" x="58.844" y="91.987138" style="stroke: #000000; stroke-width: 0.8"/>
      </g>
     </g>
     <g id="text_11">
      <!-- 2 -->
      <g transform="translate(43.795438 96.79315) scale(0.1265 -0.1265)">
       <use xlink:href="#DejaVuSans-32"/>
      </g>
     </g>
    </g>
    <g id="text_12">
     <!-- dP/dH -->
     <g transform="translate(26.086 173.28568) rotate(-90) scale(0.1495 -0.1495)">
      <defs>
       <path id="DejaVuSans-64" d="M 2906 2969 
L 2906 4863 
L 3481 4863 
L 3481 0 
L 2906 0 
L 2906 525 
Q 2725 213 2448 61 
Q 2172 -91 1784 -91 
Q 1150 -91 751 415 
Q 353 922 353 1747 
Q 353 2572 751 3078 
Q 1150 3584 1784 3584 
Q 2172 3584 2448 3432 
Q 2725 3281 2906 2969 
z
M 947 1747 
Q 947 1113 1208 752 
Q 1469 391 1925 391 
Q 2381 391 2643 752 
Q 2906 1113 2906 1747 
Q 2906 2381 2643 2742 
Q 2381 3103 1925 3103 
Q 1469 3103 1208 2742 
Q 947 2381 947 1747 
z
" transform="scale(0.015625)"/>
       <path id="DejaVuSans-50" d="M 1259 4147 
L 1259 2394 
L 2053 2394 
Q 2494 2394 2734 2622 
Q 2975 2850 2975 3272 
Q 2975 3691 2734 3919 
Q 2494 4147 2053 4147 
L 1259 4147 
z
M 628 4666 
L 2053 4666 
Q 2838 4666 3239 4311 
Q 3641 3956 3641 3272 
Q 3641 2581 3239 2228 
Q 2838 1875 2053 1875 
L 1259 1875 
L 1259 0 
L 628 0 
L 628 4666 
z
" transform="scale(0.015625)"/>
       <path id="DejaVuSans-2f" d="M 1625 4666 
L 2156 4666 
L 531 -594 
L 0 -594 
L 1625 4666 
z
" transform="scale(0.015625)"/>
      </defs>
      <use xlink:href="#DejaVuSans-64"/>
      <use xlink:href="#DejaVuSans-50" transform="translate(63.476562 0)"/>
      <use xlink:href="#DejaVuSans-2f" transform="translate(123.779297 0)"/>
      <use xlink:href="#DejaVuSans-64" transform="translate(157.470703 0)"/>
      <use xlink:href="#DejaVuSans-48" transform="translate(220.947266 0)"/>
     </g>
    </g>
   </g>
   <g id="line2d_11">
    <path d="M 78.400909 172.682727 
L 78.400909 167.602465 
L 83.057316 168.1554 
L 83.057316 172.544493 
L 83.057316 170.632205 
L 87.713723 164.929837 
L 87.713723 163.996732 
L 87.713723 166.531126 
L 92.37013 168.328201 
L 92.37013 163.731775 
L 92.37013 163.858498 
L 97.026537 166.45048 
L 97.026537 165.263929 
L 97.026537 169.595398 
L 101.682944 163.916087 
L 101.682944 163.639619 
L 101.682944 166.173977 
L 106.339351 164.918326 
L 106.339351 166.081821 
L 106.339351 162.314834 
L 106.339351 164.941348 
L 110.995758 162.683457 
L 110.995758 163.65113 
L 115.652165 161.208927 
L 115.652165 161.865529 
L 115.652165 159.215958 
L 120.308571 163.086648 
L 120.308571 161.070658 
L 124.964978 164.43449 
L 124.964978 165.448241 
L 124.964978 162.234188 
L 129.621385 166.243112 
L 129.621385 164.019753 
L 129.621385 166.438934 
L 134.277792 164.399923 
L 134.277792 167.268373 
L 134.277792 163.178804 
L 138.934199 164.031299 
L 138.934199 160.851779 
L 138.934199 161.001559 
L 143.590606 162.556734 
L 143.590606 160.333411 
L 148.247013 162.245699 
L 148.247013 160.218198 
L 148.247013 163.731775 
L 152.90342 165.51734 
L 152.90342 166.485012 
L 152.90342 166.404402 
L 157.559827 169.019406 
L 157.559827 166.750005 
L 162.216234 169.203718 
L 162.216234 167.06104 
L 162.216234 169.180697 
L 166.872641 170.229014 
L 166.872641 170.678283 
L 166.872641 168.892683 
L 171.529048 166.91126 
L 171.529048 169.6991 
L 171.529048 167.844365 
L 176.185455 170.194447 
L 176.185455 175.194064 
L 176.185455 168.984839 
L 180.841861 169.226774 
L 180.841861 167.279919 
L 180.841861 172.855528 
L 185.498268 169.215264 
L 185.498268 171.622899 
L 185.498268 169.987078 
L 190.154675 168.800527 
L 190.154675 166.657813 
L 190.154675 169.975568 
L 194.811082 171.392509 
L 194.811082 170.044667 
L 194.811082 173.201131 
L 199.467489 173.108975 
L 199.467489 171.127552 
L 199.467489 173.66191 
L 204.123896 176.011992 
L 204.123896 178.488762 
L 204.123896 174.89454 
L 208.780303 177.244622 
L 208.780303 179.076264 
L 208.780303 172.314104 
L 213.43671 174.81393 
L 213.43671 171.116041 
L 213.43671 172.279536 
L 218.093117 169.16915 
L 218.093117 170.828028 
L 218.093117 170.459404 
L 222.749524 171.484665 
L 222.749524 168.892683 
L 222.749524 173.247209 
L 227.405931 171.726601 
L 227.405931 173.362421 
L 227.405931 170.516993 
L 227.405931 172.613628 
L 232.062338 173.108975 
L 232.062338 182.359452 
L 236.718745 193.360926 
L 236.718745 183.868549 
L 241.375152 207.415126 
L 241.375152 212.541466 
L 241.375152 198.775244 
L 246.031558 215.121902 
L 246.031558 213.762585 
L 246.031558 225.052002 
L 250.687965 220.536256 
L 250.687965 227.137091 
L 250.687965 222.632856 
L 255.344372 212.656679 
L 255.344372 192.347175 
L 255.344372 202.219686 
L 260.000779 175.885269 
L 260.000779 159.653716 
L 260.000779 185.389156 
L 264.657186 144.032688 
L 264.657186 137.155278 
L 264.657186 150.691218 
L 264.657186 140.461522 
L 269.313593 135.830493 
L 269.313593 142.247087 
L 273.97 151.716479 
L 273.97 158.213718 
L 273.97 150.541474 
L 278.626407 164.549667 
L 278.626407 161.41626 
L 278.626407 161.669707 
L 283.282814 162.764102 
L 283.282814 160.40251 
L 283.282814 162.694968 
L 287.939221 150.852509 
L 287.939221 156.405097 
L 292.595628 146.832039 
L 292.595628 147.062428 
L 292.595628 151.843202 
L 292.595628 149.6429 
L 297.252035 147.834279 
L 297.252035 133.399766 
L 301.908442 153.179534 
L 301.908442 148.859539 
L 306.564848 161.266516 
L 306.564848 156.243842 
L 311.221255 169.468675 
L 311.221255 162.464578 
L 315.877662 171.104495 
L 315.877662 174.629583 
L 320.534069 174.836951 
L 320.534069 177.935791 
L 320.534069 171.530743 
L 325.190476 170.033156 
L 325.190476 151.820181 
L 329.846883 144.712382 
L 329.846883 120.336116 
L 334.50329 91.443855 
L 334.50329 114.092252 
L 339.159697 80.845357 
L 339.159697 80.845357 
L 339.159697 87.711327 
L 343.816104 95.775396 
L 343.816104 83.345219 
L 348.472511 121.234654 
L 348.472511 103.827917 
L 353.128918 123.792104 
L 353.128918 137.846483 
L 357.785325 145.910444 
L 357.785325 143.664064 
L 357.785325 150.172814 
L 362.441732 156.278373 
L 362.441732 152.799364 
L 362.441732 155.829105 
L 367.098139 156.209274 
L 367.098139 158.570867 
L 367.098139 158.328931 
L 371.754545 159.930184 
L 371.754545 159.135313 
L 371.754545 162.499145 
L 371.754545 160.149063 
L 376.410952 160.425567 
L 376.410952 162.81018 
L 376.410952 161.231948 
L 381.067359 162.395479 
L 381.067359 162.130486 
L 381.067359 163.052081 
L 381.067359 162.64889 
L 385.723766 165.51734 
L 385.723766 161.485395 
L 385.723766 163.81242 
L 390.380173 162.061387 
L 390.380173 164.123455 
L 390.380173 162.764102 
L 395.03658 163.81242 
L 395.03658 164.906816 
L 395.03658 163.524406 
L 399.692987 164.918326 
L 399.692987 163.259449 
L 404.349394 163.247939 
L 404.349394 159.342681 
L 404.349394 163.685697 
L 409.005801 165.229361 
L 409.005801 162.337855 
L 413.662208 164.918326 
L 413.662208 159.918674 
L 413.662208 164.227122 
L 418.318615 163.754796 
L 418.318615 163.236428 
L 418.318615 164.181044 
L 418.318615 163.363151 
L 422.975022 164.630312 
L 422.975022 162.959925 
L 422.975022 164.687937 
L 427.631429 166.657813 
L 427.631429 164.330824 
L 432.287835 163.835441 
L 432.287835 166.427424 
L 432.287835 163.927597 
L 436.944242 165.079617 
L 436.944242 163.939143 
L 441.600649 164.365355 
L 441.600649 164.89527 
L 441.600649 163.904576 
L 441.600649 164.215611 
L 446.257056 166.427424 
L 446.257056 164.584235 
L 446.257056 164.722468 
L 450.913463 164.883759 
L 450.913463 166.438934 
L 450.913463 163.81242 
L 455.56987 163.708718 
L 455.56987 166.070311 
L 455.56987 164.192554 
L 460.226277 163.628108 
L 460.226277 164.05432 
L 460.226277 160.010829 
L 464.882684 163.628108 
L 464.882684 165.874488 
L 464.882684 164.595781 
L 469.539091 165.51734 
L 469.539091 164.238632 
L 469.539091 173.235698 
L 469.539091 164.238632 
" clip-path="url(#p9359a86f37)" style="fill: none; stroke: #cc7000; stroke-opacity: 0.7; stroke-width: 1.4; stroke-linecap: square"/>
   </g>
   <g id="line2d_12">
    <path d="M 78.400909 172.302593 
L 83.057316 169.74516 
L 87.713723 165.154471 
L 92.37013 164.503607 
L 97.026537 166.646321 
L 101.682944 164.019771 
L 106.339351 164.929837 
L 110.995758 163.075137 
L 115.652165 161.410523 
L 120.308571 162.332099 
L 124.964978 163.397701 
L 129.621385 165.523113 
L 134.277792 164.031281 
L 138.934199 161.358672 
L 143.590606 161.514189 
L 148.247013 162.412745 
L 152.90342 165.960871 
L 157.559827 168.253329 
L 162.216234 169.151884 
L 166.872641 169.935245 
L 171.529048 167.792532 
L 176.185455 170.15988 
L 180.841861 169.831561 
L 185.498268 170.407553 
L 190.154675 169.151884 
L 194.811082 171.997295 
L 199.467489 173.287531 
L 204.123896 175.942875 
L 208.780303 175.228631 
L 213.43671 172.855528 
L 218.093117 170.136841 
L 222.749524 170.436347 
L 227.405931 172.170114 
L 232.062338 176.766541 
L 236.718745 187.658593 
L 241.375152 204.696456 
L 246.031558 216.740439 
L 250.687965 224.136198 
L 255.344372 205.577728 
L 260.000779 172.262252 
L 264.657186 142.247105 
L 269.313593 137.466313 
L 273.97 152.609279 
L 278.626407 162.22266 
L 283.282814 162.383933 
L 287.939221 154.550397 
L 292.595628 148.352664 
L 297.252035 146.837794 
L 301.908442 150.633629 
L 306.564848 158.899168 
L 311.221255 166.329495 
L 315.877662 172.80945 
L 320.534069 176.086864 
L 325.190476 161.237704 
L 329.846883 135.058661 
L 334.50329 101.310771 
L 339.159697 81.997377 
L 343.816104 89.122549 
L 348.472511 109.622495 
L 353.128918 130.825049 
L 357.785325 146.209969 
L 362.441732 154.78656 
L 367.098139 157.7299 
L 371.754545 160.039624 
L 376.410952 161.272271 
L 381.067359 162.522184 
L 385.723766 163.599296 
L 390.380173 162.470351 
L 395.03658 163.674168 
L 399.692987 163.783608 
L 404.349394 163.443779 
L 409.005801 163.812402 
L 413.662208 163.921842 
L 418.318615 163.558974 
L 422.975022 163.910331 
L 427.631429 165.200549 
L 432.287835 164.543912 
L 436.944242 164.42298 
L 441.600649 164.290483 
L 446.257056 165.131432 
L 450.913463 164.947121 
L 455.56987 164.238632 
L 460.226277 163.092421 
L 464.882684 164.330806 
L 469.539091 165.51734 
" clip-path="url(#p9359a86f37)" style="fill: none; stroke: #2980b9; stroke-width: 2; stroke-linecap: square"/>
   </g>
   <g id="line2d_13">
    <path d="M 78.400909 162.427035 
L 83.057316 162.651064 
L 87.713723 162.879252 
L 92.37013 163.111948 
L 97.026537 163.349537 
L 101.682944 163.592455 
L 106.339351 163.841187 
L 110.995758 164.096283 
L 115.652165 164.358366 
L 120.308571 164.628142 
L 124.964978 164.906419 
L 129.621385 165.194123 
L 134.277792 165.492323 
L 138.934199 165.802259 
L 143.590606 166.125374 
L 148.247013 166.463365 
L 152.90342 166.818236 
L 157.559827 167.192373 
L 162.216234 167.588641 
L 166.872641 168.010508 
L 171.529048 168.462217 
L 176.185455 168.949011 
L 180.841861 169.47745 
L 185.498268 170.055849 
L 190.154675 170.694907 
L 194.811082 171.408619 
L 199.467489 172.215642 
L 204.123896 173.141395 
L 208.780303 174.22137 
L 213.43671 175.506574 
L 218.093117 177.072797 
L 222.749524 179.037153 
L 227.405931 181.589081 
L 232.062338 185.051459 
L 236.718745 190.005409 
L 241.375152 197.531536 
L 246.031558 209.381996 
L 250.687965 224.121948 
L 255.344372 209.262997 
L 260.000779 163.297504 
L 264.657186 149.737294 
L 269.313593 149.595102 
L 273.97 151.710892 
L 278.626407 153.883728 
L 283.282814 155.754222 
L 287.939221 157.31088 
L 292.595628 158.595921 
L 297.252035 159.641957 
L 301.908442 160.453811 
L 306.564848 160.992056 
L 311.221255 161.137314 
L 315.877662 160.600157 
L 320.534069 158.677803 
L 325.190476 153.548238 
L 329.846883 140.261157 
L 334.50329 108.78417 
L 339.159697 75.158909 
L 343.816104 91.825309 
L 348.472511 118.344322 
L 353.128918 134.12238 
L 357.785325 143.049398 
L 362.441732 148.493206 
L 367.098139 152.088693 
L 371.754545 154.627775 
L 376.410952 156.520158 
L 381.067359 157.993073 
L 385.723766 159.180562 
L 390.380173 160.165954 
L 395.03658 161.003408 
L 399.692987 161.729481 
L 404.349394 162.369659 
L 409.005801 162.942216 
L 413.662208 163.460574 
L 418.318615 163.934806 
L 422.975022 164.372615 
L 427.631429 164.77999 
L 432.287835 165.161656 
L 436.944242 165.521396 
L 441.600649 165.862269 
L 446.257056 166.186782 
L 450.913463 166.497005 
L 455.56987 166.794666 
L 460.226277 167.081219 
L 464.882684 167.357894 
L 469.539091 167.625744 
" clip-path="url(#p9359a86f37)" style="fill: none; stroke: #ffa500; stroke-width: 2.5; stroke-linecap: square"/>
   </g>
   <g id="patch_3">
    <path d="M 58.844 234.736 
L 58.844 67.56 
" style="fill: none; stroke: #000000; stroke-width: 0.8; stroke-linejoin: miter; stroke-linecap: square"/>
   </g>
   <g id="patch_4">
    <path d="M 489.096 234.736 
L 489.096 67.56 
" style="fill: none; stroke: #000000; stroke-width: 0.8; stroke-linejoin: miter; stroke-linecap: square"/>
   </g>
   <g id="patch_5">
    <path d="M 58.844 234.736 
L 489.096 234.736 
" style="fill: none; stroke: #000000; stroke-width: 0.8; stroke-linejoin: miter; stroke-linecap: square"/>
   </g>
   <g id="patch_6">
    <path d="M 58.844 67.56 
L 489.096 67.56 
" style="fill: none; stroke: #000000; stroke-width: 0.8; stroke-linejoin: miter; stroke-linecap: square"/>
   </g>
   <g id="text_13">
    <!-- AZ5, f=11 GHz, 10 dB -->
    <g transform="translate(185.260258 25.503044) scale(0.161 -0.161)">
     <defs>
      <path id="DejaVuSans-41" d="M 2188 4044 
L 1331 1722 
L 3047 1722 
L 2188 4044 
z
M 1831 4666 
L 2547 4666 
L 4325 0 
L 3669 0 
L 3244 1197 
L 1141 1197 
L 716 0 
L 50 0 
L 1831 4666 
z
" transform="scale(0.015625)"/>
      <path id="DejaVuSans-5a" d="M 359 4666 
L 4025 4666 
L 4025 4184 
L 1075 531 
L 4097 531 
L 4097 0 
L 288 0 
L 288 481 
L 3238 4134 
L 359 4134 
L 359 4666 
z
" transform="scale(0.015625)"/>
      <path id="DejaVuSans-35" d="M 691 4666 
L 3169 4666 
L 3169 4134 
L 1269 4134 
L 1269 2991 
Q 1406 3038 1543 3061 
Q 1681 3084 1819 3084 
Q 2600 3084 3056 2656 
Q 3513 2228 3513 1497 
Q 3513 744 3044 326 
Q 2575 -91 1722 -91 
Q 1428 -91 1123 -41 
Q 819 9 494 109 
L 494 744 
Q 775 591 1075 516 
Q 1375 441 1709 441 
Q 2250 441 2565 725 
Q 2881 1009 2881 1497 
Q 2881 1984 2565 2268 
Q 2250 2553 1709 2553 
Q 1456 2553 1204 2497 
Q 953 2441 691 2322 
L 691 4666 
z
" transform="scale(0.015625)"/>
      <path id="DejaVuSans-2c" d="M 750 794 
L 1409 794 
L 1409 256 
L 897 -744 
L 494 -744 
L 750 256 
L 750 794 
z
" transform="scale(0.015625)"/>
      <path id="DejaVuSans-66" d="M 2375 4863 
L 2375 4384 
L 1825 4384 
Q 1516 4384 1395 4259 
Q 1275 4134 1275 3809 
L 1275 3500 
L 2222 3500 
L 2222 3053 
L 1275 3053 
L 1275 0 
L 697 0 
L 697 3053 
L 147 3053 
L 147 3500 
L 697 3500 
L 697 3744 
Q 697 4328 969 4595 
Q 1241 4863 1831 4863 
L 2375 4863 
z
" transform="scale(0.015625)"/>
      <path id="DejaVuSans-3d" d="M 678 2906 
L 4684 2906 
L 4684 2381 
L 678 2381 
L 678 2906 
z
M 678 1631 
L 4684 1631 
L 4684 1100 
L 678 1100 
L 678 1631 
z
" transform="scale(0.015625)"/>
      <path id="DejaVuSans-47" d="M 3809 666 
L 3809 1919 
L 2778 1919 
L 2778 2438 
L 4434 2438 
L 4434 434 
Q 4069 175 3628 42 
Q 3188 -91 2688 -91 
Q 1594 -91 976 548 
Q 359 1188 359 2328 
Q 359 3472 976 4111 
Q 1594 4750 2688 4750 
Q 3144 4750 3555 4637 
Q 3966 4525 4313 4306 
L 4313 3634 
Q 3963 3931 3569 4081 
Q 3175 4231 2741 4231 
Q 1884 4231 1454 3753 
Q 1025 3275 1025 2328 
Q 1025 1384 1454 906 
Q 1884 428 2741 428 
Q 3075 428 3337 486 
Q 3600 544 3809 666 
z
" transform="scale(0.015625)"/>
      <path id="DejaVuSans-7a" d="M 353 3500 
L 3084 3500 
L 3084 2975 
L 922 459 
L 3084 459 
L 3084 0 
L 275 0 
L 275 525 
L 2438 3041 
L 353 3041 
L 353 3500 
z
" transform="scale(0.015625)"/>
      <path id="DejaVuSans-42" d="M 1259 2228 
L 1259 519 
L 2272 519 
Q 2781 519 3026 730 
Q 3272 941 3272 1375 
Q 3272 1813 3026 2020 
Q 2781 2228 2272 2228 
L 1259 2228 
z
M 1259 4147 
L 1259 2741 
L 2194 2741 
Q 2656 2741 2882 2914 
Q 3109 3088 3109 3444 
Q 3109 3797 2882 3972 
Q 2656 4147 2194 4147 
L 1259 4147 
z
M 628 4666 
L 2241 4666 
Q 2963 4666 3353 4366 
Q 3744 4066 3744 3513 
Q 3744 3084 3544 2831 
Q 3344 2578 2956 2516 
Q 3422 2416 3680 2098 
Q 3938 1781 3938 1306 
Q 3938 681 3513 340 
Q 3088 0 2303 0 
L 628 0 
L 628 4666 
z
" transform="scale(0.015625)"/>
     </defs>
     <use xlink:href="#DejaVuSans-41"/>
     <use xlink:href="#DejaVuSans-5a" transform="translate(68.408203 0)"/>
     <use xlink:href="#DejaVuSans-35" transform="translate(136.914062 0)"/>
     <use xlink:href="#DejaVuSans-2c" transform="translate(200.537109 0)"/>
     <use xlink:href="#DejaVuSans-20" transform="translate(232.324219 0)"/>
     <use xlink:href="#DejaVuSans-66" transform="translate(264.111328 0)"/>
     <use xlink:href="#DejaVuSans-3d" transform="translate(299.316406 0)"/>
     <use xlink:href="#DejaVuSans-31" transform="translate(383.105469 0)"/>
     <use xlink:href="#DejaVuSans-31" transform="translate(446.728516 0)"/>
     <use xlink:href="#DejaVuSans-20" transform="translate(510.351562 0)"/>
     <use xlink:href="#DejaVuSans-47" transform="translate(542.138672 0)"/>
     <use xlink:href="#DejaVuSans-48" transform="translate(619.628906 0)"/>
     <use xlink:href="#DejaVuSans-7a" transform="translate(694.824219 0)"/>
     <use xlink:href="#DejaVuSans-2c" transform="translate(747.314453 0)"/>
     <use xlink:href="#DejaVuSans-20" transform="translate(779.101562 0)"/>
     <use xlink:href="#DejaVuSans-31" transform="translate(810.888672 0)"/>
     <use xlink:href="#DejaVuSans-30" transform="translate(874.511719 0)"/>
     <use xlink:href="#DejaVuSans-20" transform="translate(938.134766 0)"/>
     <use xlink:href="#DejaVuSans-64" transform="translate(969.921875 0)"/>
     <use xlink:href="#DejaVuSans-42" transform="translate(1033.398438 0)"/>
    </g>
    <!-- Double Asymmetric Lorentzian -->
    <g transform="translate(149.993711 43.531522) scale(0.161 -0.161)">
     <defs>
      <path id="DejaVuSans-44" d="M 1259 4147 
L 1259 519 
L 2022 519 
Q 2988 519 3436 956 
Q 3884 1394 3884 2338 
Q 3884 3275 3436 3711 
Q 2988 4147 2022 4147 
L 1259 4147 
z
M 628 4666 
L 1925 4666 
Q 3281 4666 3915 4102 
Q 4550 3538 4550 2338 
Q 4550 1131 3912 565 
Q 3275 0 1925 0 
L 628 0 
L 628 4666 
z
" transform="scale(0.015625)"/>
      <path id="DejaVuSans-6f" d="M 1959 3097 
Q 1497 3097 1228 2736 
Q 959 2375 959 1747 
Q 959 1119 1226 758 
Q 1494 397 1959 397 
Q 2419 397 2687 759 
Q 2956 1122 2956 1747 
Q 2956 2369 2687 2733 
Q 2419 3097 1959 3097 
z
M 1959 3584 
Q 2709 3584 3137 3096 
Q 3566 2609 3566 1747 
Q 3566 888 3137 398 
Q 2709 -91 1959 -91 
Q 1206 -91 779 398 
Q 353 888 353 1747 
Q 353 2609 779 3096 
Q 1206 3584 1959 3584 
z
" transform="scale(0.015625)"/>
      <path id="DejaVuSans-75" d="M 544 1381 
L 544 3500 
L 1119 3500 
L 1119 1403 
Q 1119 906 1312 657 
Q 1506 409 1894 409 
Q 2359 409 2629 706 
Q 2900 1003 2900 1516 
L 2900 3500 
L 3475 3500 
L 3475 0 
L 2900 0 
L 2900 538 
Q 2691 219 2414 64 
Q 2138 -91 1772 -91 
Q 1169 -91 856 284 
Q 544 659 544 1381 
z
M 1991 3584 
L 1991 3584 
z
" transform="scale(0.015625)"/>
      <path id="DejaVuSans-62" d="M 3116 1747 
Q 3116 2381 2855 2742 
Q 2594 3103 2138 3103 
Q 1681 3103 1420 2742 
Q 1159 2381 1159 1747 
Q 1159 1113 1420 752 
Q 1681 391 2138 391 
Q 2594 391 2855 752 
Q 3116 1113 3116 1747 
z
M 1159 2969 
Q 1341 3281 1617 3432 
Q 1894 3584 2278 3584 
Q 2916 3584 3314 3078 
Q 3713 2572 3713 1747 
Q 3713 922 3314 415 
Q 2916 -91 2278 -91 
Q 1894 -91 1617 61 
Q 1341 213 1159 525 
L 1159 0 
L 581 0 
L 581 4863 
L 1159 4863 
L 1159 2969 
z
" transform="scale(0.015625)"/>
      <path id="DejaVuSans-6c" d="M 603 4863 
L 1178 4863 
L 1178 0 
L 603 0 
L 603 4863 
z
" transform="scale(0.015625)"/>
      <path id="DejaVuSans-65" d="M 3597 1894 
L 3597 1613 
L 953 1613 
Q 991 1019 1311 708 
Q 1631 397 2203 397 
Q 2534 397 2845 478 
Q 3156 559 3463 722 
L 3463 178 
Q 3153 47 2828 -22 
Q 2503 -91 2169 -91 
Q 1331 -91 842 396 
Q 353 884 353 1716 
Q 353 2575 817 3079 
Q 1281 3584 2069 3584 
Q 2775 3584 3186 3129 
Q 3597 2675 3597 1894 
z
M 3022 2063 
Q 3016 2534 2758 2815 
Q 2500 3097 2075 3097 
Q 1594 3097 1305 2825 
Q 1016 2553 972 2059 
L 3022 2063 
z
" transform="scale(0.015625)"/>
      <path id="DejaVuSans-73" d="M 2834 3397 
L 2834 2853 
Q 2591 2978 2328 3040 
Q 2066 3103 1784 3103 
Q 1356 3103 1142 2972 
Q 928 2841 928 2578 
Q 928 2378 1081 2264 
Q 1234 2150 1697 2047 
L 1894 2003 
Q 2506 1872 2764 1633 
Q 3022 1394 3022 966 
Q 3022 478 2636 193 
Q 2250 -91 1575 -91 
Q 1294 -91 989 -36 
Q 684 19 347 128 
L 347 722 
Q 666 556 975 473 
Q 1284 391 1588 391 
Q 1994 391 2212 530 
Q 2431 669 2431 922 
Q 2431 1156 2273 1281 
Q 2116 1406 1581 1522 
L 1381 1569 
Q 847 1681 609 1914 
Q 372 2147 372 2553 
Q 372 3047 722 3315 
Q 1072 3584 1716 3584 
Q 2034 3584 2315 3537 
Q 2597 3491 2834 3397 
z
" transform="scale(0.015625)"/>
      <path id="DejaVuSans-79" d="M 2059 -325 
Q 1816 -950 1584 -1140 
Q 1353 -1331 966 -1331 
L 506 -1331 
L 506 -850 
L 844 -850 
Q 1081 -850 1212 -737 
Q 1344 -625 1503 -206 
L 1606 56 
L 191 3500 
L 800 3500 
L 1894 763 
L 2988 3500 
L 3597 3500 
L 2059 -325 
z
" transform="scale(0.015625)"/>
      <path id="DejaVuSans-6d" d="M 3328 2828 
Q 3544 3216 3844 3400 
Q 4144 3584 4550 3584 
Q 5097 3584 5394 3201 
Q 5691 2819 5691 2113 
L 5691 0 
L 5113 0 
L 5113 2094 
Q 5113 2597 4934 2840 
Q 4756 3084 4391 3084 
Q 3944 3084 3684 2787 
Q 3425 2491 3425 1978 
L 3425 0 
L 2847 0 
L 2847 2094 
Q 2847 2600 2669 2842 
Q 2491 3084 2119 3084 
Q 1678 3084 1418 2786 
Q 1159 2488 1159 1978 
L 1159 0 
L 581 0 
L 581 3500 
L 1159 3500 
L 1159 2956 
Q 1356 3278 1631 3431 
Q 1906 3584 2284 3584 
Q 2666 3584 2933 3390 
Q 3200 3197 3328 2828 
z
" transform="scale(0.015625)"/>
      <path id="DejaVuSans-74" d="M 1172 4494 
L 1172 3500 
L 2356 3500 
L 2356 3053 
L 1172 3053 
L 1172 1153 
Q 1172 725 1289 603 
Q 1406 481 1766 481 
L 2356 481 
L 2356 0 
L 1766 0 
Q 1100 0 847 248 
Q 594 497 594 1153 
L 594 3053 
L 172 3053 
L 172 3500 
L 594 3500 
L 594 4494 
L 1172 4494 
z
" transform="scale(0.015625)"/>
      <path id="DejaVuSans-72" d="M 2631 2963 
Q 2534 3019 2420 3045 
Q 2306 3072 2169 3072 
Q 1681 3072 1420 2755 
Q 1159 2438 1159 1844 
L 1159 0 
L 581 0 
L 581 3500 
L 1159 3500 
L 1159 2956 
Q 1341 3275 1631 3429 
Q 1922 3584 2338 3584 
Q 2397 3584 2469 3576 
Q 2541 3569 2628 3553 
L 2631 2963 
z
" transform="scale(0.015625)"/>
      <path id="DejaVuSans-69" d="M 603 3500 
L 1178 3500 
L 1178 0 
L 603 0 
L 603 3500 
z
M 603 4863 
L 1178 4863 
L 1178 4134 
L 603 4134 
L 603 4863 
z
" transform="scale(0.015625)"/>
      <path id="DejaVuSans-63" d="M 3122 3366 
L 3122 2828 
Q 2878 2963 2633 3030 
Q 2388 3097 2138 3097 
Q 1578 3097 1268 2742 
Q 959 2388 959 1747 
Q 959 1106 1268 751 
Q 1578 397 2138 397 
Q 2388 397 2633 464 
Q 2878 531 3122 666 
L 3122 134 
Q 2881 22 2623 -34 
Q 2366 -91 2075 -91 
Q 1284 -91 818 406 
Q 353 903 353 1747 
Q 353 2603 823 3093 
Q 1294 3584 2113 3584 
Q 2378 3584 2631 3529 
Q 2884 3475 3122 3366 
z
" transform="scale(0.015625)"/>
      <path id="DejaVuSans-4c" d="M 628 4666 
L 1259 4666 
L 1259 531 
L 3531 531 
L 3531 0 
L 628 0 
L 628 4666 
z
" transform="scale(0.015625)"/>
      <path id="DejaVuSans-6e" d="M 3513 2113 
L 3513 0 
L 2938 0 
L 2938 2094 
Q 2938 2591 2744 2837 
Q 2550 3084 2163 3084 
Q 1697 3084 1428 2787 
Q 1159 2491 1159 1978 
L 1159 0 
L 581 0 
L 581 3500 
L 1159 3500 
L 1159 2956 
Q 1366 3272 1645 3428 
Q 1925 3584 2291 3584 
Q 2894 3584 3203 3211 
Q 3513 2838 3513 2113 
z
" transform="scale(0.015625)"/>
      <path id="DejaVuSans-61" d="M 2194 1759 
Q 1497 1759 1228 1600 
Q 959 1441 959 1056 
Q 959 750 1161 570 
Q 1363 391 1709 391 
Q 2188 391 2477 730 
Q 2766 1069 2766 1631 
L 2766 1759 
L 2194 1759 
z
M 3341 1997 
L 3341 0 
L 2766 0 
L 2766 531 
Q 2569 213 2275 61 
Q 1981 -91 1556 -91 
Q 1019 -91 701 211 
Q 384 513 384 1019 
Q 384 1609 779 1909 
Q 1175 2209 1959 2209 
L 2766 2209 
L 2766 2266 
Q 2766 2663 2505 2880 
Q 2244 3097 1772 3097 
Q 1472 3097 1187 3025 
Q 903 2953 641 2809 
L 641 3341 
Q 956 3463 1253 3523 
Q 1550 3584 1831 3584 
Q 2591 3584 2966 3190 
Q 3341 2797 3341 1997 
z
" transform="scale(0.015625)"/>
     </defs>
     <use xlink:href="#DejaVuSans-44"/>
     <use xlink:href="#DejaVuSans-6f" transform="translate(77.001953 0)"/>
     <use xlink:href="#DejaVuSans-75" transform="translate(138.183594 0)"/>
     <use xlink:href="#DejaVuSans-62" transform="translate(201.5625 0)"/>
     <use xlink:href="#DejaVuSans-6c" transform="translate(265.039062 0)"/>
     <use xlink:href="#DejaVuSans-65" transform="translate(292.822266 0)"/>
     <use xlink:href="#DejaVuSans-20" transform="translate(354.345703 0)"/>
     <use xlink:href="#DejaVuSans-41" transform="translate(386.132812 0)"/>
     <use xlink:href="#DejaVuSans-73" transform="translate(454.541016 0)"/>
     <use xlink:href="#DejaVuSans-79" transform="translate(506.640625 0)"/>
     <use xlink:href="#DejaVuSans-6d" transform="translate(565.820312 0)"/>
     <use xlink:href="#DejaVuSans-6d" transform="translate(663.232422 0)"/>
     <use xlink:href="#DejaVuSans-65" transform="translate(760.644531 0)"/>
     <use xlink:href="#DejaVuSans-74" transform="translate(822.167969 0)"/>
     <use xlink:href="#DejaVuSans-72" transform="translate(861.376953 0)"/>
     <use xlink:href="#DejaVuSans-69" transform="translate(902.490234 0)"/>
     <use xlink:href="#DejaVuSans-63" transform="translate(930.273438 0)"/>
     <use xlink:href="#DejaVuSans-20" transform="translate(985.253906 0)"/>
     <use xlink:href="#DejaVuSans-4c" transform="translate(1017.041016 0)"/>
     <use xlink:href="#DejaVuSans-6f" transform="translate(1071.003906 0)"/>
     <use xlink:href="#DejaVuSans-72" transform="translate(1132.185547 0)"/>
     <use xlink:href="#DejaVuSans-65" transform="translate(1171.048828 0)"/>
     <use xlink:href="#DejaVuSans-6e" transform="translate(1232.572266 0)"/>
     <use xlink:href="#DejaVuSans-74" transform="translate(1295.951172 0)"/>
     <use xlink:href="#DejaVuSans-7a" transform="translate(1335.160156 0)"/>
     <use xlink:href="#DejaVuSans-69" transform="translate(1387.650391 0)"/>
     <use xlink:href="#DejaVuSans-61" transform="translate(1415.433594 0)"/>
     <use xlink:href="#DejaVuSans-6e" transform="translate(1476.712891 0)"/>
    </g>
    <!-- $H_1$=287.6736 T, $H_2$=285.3747 T, R²=0.931 -->
    <g transform="translate(100.09 61.56) scale(0.161 -0.161)">
     <defs>
      <path id="DejaVuSans-Oblique-48" d="M 1081 4666 
L 1716 4666 
L 1344 2753 
L 3634 2753 
L 4006 4666 
L 4641 4666 
L 3731 0 
L 3097 0 
L 3531 2222 
L 1241 2222 
L 806 0 
L 172 0 
L 1081 4666 
z
" transform="scale(0.015625)"/>
      <path id="DejaVuSans-37" d="M 525 4666 
L 3525 4666 
L 3525 4397 
L 1831 0 
L 1172 0 
L 2766 4134 
L 525 4134 
L 525 4666 
z
" transform="scale(0.015625)"/>
      <path id="DejaVuSans-2e" d="M 684 794 
L 1344 794 
L 1344 0 
L 684 0 
L 684 794 
z
" transform="scale(0.015625)"/>
      <path id="DejaVuSans-33" d="M 2597 2516 
Q 3050 2419 3304 2112 
Q 3559 1806 3559 1356 
Q 3559 666 3084 287 
Q 2609 -91 1734 -91 
Q 1441 -91 1130 -33 
Q 819 25 488 141 
L 488 750 
Q 750 597 1062 519 
Q 1375 441 1716 441 
Q 2309 441 2620 675 
Q 2931 909 2931 1356 
Q 2931 1769 2642 2001 
Q 2353 2234 1838 2234 
L 1294 2234 
L 1294 2753 
L 1863 2753 
Q 2328 2753 2575 2939 
Q 2822 3125 2822 3475 
Q 2822 3834 2567 4026 
Q 2313 4219 1838 4219 
Q 1578 4219 1281 4162 
Q 984 4106 628 3988 
L 628 4550 
Q 988 4650 1302 4700 
Q 1616 4750 1894 4750 
Q 2613 4750 3031 4423 
Q 3450 4097 3450 3541 
Q 3450 3153 3228 2886 
Q 3006 2619 2597 2516 
z
" transform="scale(0.015625)"/>
      <path id="DejaVuSans-52" d="M 2841 2188 
Q 3044 2119 3236 1894 
Q 3428 1669 3622 1275 
L 4263 0 
L 3584 0 
L 2988 1197 
Q 2756 1666 2539 1819 
Q 2322 1972 1947 1972 
L 1259 1972 
L 1259 0 
L 628 0 
L 628 4666 
L 2053 4666 
Q 2853 4666 3247 4331 
Q 3641 3997 3641 3322 
Q 3641 2881 3436 2590 
Q 3231 2300 2841 2188 
z
M 1259 4147 
L 1259 2491 
L 2053 2491 
Q 2509 2491 2742 2702 
Q 2975 2913 2975 3322 
Q 2975 3731 2742 3939 
Q 2509 4147 2053 4147 
L 1259 4147 
z
" transform="scale(0.015625)"/>
      <path id="DejaVuSans-b2" d="M 838 2444 
L 2163 2444 
L 2163 2088 
L 294 2088 
L 294 2431 
Q 400 2528 597 2703 
Q 1672 3656 1672 3950 
Q 1672 4156 1509 4282 
Q 1347 4409 1081 4409 
Q 919 4409 728 4354 
Q 538 4300 313 4191 
L 313 4575 
Q 553 4663 761 4706 
Q 969 4750 1147 4750 
Q 1600 4750 1872 4544 
Q 2144 4338 2144 4000 
Q 2144 3566 1109 2678 
Q 934 2528 838 2444 
z
" transform="scale(0.015625)"/>
     </defs>
     <use xlink:href="#DejaVuSans-Oblique-48" transform="translate(0 0.78125)"/>
     <use xlink:href="#DejaVuSans-31" transform="translate(75.195312 -15.625) scale(0.7)"/>
     <use xlink:href="#DejaVuSans-3d" transform="translate(122.46582 0.78125)"/>
     <use xlink:href="#DejaVuSans-32" transform="translate(206.254883 0.78125)"/>
     <use xlink:href="#DejaVuSans-38" transform="translate(269.87793 0.78125)"/>
     <use xlink:href="#DejaVuSans-37" transform="translate(333.500977 0.78125)"/>
     <use xlink:href="#DejaVuSans-2e" transform="translate(397.124023 0.78125)"/>
     <use xlink:href="#DejaVuSans-36" transform="translate(428.911133 0.78125)"/>
     <use xlink:href="#DejaVuSans-37" transform="translate(492.53418 0.78125)"/>
     <use xlink:href="#DejaVuSans-33" transform="translate(556.157227 0.78125)"/>
     <use xlink:href="#DejaVuSans-36" transform="translate(619.780273 0.78125)"/>
     <use xlink:href="#DejaVuSans-20" transform="translate(683.40332 0.78125)"/>
     <use xlink:href="#DejaVuSans-54" transform="translate(715.19043 0.78125)"/>
     <use xlink:href="#DejaVuSans-2c" transform="translate(776.274414 0.78125)"/>
     <use xlink:href="#DejaVuSans-20" transform="translate(808.061523 0.78125)"/>
     <use xlink:href="#DejaVuSans-Oblique-48" transform="translate(839.848633 0.78125)"/>
     <use xlink:href="#DejaVuSans-32" transform="translate(915.043945 -15.625) scale(0.7)"/>
     <use xlink:href="#DejaVuSans-3d" transform="translate(962.314453 0.78125)"/>
     <use xlink:href="#DejaVuSans-32" transform="translate(1046.103516 0.78125)"/>
     <use xlink:href="#DejaVuSans-38" transform="translate(1109.726562 0.78125)"/>
     <use xlink:href="#DejaVuSans-35" transform="translate(1173.349609 0.78125)"/>
     <use xlink:href="#DejaVuSans-2e" transform="translate(1236.972656 0.78125)"/>
     <use xlink:href="#DejaVuSans-33" transform="translate(1268.759766 0.78125)"/>
     <use xlink:href="#DejaVuSans-37" transform="translate(1332.382812 0.78125)"/>
     <use xlink:href="#DejaVuSans-34" transform="translate(1396.005859 0.78125)"/>
     <use xlink:href="#DejaVuSans-37" transform="translate(1459.628906 0.78125)"/>
     <use xlink:href="#DejaVuSans-20" transform="translate(1523.251953 0.78125)"/>
     <use xlink:href="#DejaVuSans-54" transform="translate(1555.039062 0.78125)"/>
     <use xlink:href="#DejaVuSans-2c" transform="translate(1616.123047 0.78125)"/>
     <use xlink:href="#DejaVuSans-20" transform="translate(1647.910156 0.78125)"/>
     <use xlink:href="#DejaVuSans-52" transform="translate(1679.697266 0.78125)"/>
     <use xlink:href="#DejaVuSans-b2" transform="translate(1749.179688 0.78125)"/>
     <use xlink:href="#DejaVuSans-3d" transform="translate(1789.267578 0.78125)"/>
     <use xlink:href="#DejaVuSans-30" transform="translate(1873.056641 0.78125)"/>
     <use xlink:href="#DejaVuSans-2e" transform="translate(1936.679688 0.78125)"/>
     <use xlink:href="#DejaVuSans-39" transform="translate(1968.466797 0.78125)"/>
     <use xlink:href="#DejaVuSans-33" transform="translate(2032.089844 0.78125)"/>
     <use xlink:href="#DejaVuSans-31" transform="translate(2095.712891 0.78125)"/>
    </g>
   </g>
   <g id="legend_1">
    <g id="patch_7">
     <path d="M 68.504 139.367437 
L 260.244219 139.367437 
Q 263.004219 139.367437 263.004219 136.607438 
L 263.004219 77.22 
Q 263.004219 74.46 260.244219 74.46 
L 68.504 74.46 
Q 65.744 74.46 65.744 77.22 
L 65.744 136.607438 
Q 65.744 139.367437 68.504 139.367437 
z
" style="fill: #ffffff; opacity: 0.8; stroke: #cccccc; stroke-linejoin: miter"/>
    </g>
    <g id="line2d_14">
     <path d="M 71.264 85.635844 
L 85.064 85.635844 
L 98.864 85.635844 
" style="fill: none; stroke: #cc7000; stroke-opacity: 0.7; stroke-width: 1.4; stroke-linecap: square"/>
    </g>
    <g id="text_14">
     <!-- Raw data (curve) -->
     <g transform="translate(109.904 90.465844) scale(0.138 -0.138)">
      <defs>
       <path id="DejaVuSans-77" d="M 269 3500 
L 844 3500 
L 1563 769 
L 2278 3500 
L 2956 3500 
L 3675 769 
L 4391 3500 
L 4966 3500 
L 4050 0 
L 3372 0 
L 2619 2869 
L 1863 0 
L 1184 0 
L 269 3500 
z
" transform="scale(0.015625)"/>
       <path id="DejaVuSans-76" d="M 191 3500 
L 800 3500 
L 1894 563 
L 2988 3500 
L 3597 3500 
L 2284 0 
L 1503 0 
L 191 3500 
z
" transform="scale(0.015625)"/>
      </defs>
      <use xlink:href="#DejaVuSans-52"/>
      <use xlink:href="#DejaVuSans-61" transform="translate(67.232422 0)"/>
      <use xlink:href="#DejaVuSans-77" transform="translate(128.511719 0)"/>
      <use xlink:href="#DejaVuSans-20" transform="translate(210.298828 0)"/>
      <use xlink:href="#DejaVuSans-64" transform="translate(242.085938 0)"/>
      <use xlink:href="#DejaVuSans-61" transform="translate(305.5625 0)"/>
      <use xlink:href="#DejaVuSans-74" transform="translate(366.841797 0)"/>
      <use xlink:href="#DejaVuSans-61" transform="translate(406.050781 0)"/>
      <use xlink:href="#DejaVuSans-20" transform="translate(467.330078 0)"/>
      <use xlink:href="#DejaVuSans-28" transform="translate(499.117188 0)"/>
      <use xlink:href="#DejaVuSans-63" transform="translate(538.130859 0)"/>
      <use xlink:href="#DejaVuSans-75" transform="translate(593.111328 0)"/>
      <use xlink:href="#DejaVuSans-72" transform="translate(656.490234 0)"/>
      <use xlink:href="#DejaVuSans-76" transform="translate(697.603516 0)"/>
      <use xlink:href="#DejaVuSans-65" transform="translate(756.783203 0)"/>
      <use xlink:href="#DejaVuSans-29" transform="translate(818.306641 0)"/>
     </g>
    </g>
    <g id="line2d_15">
     <path d="M 71.264 105.891656 
L 85.064 105.891656 
L 98.864 105.891656 
" style="fill: none; stroke: #2980b9; stroke-width: 2; stroke-linecap: square"/>
    </g>
    <g id="text_15">
     <!-- Aggregated (median) -->
     <g transform="translate(109.904 110.721656) scale(0.138 -0.138)">
      <defs>
       <path id="DejaVuSans-67" d="M 2906 1791 
Q 2906 2416 2648 2759 
Q 2391 3103 1925 3103 
Q 1463 3103 1205 2759 
Q 947 2416 947 1791 
Q 947 1169 1205 825 
Q 1463 481 1925 481 
Q 2391 481 2648 825 
Q 2906 1169 2906 1791 
z
M 3481 434 
Q 3481 -459 3084 -895 
Q 2688 -1331 1869 -1331 
Q 1566 -1331 1297 -1286 
Q 1028 -1241 775 -1147 
L 775 -588 
Q 1028 -725 1275 -790 
Q 1522 -856 1778 -856 
Q 2344 -856 2625 -561 
Q 2906 -266 2906 331 
L 2906 616 
Q 2728 306 2450 153 
Q 2172 0 1784 0 
Q 1141 0 747 490 
Q 353 981 353 1791 
Q 353 2603 747 3093 
Q 1141 3584 1784 3584 
Q 2172 3584 2450 3431 
Q 2728 3278 2906 2969 
L 2906 3500 
L 3481 3500 
L 3481 434 
z
" transform="scale(0.015625)"/>
      </defs>
      <use xlink:href="#DejaVuSans-41"/>
      <use xlink:href="#DejaVuSans-67" transform="translate(68.408203 0)"/>
      <use xlink:href="#DejaVuSans-67" transform="translate(131.884766 0)"/>
      <use xlink:href="#DejaVuSans-72" transform="translate(195.361328 0)"/>
      <use xlink:href="#DejaVuSans-65" transform="translate(234.224609 0)"/>
      <use xlink:href="#DejaVuSans-67" transform="translate(295.748047 0)"/>
      <use xlink:href="#DejaVuSans-61" transform="translate(359.224609 0)"/>
      <use xlink:href="#DejaVuSans-74" transform="translate(420.503906 0)"/>
      <use xlink:href="#DejaVuSans-65" transform="translate(459.712891 0)"/>
      <use xlink:href="#DejaVuSans-64" transform="translate(521.236328 0)"/>
      <use xlink:href="#DejaVuSans-20" transform="translate(584.712891 0)"/>
      <use xlink:href="#DejaVuSans-28" transform="translate(616.5 0)"/>
      <use xlink:href="#DejaVuSans-6d" transform="translate(655.513672 0)"/>
      <use xlink:href="#DejaVuSans-65" transform="translate(752.925781 0)"/>
      <use xlink:href="#DejaVuSans-64" transform="translate(814.449219 0)"/>
      <use xlink:href="#DejaVuSans-69" transform="translate(877.925781 0)"/>
      <use xlink:href="#DejaVuSans-61" transform="translate(905.708984 0)"/>
      <use xlink:href="#DejaVuSans-6e" transform="translate(966.988281 0)"/>
      <use xlink:href="#DejaVuSans-29" transform="translate(1030.367188 0)"/>
     </g>
    </g>
    <g id="line2d_16">
     <path d="M 71.264 126.147469 
L 85.064 126.147469 
L 98.864 126.147469 
" style="fill: none; stroke: #ffa500; stroke-width: 2.5; stroke-linecap: square"/>
    </g>
    <g id="text_16">
     <!-- Fit -->
     <g transform="translate(109.904 130.977469) scale(0.138 -0.138)">
      <defs>
       <path id="DejaVuSans-46" d="M 628 4666 
L 3309 4666 
L 3309 4134 
L 1259 4134 
L 1259 2759 
L 3109 2759 
L 3109 2228 
L 1259 2228 
L 1259 0 
L 628 0 
L 628 4666 
z
" transform="scale(0.015625)"/>
      </defs>
      <use xlink:href="#DejaVuSans-46"/>
      <use xlink:href="#DejaVuSans-69" transform="translate(50.269531 0)"/>
      <use xlink:href="#DejaVuSans-74" transform="translate(78.052734 0)"/>
     </g>
    </g>
   </g>
  </g>
 </g>
 <defs>
  <clipPath id="p9359a86f37">
   <rect x="58.844" y="67.56" width="430.252" height="167.176"/>
  </clipPath>
 </defs>
</svg>
