<?xml version="1.0" encoding="utf-8" standalone="no"?>
<!DOCTYPE svg PUBLIC "-//W3C//DTD SVG 1.1//EN"
  "http://www.w3.org/Graphics/SVG/1.1/DTD/svg11.dtd">
<svg xmlns:xlink="http://www.w3.org/1999/xlink" width="504pt" height="288pt" viewBox="0 0 504 288" xmlns="http://www.w3.org/2000/svg" version="1.1">
 <metadata>
  <rdf:RDF xmlns:dc="http://purl.org/dc/elements/1.1/" xmlns:cc="http://creativecommons.org/ns#" xmlns:rdf="http://www.w3.org/1999/02/22-rdf-syntax-ns#">
   <cc:Work>
    <dc:type rdf:resource="http://purl.org/dc/dcmitype/StillImage"/>
    <dc:date>2025-10-06T14:01:03.495020</dc:date>
    <dc:format>image/svg+xml</dc:format>
    <dc:creator>
     <cc:Agent>
      <dc:title>Matplotlib v3.10.6, https://matplotlib.org/</dc:title>
     </cc:Agent>
    </dc:creator>
   </cc:Work>
  </rdf:RDF>
 </metadata>
 <defs>
  <style type="text/css">*{stroke-linejoin: round; stroke-linecap: butt}</style>
 </defs>
 <g id="figure_1">
  <g id="patch_1">
   <path d="M 0 288 
L 504 288 
L 504 0 
L 0 0 
z
" style="fill: #ffffff"/>
  </g>
  <g id="axes_1">
   <g id="patch_2">
    <path d="M 58.844 234.736 
L 489.096 234.736 
L 489.096 67.56 
L 58.844 67.56 
z
" style="fill: #ffffff"/>
   </g>
   <g id="matplotlib.axis_1">
    <g id="xtick_1">
     <g id="line2d_1">
      <defs>
       <path id="m358461e242" d="M 0 0 
L 0 3.5 
" style="stroke: #000000; stroke-width: 0.8"/>
      </defs>
      <g>
       <use xlink:href="#m358461e242" x="101.357594" y="234.736" style="stroke: #000000; stroke-width: 0.8"/>
      </g>
     </g>
     <g id="text_1">
      <!-- 250 -->
      <g transform="translate(89.28475 251.348023) scale(0.1265 -0.1265)">
       <defs>
        <path id="DejaVuSans-32" d="M 1228 531 
L 3431 531 
L 3431 0 
L 469 0 
L 469 531 
Q 828 903 1448 1529 
Q 2069 2156 2228 2338 
Q 2531 2678 2651 2914 
Q 2772 3150 2772 3378 
Q 2772 3750 2511 3984 
Q 2250 4219 1831 4219 
Q 1534 4219 1204 4116 
Q 875 4013 500 3803 
L 500 4441 
Q 881 4594 1212 4672 
Q 1544 4750 1819 4750 
Q 2544 4750 2975 4387 
Q 3406 4025 3406 3419 
Q 3406 3131 3298 2873 
Q 3191 2616 2906 2266 
Q 2828 2175 2409 1742 
Q 1991 1309 1228 531 
z
" transform="scale(0.015625)"/>
        <path id="DejaVuSans-35" d="M 691 4666 
L 3169 4666 
L 3169 4134 
L 1269 4134 
L 1269 2991 
Q 1406 3038 1543 3061 
Q 1681 3084 1819 3084 
Q 2600 3084 3056 2656 
Q 3513 2228 3513 1497 
Q 3513 744 3044 326 
Q 2575 -91 1722 -91 
Q 1428 -91 1123 -41 
Q 819 9 494 109 
L 494 744 
Q 775 591 1075 516 
Q 1375 441 1709 441 
Q 2250 441 2565 725 
Q 2881 1009 2881 1497 
Q 2881 1984 2565 2268 
Q 2250 2553 1709 2553 
Q 1456 2553 1204 2497 
Q 953 2441 691 2322 
L 691 4666 
z
" transform="scale(0.015625)"/>
        <path id="DejaVuSans-30" d="M 2034 4250 
Q 1547 4250 1301 3770 
Q 1056 3291 1056 2328 
Q 1056 1369 1301 889 
Q 1547 409 2034 409 
Q 2525 409 2770 889 
Q 3016 1369 3016 2328 
Q 3016 3291 2770 3770 
Q 2525 4250 2034 4250 
z
M 2034 4750 
Q 2819 4750 3233 4129 
Q 3647 3509 3647 2328 
Q 3647 1150 3233 529 
Q 2819 -91 2034 -91 
Q 1250 -91 836 529 
Q 422 1150 422 2328 
Q 422 3509 836 4129 
Q 1250 4750 2034 4750 
z
" transform="scale(0.015625)"/>
       </defs>
       <use xlink:href="#DejaVuSans-32"/>
       <use xlink:href="#DejaVuSans-35" transform="translate(63.623047 0)"/>
       <use xlink:href="#DejaVuSans-30" transform="translate(127.246094 0)"/>
      </g>
     </g>
    </g>
    <g id="xtick_2">
     <g id="line2d_2">
      <g>
       <use xlink:href="#m358461e242" x="182.333554" y="234.736" style="stroke: #000000; stroke-width: 0.8"/>
      </g>
     </g>
     <g id="text_2">
      <!-- 252 -->
      <g transform="translate(170.260711 251.348023) scale(0.1265 -0.1265)">
       <use xlink:href="#DejaVuSans-32"/>
       <use xlink:href="#DejaVuSans-35" transform="translate(63.623047 0)"/>
       <use xlink:href="#DejaVuSans-32" transform="translate(127.246094 0)"/>
      </g>
     </g>
    </g>
    <g id="xtick_3">
     <g id="line2d_3">
      <g>
       <use xlink:href="#m358461e242" x="263.309515" y="234.736" style="stroke: #000000; stroke-width: 0.8"/>
      </g>
     </g>
     <g id="text_3">
      <!-- 254 -->
      <g transform="translate(251.236671 251.348023) scale(0.1265 -0.1265)">
       <defs>
        <path id="DejaVuSans-34" d="M 2419 4116 
L 825 1625 
L 2419 1625 
L 2419 4116 
z
M 2253 4666 
L 3047 4666 
L 3047 1625 
L 3713 1625 
L 3713 1100 
L 3047 1100 
L 3047 0 
L 2419 0 
L 2419 1100 
L 313 1100 
L 313 1709 
L 2253 4666 
z
" transform="scale(0.015625)"/>
       </defs>
       <use xlink:href="#DejaVuSans-32"/>
       <use xlink:href="#DejaVuSans-35" transform="translate(63.623047 0)"/>
       <use xlink:href="#DejaVuSans-34" transform="translate(127.246094 0)"/>
      </g>
     </g>
    </g>
    <g id="xtick_4">
     <g id="line2d_4">
      <g>
       <use xlink:href="#m358461e242" x="344.285475" y="234.736" style="stroke: #000000; stroke-width: 0.8"/>
      </g>
     </g>
     <g id="text_4">
      <!-- 256 -->
      <g transform="translate(332.212632 251.348023) scale(0.1265 -0.1265)">
       <defs>
        <path id="DejaVuSans-36" d="M 2113 2584 
Q 1688 2584 1439 2293 
Q 1191 2003 1191 1497 
Q 1191 994 1439 701 
Q 1688 409 2113 409 
Q 2538 409 2786 701 
Q 3034 994 3034 1497 
Q 3034 2003 2786 2293 
Q 2538 2584 2113 2584 
z
M 3366 4563 
L 3366 3988 
Q 3128 4100 2886 4159 
Q 2644 4219 2406 4219 
Q 1781 4219 1451 3797 
Q 1122 3375 1075 2522 
Q 1259 2794 1537 2939 
Q 1816 3084 2150 3084 
Q 2853 3084 3261 2657 
Q 3669 2231 3669 1497 
Q 3669 778 3244 343 
Q 2819 -91 2113 -91 
Q 1303 -91 875 529 
Q 447 1150 447 2328 
Q 447 3434 972 4092 
Q 1497 4750 2381 4750 
Q 2619 4750 2861 4703 
Q 3103 4656 3366 4563 
z
" transform="scale(0.015625)"/>
       </defs>
       <use xlink:href="#DejaVuSans-32"/>
       <use xlink:href="#DejaVuSans-35" transform="translate(63.623047 0)"/>
       <use xlink:href="#DejaVuSans-36" transform="translate(127.246094 0)"/>
      </g>
     </g>
    </g>
    <g id="xtick_5">
     <g id="line2d_5">
      <g>
       <use xlink:href="#m358461e242" x="425.261436" y="234.736" style="stroke: #000000; stroke-width: 0.8"/>
      </g>
     </g>
     <g id="text_5">
      <!-- 258 -->
      <g transform="translate(413.188592 251.348023) scale(0.1265 -0.1265)">
       <defs>
        <path id="DejaVuSans-38" d="M 2034 2216 
Q 1584 2216 1326 1975 
Q 1069 1734 1069 1313 
Q 1069 891 1326 650 
Q 1584 409 2034 409 
Q 2484 409 2743 651 
Q 3003 894 3003 1313 
Q 3003 1734 2745 1975 
Q 2488 2216 2034 2216 
z
M 1403 2484 
Q 997 2584 770 2862 
Q 544 3141 544 3541 
Q 544 4100 942 4425 
Q 1341 4750 2034 4750 
Q 2731 4750 3128 4425 
Q 3525 4100 3525 3541 
Q 3525 3141 3298 2862 
Q 3072 2584 2669 2484 
Q 3125 2378 3379 2068 
Q 3634 1759 3634 1313 
Q 3634 634 3220 271 
Q 2806 -91 2034 -91 
Q 1263 -91 848 271 
Q 434 634 434 1313 
Q 434 1759 690 2068 
Q 947 2378 1403 2484 
z
M 1172 3481 
Q 1172 3119 1398 2916 
Q 1625 2713 2034 2713 
Q 2441 2713 2670 2916 
Q 2900 3119 2900 3481 
Q 2900 3844 2670 4047 
Q 2441 4250 2034 4250 
Q 1625 4250 1398 4047 
Q 1172 3844 1172 3481 
z
" transform="scale(0.015625)"/>
       </defs>
       <use xlink:href="#DejaVuSans-32"/>
       <use xlink:href="#DejaVuSans-35" transform="translate(63.623047 0)"/>
       <use xlink:href="#DejaVuSans-38" transform="translate(127.246094 0)"/>
      </g>
     </g>
    </g>
    <g id="text_6">
     <!-- H (T) -->
     <g transform="translate(255.574492 269.338492) scale(0.1495 -0.1495)">
      <defs>
       <path id="DejaVuSans-48" d="M 628 4666 
L 1259 4666 
L 1259 2753 
L 3553 2753 
L 3553 4666 
L 4184 4666 
L 4184 0 
L 3553 0 
L 3553 2222 
L 1259 2222 
L 1259 0 
L 628 0 
L 628 4666 
z
" transform="scale(0.015625)"/>
       <path id="DejaVuSans-20" transform="scale(0.015625)"/>
       <path id="DejaVuSans-28" d="M 1984 4856 
Q 1566 4138 1362 3434 
Q 1159 2731 1159 2009 
Q 1159 1288 1364 580 
Q 1569 -128 1984 -844 
L 1484 -844 
Q 1016 -109 783 600 
Q 550 1309 550 2009 
Q 550 2706 781 3412 
Q 1013 4119 1484 4856 
L 1984 4856 
z
" transform="scale(0.015625)"/>
       <path id="DejaVuSans-54" d="M -19 4666 
L 3928 4666 
L 3928 4134 
L 2272 4134 
L 2272 0 
L 1638 0 
L 1638 4134 
L -19 4134 
L -19 4666 
z
" transform="scale(0.015625)"/>
       <path id="DejaVuSans-29" d="M 513 4856 
L 1013 4856 
Q 1481 4119 1714 3412 
Q 1947 2706 1947 2009 
Q 1947 1309 1714 600 
Q 1481 -109 1013 -844 
L 513 -844 
Q 928 -128 1133 580 
Q 1338 1288 1338 2009 
Q 1338 2731 1133 3434 
Q 928 4138 513 4856 
z
" transform="scale(0.015625)"/>
      </defs>
      <use xlink:href="#DejaVuSans-48"/>
      <use xlink:href="#DejaVuSans-20" transform="translate(75.195312 0)"/>
      <use xlink:href="#DejaVuSans-28" transform="translate(106.982422 0)"/>
      <use xlink:href="#DejaVuSans-54" transform="translate(145.996094 0)"/>
      <use xlink:href="#DejaVuSans-29" transform="translate(207.080078 0)"/>
     </g>
    </g>
   </g>
   <g id="matplotlib.axis_2">
    <g id="ytick_1">
     <g id="line2d_6">
      <defs>
       <path id="m9186988661" d="M 0 0 
L -3.5 0 
" style="stroke: #000000; stroke-width: 0.8"/>
      </defs>
      <g>
       <use xlink:href="#m9186988661" x="58.844" y="212.559775" style="stroke: #000000; stroke-width: 0.8"/>
      </g>
     </g>
     <g id="text_7">
      <!-- −4 -->
      <g transform="translate(33.195133 217.365787) scale(0.1265 -0.1265)">
       <defs>
        <path id="DejaVuSans-2212" d="M 678 2272 
L 4684 2272 
L 4684 1741 
L 678 1741 
L 678 2272 
z
" transform="scale(0.015625)"/>
       </defs>
       <use xlink:href="#DejaVuSans-2212"/>
       <use xlink:href="#DejaVuSans-34" transform="translate(83.789062 0)"/>
      </g>
     </g>
    </g>
    <g id="ytick_2">
     <g id="line2d_7">
      <g>
       <use xlink:href="#m9186988661" x="58.844" y="182.617291" style="stroke: #000000; stroke-width: 0.8"/>
      </g>
     </g>
     <g id="text_8">
      <!-- −2 -->
      <g transform="translate(33.195133 187.423302) scale(0.1265 -0.1265)">
       <use xlink:href="#DejaVuSans-2212"/>
       <use xlink:href="#DejaVuSans-32" transform="translate(83.789062 0)"/>
      </g>
     </g>
    </g>
    <g id="ytick_3">
     <g id="line2d_8">
      <g>
       <use xlink:href="#m9186988661" x="58.844" y="152.674806" style="stroke: #000000; stroke-width: 0.8"/>
      </g>
     </g>
     <g id="text_9">
      <!-- 0 -->
      <g transform="translate(43.795438 157.480818) scale(0.1265 -0.1265)">
       <use xlink:href="#DejaVuSans-30"/>
      </g>
     </g>
    </g>
    <g id="ytick_4">
     <g id="line2d_9">
      <g>
       <use xlink:href="#m9186988661" x="58.844" y="122.732322" style="stroke: #000000; stroke-width: 0.8"/>
      </g>
     </g>
     <g id="text_10">
      <!-- 2 -->
      <g transform="translate(43.795438 127.538333) scale(0.1265 -0.1265)">
       <use xlink:href="#DejaVuSans-32"/>
      </g>
     </g>
    </g>
    <g id="ytick_5">
     <g id="line2d_10">
      <g>
       <use xlink:href="#m9186988661" x="58.844" y="92.789837" style="stroke: #000000; stroke-width: 0.8"/>
      </g>
     </g>
     <g id="text_11">
      <!-- 4 -->
      <g transform="translate(43.795438 97.595849) scale(0.1265 -0.1265)">
       <use xlink:href="#DejaVuSans-34"/>
      </g>
     </g>
    </g>
    <g id="text_12">
     <!-- dP/dH -->
     <g transform="translate(26.086 173.28568) rotate(-90) scale(0.1495 -0.1495)">
      <defs>
       <path id="DejaVuSans-64" d="M 2906 2969 
L 2906 4863 
L 3481 4863 
L 3481 0 
L 2906 0 
L 2906 525 
Q 2725 213 2448 61 
Q 2172 -91 1784 -91 
Q 1150 -91 751 415 
Q 353 922 353 1747 
Q 353 2572 751 3078 
Q 1150 3584 1784 3584 
Q 2172 3584 2448 3432 
Q 2725 3281 2906 2969 
z
M 947 1747 
Q 947 1113 1208 752 
Q 1469 391 1925 391 
Q 2381 391 2643 752 
Q 2906 1113 2906 1747 
Q 2906 2381 2643 2742 
Q 2381 3103 1925 3103 
Q 1469 3103 1208 2742 
Q 947 2381 947 1747 
z
" transform="scale(0.015625)"/>
       <path id="DejaVuSans-50" d="M 1259 4147 
L 1259 2394 
L 2053 2394 
Q 2494 2394 2734 2622 
Q 2975 2850 2975 3272 
Q 2975 3691 2734 3919 
Q 2494 4147 2053 4147 
L 1259 4147 
z
M 628 4666 
L 2053 4666 
Q 2838 4666 3239 4311 
Q 3641 3956 3641 3272 
Q 3641 2581 3239 2228 
Q 2838 1875 2053 1875 
L 1259 1875 
L 1259 0 
L 628 0 
L 628 4666 
z
" transform="scale(0.015625)"/>
       <path id="DejaVuSans-2f" d="M 1625 4666 
L 2156 4666 
L 531 -594 
L 0 -594 
L 1625 4666 
z
" transform="scale(0.015625)"/>
      </defs>
      <use xlink:href="#DejaVuSans-64"/>
      <use xlink:href="#DejaVuSans-50" transform="translate(63.476562 0)"/>
      <use xlink:href="#DejaVuSans-2f" transform="translate(123.779297 0)"/>
      <use xlink:href="#DejaVuSans-64" transform="translate(157.470703 0)"/>
      <use xlink:href="#DejaVuSans-48" transform="translate(220.947266 0)"/>
     </g>
    </g>
   </g>
   <g id="line2d_11">
    <path d="M 78.400909 151.896826 
L 78.400909 151.650773 
L 78.400909 152.359991 
L 83.616085 152.282799 
L 83.616085 153.020971 
L 83.616085 153.001673 
L 88.831261 152.963077 
L 88.831261 153.011315 
L 88.831261 151.313037 
L 94.046436 152.905184 
L 94.046436 152.84729 
L 94.046436 152.548149 
L 94.046436 152.866588 
L 99.261612 153.204309 
L 99.261612 152.369647 
L 99.261612 152.408243 
L 104.476788 152.6157 
L 104.476788 154.106521 
L 104.476788 152.567447 
L 109.691964 152.726667 
L 109.691964 150.34329 
L 109.691964 152.943779 
L 114.907139 153.189832 
L 114.907139 152.302097 
L 114.907139 153.247726 
L 120.122315 153.841171 
L 120.122315 153.194653 
L 120.122315 155.264442 
L 120.122315 153.218786 
L 125.337491 153.918362 
L 125.337491 153.923183 
L 125.337491 149.021329 
L 130.552667 153.918362 
L 130.552667 153.117461 
L 130.552667 154.164415 
L 135.767842 153.961779 
L 135.767842 155.573209 
L 135.767842 154.140296 
L 140.983018 154.140296 
L 140.983018 154.651699 
L 140.983018 153.826694 
L 146.198194 154.019673 
L 146.198194 154.806097 
L 146.198194 153.985898 
L 151.41337 154.478017 
L 151.41337 154.907408 
L 151.41337 154.699951 
L 156.628545 155.553911 
L 156.628545 155.867513 
L 156.628545 155.182414 
L 161.843721 155.664878 
L 161.843721 156.56709 
L 167.058897 156.653938 
L 167.058897 155.954362 
L 167.058897 156.37411 
L 172.274073 157.006136 
L 172.274073 157.72501 
L 172.274073 156.764905 
L 177.489248 156.885528 
L 177.489248 157.141222 
L 177.489248 155.954362 
L 177.489248 156.943422 
L 182.704424 157.372812 
L 182.704424 158.05309 
L 187.9196 158.617566 
L 187.9196 158.033792 
L 187.9196 158.12064 
L 193.134776 161.145685 
L 193.134776 160.16146 
L 193.134776 161.753592 
L 193.134776 160.58603 
L 198.349952 164.715922 
L 198.349952 163.041778 
L 198.349952 164.383021 
L 203.565127 166.722981 
L 203.565127 166.115074 
L 203.565127 167.707206 
L 203.565127 167.234384 
L 208.780303 163.693101 
L 208.780303 166.312889 
L 208.780303 164.368559 
L 213.995479 159.847858 
L 213.995479 158.294322 
L 213.995479 162.535181 
L 219.210655 154.897766 
L 219.210655 156.982018 
L 219.210655 155.674534 
L 224.42583 155.587686 
L 224.42583 155.018374 
L 224.42583 155.727607 
L 224.42583 155.298217 
L 229.641006 160.35444 
L 229.641006 156.919288 
L 229.641006 160.793486 
L 234.856182 164.522942 
L 234.856182 165.347948 
L 234.856182 160.894812 
L 240.071358 167.316412 
L 240.071358 165.391379 
L 245.286533 164.411976 
L 245.286533 167.615537 
L 245.286533 166.235682 
L 250.501709 169.511615 
L 250.501709 166.404543 
L 250.501709 167.359828 
L 255.716885 174.495467 
L 255.716885 177.240683 
L 255.716885 171.75507 
L 255.716885 172.599389 
L 260.932061 186.595629 
L 260.932061 178.721833 
L 260.932061 181.433275 
L 266.147236 186.947827 
L 266.147236 193.007542 
L 266.147236 190.865412 
L 271.362412 200.196224 
L 271.362412 194.710626 
L 271.362412 198.62339 
L 276.577588 200.755879 
L 276.577588 203.448007 
L 281.792764 187.468886 
L 281.792764 198.782609 
L 287.007939 158.926348 
L 287.007939 184.800861 
L 292.223115 116.083054 
L 292.223115 148.582282 
L 297.438291 84.938948 
L 297.438291 106.491428 
L 302.653467 75.158909 
L 302.653467 79.520616 
L 307.868642 91.032738 
L 307.868642 78.237191 
L 313.083818 111.909641 
L 313.083818 95.592199 
L 318.298994 116.647545 
L 318.298994 127.150994 
L 323.51417 130.943225 
L 323.51417 136.298633 
L 328.729345 137.282872 
L 328.729345 142.184756 
L 333.944521 143.144877 
L 333.944521 145.653698 
L 339.159697 146.7875 
L 339.159697 144.983076 
L 339.159697 149.426601 
L 344.374873 148.215607 
L 344.374873 148.312096 
L 344.374873 147.01909 
L 349.590048 149.243263 
L 349.590048 148.548507 
L 354.805224 150.034508 
L 354.805224 149.25774 
L 354.805224 149.518269 
L 360.0204 149.991076 
L 360.0204 149.711249 
L 360.0204 150.357752 
L 360.0204 150.261262 
L 365.235576 150.70513 
L 365.235576 154.632401 
L 365.235576 150.516971 
L 370.450752 151.10558 
L 370.450752 151.409527 
L 370.450752 151.057328 
L 375.665927 150.439779 
L 375.665927 151.86305 
L 380.881103 151.7955 
L 380.881103 150.941541 
L 380.881103 151.351633 
L 386.096279 152.273143 
L 386.096279 151.187593 
L 386.096279 151.930601 
L 391.311455 151.732786 
L 391.311455 151.829275 
L 391.311455 150.960838 
L 391.311455 152.060865 
L 396.52663 151.284098 
L 396.52663 152.350349 
L 401.741806 152.084984 
L 401.741806 152.77974 
L 401.741806 151.303395 
L 406.956982 152.065686 
L 406.956982 152.774919 
L 406.956982 152.302097 
L 412.172158 152.195951 
L 412.172158 151.346812 
L 412.172158 151.5977 
L 417.387333 151.665235 
L 417.387333 153.961779 
L 417.387333 152.417885 
L 422.602509 152.456481 
L 422.602509 152.770083 
L 422.602509 151.737606 
L 422.602509 152.311739 
L 427.817685 152.432362 
L 427.817685 153.136759 
L 427.817685 152.249024 
L 433.032861 152.929302 
L 433.032861 152.861752 
L 433.032861 151.438481 
L 438.248036 152.548149 
L 438.248036 153.136759 
L 438.248036 152.45166 
L 443.463212 152.099461 
L 443.463212 152.6157 
L 443.463212 152.316574 
L 448.678388 153.18019 
L 448.678388 154.391169 
L 448.678388 151.964376 
L 453.893564 152.393766 
L 453.893564 152.750785 
L 453.893564 151.916123 
L 459.108739 152.147714 
L 459.108739 153.175355 
L 459.108739 152.152534 
L 464.323915 152.678414 
L 464.323915 152.905184 
L 464.323915 152.099461 
L 469.539091 155.442944 
L 469.539091 151.641117 
L 469.539091 153.054746 
" clip-path="url(#p2cb03e76db)" style="fill: none; stroke: #cc7000; stroke-opacity: 0.7; stroke-width: 1.4; stroke-linecap: square"/>
   </g>
   <g id="line2d_12">
    <path d="M 78.400909 151.896826 
L 83.616085 152.77974 
L 88.831261 152.702548 
L 94.046436 152.856939 
L 99.261612 152.668773 
L 104.476788 152.649475 
L 109.691964 152.813507 
L 114.907139 153.074044 
L 120.122315 153.529978 
L 125.337491 153.312866 
L 130.552667 153.804978 
L 135.767842 154.268151 
L 140.983018 154.007614 
L 146.198194 154.244024 
L 151.41337 154.796448 
L 156.628545 155.46707 
L 161.843721 155.95919 
L 167.058897 156.246256 
L 172.274073 156.926534 
L 177.489248 156.914475 
L 182.704424 157.597156 
L 187.9196 158.323269 
L 193.134776 160.865857 
L 198.349952 163.895737 
L 203.565127 166.978683 
L 208.780303 164.535009 
L 213.995479 160.561904 
L 219.210655 155.978488 
L 224.42583 155.442951 
L 229.641006 158.851566 
L 234.856182 163.661744 
L 240.071358 166.201915 
L 245.286533 166.7471 
L 250.501709 167.637245 
L 255.716885 173.547428 
L 260.932061 181.959162 
L 266.147236 189.948738 
L 271.362412 197.914172 
L 276.577588 202.856995 
L 281.792764 195.680381 
L 287.007939 174.090195 
L 292.223115 133.963486 
L 297.438291 94.733374 
L 302.653467 76.126306 
L 307.868642 83.94503 
L 313.083818 104.262368 
L 318.298994 122.454126 
L 323.51417 133.584743 
L 328.729345 140.459934 
L 333.944521 144.047081 
L 339.159697 146.11446 
L 344.374873 147.670421 
L 349.590048 148.965838 
L 354.805224 149.472435 
L 360.0204 150.126169 
L 365.235576 150.695481 
L 370.450752 151.081454 
L 375.665927 151.315455 
L 380.881103 151.452951 
L 386.096279 151.67972 
L 391.311455 151.78103 
L 396.52663 151.913713 
L 401.741806 151.841342 
L 406.956982 152.352752 
L 412.172158 151.896826 
L 417.387333 152.425123 
L 422.602509 152.38411 
L 427.817685 152.753203 
L 433.032861 152.847282 
L 438.248036 152.552978 
L 443.463212 152.299687 
L 448.678388 152.724256 
L 453.893564 152.352752 
L 459.108739 152.454078 
L 464.323915 152.758024 
L 469.539091 153.339395 
" clip-path="url(#p2cb03e76db)" style="fill: none; stroke: #2980b9; stroke-width: 2; stroke-linecap: square"/>
   </g>
   <g id="line2d_13">
    <path d="M 78.400909 81.331508 
L 83.616085 83.630929 
L 88.831261 85.938069 
L 94.046436 88.253507 
L 99.261612 90.577886 
L 104.476788 92.911911 
L 109.691964 95.256366 
L 114.907139 97.612122 
L 120.122315 99.980149 
L 125.337491 102.361527 
L 130.552667 104.757471 
L 135.767842 107.169342 
L 140.983018 109.598677 
L 146.198194 112.047215 
L 151.41337 114.516929 
L 156.628545 117.01007 
L 161.843721 119.529216 
L 167.058897 122.07733 
L 172.274073 124.657837 
L 177.489248 127.274712 
L 182.704424 129.932592 
L 187.9196 132.636922 
L 193.134776 135.394124 
L 198.349952 138.211823 
L 203.565127 141.099127 
L 208.780303 144.066981 
L 213.995479 147.128626 
L 219.210655 150.300168 
L 224.42583 153.601301 
L 229.641006 157.056185 
L 234.856182 160.694446 
L 240.071358 164.552151 
L 245.286533 168.672235 
L 250.501709 173.102958 
L 255.716885 177.890377 
L 260.932061 183.053676 
L 266.147236 188.511081 
L 271.362412 193.860296 
L 276.577588 197.726466 
L 281.792764 195.938785 
L 287.007939 178.183348 
L 292.223115 134.17782 
L 297.438291 89.795505 
L 302.653467 79.685148 
L 307.868642 90.241504 
L 313.083818 104.390515 
L 318.298994 116.953604 
L 323.51417 127.324182 
L 328.729345 135.87869 
L 333.944521 143.066561 
L 339.159697 149.242703 
L 344.374873 154.664353 
L 349.590048 159.514917 
L 354.805224 163.925922 
L 360.0204 167.992978 
L 365.235576 171.786714 
L 370.450752 175.360161 
L 375.665927 178.753763 
L 380.881103 181.998824 
L 386.096279 185.119899 
L 391.311455 188.136494 
L 396.52663 191.064281 
L 401.741806 193.915983 
L 406.956982 196.70203 
L 412.172158 199.431046 
L 417.387333 202.110223 
L 422.602509 204.745602 
L 427.817685 207.342293 
L 433.032861 209.904646 
L 438.248036 212.436387 
L 443.463212 214.940726 
L 448.678388 217.42044 
L 453.893564 219.877947 
L 459.108739 222.315359 
L 464.323915 224.734529 
L 469.539091 227.137091 
" clip-path="url(#p2cb03e76db)" style="fill: none; stroke: #ffa500; stroke-width: 2.5; stroke-linecap: square"/>
   </g>
   <g id="patch_3">
    <path d="M 58.844 234.736 
L 58.844 67.56 
" style="fill: none; stroke: #000000; stroke-width: 0.8; stroke-linejoin: miter; stroke-linecap: square"/>
   </g>
   <g id="patch_4">
    <path d="M 489.096 234.736 
L 489.096 67.56 
" style="fill: none; stroke: #000000; stroke-width: 0.8; stroke-linejoin: miter; stroke-linecap: square"/>
   </g>
   <g id="patch_5">
    <path d="M 58.844 234.736 
L 489.096 234.736 
" style="fill: none; stroke: #000000; stroke-width: 0.8; stroke-linejoin: miter; stroke-linecap: square"/>
   </g>
   <g id="patch_6">
    <path d="M 58.844 67.56 
L 489.096 67.56 
" style="fill: none; stroke: #000000; stroke-width: 0.8; stroke-linejoin: miter; stroke-linecap: square"/>
   </g>
   <g id="text_13">
    <!-- AZ5, f=10 GHz, 10 dB -->
    <g transform="translate(185.260258 25.503044) scale(0.161 -0.161)">
     <defs>
      <path id="DejaVuSans-41" d="M 2188 4044 
L 1331 1722 
L 3047 1722 
L 2188 4044 
z
M 1831 4666 
L 2547 4666 
L 4325 0 
L 3669 0 
L 3244 1197 
L 1141 1197 
L 716 0 
L 50 0 
L 1831 4666 
z
" transform="scale(0.015625)"/>
      <path id="DejaVuSans-5a" d="M 359 4666 
L 4025 4666 
L 4025 4184 
L 1075 531 
L 4097 531 
L 4097 0 
L 288 0 
L 288 481 
L 3238 4134 
L 359 4134 
L 359 4666 
z
" transform="scale(0.015625)"/>
      <path id="DejaVuSans-2c" d="M 750 794 
L 1409 794 
L 1409 256 
L 897 -744 
L 494 -744 
L 750 256 
L 750 794 
z
" transform="scale(0.015625)"/>
      <path id="DejaVuSans-66" d="M 2375 4863 
L 2375 4384 
L 1825 4384 
Q 1516 4384 1395 4259 
Q 1275 4134 1275 3809 
L 1275 3500 
L 2222 3500 
L 2222 3053 
L 1275 3053 
L 1275 0 
L 697 0 
L 697 3053 
L 147 3053 
L 147 3500 
L 697 3500 
L 697 3744 
Q 697 4328 969 4595 
Q 1241 4863 1831 4863 
L 2375 4863 
z
" transform="scale(0.015625)"/>
      <path id="DejaVuSans-3d" d="M 678 2906 
L 4684 2906 
L 4684 2381 
L 678 2381 
L 678 2906 
z
M 678 1631 
L 4684 1631 
L 4684 1100 
L 678 1100 
L 678 1631 
z
" transform="scale(0.015625)"/>
      <path id="DejaVuSans-31" d="M 794 531 
L 1825 531 
L 1825 4091 
L 703 3866 
L 703 4441 
L 1819 4666 
L 2450 4666 
L 2450 531 
L 3481 531 
L 3481 0 
L 794 0 
L 794 531 
z
" transform="scale(0.015625)"/>
      <path id="DejaVuSans-47" d="M 3809 666 
L 3809 1919 
L 2778 1919 
L 2778 2438 
L 4434 2438 
L 4434 434 
Q 4069 175 3628 42 
Q 3188 -91 2688 -91 
Q 1594 -91 976 548 
Q 359 1188 359 2328 
Q 359 3472 976 4111 
Q 1594 4750 2688 4750 
Q 3144 4750 3555 4637 
Q 3966 4525 4313 4306 
L 4313 3634 
Q 3963 3931 3569 4081 
Q 3175 4231 2741 4231 
Q 1884 4231 1454 3753 
Q 1025 3275 1025 2328 
Q 1025 1384 1454 906 
Q 1884 428 2741 428 
Q 3075 428 3337 486 
Q 3600 544 3809 666 
z
" transform="scale(0.015625)"/>
      <path id="DejaVuSans-7a" d="M 353 3500 
L 3084 3500 
L 3084 2975 
L 922 459 
L 3084 459 
L 3084 0 
L 275 0 
L 275 525 
L 2438 3041 
L 353 3041 
L 353 3500 
z
" transform="scale(0.015625)"/>
      <path id="DejaVuSans-42" d="M 1259 2228 
L 1259 519 
L 2272 519 
Q 2781 519 3026 730 
Q 3272 941 3272 1375 
Q 3272 1813 3026 2020 
Q 2781 2228 2272 2228 
L 1259 2228 
z
M 1259 4147 
L 1259 2741 
L 2194 2741 
Q 2656 2741 2882 2914 
Q 3109 3088 3109 3444 
Q 3109 3797 2882 3972 
Q 2656 4147 2194 4147 
L 1259 4147 
z
M 628 4666 
L 2241 4666 
Q 2963 4666 3353 4366 
Q 3744 4066 3744 3513 
Q 3744 3084 3544 2831 
Q 3344 2578 2956 2516 
Q 3422 2416 3680 2098 
Q 3938 1781 3938 1306 
Q 3938 681 3513 340 
Q 3088 0 2303 0 
L 628 0 
L 628 4666 
z
" transform="scale(0.015625)"/>
     </defs>
     <use xlink:href="#DejaVuSans-41"/>
     <use xlink:href="#DejaVuSans-5a" transform="translate(68.408203 0)"/>
     <use xlink:href="#DejaVuSans-35" transform="translate(136.914062 0)"/>
     <use xlink:href="#DejaVuSans-2c" transform="translate(200.537109 0)"/>
     <use xlink:href="#DejaVuSans-20" transform="translate(232.324219 0)"/>
     <use xlink:href="#DejaVuSans-66" transform="translate(264.111328 0)"/>
     <use xlink:href="#DejaVuSans-3d" transform="translate(299.316406 0)"/>
     <use xlink:href="#DejaVuSans-31" transform="translate(383.105469 0)"/>
     <use xlink:href="#DejaVuSans-30" transform="translate(446.728516 0)"/>
     <use xlink:href="#DejaVuSans-20" transform="translate(510.351562 0)"/>
     <use xlink:href="#DejaVuSans-47" transform="translate(542.138672 0)"/>
     <use xlink:href="#DejaVuSans-48" transform="translate(619.628906 0)"/>
     <use xlink:href="#DejaVuSans-7a" transform="translate(694.824219 0)"/>
     <use xlink:href="#DejaVuSans-2c" transform="translate(747.314453 0)"/>
     <use xlink:href="#DejaVuSans-20" transform="translate(779.101562 0)"/>
     <use xlink:href="#DejaVuSans-31" transform="translate(810.888672 0)"/>
     <use xlink:href="#DejaVuSans-30" transform="translate(874.511719 0)"/>
     <use xlink:href="#DejaVuSans-20" transform="translate(938.134766 0)"/>
     <use xlink:href="#DejaVuSans-64" transform="translate(969.921875 0)"/>
     <use xlink:href="#DejaVuSans-42" transform="translate(1033.398438 0)"/>
    </g>
    <!-- Asymmetric Lorentzian -->
    <g transform="translate(181.078031 43.531522) scale(0.161 -0.161)">
     <defs>
      <path id="DejaVuSans-73" d="M 2834 3397 
L 2834 2853 
Q 2591 2978 2328 3040 
Q 2066 3103 1784 3103 
Q 1356 3103 1142 2972 
Q 928 2841 928 2578 
Q 928 2378 1081 2264 
Q 1234 2150 1697 2047 
L 1894 2003 
Q 2506 1872 2764 1633 
Q 3022 1394 3022 966 
Q 3022 478 2636 193 
Q 2250 -91 1575 -91 
Q 1294 -91 989 -36 
Q 684 19 347 128 
L 347 722 
Q 666 556 975 473 
Q 1284 391 1588 391 
Q 1994 391 2212 530 
Q 2431 669 2431 922 
Q 2431 1156 2273 1281 
Q 2116 1406 1581 1522 
L 1381 1569 
Q 847 1681 609 1914 
Q 372 2147 372 2553 
Q 372 3047 722 3315 
Q 1072 3584 1716 3584 
Q 2034 3584 2315 3537 
Q 2597 3491 2834 3397 
z
" transform="scale(0.015625)"/>
      <path id="DejaVuSans-79" d="M 2059 -325 
Q 1816 -950 1584 -1140 
Q 1353 -1331 966 -1331 
L 506 -1331 
L 506 -850 
L 844 -850 
Q 1081 -850 1212 -737 
Q 1344 -625 1503 -206 
L 1606 56 
L 191 3500 
L 800 3500 
L 1894 763 
L 2988 3500 
L 3597 3500 
L 2059 -325 
z
" transform="scale(0.015625)"/>
      <path id="DejaVuSans-6d" d="M 3328 2828 
Q 3544 3216 3844 3400 
Q 4144 3584 4550 3584 
Q 5097 3584 5394 3201 
Q 5691 2819 5691 2113 
L 5691 0 
L 5113 0 
L 5113 2094 
Q 5113 2597 4934 2840 
Q 4756 3084 4391 3084 
Q 3944 3084 3684 2787 
Q 3425 2491 3425 1978 
L 3425 0 
L 2847 0 
L 2847 2094 
Q 2847 2600 2669 2842 
Q 2491 3084 2119 3084 
Q 1678 3084 1418 2786 
Q 1159 2488 1159 1978 
L 1159 0 
L 581 0 
L 581 3500 
L 1159 3500 
L 1159 2956 
Q 1356 3278 1631 3431 
Q 1906 3584 2284 3584 
Q 2666 3584 2933 3390 
Q 3200 3197 3328 2828 
z
" transform="scale(0.015625)"/>
      <path id="DejaVuSans-65" d="M 3597 1894 
L 3597 1613 
L 953 1613 
Q 991 1019 1311 708 
Q 1631 397 2203 397 
Q 2534 397 2845 478 
Q 3156 559 3463 722 
L 3463 178 
Q 3153 47 2828 -22 
Q 2503 -91 2169 -91 
Q 1331 -91 842 396 
Q 353 884 353 1716 
Q 353 2575 817 3079 
Q 1281 3584 2069 3584 
Q 2775 3584 3186 3129 
Q 3597 2675 3597 1894 
z
M 3022 2063 
Q 3016 2534 2758 2815 
Q 2500 3097 2075 3097 
Q 1594 3097 1305 2825 
Q 1016 2553 972 2059 
L 3022 2063 
z
" transform="scale(0.015625)"/>
      <path id="DejaVuSans-74" d="M 1172 4494 
L 1172 3500 
L 2356 3500 
L 2356 3053 
L 1172 3053 
L 1172 1153 
Q 1172 725 1289 603 
Q 1406 481 1766 481 
L 2356 481 
L 2356 0 
L 1766 0 
Q 1100 0 847 248 
Q 594 497 594 1153 
L 594 3053 
L 172 3053 
L 172 3500 
L 594 3500 
L 594 4494 
L 1172 4494 
z
" transform="scale(0.015625)"/>
      <path id="DejaVuSans-72" d="M 2631 2963 
Q 2534 3019 2420 3045 
Q 2306 3072 2169 3072 
Q 1681 3072 1420 2755 
Q 1159 2438 1159 1844 
L 1159 0 
L 581 0 
L 581 3500 
L 1159 3500 
L 1159 2956 
Q 1341 3275 1631 3429 
Q 1922 3584 2338 3584 
Q 2397 3584 2469 3576 
Q 2541 3569 2628 3553 
L 2631 2963 
z
" transform="scale(0.015625)"/>
      <path id="DejaVuSans-69" d="M 603 3500 
L 1178 3500 
L 1178 0 
L 603 0 
L 603 3500 
z
M 603 4863 
L 1178 4863 
L 1178 4134 
L 603 4134 
L 603 4863 
z
" transform="scale(0.015625)"/>
      <path id="DejaVuSans-63" d="M 3122 3366 
L 3122 2828 
Q 2878 2963 2633 3030 
Q 2388 3097 2138 3097 
Q 1578 3097 1268 2742 
Q 959 2388 959 1747 
Q 959 1106 1268 751 
Q 1578 397 2138 397 
Q 2388 397 2633 464 
Q 2878 531 3122 666 
L 3122 134 
Q 2881 22 2623 -34 
Q 2366 -91 2075 -91 
Q 1284 -91 818 406 
Q 353 903 353 1747 
Q 353 2603 823 3093 
Q 1294 3584 2113 3584 
Q 2378 3584 2631 3529 
Q 2884 3475 3122 3366 
z
" transform="scale(0.015625)"/>
      <path id="DejaVuSans-4c" d="M 628 4666 
L 1259 4666 
L 1259 531 
L 3531 531 
L 3531 0 
L 628 0 
L 628 4666 
z
" transform="scale(0.015625)"/>
      <path id="DejaVuSans-6f" d="M 1959 3097 
Q 1497 3097 1228 2736 
Q 959 2375 959 1747 
Q 959 1119 1226 758 
Q 1494 397 1959 397 
Q 2419 397 2687 759 
Q 2956 1122 2956 1747 
Q 2956 2369 2687 2733 
Q 2419 3097 1959 3097 
z
M 1959 3584 
Q 2709 3584 3137 3096 
Q 3566 2609 3566 1747 
Q 3566 888 3137 398 
Q 2709 -91 1959 -91 
Q 1206 -91 779 398 
Q 353 888 353 1747 
Q 353 2609 779 3096 
Q 1206 3584 1959 3584 
z
" transform="scale(0.015625)"/>
      <path id="DejaVuSans-6e" d="M 3513 2113 
L 3513 0 
L 2938 0 
L 2938 2094 
Q 2938 2591 2744 2837 
Q 2550 3084 2163 3084 
Q 1697 3084 1428 2787 
Q 1159 2491 1159 1978 
L 1159 0 
L 581 0 
L 581 3500 
L 1159 3500 
L 1159 2956 
Q 1366 3272 1645 3428 
Q 1925 3584 2291 3584 
Q 2894 3584 3203 3211 
Q 3513 2838 3513 2113 
z
" transform="scale(0.015625)"/>
      <path id="DejaVuSans-61" d="M 2194 1759 
Q 1497 1759 1228 1600 
Q 959 1441 959 1056 
Q 959 750 1161 570 
Q 1363 391 1709 391 
Q 2188 391 2477 730 
Q 2766 1069 2766 1631 
L 2766 1759 
L 2194 1759 
z
M 3341 1997 
L 3341 0 
L 2766 0 
L 2766 531 
Q 2569 213 2275 61 
Q 1981 -91 1556 -91 
Q 1019 -91 701 211 
Q 384 513 384 1019 
Q 384 1609 779 1909 
Q 1175 2209 1959 2209 
L 2766 2209 
L 2766 2266 
Q 2766 2663 2505 2880 
Q 2244 3097 1772 3097 
Q 1472 3097 1187 3025 
Q 903 2953 641 2809 
L 641 3341 
Q 956 3463 1253 3523 
Q 1550 3584 1831 3584 
Q 2591 3584 2966 3190 
Q 3341 2797 3341 1997 
z
" transform="scale(0.015625)"/>
     </defs>
     <use xlink:href="#DejaVuSans-41"/>
     <use xlink:href="#DejaVuSans-73" transform="translate(68.408203 0)"/>
     <use xlink:href="#DejaVuSans-79" transform="translate(120.507812 0)"/>
     <use xlink:href="#DejaVuSans-6d" transform="translate(179.6875 0)"/>
     <use xlink:href="#DejaVuSans-6d" transform="translate(277.099609 0)"/>
     <use xlink:href="#DejaVuSans-65" transform="translate(374.511719 0)"/>
     <use xlink:href="#DejaVuSans-74" transform="translate(436.035156 0)"/>
     <use xlink:href="#DejaVuSans-72" transform="translate(475.244141 0)"/>
     <use xlink:href="#DejaVuSans-69" transform="translate(516.357422 0)"/>
     <use xlink:href="#DejaVuSans-63" transform="translate(544.140625 0)"/>
     <use xlink:href="#DejaVuSans-20" transform="translate(599.121094 0)"/>
     <use xlink:href="#DejaVuSans-4c" transform="translate(630.908203 0)"/>
     <use xlink:href="#DejaVuSans-6f" transform="translate(684.871094 0)"/>
     <use xlink:href="#DejaVuSans-72" transform="translate(746.052734 0)"/>
     <use xlink:href="#DejaVuSans-65" transform="translate(784.916016 0)"/>
     <use xlink:href="#DejaVuSans-6e" transform="translate(846.439453 0)"/>
     <use xlink:href="#DejaVuSans-74" transform="translate(909.818359 0)"/>
     <use xlink:href="#DejaVuSans-7a" transform="translate(949.027344 0)"/>
     <use xlink:href="#DejaVuSans-69" transform="translate(1001.517578 0)"/>
     <use xlink:href="#DejaVuSans-61" transform="translate(1029.300781 0)"/>
     <use xlink:href="#DejaVuSans-6e" transform="translate(1090.580078 0)"/>
    </g>
    <!-- $H_0$=254.7554 T, R²=-2.906 -->
    <g transform="translate(165.456 61.56) scale(0.161 -0.161)">
     <defs>
      <path id="DejaVuSans-Oblique-48" d="M 1081 4666 
L 1716 4666 
L 1344 2753 
L 3634 2753 
L 4006 4666 
L 4641 4666 
L 3731 0 
L 3097 0 
L 3531 2222 
L 1241 2222 
L 806 0 
L 172 0 
L 1081 4666 
z
" transform="scale(0.015625)"/>
      <path id="DejaVuSans-2e" d="M 684 794 
L 1344 794 
L 1344 0 
L 684 0 
L 684 794 
z
" transform="scale(0.015625)"/>
      <path id="DejaVuSans-37" d="M 525 4666 
L 3525 4666 
L 3525 4397 
L 1831 0 
L 1172 0 
L 2766 4134 
L 525 4134 
L 525 4666 
z
" transform="scale(0.015625)"/>
      <path id="DejaVuSans-52" d="M 2841 2188 
Q 3044 2119 3236 1894 
Q 3428 1669 3622 1275 
L 4263 0 
L 3584 0 
L 2988 1197 
Q 2756 1666 2539 1819 
Q 2322 1972 1947 1972 
L 1259 1972 
L 1259 0 
L 628 0 
L 628 4666 
L 2053 4666 
Q 2853 4666 3247 4331 
Q 3641 3997 3641 3322 
Q 3641 2881 3436 2590 
Q 3231 2300 2841 2188 
z
M 1259 4147 
L 1259 2491 
L 2053 2491 
Q 2509 2491 2742 2702 
Q 2975 2913 2975 3322 
Q 2975 3731 2742 3939 
Q 2509 4147 2053 4147 
L 1259 4147 
z
" transform="scale(0.015625)"/>
      <path id="DejaVuSans-b2" d="M 838 2444 
L 2163 2444 
L 2163 2088 
L 294 2088 
L 294 2431 
Q 400 2528 597 2703 
Q 1672 3656 1672 3950 
Q 1672 4156 1509 4282 
Q 1347 4409 1081 4409 
Q 919 4409 728 4354 
Q 538 4300 313 4191 
L 313 4575 
Q 553 4663 761 4706 
Q 969 4750 1147 4750 
Q 1600 4750 1872 4544 
Q 2144 4338 2144 4000 
Q 2144 3566 1109 2678 
Q 934 2528 838 2444 
z
" transform="scale(0.015625)"/>
      <path id="DejaVuSans-2d" d="M 313 2009 
L 1997 2009 
L 1997 1497 
L 313 1497 
L 313 2009 
z
" transform="scale(0.015625)"/>
      <path id="DejaVuSans-39" d="M 703 97 
L 703 672 
Q 941 559 1184 500 
Q 1428 441 1663 441 
Q 2288 441 2617 861 
Q 2947 1281 2994 2138 
Q 2813 1869 2534 1725 
Q 2256 1581 1919 1581 
Q 1219 1581 811 2004 
Q 403 2428 403 3163 
Q 403 3881 828 4315 
Q 1253 4750 1959 4750 
Q 2769 4750 3195 4129 
Q 3622 3509 3622 2328 
Q 3622 1225 3098 567 
Q 2575 -91 1691 -91 
Q 1453 -91 1209 -44 
Q 966 3 703 97 
z
M 1959 2075 
Q 2384 2075 2632 2365 
Q 2881 2656 2881 3163 
Q 2881 3666 2632 3958 
Q 2384 4250 1959 4250 
Q 1534 4250 1286 3958 
Q 1038 3666 1038 3163 
Q 1038 2656 1286 2365 
Q 1534 2075 1959 2075 
z
" transform="scale(0.015625)"/>
     </defs>
     <use xlink:href="#DejaVuSans-Oblique-48" transform="translate(0 0.78125)"/>
     <use xlink:href="#DejaVuSans-30" transform="translate(75.195312 -15.625) scale(0.7)"/>
     <use xlink:href="#DejaVuSans-3d" transform="translate(122.46582 0.78125)"/>
     <use xlink:href="#DejaVuSans-32" transform="translate(206.254883 0.78125)"/>
     <use xlink:href="#DejaVuSans-35" transform="translate(269.87793 0.78125)"/>
     <use xlink:href="#DejaVuSans-34" transform="translate(333.500977 0.78125)"/>
     <use xlink:href="#DejaVuSans-2e" transform="translate(397.124023 0.78125)"/>
     <use xlink:href="#DejaVuSans-37" transform="translate(421.161133 0.78125)"/>
     <use xlink:href="#DejaVuSans-35" transform="translate(484.78418 0.78125)"/>
     <use xlink:href="#DejaVuSans-35" transform="translate(548.407227 0.78125)"/>
     <use xlink:href="#DejaVuSans-34" transform="translate(612.030273 0.78125)"/>
     <use xlink:href="#DejaVuSans-20" transform="translate(675.65332 0.78125)"/>
     <use xlink:href="#DejaVuSans-54" transform="translate(707.44043 0.78125)"/>
     <use xlink:href="#DejaVuSans-2c" transform="translate(768.524414 0.78125)"/>
     <use xlink:href="#DejaVuSans-20" transform="translate(800.311523 0.78125)"/>
     <use xlink:href="#DejaVuSans-52" transform="translate(832.098633 0.78125)"/>
     <use xlink:href="#DejaVuSans-b2" transform="translate(901.581055 0.78125)"/>
     <use xlink:href="#DejaVuSans-3d" transform="translate(941.668945 0.78125)"/>
     <use xlink:href="#DejaVuSans-2d" transform="translate(1025.458008 0.78125)"/>
     <use xlink:href="#DejaVuSans-32" transform="translate(1061.541992 0.78125)"/>
     <use xlink:href="#DejaVuSans-2e" transform="translate(1125.165039 0.78125)"/>
     <use xlink:href="#DejaVuSans-39" transform="translate(1156.952148 0.78125)"/>
     <use xlink:href="#DejaVuSans-30" transform="translate(1220.575195 0.78125)"/>
     <use xlink:href="#DejaVuSans-36" transform="translate(1284.198242 0.78125)"/>
    </g>
   </g>
   <g id="legend_1">
    <g id="patch_7">
     <path d="M 68.504 139.367437 
L 260.244219 139.367437 
Q 263.004219 139.367437 263.004219 136.607438 
L 263.004219 77.22 
Q 263.004219 74.46 260.244219 74.46 
L 68.504 74.46 
Q 65.744 74.46 65.744 77.22 
L 65.744 136.607438 
Q 65.744 139.367437 68.504 139.367437 
z
" style="fill: #ffffff; opacity: 0.8; stroke: #cccccc; stroke-linejoin: miter"/>
    </g>
    <g id="line2d_14">
     <path d="M 71.264 85.635844 
L 85.064 85.635844 
L 98.864 85.635844 
" style="fill: none; stroke: #cc7000; stroke-opacity: 0.7; stroke-width: 1.4; stroke-linecap: square"/>
    </g>
    <g id="text_14">
     <!-- Raw data (curve) -->
     <g transform="translate(109.904 90.465844) scale(0.138 -0.138)">
      <defs>
       <path id="DejaVuSans-77" d="M 269 3500 
L 844 3500 
L 1563 769 
L 2278 3500 
L 2956 3500 
L 3675 769 
L 4391 3500 
L 4966 3500 
L 4050 0 
L 3372 0 
L 2619 2869 
L 1863 0 
L 1184 0 
L 269 3500 
z
" transform="scale(0.015625)"/>
       <path id="DejaVuSans-75" d="M 544 1381 
L 544 3500 
L 1119 3500 
L 1119 1403 
Q 1119 906 1312 657 
Q 1506 409 1894 409 
Q 2359 409 2629 706 
Q 2900 1003 2900 1516 
L 2900 3500 
L 3475 3500 
L 3475 0 
L 2900 0 
L 2900 538 
Q 2691 219 2414 64 
Q 2138 -91 1772 -91 
Q 1169 -91 856 284 
Q 544 659 544 1381 
z
M 1991 3584 
L 1991 3584 
z
" transform="scale(0.015625)"/>
       <path id="DejaVuSans-76" d="M 191 3500 
L 800 3500 
L 1894 563 
L 2988 3500 
L 3597 3500 
L 2284 0 
L 1503 0 
L 191 3500 
z
" transform="scale(0.015625)"/>
      </defs>
      <use xlink:href="#DejaVuSans-52"/>
      <use xlink:href="#DejaVuSans-61" transform="translate(67.232422 0)"/>
      <use xlink:href="#DejaVuSans-77" transform="translate(128.511719 0)"/>
      <use xlink:href="#DejaVuSans-20" transform="translate(210.298828 0)"/>
      <use xlink:href="#DejaVuSans-64" transform="translate(242.085938 0)"/>
      <use xlink:href="#DejaVuSans-61" transform="translate(305.5625 0)"/>
      <use xlink:href="#DejaVuSans-74" transform="translate(366.841797 0)"/>
      <use xlink:href="#DejaVuSans-61" transform="translate(406.050781 0)"/>
      <use xlink:href="#DejaVuSans-20" transform="translate(467.330078 0)"/>
      <use xlink:href="#DejaVuSans-28" transform="translate(499.117188 0)"/>
      <use xlink:href="#DejaVuSans-63" transform="translate(538.130859 0)"/>
      <use xlink:href="#DejaVuSans-75" transform="translate(593.111328 0)"/>
      <use xlink:href="#DejaVuSans-72" transform="translate(656.490234 0)"/>
      <use xlink:href="#DejaVuSans-76" transform="translate(697.603516 0)"/>
      <use xlink:href="#DejaVuSans-65" transform="translate(756.783203 0)"/>
      <use xlink:href="#DejaVuSans-29" transform="translate(818.306641 0)"/>
     </g>
    </g>
    <g id="line2d_15">
     <path d="M 71.264 105.891656 
L 85.064 105.891656 
L 98.864 105.891656 
" style="fill: none; stroke: #2980b9; stroke-width: 2; stroke-linecap: square"/>
    </g>
    <g id="text_15">
     <!-- Aggregated (median) -->
     <g transform="translate(109.904 110.721656) scale(0.138 -0.138)">
      <defs>
       <path id="DejaVuSans-67" d="M 2906 1791 
Q 2906 2416 2648 2759 
Q 2391 3103 1925 3103 
Q 1463 3103 1205 2759 
Q 947 2416 947 1791 
Q 947 1169 1205 825 
Q 1463 481 1925 481 
Q 2391 481 2648 825 
Q 2906 1169 2906 1791 
z
M 3481 434 
Q 3481 -459 3084 -895 
Q 2688 -1331 1869 -1331 
Q 1566 -1331 1297 -1286 
Q 1028 -1241 775 -1147 
L 775 -588 
Q 1028 -725 1275 -790 
Q 1522 -856 1778 -856 
Q 2344 -856 2625 -561 
Q 2906 -266 2906 331 
L 2906 616 
Q 2728 306 2450 153 
Q 2172 0 1784 0 
Q 1141 0 747 490 
Q 353 981 353 1791 
Q 353 2603 747 3093 
Q 1141 3584 1784 3584 
Q 2172 3584 2450 3431 
Q 2728 3278 2906 2969 
L 2906 3500 
L 3481 3500 
L 3481 434 
z
" transform="scale(0.015625)"/>
      </defs>
      <use xlink:href="#DejaVuSans-41"/>
      <use xlink:href="#DejaVuSans-67" transform="translate(68.408203 0)"/>
      <use xlink:href="#DejaVuSans-67" transform="translate(131.884766 0)"/>
      <use xlink:href="#DejaVuSans-72" transform="translate(195.361328 0)"/>
      <use xlink:href="#DejaVuSans-65" transform="translate(234.224609 0)"/>
      <use xlink:href="#DejaVuSans-67" transform="translate(295.748047 0)"/>
      <use xlink:href="#DejaVuSans-61" transform="translate(359.224609 0)"/>
      <use xlink:href="#DejaVuSans-74" transform="translate(420.503906 0)"/>
      <use xlink:href="#DejaVuSans-65" transform="translate(459.712891 0)"/>
      <use xlink:href="#DejaVuSans-64" transform="translate(521.236328 0)"/>
      <use xlink:href="#DejaVuSans-20" transform="translate(584.712891 0)"/>
      <use xlink:href="#DejaVuSans-28" transform="translate(616.5 0)"/>
      <use xlink:href="#DejaVuSans-6d" transform="translate(655.513672 0)"/>
      <use xlink:href="#DejaVuSans-65" transform="translate(752.925781 0)"/>
      <use xlink:href="#DejaVuSans-64" transform="translate(814.449219 0)"/>
      <use xlink:href="#DejaVuSans-69" transform="translate(877.925781 0)"/>
      <use xlink:href="#DejaVuSans-61" transform="translate(905.708984 0)"/>
      <use xlink:href="#DejaVuSans-6e" transform="translate(966.988281 0)"/>
      <use xlink:href="#DejaVuSans-29" transform="translate(1030.367188 0)"/>
     </g>
    </g>
    <g id="line2d_16">
     <path d="M 71.264 126.147469 
L 85.064 126.147469 
L 98.864 126.147469 
" style="fill: none; stroke: #ffa500; stroke-width: 2.5; stroke-linecap: square"/>
    </g>
    <g id="text_16">
     <!-- Fit -->
     <g transform="translate(109.904 130.977469) scale(0.138 -0.138)">
      <defs>
       <path id="DejaVuSans-46" d="M 628 4666 
L 3309 4666 
L 3309 4134 
L 1259 4134 
L 1259 2759 
L 3109 2759 
L 3109 2228 
L 1259 2228 
L 1259 0 
L 628 0 
L 628 4666 
z
" transform="scale(0.015625)"/>
      </defs>
      <use xlink:href="#DejaVuSans-46"/>
      <use xlink:href="#DejaVuSans-69" transform="translate(50.269531 0)"/>
      <use xlink:href="#DejaVuSans-74" transform="translate(78.052734 0)"/>
     </g>
    </g>
   </g>
  </g>
 </g>
 <defs>
  <clipPath id="p2cb03e76db">
   <rect x="58.844" y="67.56" width="430.252" height="167.176"/>
  </clipPath>
 </defs>
</svg>
