<?xml version="1.0" encoding="utf-8" standalone="no"?>
<!DOCTYPE svg PUBLIC "-//W3C//DTD SVG 1.1//EN"
  "http://www.w3.org/Graphics/SVG/1.1/DTD/svg11.dtd">
<svg xmlns:xlink="http://www.w3.org/1999/xlink" width="504pt" height="288pt" viewBox="0 0 504 288" xmlns="http://www.w3.org/2000/svg" version="1.1">
 <metadata>
  <rdf:RDF xmlns:dc="http://purl.org/dc/elements/1.1/" xmlns:cc="http://creativecommons.org/ns#" xmlns:rdf="http://www.w3.org/1999/02/22-rdf-syntax-ns#">
   <cc:Work>
    <dc:type rdf:resource="http://purl.org/dc/dcmitype/StillImage"/>
    <dc:date>2025-10-06T17:42:49.179843</dc:date>
    <dc:format>image/svg+xml</dc:format>
    <dc:creator>
     <cc:Agent>
      <dc:title>Matplotlib v3.10.6, https://matplotlib.org/</dc:title>
     </cc:Agent>
    </dc:creator>
   </cc:Work>
  </rdf:RDF>
 </metadata>
 <defs>
  <style type="text/css">*{stroke-linejoin: round; stroke-linecap: butt}</style>
 </defs>
 <g id="figure_1">
  <g id="patch_1">
   <path d="M 0 288 
L 504 288 
L 504 0 
L 0 0 
z
" style="fill: #ffffff"/>
  </g>
  <g id="axes_1">
   <g id="patch_2">
    <path d="M 58.844 234.736 
L 489.096 234.736 
L 489.096 67.56 
L 58.844 67.56 
z
" style="fill: #ffffff"/>
   </g>
   <g id="matplotlib.axis_1">
    <g id="xtick_1">
     <g id="line2d_1">
      <defs>
       <path id="mfe7d4bff9a" d="M 0 0 
L 0 3.5 
" style="stroke: #000000; stroke-width: 0.8"/>
      </defs>
      <g>
       <use xlink:href="#mfe7d4bff9a" x="82.579621" y="234.736" style="stroke: #000000; stroke-width: 0.8"/>
      </g>
     </g>
     <g id="text_1">
      <!-- 310 -->
      <g transform="translate(70.506777 251.348023) scale(0.1265 -0.1265)">
       <defs>
        <path id="DejaVuSans-33" d="M 2597 2516 
Q 3050 2419 3304 2112 
Q 3559 1806 3559 1356 
Q 3559 666 3084 287 
Q 2609 -91 1734 -91 
Q 1441 -91 1130 -33 
Q 819 25 488 141 
L 488 750 
Q 750 597 1062 519 
Q 1375 441 1716 441 
Q 2309 441 2620 675 
Q 2931 909 2931 1356 
Q 2931 1769 2642 2001 
Q 2353 2234 1838 2234 
L 1294 2234 
L 1294 2753 
L 1863 2753 
Q 2328 2753 2575 2939 
Q 2822 3125 2822 3475 
Q 2822 3834 2567 4026 
Q 2313 4219 1838 4219 
Q 1578 4219 1281 4162 
Q 984 4106 628 3988 
L 628 4550 
Q 988 4650 1302 4700 
Q 1616 4750 1894 4750 
Q 2613 4750 3031 4423 
Q 3450 4097 3450 3541 
Q 3450 3153 3228 2886 
Q 3006 2619 2597 2516 
z
" transform="scale(0.015625)"/>
        <path id="DejaVuSans-31" d="M 794 531 
L 1825 531 
L 1825 4091 
L 703 3866 
L 703 4441 
L 1819 4666 
L 2450 4666 
L 2450 531 
L 3481 531 
L 3481 0 
L 794 0 
L 794 531 
z
" transform="scale(0.015625)"/>
        <path id="DejaVuSans-30" d="M 2034 4250 
Q 1547 4250 1301 3770 
Q 1056 3291 1056 2328 
Q 1056 1369 1301 889 
Q 1547 409 2034 409 
Q 2525 409 2770 889 
Q 3016 1369 3016 2328 
Q 3016 3291 2770 3770 
Q 2525 4250 2034 4250 
z
M 2034 4750 
Q 2819 4750 3233 4129 
Q 3647 3509 3647 2328 
Q 3647 1150 3233 529 
Q 2819 -91 2034 -91 
Q 1250 -91 836 529 
Q 422 1150 422 2328 
Q 422 3509 836 4129 
Q 1250 4750 2034 4750 
z
" transform="scale(0.015625)"/>
       </defs>
       <use xlink:href="#DejaVuSans-33"/>
       <use xlink:href="#DejaVuSans-31" transform="translate(63.623047 0)"/>
       <use xlink:href="#DejaVuSans-30" transform="translate(127.246094 0)"/>
      </g>
     </g>
    </g>
    <g id="xtick_2">
     <g id="line2d_2">
      <g>
       <use xlink:href="#mfe7d4bff9a" x="155.927411" y="234.736" style="stroke: #000000; stroke-width: 0.8"/>
      </g>
     </g>
     <g id="text_2">
      <!-- 315 -->
      <g transform="translate(143.854567 251.348023) scale(0.1265 -0.1265)">
       <defs>
        <path id="DejaVuSans-35" d="M 691 4666 
L 3169 4666 
L 3169 4134 
L 1269 4134 
L 1269 2991 
Q 1406 3038 1543 3061 
Q 1681 3084 1819 3084 
Q 2600 3084 3056 2656 
Q 3513 2228 3513 1497 
Q 3513 744 3044 326 
Q 2575 -91 1722 -91 
Q 1428 -91 1123 -41 
Q 819 9 494 109 
L 494 744 
Q 775 591 1075 516 
Q 1375 441 1709 441 
Q 2250 441 2565 725 
Q 2881 1009 2881 1497 
Q 2881 1984 2565 2268 
Q 2250 2553 1709 2553 
Q 1456 2553 1204 2497 
Q 953 2441 691 2322 
L 691 4666 
z
" transform="scale(0.015625)"/>
       </defs>
       <use xlink:href="#DejaVuSans-33"/>
       <use xlink:href="#DejaVuSans-31" transform="translate(63.623047 0)"/>
       <use xlink:href="#DejaVuSans-35" transform="translate(127.246094 0)"/>
      </g>
     </g>
    </g>
    <g id="xtick_3">
     <g id="line2d_3">
      <g>
       <use xlink:href="#mfe7d4bff9a" x="229.275201" y="234.736" style="stroke: #000000; stroke-width: 0.8"/>
      </g>
     </g>
     <g id="text_3">
      <!-- 320 -->
      <g transform="translate(217.202358 251.348023) scale(0.1265 -0.1265)">
       <defs>
        <path id="DejaVuSans-32" d="M 1228 531 
L 3431 531 
L 3431 0 
L 469 0 
L 469 531 
Q 828 903 1448 1529 
Q 2069 2156 2228 2338 
Q 2531 2678 2651 2914 
Q 2772 3150 2772 3378 
Q 2772 3750 2511 3984 
Q 2250 4219 1831 4219 
Q 1534 4219 1204 4116 
Q 875 4013 500 3803 
L 500 4441 
Q 881 4594 1212 4672 
Q 1544 4750 1819 4750 
Q 2544 4750 2975 4387 
Q 3406 4025 3406 3419 
Q 3406 3131 3298 2873 
Q 3191 2616 2906 2266 
Q 2828 2175 2409 1742 
Q 1991 1309 1228 531 
z
" transform="scale(0.015625)"/>
       </defs>
       <use xlink:href="#DejaVuSans-33"/>
       <use xlink:href="#DejaVuSans-32" transform="translate(63.623047 0)"/>
       <use xlink:href="#DejaVuSans-30" transform="translate(127.246094 0)"/>
      </g>
     </g>
    </g>
    <g id="xtick_4">
     <g id="line2d_4">
      <g>
       <use xlink:href="#mfe7d4bff9a" x="302.622992" y="234.736" style="stroke: #000000; stroke-width: 0.8"/>
      </g>
     </g>
     <g id="text_4">
      <!-- 325 -->
      <g transform="translate(290.550148 251.348023) scale(0.1265 -0.1265)">
       <use xlink:href="#DejaVuSans-33"/>
       <use xlink:href="#DejaVuSans-32" transform="translate(63.623047 0)"/>
       <use xlink:href="#DejaVuSans-35" transform="translate(127.246094 0)"/>
      </g>
     </g>
    </g>
    <g id="xtick_5">
     <g id="line2d_5">
      <g>
       <use xlink:href="#mfe7d4bff9a" x="375.970782" y="234.736" style="stroke: #000000; stroke-width: 0.8"/>
      </g>
     </g>
     <g id="text_5">
      <!-- 330 -->
      <g transform="translate(363.897938 251.348023) scale(0.1265 -0.1265)">
       <use xlink:href="#DejaVuSans-33"/>
       <use xlink:href="#DejaVuSans-33" transform="translate(63.623047 0)"/>
       <use xlink:href="#DejaVuSans-30" transform="translate(127.246094 0)"/>
      </g>
     </g>
    </g>
    <g id="xtick_6">
     <g id="line2d_6">
      <g>
       <use xlink:href="#mfe7d4bff9a" x="449.318572" y="234.736" style="stroke: #000000; stroke-width: 0.8"/>
      </g>
     </g>
     <g id="text_6">
      <!-- 335 -->
      <g transform="translate(437.245728 251.348023) scale(0.1265 -0.1265)">
       <use xlink:href="#DejaVuSans-33"/>
       <use xlink:href="#DejaVuSans-33" transform="translate(63.623047 0)"/>
       <use xlink:href="#DejaVuSans-35" transform="translate(127.246094 0)"/>
      </g>
     </g>
    </g>
    <g id="text_7">
     <!-- H (T) -->
     <g transform="translate(255.574492 269.338492) scale(0.1495 -0.1495)">
      <defs>
       <path id="DejaVuSans-48" d="M 628 4666 
L 1259 4666 
L 1259 2753 
L 3553 2753 
L 3553 4666 
L 4184 4666 
L 4184 0 
L 3553 0 
L 3553 2222 
L 1259 2222 
L 1259 0 
L 628 0 
L 628 4666 
z
" transform="scale(0.015625)"/>
       <path id="DejaVuSans-20" transform="scale(0.015625)"/>
       <path id="DejaVuSans-28" d="M 1984 4856 
Q 1566 4138 1362 3434 
Q 1159 2731 1159 2009 
Q 1159 1288 1364 580 
Q 1569 -128 1984 -844 
L 1484 -844 
Q 1016 -109 783 600 
Q 550 1309 550 2009 
Q 550 2706 781 3412 
Q 1013 4119 1484 4856 
L 1984 4856 
z
" transform="scale(0.015625)"/>
       <path id="DejaVuSans-54" d="M -19 4666 
L 3928 4666 
L 3928 4134 
L 2272 4134 
L 2272 0 
L 1638 0 
L 1638 4134 
L -19 4134 
L -19 4666 
z
" transform="scale(0.015625)"/>
       <path id="DejaVuSans-29" d="M 513 4856 
L 1013 4856 
Q 1481 4119 1714 3412 
Q 1947 2706 1947 2009 
Q 1947 1309 1714 600 
Q 1481 -109 1013 -844 
L 513 -844 
Q 928 -128 1133 580 
Q 1338 1288 1338 2009 
Q 1338 2731 1133 3434 
Q 928 4138 513 4856 
z
" transform="scale(0.015625)"/>
      </defs>
      <use xlink:href="#DejaVuSans-48"/>
      <use xlink:href="#DejaVuSans-20" transform="translate(75.195312 0)"/>
      <use xlink:href="#DejaVuSans-28" transform="translate(106.982422 0)"/>
      <use xlink:href="#DejaVuSans-54" transform="translate(145.996094 0)"/>
      <use xlink:href="#DejaVuSans-29" transform="translate(207.080078 0)"/>
     </g>
    </g>
   </g>
   <g id="matplotlib.axis_2">
    <g id="ytick_1">
     <g id="line2d_7">
      <defs>
       <path id="mb02ebfa9dc" d="M 0 0 
L -3.5 0 
" style="stroke: #000000; stroke-width: 0.8"/>
      </defs>
      <g>
       <use xlink:href="#mb02ebfa9dc" x="58.844" y="215.760685" style="stroke: #000000; stroke-width: 0.8"/>
      </g>
     </g>
     <g id="text_8">
      <!-- −1 -->
      <g transform="translate(33.195133 220.566697) scale(0.1265 -0.1265)">
       <defs>
        <path id="DejaVuSans-2212" d="M 678 2272 
L 4684 2272 
L 4684 1741 
L 678 1741 
L 678 2272 
z
" transform="scale(0.015625)"/>
       </defs>
       <use xlink:href="#DejaVuSans-2212"/>
       <use xlink:href="#DejaVuSans-31" transform="translate(83.789062 0)"/>
      </g>
     </g>
    </g>
    <g id="ytick_2">
     <g id="line2d_8">
      <g>
       <use xlink:href="#mb02ebfa9dc" x="58.844" y="186.982171" style="stroke: #000000; stroke-width: 0.8"/>
      </g>
     </g>
     <g id="text_9">
      <!-- 0 -->
      <g transform="translate(43.795438 191.788183) scale(0.1265 -0.1265)">
       <use xlink:href="#DejaVuSans-30"/>
      </g>
     </g>
    </g>
    <g id="ytick_3">
     <g id="line2d_9">
      <g>
       <use xlink:href="#mb02ebfa9dc" x="58.844" y="158.203657" style="stroke: #000000; stroke-width: 0.8"/>
      </g>
     </g>
     <g id="text_10">
      <!-- 1 -->
      <g transform="translate(43.795438 163.009669) scale(0.1265 -0.1265)">
       <use xlink:href="#DejaVuSans-31"/>
      </g>
     </g>
    </g>
    <g id="ytick_4">
     <g id="line2d_10">
      <g>
       <use xlink:href="#mb02ebfa9dc" x="58.844" y="129.425143" style="stroke: #000000; stroke-width: 0.8"/>
      </g>
     </g>
     <g id="text_11">
      <!-- 2 -->
      <g transform="translate(43.795438 134.231155) scale(0.1265 -0.1265)">
       <use xlink:href="#DejaVuSans-32"/>
      </g>
     </g>
    </g>
    <g id="ytick_5">
     <g id="line2d_11">
      <g>
       <use xlink:href="#mb02ebfa9dc" x="58.844" y="100.646629" style="stroke: #000000; stroke-width: 0.8"/>
      </g>
     </g>
     <g id="text_12">
      <!-- 3 -->
      <g transform="translate(43.795438 105.452641) scale(0.1265 -0.1265)">
       <use xlink:href="#DejaVuSans-33"/>
      </g>
     </g>
    </g>
    <g id="ytick_6">
     <g id="line2d_12">
      <g>
       <use xlink:href="#mb02ebfa9dc" x="58.844" y="71.868115" style="stroke: #000000; stroke-width: 0.8"/>
      </g>
     </g>
     <g id="text_13">
      <!-- 4 -->
      <g transform="translate(43.795438 76.674127) scale(0.1265 -0.1265)">
       <defs>
        <path id="DejaVuSans-34" d="M 2419 4116 
L 825 1625 
L 2419 1625 
L 2419 4116 
z
M 2253 4666 
L 3047 4666 
L 3047 1625 
L 3713 1625 
L 3713 1100 
L 3047 1100 
L 3047 0 
L 2419 0 
L 2419 1100 
L 313 1100 
L 313 1709 
L 2253 4666 
z
" transform="scale(0.015625)"/>
       </defs>
       <use xlink:href="#DejaVuSans-34"/>
      </g>
     </g>
    </g>
    <g id="text_14">
     <!-- dP/dH -->
     <g transform="translate(26.086 173.28568) rotate(-90) scale(0.1495 -0.1495)">
      <defs>
       <path id="DejaVuSans-64" d="M 2906 2969 
L 2906 4863 
L 3481 4863 
L 3481 0 
L 2906 0 
L 2906 525 
Q 2725 213 2448 61 
Q 2172 -91 1784 -91 
Q 1150 -91 751 415 
Q 353 922 353 1747 
Q 353 2572 751 3078 
Q 1150 3584 1784 3584 
Q 2172 3584 2448 3432 
Q 2725 3281 2906 2969 
z
M 947 1747 
Q 947 1113 1208 752 
Q 1469 391 1925 391 
Q 2381 391 2643 752 
Q 2906 1113 2906 1747 
Q 2906 2381 2643 2742 
Q 2381 3103 1925 3103 
Q 1469 3103 1208 2742 
Q 947 2381 947 1747 
z
" transform="scale(0.015625)"/>
       <path id="DejaVuSans-50" d="M 1259 4147 
L 1259 2394 
L 2053 2394 
Q 2494 2394 2734 2622 
Q 2975 2850 2975 3272 
Q 2975 3691 2734 3919 
Q 2494 4147 2053 4147 
L 1259 4147 
z
M 628 4666 
L 2053 4666 
Q 2838 4666 3239 4311 
Q 3641 3956 3641 3272 
Q 3641 2581 3239 2228 
Q 2838 1875 2053 1875 
L 1259 1875 
L 1259 0 
L 628 0 
L 628 4666 
z
" transform="scale(0.015625)"/>
       <path id="DejaVuSans-2f" d="M 1625 4666 
L 2156 4666 
L 531 -594 
L 0 -594 
L 1625 4666 
z
" transform="scale(0.015625)"/>
      </defs>
      <use xlink:href="#DejaVuSans-64"/>
      <use xlink:href="#DejaVuSans-50" transform="translate(63.476562 0)"/>
      <use xlink:href="#DejaVuSans-2f" transform="translate(123.779297 0)"/>
      <use xlink:href="#DejaVuSans-64" transform="translate(157.470703 0)"/>
      <use xlink:href="#DejaVuSans-48" transform="translate(220.947266 0)"/>
     </g>
    </g>
   </g>
   <g id="line2d_13">
    <path d="M 78.400909 192.813331 
L 80.290466 196.476635 
L 80.290466 190.42057 
L 82.180022 193.100829 
L 82.180022 193.647995 
L 82.180022 191.552027 
L 84.069578 192.05283 
L 84.069578 195.734696 
L 85.959135 193.230677 
L 85.959135 195.475027 
L 87.848691 194.70526 
L 87.848691 194.900033 
L 87.848691 193.944787 
L 87.848691 194.853642 
L 89.738248 194.88147 
L 89.738248 196.504463 
L 89.738248 193.861301 
L 91.627804 193.638728 
L 91.627804 195.159701 
L 91.627804 191.92301 
L 93.517361 192.590758 
L 93.517361 191.941544 
L 93.517361 195.354445 
L 95.406917 190.095978 
L 95.406917 188.639929 
L 95.406917 191.292358 
L 97.296473 186.970573 
L 97.296473 189.929033 
L 97.296473 187.295166 
L 99.18603 187.109689 
L 99.18603 184.846777 
L 99.18603 186.432674 
L 101.075586 185.65364 
L 101.075586 185.727831 
L 101.075586 183.010477 
L 101.075586 187.100422 
L 102.965143 189.418963 
L 102.965143 184.754024 
L 104.854699 186.108081 
L 104.854699 188.871797 
L 106.744256 185.848384 
L 106.744256 184.123371 
L 106.744256 189.038713 
L 106.744256 186.914916 
L 108.633812 187.601226 
L 108.633812 186.228635 
L 108.633812 186.748 
L 110.523368 187.907257 
L 110.523368 189.214923 
L 110.523368 185.75566 
L 112.412925 185.032254 
L 112.412925 185.514525 
L 112.412925 184.744757 
L 114.302481 186.645981 
L 114.302481 185.533058 
L 114.302481 185.625811 
L 116.192038 184.63347 
L 116.192038 186.432674 
L 116.192038 186.108081 
L 118.081594 187.267337 
L 118.081594 185.004425 
L 118.081594 187.805237 
L 118.081594 187.313728 
L 119.971151 187.211709 
L 119.971151 186.423379 
L 119.971151 188.370965 
L 121.860707 185.857651 
L 121.860707 188.157658 
L 121.860707 187.350824 
L 123.750264 186.989107 
L 123.750264 185.004425 
L 123.750264 189.020179 
L 125.63982 186.655247 
L 125.63982 185.329047 
L 125.63982 186.757267 
L 127.529376 186.896382 
L 127.529376 185.106445 
L 129.418933 185.978233 
L 129.418933 188.333869 
L 131.308489 188.445185 
L 131.308489 185.848384 
L 131.308489 188.695586 
L 131.308489 186.905649 
L 133.198046 189.632269 
L 133.198046 188.111296 
L 133.198046 189.669365 
L 135.087602 187.08186 
L 135.087602 186.145177 
L 135.087602 188.658491 
L 135.087602 186.720172 
L 136.977159 189.344772 
L 136.977159 190.327846 
L 136.977159 188.936693 
L 138.866715 188.204049 
L 138.866715 191.051223 
L 138.866715 188.176221 
L 138.866715 189.224219 
L 140.756271 185.792755 
L 140.756271 189.233486 
L 142.645828 189.9105 
L 142.645828 191.960106 
L 142.645828 187.944352 
L 142.645828 189.233486 
L 144.535384 189.938329 
L 144.535384 190.856479 
L 144.535384 188.751215 
L 144.535384 189.224219 
L 146.424941 188.751215 
L 146.424941 191.598418 
L 146.424941 190.262922 
L 148.314497 188.222583 
L 148.314497 191.533493 
L 150.204054 190.448399 
L 150.204054 189.456059 
L 150.204054 193.861301 
L 152.09361 191.932277 
L 152.09361 190.031053 
L 152.09361 194.028245 
L 152.09361 191.431473 
L 153.983166 194.408496 
L 153.983166 190.995594 
L 155.872723 193.212115 
L 155.872723 191.793162 
L 155.872723 192.182679 
L 157.762279 193.212115 
L 157.762279 191.227434 
L 157.762279 193.545975 
L 159.651836 193.471784 
L 159.651836 191.320187 
L 159.651836 200.000823 
L 159.651836 193.304868 
L 161.541392 196.560092 
L 161.541392 192.980247 
L 163.430949 197.348422 
L 163.430949 194.992757 
L 163.430949 199.212522 
L 163.430949 196.374615 
L 165.320505 207.262534 
L 165.320505 194.427029 
L 165.320505 201.020992 
L 167.210061 207.308896 
L 167.210061 202.189544 
L 167.210061 210.128241 
L 169.099618 215.275422 
L 169.099618 211.055657 
L 169.099618 216.712909 
L 170.989174 219.383871 
L 170.989174 223.687094 
L 170.989174 218.410093 
L 172.878731 225.699575 
L 172.878731 227.137091 
L 172.878731 224.33628 
L 174.768287 221.730241 
L 174.768287 214.199624 
L 174.768287 218.456455 
L 176.657844 207.466545 
L 176.657844 210.276623 
L 176.657844 200.538751 
L 178.5474 193.879863 
L 178.5474 189.53025 
L 178.5474 194.816546 
L 180.436957 190.021787 
L 180.436957 193.230677 
L 180.436957 188.370965 
L 180.436957 190.531857 
L 182.326513 196.51373 
L 182.326513 191.190338 
L 182.326513 199.750421 
L 182.326513 194.111703 
L 184.216069 199.852441 
L 184.216069 205.23149 
L 184.216069 203.738346 
L 186.105626 205.472597 
L 186.105626 204.248416 
L 186.105626 209.414131 
L 187.995182 198.748813 
L 187.995182 203.719784 
L 187.995182 202.857292 
L 189.884739 193.88913 
L 189.884739 195.614143 
L 189.884739 194.491953 
L 191.774295 194.445591 
L 191.774295 192.201241 
L 191.774295 193.286306 
L 193.663852 196.764132 
L 193.663852 201.456872 
L 193.663852 199.824612 
L 195.553408 209.627437 
L 195.553408 204.174225 
L 197.442964 213.281474 
L 197.442964 214.199624 
L 197.442964 210.313747 
L 199.332521 213.39276 
L 199.332521 215.312517 
L 201.222077 204.248416 
L 201.222077 199.509314 
L 201.222077 209.543979 
L 203.111634 193.239944 
L 203.111634 170.592261 
L 203.111634 181.60079 
L 205.00119 129.581324 
L 205.00119 161.011951 
L 206.890747 121.614654 
L 206.890747 90.165062 
L 208.780303 75.214567 
L 208.780303 75.780324 
L 208.780303 86.427453 
L 210.669859 83.58946 
L 210.669859 75.158909 
L 212.559416 117.227859 
L 212.559416 93.596612 
L 214.448972 146.340031 
L 214.448972 123.766309 
L 216.338529 166.214818 
L 216.338529 169.544291 
L 216.338529 153.592533 
L 218.228085 172.975755 
L 218.228085 180.191104 
L 218.228085 178.642302 
L 220.117642 184.587108 
L 220.117642 180.793927 
L 222.007198 183.455652 
L 222.007198 185.588716 
L 223.896755 188.834702 
L 223.896755 185.403238 
L 223.896755 187.267337 
L 225.786311 187.397186 
L 225.786311 185.533058 
L 227.675867 186.043157 
L 227.675867 190.346379 
L 229.565424 186.237901 
L 229.565424 187.870161 
L 229.565424 184.754024 
L 229.565424 185.375409 
L 231.45498 187.619759 
L 231.45498 187.397186 
L 231.45498 187.925819 
L 233.344537 187.527035 
L 233.344537 186.57179 
L 233.344537 187.322995 
L 235.234093 185.941137 
L 235.234093 190.670972 
L 235.234093 184.698395 
L 237.12365 188.204049 
L 237.12365 189.623003 
L 237.12365 185.180636 
L 237.12365 188.241145 
L 239.013206 194.798013 
L 239.013206 186.710905 
L 239.013206 188.037105 
L 240.902762 186.710905 
L 240.902762 188.575004 
L 242.792319 188.769777 
L 242.792319 190.058882 
L 242.792319 188.389527 
L 242.792319 188.547176 
L 244.681875 188.825406 
L 244.681875 186.914916 
L 244.681875 192.238337 
L 244.681875 188.751215 
L 246.571432 188.352431 
L 246.571432 189.381868 
L 246.571432 188.185487 
L 248.460988 187.59193 
L 248.460988 186.182272 
L 248.460988 188.287507 
L 248.460988 187.675417 
L 250.350545 188.213316 
L 250.350545 188.945988 
L 250.350545 188.881064 
L 252.240101 189.687927 
L 252.240101 188.463718 
L 252.240101 188.537909 
L 254.129657 190.494761 
L 254.129657 188.250412 
L 254.129657 189.678632 
L 256.019214 187.805237 
L 256.019214 186.87782 
L 256.019214 188.40806 
L 257.90877 188.213316 
L 257.90877 188.825406 
L 257.90877 187.916552 
L 259.798327 189.205657 
L 259.798327 188.268974 
L 261.687883 185.060083 
L 261.687883 189.112904 
L 261.687883 188.222583 
L 263.57744 187.406453 
L 263.57744 188.547176 
L 263.57744 185.616544 
L 265.466996 181.60079 
L 265.466996 189.919767 
L 267.356552 188.148392 
L 267.356552 188.194754 
L 267.356552 189.400401 
L 267.356552 188.046372 
L 269.246109 188.361698 
L 269.246109 188.333869 
L 269.246109 186.377017 
L 269.246109 189.687927 
L 271.135665 187.202413 
L 271.135665 188.287507 
L 271.135665 186.339921 
L 273.025222 188.40806 
L 273.025222 189.391134 
L 274.914778 187.378624 
L 274.914778 188.417356 
L 276.804335 193.388326 
L 276.804335 182.611693 
L 276.804335 189.446792 
L 278.693891 187.499206 
L 278.693891 188.204049 
L 278.693891 187.768141 
L 280.583448 187.89799 
L 280.583448 187.276633 
L 280.583448 187.712512 
L 282.473004 188.918159 
L 282.473004 183.715321 
L 284.36256 187.833066 
L 284.36256 190.689534 
L 284.36256 187.990743 
L 286.252117 188.973788 
L 286.252117 187.471377 
L 286.252117 187.972181 
L 288.141673 188.250412 
L 288.141673 187.944352 
L 288.141673 188.732682 
L 290.03123 188.519376 
L 290.03123 188.927426 
L 290.03123 187.89799 
L 290.03123 188.667758 
L 291.920786 188.370965 
L 291.920786 188.630662 
L 291.920786 183.548376 
L 291.920786 188.027838 
L 293.810343 188.120563 
L 293.810343 187.758874 
L 293.810343 191.626218 
L 295.699899 188.602833 
L 295.699899 186.933478 
L 295.699899 189.660098 
L 295.699899 188.352431 
L 297.589455 187.656855 
L 297.589455 188.120563 
L 299.479012 188.361698 
L 299.479012 188.222583 
L 299.479012 189.09437 
L 301.368568 188.092763 
L 301.368568 182.991915 
L 301.368568 186.692343 
L 303.258125 187.554835 
L 303.258125 188.463718 
L 303.258125 188.287507 
L 305.147681 188.018543 
L 305.147681 187.165318 
L 305.147681 190.105244 
L 307.037238 188.769777 
L 307.037238 187.731046 
L 307.037238 189.465325 
L 308.926794 188.296774 
L 308.926794 187.452815 
L 308.926794 189.483887 
L 308.926794 188.862502 
L 310.81635 188.99235 
L 310.81635 187.220975 
L 312.705907 188.102029 
L 312.705907 187.434282 
L 312.705907 189.159295 
L 312.705907 189.001617 
L 314.595463 189.502421 
L 314.595463 187.777437 
L 316.48502 187.573397 
L 316.48502 190.309284 
L 318.374576 188.129858 
L 318.374576 187.953647 
L 318.374576 189.901233 
L 320.264133 187.972181 
L 320.264133 188.120563 
L 320.264133 186.441941 
L 320.264133 187.202413 
L 322.153689 186.145177 
L 322.153689 191.347987 
L 322.153689 189.70646 
L 324.043245 188.111296 
L 324.043245 187.953647 
L 324.043245 191.756066 
L 324.043245 188.009276 
L 325.932802 188.074201 
L 325.932802 185.291923 
L 327.822358 191.663313 
L 327.822358 186.172977 
L 327.822358 187.851628 
L 329.711915 187.471377 
L 329.711915 187.712512 
L 329.711915 186.423379 
L 331.601471 187.805237 
L 331.601471 186.812896 
L 333.491028 187.860894 
L 333.491028 189.270581 
L 333.491028 187.128222 
L 335.380584 187.59193 
L 335.380584 188.370965 
L 335.380584 187.118955 
L 335.380584 188.139125 
L 337.270141 191.700409 
L 337.270141 185.811289 
L 339.159697 183.149593 
L 339.159697 190.763725 
L 339.159697 187.508473 
L 341.049253 187.814532 
L 341.049253 188.435889 
L 341.049253 184.828215 
L 342.93881 188.176221 
L 342.93881 189.632269 
L 342.93881 187.944352 
L 344.828366 188.779044 
L 344.828366 189.854842 
L 344.828366 187.814532 
L 346.717923 187.758874 
L 346.717923 189.187095 
L 346.717923 188.315336 
L 348.607479 187.656855 
L 348.607479 189.456059 
L 348.607479 187.842332 
L 350.497036 186.581056 
L 350.497036 188.871797 
L 350.497036 185.690735 
L 352.386592 187.174613 
L 352.386592 189.70646 
L 352.386592 186.97984 
L 354.276148 188.370965 
L 354.276148 187.016936 
L 356.165705 185.468134 
L 356.165705 190.800821 
L 356.165705 188.843968 
L 358.055261 188.018543 
L 358.055261 187.675417 
L 359.944818 185.950404 
L 359.944818 187.768141 
L 361.834374 189.205657 
L 361.834374 183.214517 
L 363.723931 188.009276 
L 363.723931 187.805237 
L 363.723931 187.601226 
L 363.723931 187.758874 
L 365.613487 188.537909 
L 365.613487 187.916552 
L 365.613487 191.885915 
L 365.613487 189.502421 
L 367.503043 187.619759 
L 367.503043 188.584271 
L 369.3926 189.159295 
L 369.3926 183.974989 
L 371.282156 189.827042 
L 371.282156 187.888723 
L 371.282156 188.037105 
L 373.171713 187.972181 
L 373.171713 188.556471 
L 373.171713 186.052424 
L 373.171713 187.981448 
L 375.061269 188.426622 
L 375.061269 186.36775 
L 376.950826 187.981448 
L 376.950826 189.966129 
L 376.950826 187.211709 
L 378.840382 189.854842 
L 378.840382 184.624204 
L 380.729939 187.69395 
L 380.729939 184.846777 
L 380.729939 187.758874 
L 382.619495 188.083467 
L 382.619495 190.262922 
L 382.619495 184.067742 
L 384.509051 190.290751 
L 384.509051 189.956862 
L 384.509051 186.608885 
L 384.509051 186.896382 
L 386.398608 188.176221 
L 386.398608 191.514931 
L 386.398608 185.217732 
L 386.398608 187.833066 
L 388.288164 187.480644 
L 388.288164 187.56413 
L 388.288164 182.361292 
L 388.288164 188.677024 
L 390.177721 187.944352 
L 390.177721 186.228635 
L 390.177721 190.596781 
L 392.067277 187.740341 
L 392.067277 187.211709 
L 392.067277 187.860894 
L 392.067277 187.758874 
L 393.956834 188.111296 
L 393.956834 188.259678 
L 393.956834 187.823799 
L 395.84639 188.333869 
L 395.84639 189.520983 
L 395.84639 187.888723 
L 395.84639 188.621367 
L 397.735946 188.352431 
L 397.735946 190.225826 
L 397.735946 187.202413 
L 399.625503 187.712512 
L 399.625503 188.741949 
L 399.625503 186.210072 
L 401.515059 188.315336 
L 401.515059 184.73549 
L 401.515059 186.849991 
L 403.404616 186.831458 
L 403.404616 189.623003 
L 405.294172 188.27824 
L 405.294172 186.896382 
L 405.294172 188.983084 
L 405.294172 186.989107 
L 407.183729 187.888723 
L 407.183729 189.122199 
L 407.183729 187.378624 
L 407.183729 187.990743 
L 409.073285 187.721779 
L 409.073285 189.057275 
L 409.073285 187.656855 
L 410.962841 188.575004 
L 410.962841 187.536301 
L 410.962841 188.797577 
L 410.962841 187.703246 
L 412.852398 188.38026 
L 412.852398 187.369357 
L 412.852398 187.944352 
L 414.741954 188.463718 
L 414.741954 186.720172 
L 416.631511 189.585907 
L 416.631511 186.618152 
L 416.631511 187.916552 
L 418.521067 187.731046 
L 418.521067 187.842332 
L 418.521067 184.290315 
L 420.410624 187.731046 
L 420.410624 184.281049 
L 420.410624 188.306069 
L 422.30018 187.842332 
L 422.30018 183.446357 
L 422.30018 188.71412 
L 422.30018 187.805237 
L 424.189736 189.901233 
L 424.189736 188.046372 
L 424.189736 191.422207 
L 426.079293 188.166954 
L 426.079293 183.53911 
L 426.079293 187.137518 
L 427.968849 187.935085 
L 427.968849 189.409696 
L 429.858406 190.355646 
L 429.858406 187.833066 
L 429.858406 188.417356 
L 431.747962 184.948796 
L 431.747962 187.703246 
L 431.747962 179.495556 
L 433.637519 187.768141 
L 433.637519 186.358483 
L 433.637519 188.677024 
L 433.637519 188.472985 
L 435.527075 188.296774 
L 435.527075 190.095978 
L 435.527075 189.010884 
L 437.416632 187.712512 
L 437.416632 185.68144 
L 437.416632 188.102029 
L 439.306188 188.27824 
L 439.306188 185.811289 
L 439.306188 187.378624 
L 441.195744 187.248804 
L 441.195744 187.56413 
L 441.195744 186.812896 
L 443.085301 187.489939 
L 443.085301 188.463718 
L 443.085301 186.952011 
L 443.085301 187.100422 
L 444.974857 188.621367 
L 444.974857 186.868554 
L 444.974857 187.953647 
L 446.864414 188.250412 
L 446.864414 190.133073 
L 446.864414 187.434282 
L 448.75397 191.116147 
L 448.75397 187.063298 
L 448.75397 188.843968 
L 450.643527 188.788311 
L 450.643527 187.406453 
L 450.643527 188.788311 
L 452.533083 183.474185 
L 452.533083 188.908893 
L 454.422639 188.333869 
L 454.422639 182.361292 
L 454.422639 187.56413 
L 456.312196 187.360091 
L 456.312196 186.543961 
L 456.312196 188.927426 
L 458.201752 187.823799 
L 458.201752 186.645981 
L 458.201752 188.055667 
L 460.091309 187.777437 
L 460.091309 187.304433 
L 460.091309 188.361698 
L 460.091309 187.768141 
L 461.980865 187.554835 
L 461.980865 190.606077 
L 461.980865 186.822191 
L 463.870422 187.406453 
L 463.870422 186.534694 
L 463.870422 188.445185 
L 463.870422 188.027838 
L 465.759978 189.9105 
L 465.759978 185.644344 
L 465.759978 186.395579 
L 467.649534 185.941137 
L 467.649534 190.865745 
L 469.539091 188.241145 
L 469.539091 188.426622 
L 469.539091 187.202413 
L 469.539091 187.851628 
" clip-path="url(#p95243a06f2)" style="fill: none; stroke: #cc7000; stroke-opacity: 0.7; stroke-width: 1.4; stroke-linecap: square"/>
   </g>
   <g id="line2d_14">
    <path d="M 78.400909 192.813331 
L 80.290466 192.113121 
L 82.180022 193.161105 
L 84.069578 193.188934 
L 85.959135 194.742355 
L 87.848691 194.779451 
L 89.738248 195.25244 
L 91.627804 193.796391 
L 93.517361 192.516553 
L 95.406917 189.956862 
L 97.296473 188.064934 
L 99.18603 186.687709 
L 101.075586 185.690735 
L 102.965143 187.128237 
L 104.854699 186.256463 
L 108.633812 186.511499 
L 110.523368 187.879442 
L 112.412925 185.180651 
L 114.302481 185.811289 
L 116.192038 185.922589 
L 118.081594 187.290533 
L 119.971151 187.387919 
L 123.750264 186.497584 
L 125.63982 186.488317 
L 127.529376 186.785082 
L 129.418933 187.411086 
L 131.308489 187.675417 
L 133.198046 189.31231 
L 135.087602 186.901016 
L 136.977159 189.21029 
L 138.866715 188.714134 
L 140.756271 188.472985 
L 142.645828 189.571993 
L 144.535384 189.581274 
L 148.314497 190.091344 
L 150.204054 191.482469 
L 152.09361 191.681875 
L 153.983166 192.414533 
L 155.872723 192.122402 
L 157.762279 192.63712 
L 161.541392 194.158094 
L 163.430949 196.861519 
L 165.320505 199.801431 
L 167.210061 207.740142 
L 169.099618 213.587519 
L 170.989174 220.422589 
L 172.878731 226.279218 
L 174.768287 219.124203 
L 178.5474 192.173412 
L 180.436957 190.276822 
L 182.326513 195.312716 
L 184.216069 204.011929 
L 186.105626 205.658089 
L 187.995182 202.194177 
L 189.884739 194.742355 
L 191.774295 193.430055 
L 193.663852 199.207888 
L 197.442964 213.044986 
L 199.332521 215.02502 
L 201.222077 205.704465 
L 203.111634 184.69838 
L 206.890747 107.290336 
L 208.780303 78.479201 
L 210.669859 78.998567 
L 212.559416 104.790879 
L 214.448972 136.634463 
L 216.338529 162.639592 
L 218.228085 177.932825 
L 220.117642 182.954834 
L 222.007198 184.96733 
L 223.896755 186.664514 
L 225.786311 186.270363 
L 227.675867 187.564116 
L 229.565424 185.806655 
L 231.45498 187.758874 
L 233.344537 186.97984 
L 235.234093 187.18388 
L 237.12365 188.222597 
L 239.013206 188.528642 
L 240.902762 188.292155 
L 242.792319 188.658476 
L 244.681875 188.788311 
L 246.571432 188.431256 
L 248.460988 187.633674 
L 250.350545 188.690939 
L 252.240101 189.001617 
L 254.129657 189.585893 
L 256.019214 187.939719 
L 257.90877 188.213316 
L 261.687883 188.408075 
L 263.57744 187.457463 
L 265.466996 188.037105 
L 269.246109 188.347784 
L 271.135665 187.452829 
L 273.025222 188.39416 
L 274.914778 188.11593 
L 276.804335 188.755863 
L 278.693891 187.675402 
L 280.583448 187.638321 
L 282.473004 187.814518 
L 284.36256 188.296788 
L 286.252117 187.842347 
L 290.03123 188.593567 
L 291.920786 188.199402 
L 293.810343 188.106663 
L 295.699899 188.477632 
L 297.589455 187.772789 
L 299.479012 188.681658 
L 301.368568 187.207061 
L 303.258125 188.208683 
L 305.147681 187.763508 
L 307.037238 188.408075 
L 308.926794 188.579638 
L 310.81635 187.879442 
L 312.705907 188.551823 
L 314.595463 188.018543 
L 316.48502 188.102029 
L 318.374576 188.32925 
L 320.264133 187.587297 
L 322.153689 188.802225 
L 324.043245 188.060286 
L 325.932802 187.763522 
L 327.822358 187.925819 
L 331.601471 187.295166 
L 333.491028 187.981462 
L 335.380584 187.865528 
L 337.270141 187.392538 
L 342.93881 188.092748 
L 344.828366 188.792958 
L 346.717923 188.412708 
L 350.497036 187.332262 
L 352.386592 187.656869 
L 354.276148 188.22723 
L 356.165705 188.922793 
L 358.055261 188.032457 
L 359.944818 187.401819 
L 361.834374 188.588919 
L 363.723931 187.782056 
L 365.613487 189.020165 
L 367.503043 188.051005 
L 369.3926 187.953647 
L 375.061269 187.907257 
L 376.950826 188.370965 
L 378.840382 188.978436 
L 380.729939 187.392538 
L 382.619495 188.690939 
L 384.509051 188.426622 
L 388.288164 187.522387 
L 390.177721 187.786689 
L 392.067277 187.749608 
L 393.956834 188.055653 
L 395.84639 188.477618 
L 397.735946 188.250412 
L 399.625503 187.735693 
L 401.515059 187.355443 
L 403.404616 188.236497 
L 405.294172 187.633674 
L 407.183729 187.939733 
L 409.073285 187.777422 
L 410.962841 188.139125 
L 412.852398 188.148392 
L 414.741954 188.00001 
L 416.631511 187.485292 
L 418.521067 187.624393 
L 420.410624 187.884075 
L 422.30018 187.823784 
L 424.189736 189.762118 
L 426.079293 187.18388 
L 427.968849 188.741934 
L 429.858406 188.32925 
L 431.747962 185.593349 
L 433.637519 188.120563 
L 435.527075 189.168547 
L 437.416632 186.873187 
L 441.195744 187.387919 
L 443.085301 187.295181 
L 446.864414 187.874809 
L 448.75397 188.199402 
L 450.643527 188.157673 
L 452.533083 187.220975 
L 454.422639 187.800618 
L 456.312196 187.18388 
L 458.201752 187.596578 
L 461.980865 187.925804 
L 463.870422 187.717146 
L 465.759978 186.942759 
L 467.649534 187.870161 
L 469.539091 187.851628 
L 469.539091 187.851628 
" clip-path="url(#p95243a06f2)" style="fill: none; stroke: #2980b9; stroke-width: 2; stroke-linecap: square"/>
   </g>
   <g id="line2d_15">
    <path d="M 78.400909 190.008434 
L 104.854699 190.558234 
L 121.860707 191.108384 
L 135.087602 191.739111 
L 144.535384 192.376702 
L 152.09361 193.068105 
L 157.762279 193.745715 
L 163.430949 194.622644 
L 167.210061 195.361307 
L 170.989174 196.267893 
L 174.768287 197.397444 
L 178.5474 198.826031 
L 182.326513 200.655424 
L 184.216069 201.758143 
L 186.105626 203.005465 
L 187.995182 204.404759 
L 193.663852 209.164266 
L 195.553408 210.378922 
L 197.442964 210.514753 
L 199.332521 208.108973 
L 201.222077 200.366058 
L 203.111634 182.77814 
L 205.00119 150.950662 
L 206.890747 108.532525 
L 208.780303 76.509909 
L 210.669859 77.830725 
L 212.559416 106.35738 
L 214.448972 138.488873 
L 216.338529 161.535081 
L 218.228085 175.054883 
L 220.117642 182.239554 
L 222.007198 185.838592 
L 223.896755 187.53953 
L 225.786311 188.266819 
L 227.675867 188.506139 
L 231.45498 188.404809 
L 242.792319 187.622542 
L 250.350545 187.37985 
L 261.687883 187.27679 
L 282.473004 187.375556 
L 392.067277 188.138111 
L 469.539091 188.460978 
L 469.539091 188.460978 
" clip-path="url(#p95243a06f2)" style="fill: none; stroke: #ffa500; stroke-width: 2.5; stroke-linecap: square"/>
   </g>
   <g id="patch_3">
    <path d="M 58.844 234.736 
L 58.844 67.56 
" style="fill: none; stroke: #000000; stroke-width: 0.8; stroke-linejoin: miter; stroke-linecap: square"/>
   </g>
   <g id="patch_4">
    <path d="M 489.096 234.736 
L 489.096 67.56 
" style="fill: none; stroke: #000000; stroke-width: 0.8; stroke-linejoin: miter; stroke-linecap: square"/>
   </g>
   <g id="patch_5">
    <path d="M 58.844 234.736 
L 489.096 234.736 
" style="fill: none; stroke: #000000; stroke-width: 0.8; stroke-linejoin: miter; stroke-linecap: square"/>
   </g>
   <g id="patch_6">
    <path d="M 58.844 67.56 
L 489.096 67.56 
" style="fill: none; stroke: #000000; stroke-width: 0.8; stroke-linejoin: miter; stroke-linecap: square"/>
   </g>
   <g id="text_15">
    <!-- AZ5, f=12 GHz, 10 dB -->
    <g transform="translate(185.260258 25.503044) scale(0.161 -0.161)">
     <defs>
      <path id="DejaVuSans-41" d="M 2188 4044 
L 1331 1722 
L 3047 1722 
L 2188 4044 
z
M 1831 4666 
L 2547 4666 
L 4325 0 
L 3669 0 
L 3244 1197 
L 1141 1197 
L 716 0 
L 50 0 
L 1831 4666 
z
" transform="scale(0.015625)"/>
      <path id="DejaVuSans-5a" d="M 359 4666 
L 4025 4666 
L 4025 4184 
L 1075 531 
L 4097 531 
L 4097 0 
L 288 0 
L 288 481 
L 3238 4134 
L 359 4134 
L 359 4666 
z
" transform="scale(0.015625)"/>
      <path id="DejaVuSans-2c" d="M 750 794 
L 1409 794 
L 1409 256 
L 897 -744 
L 494 -744 
L 750 256 
L 750 794 
z
" transform="scale(0.015625)"/>
      <path id="DejaVuSans-66" d="M 2375 4863 
L 2375 4384 
L 1825 4384 
Q 1516 4384 1395 4259 
Q 1275 4134 1275 3809 
L 1275 3500 
L 2222 3500 
L 2222 3053 
L 1275 3053 
L 1275 0 
L 697 0 
L 697 3053 
L 147 3053 
L 147 3500 
L 697 3500 
L 697 3744 
Q 697 4328 969 4595 
Q 1241 4863 1831 4863 
L 2375 4863 
z
" transform="scale(0.015625)"/>
      <path id="DejaVuSans-3d" d="M 678 2906 
L 4684 2906 
L 4684 2381 
L 678 2381 
L 678 2906 
z
M 678 1631 
L 4684 1631 
L 4684 1100 
L 678 1100 
L 678 1631 
z
" transform="scale(0.015625)"/>
      <path id="DejaVuSans-47" d="M 3809 666 
L 3809 1919 
L 2778 1919 
L 2778 2438 
L 4434 2438 
L 4434 434 
Q 4069 175 3628 42 
Q 3188 -91 2688 -91 
Q 1594 -91 976 548 
Q 359 1188 359 2328 
Q 359 3472 976 4111 
Q 1594 4750 2688 4750 
Q 3144 4750 3555 4637 
Q 3966 4525 4313 4306 
L 4313 3634 
Q 3963 3931 3569 4081 
Q 3175 4231 2741 4231 
Q 1884 4231 1454 3753 
Q 1025 3275 1025 2328 
Q 1025 1384 1454 906 
Q 1884 428 2741 428 
Q 3075 428 3337 486 
Q 3600 544 3809 666 
z
" transform="scale(0.015625)"/>
      <path id="DejaVuSans-7a" d="M 353 3500 
L 3084 3500 
L 3084 2975 
L 922 459 
L 3084 459 
L 3084 0 
L 275 0 
L 275 525 
L 2438 3041 
L 353 3041 
L 353 3500 
z
" transform="scale(0.015625)"/>
      <path id="DejaVuSans-42" d="M 1259 2228 
L 1259 519 
L 2272 519 
Q 2781 519 3026 730 
Q 3272 941 3272 1375 
Q 3272 1813 3026 2020 
Q 2781 2228 2272 2228 
L 1259 2228 
z
M 1259 4147 
L 1259 2741 
L 2194 2741 
Q 2656 2741 2882 2914 
Q 3109 3088 3109 3444 
Q 3109 3797 2882 3972 
Q 2656 4147 2194 4147 
L 1259 4147 
z
M 628 4666 
L 2241 4666 
Q 2963 4666 3353 4366 
Q 3744 4066 3744 3513 
Q 3744 3084 3544 2831 
Q 3344 2578 2956 2516 
Q 3422 2416 3680 2098 
Q 3938 1781 3938 1306 
Q 3938 681 3513 340 
Q 3088 0 2303 0 
L 628 0 
L 628 4666 
z
" transform="scale(0.015625)"/>
     </defs>
     <use xlink:href="#DejaVuSans-41"/>
     <use xlink:href="#DejaVuSans-5a" transform="translate(68.408203 0)"/>
     <use xlink:href="#DejaVuSans-35" transform="translate(136.914062 0)"/>
     <use xlink:href="#DejaVuSans-2c" transform="translate(200.537109 0)"/>
     <use xlink:href="#DejaVuSans-20" transform="translate(232.324219 0)"/>
     <use xlink:href="#DejaVuSans-66" transform="translate(264.111328 0)"/>
     <use xlink:href="#DejaVuSans-3d" transform="translate(299.316406 0)"/>
     <use xlink:href="#DejaVuSans-31" transform="translate(383.105469 0)"/>
     <use xlink:href="#DejaVuSans-32" transform="translate(446.728516 0)"/>
     <use xlink:href="#DejaVuSans-20" transform="translate(510.351562 0)"/>
     <use xlink:href="#DejaVuSans-47" transform="translate(542.138672 0)"/>
     <use xlink:href="#DejaVuSans-48" transform="translate(619.628906 0)"/>
     <use xlink:href="#DejaVuSans-7a" transform="translate(694.824219 0)"/>
     <use xlink:href="#DejaVuSans-2c" transform="translate(747.314453 0)"/>
     <use xlink:href="#DejaVuSans-20" transform="translate(779.101562 0)"/>
     <use xlink:href="#DejaVuSans-31" transform="translate(810.888672 0)"/>
     <use xlink:href="#DejaVuSans-30" transform="translate(874.511719 0)"/>
     <use xlink:href="#DejaVuSans-20" transform="translate(938.134766 0)"/>
     <use xlink:href="#DejaVuSans-64" transform="translate(969.921875 0)"/>
     <use xlink:href="#DejaVuSans-42" transform="translate(1033.398438 0)"/>
    </g>
    <!-- Double Asymmetric Lorentzian -->
    <g transform="translate(149.993711 43.531522) scale(0.161 -0.161)">
     <defs>
      <path id="DejaVuSans-44" d="M 1259 4147 
L 1259 519 
L 2022 519 
Q 2988 519 3436 956 
Q 3884 1394 3884 2338 
Q 3884 3275 3436 3711 
Q 2988 4147 2022 4147 
L 1259 4147 
z
M 628 4666 
L 1925 4666 
Q 3281 4666 3915 4102 
Q 4550 3538 4550 2338 
Q 4550 1131 3912 565 
Q 3275 0 1925 0 
L 628 0 
L 628 4666 
z
" transform="scale(0.015625)"/>
      <path id="DejaVuSans-6f" d="M 1959 3097 
Q 1497 3097 1228 2736 
Q 959 2375 959 1747 
Q 959 1119 1226 758 
Q 1494 397 1959 397 
Q 2419 397 2687 759 
Q 2956 1122 2956 1747 
Q 2956 2369 2687 2733 
Q 2419 3097 1959 3097 
z
M 1959 3584 
Q 2709 3584 3137 3096 
Q 3566 2609 3566 1747 
Q 3566 888 3137 398 
Q 2709 -91 1959 -91 
Q 1206 -91 779 398 
Q 353 888 353 1747 
Q 353 2609 779 3096 
Q 1206 3584 1959 3584 
z
" transform="scale(0.015625)"/>
      <path id="DejaVuSans-75" d="M 544 1381 
L 544 3500 
L 1119 3500 
L 1119 1403 
Q 1119 906 1312 657 
Q 1506 409 1894 409 
Q 2359 409 2629 706 
Q 2900 1003 2900 1516 
L 2900 3500 
L 3475 3500 
L 3475 0 
L 2900 0 
L 2900 538 
Q 2691 219 2414 64 
Q 2138 -91 1772 -91 
Q 1169 -91 856 284 
Q 544 659 544 1381 
z
M 1991 3584 
L 1991 3584 
z
" transform="scale(0.015625)"/>
      <path id="DejaVuSans-62" d="M 3116 1747 
Q 3116 2381 2855 2742 
Q 2594 3103 2138 3103 
Q 1681 3103 1420 2742 
Q 1159 2381 1159 1747 
Q 1159 1113 1420 752 
Q 1681 391 2138 391 
Q 2594 391 2855 752 
Q 3116 1113 3116 1747 
z
M 1159 2969 
Q 1341 3281 1617 3432 
Q 1894 3584 2278 3584 
Q 2916 3584 3314 3078 
Q 3713 2572 3713 1747 
Q 3713 922 3314 415 
Q 2916 -91 2278 -91 
Q 1894 -91 1617 61 
Q 1341 213 1159 525 
L 1159 0 
L 581 0 
L 581 4863 
L 1159 4863 
L 1159 2969 
z
" transform="scale(0.015625)"/>
      <path id="DejaVuSans-6c" d="M 603 4863 
L 1178 4863 
L 1178 0 
L 603 0 
L 603 4863 
z
" transform="scale(0.015625)"/>
      <path id="DejaVuSans-65" d="M 3597 1894 
L 3597 1613 
L 953 1613 
Q 991 1019 1311 708 
Q 1631 397 2203 397 
Q 2534 397 2845 478 
Q 3156 559 3463 722 
L 3463 178 
Q 3153 47 2828 -22 
Q 2503 -91 2169 -91 
Q 1331 -91 842 396 
Q 353 884 353 1716 
Q 353 2575 817 3079 
Q 1281 3584 2069 3584 
Q 2775 3584 3186 3129 
Q 3597 2675 3597 1894 
z
M 3022 2063 
Q 3016 2534 2758 2815 
Q 2500 3097 2075 3097 
Q 1594 3097 1305 2825 
Q 1016 2553 972 2059 
L 3022 2063 
z
" transform="scale(0.015625)"/>
      <path id="DejaVuSans-73" d="M 2834 3397 
L 2834 2853 
Q 2591 2978 2328 3040 
Q 2066 3103 1784 3103 
Q 1356 3103 1142 2972 
Q 928 2841 928 2578 
Q 928 2378 1081 2264 
Q 1234 2150 1697 2047 
L 1894 2003 
Q 2506 1872 2764 1633 
Q 3022 1394 3022 966 
Q 3022 478 2636 193 
Q 2250 -91 1575 -91 
Q 1294 -91 989 -36 
Q 684 19 347 128 
L 347 722 
Q 666 556 975 473 
Q 1284 391 1588 391 
Q 1994 391 2212 530 
Q 2431 669 2431 922 
Q 2431 1156 2273 1281 
Q 2116 1406 1581 1522 
L 1381 1569 
Q 847 1681 609 1914 
Q 372 2147 372 2553 
Q 372 3047 722 3315 
Q 1072 3584 1716 3584 
Q 2034 3584 2315 3537 
Q 2597 3491 2834 3397 
z
" transform="scale(0.015625)"/>
      <path id="DejaVuSans-79" d="M 2059 -325 
Q 1816 -950 1584 -1140 
Q 1353 -1331 966 -1331 
L 506 -1331 
L 506 -850 
L 844 -850 
Q 1081 -850 1212 -737 
Q 1344 -625 1503 -206 
L 1606 56 
L 191 3500 
L 800 3500 
L 1894 763 
L 2988 3500 
L 3597 3500 
L 2059 -325 
z
" transform="scale(0.015625)"/>
      <path id="DejaVuSans-6d" d="M 3328 2828 
Q 3544 3216 3844 3400 
Q 4144 3584 4550 3584 
Q 5097 3584 5394 3201 
Q 5691 2819 5691 2113 
L 5691 0 
L 5113 0 
L 5113 2094 
Q 5113 2597 4934 2840 
Q 4756 3084 4391 3084 
Q 3944 3084 3684 2787 
Q 3425 2491 3425 1978 
L 3425 0 
L 2847 0 
L 2847 2094 
Q 2847 2600 2669 2842 
Q 2491 3084 2119 3084 
Q 1678 3084 1418 2786 
Q 1159 2488 1159 1978 
L 1159 0 
L 581 0 
L 581 3500 
L 1159 3500 
L 1159 2956 
Q 1356 3278 1631 3431 
Q 1906 3584 2284 3584 
Q 2666 3584 2933 3390 
Q 3200 3197 3328 2828 
z
" transform="scale(0.015625)"/>
      <path id="DejaVuSans-74" d="M 1172 4494 
L 1172 3500 
L 2356 3500 
L 2356 3053 
L 1172 3053 
L 1172 1153 
Q 1172 725 1289 603 
Q 1406 481 1766 481 
L 2356 481 
L 2356 0 
L 1766 0 
Q 1100 0 847 248 
Q 594 497 594 1153 
L 594 3053 
L 172 3053 
L 172 3500 
L 594 3500 
L 594 4494 
L 1172 4494 
z
" transform="scale(0.015625)"/>
      <path id="DejaVuSans-72" d="M 2631 2963 
Q 2534 3019 2420 3045 
Q 2306 3072 2169 3072 
Q 1681 3072 1420 2755 
Q 1159 2438 1159 1844 
L 1159 0 
L 581 0 
L 581 3500 
L 1159 3500 
L 1159 2956 
Q 1341 3275 1631 3429 
Q 1922 3584 2338 3584 
Q 2397 3584 2469 3576 
Q 2541 3569 2628 3553 
L 2631 2963 
z
" transform="scale(0.015625)"/>
      <path id="DejaVuSans-69" d="M 603 3500 
L 1178 3500 
L 1178 0 
L 603 0 
L 603 3500 
z
M 603 4863 
L 1178 4863 
L 1178 4134 
L 603 4134 
L 603 4863 
z
" transform="scale(0.015625)"/>
      <path id="DejaVuSans-63" d="M 3122 3366 
L 3122 2828 
Q 2878 2963 2633 3030 
Q 2388 3097 2138 3097 
Q 1578 3097 1268 2742 
Q 959 2388 959 1747 
Q 959 1106 1268 751 
Q 1578 397 2138 397 
Q 2388 397 2633 464 
Q 2878 531 3122 666 
L 3122 134 
Q 2881 22 2623 -34 
Q 2366 -91 2075 -91 
Q 1284 -91 818 406 
Q 353 903 353 1747 
Q 353 2603 823 3093 
Q 1294 3584 2113 3584 
Q 2378 3584 2631 3529 
Q 2884 3475 3122 3366 
z
" transform="scale(0.015625)"/>
      <path id="DejaVuSans-4c" d="M 628 4666 
L 1259 4666 
L 1259 531 
L 3531 531 
L 3531 0 
L 628 0 
L 628 4666 
z
" transform="scale(0.015625)"/>
      <path id="DejaVuSans-6e" d="M 3513 2113 
L 3513 0 
L 2938 0 
L 2938 2094 
Q 2938 2591 2744 2837 
Q 2550 3084 2163 3084 
Q 1697 3084 1428 2787 
Q 1159 2491 1159 1978 
L 1159 0 
L 581 0 
L 581 3500 
L 1159 3500 
L 1159 2956 
Q 1366 3272 1645 3428 
Q 1925 3584 2291 3584 
Q 2894 3584 3203 3211 
Q 3513 2838 3513 2113 
z
" transform="scale(0.015625)"/>
      <path id="DejaVuSans-61" d="M 2194 1759 
Q 1497 1759 1228 1600 
Q 959 1441 959 1056 
Q 959 750 1161 570 
Q 1363 391 1709 391 
Q 2188 391 2477 730 
Q 2766 1069 2766 1631 
L 2766 1759 
L 2194 1759 
z
M 3341 1997 
L 3341 0 
L 2766 0 
L 2766 531 
Q 2569 213 2275 61 
Q 1981 -91 1556 -91 
Q 1019 -91 701 211 
Q 384 513 384 1019 
Q 384 1609 779 1909 
Q 1175 2209 1959 2209 
L 2766 2209 
L 2766 2266 
Q 2766 2663 2505 2880 
Q 2244 3097 1772 3097 
Q 1472 3097 1187 3025 
Q 903 2953 641 2809 
L 641 3341 
Q 956 3463 1253 3523 
Q 1550 3584 1831 3584 
Q 2591 3584 2966 3190 
Q 3341 2797 3341 1997 
z
" transform="scale(0.015625)"/>
     </defs>
     <use xlink:href="#DejaVuSans-44"/>
     <use xlink:href="#DejaVuSans-6f" transform="translate(77.001953 0)"/>
     <use xlink:href="#DejaVuSans-75" transform="translate(138.183594 0)"/>
     <use xlink:href="#DejaVuSans-62" transform="translate(201.5625 0)"/>
     <use xlink:href="#DejaVuSans-6c" transform="translate(265.039062 0)"/>
     <use xlink:href="#DejaVuSans-65" transform="translate(292.822266 0)"/>
     <use xlink:href="#DejaVuSans-20" transform="translate(354.345703 0)"/>
     <use xlink:href="#DejaVuSans-41" transform="translate(386.132812 0)"/>
     <use xlink:href="#DejaVuSans-73" transform="translate(454.541016 0)"/>
     <use xlink:href="#DejaVuSans-79" transform="translate(506.640625 0)"/>
     <use xlink:href="#DejaVuSans-6d" transform="translate(565.820312 0)"/>
     <use xlink:href="#DejaVuSans-6d" transform="translate(663.232422 0)"/>
     <use xlink:href="#DejaVuSans-65" transform="translate(760.644531 0)"/>
     <use xlink:href="#DejaVuSans-74" transform="translate(822.167969 0)"/>
     <use xlink:href="#DejaVuSans-72" transform="translate(861.376953 0)"/>
     <use xlink:href="#DejaVuSans-69" transform="translate(902.490234 0)"/>
     <use xlink:href="#DejaVuSans-63" transform="translate(930.273438 0)"/>
     <use xlink:href="#DejaVuSans-20" transform="translate(985.253906 0)"/>
     <use xlink:href="#DejaVuSans-4c" transform="translate(1017.041016 0)"/>
     <use xlink:href="#DejaVuSans-6f" transform="translate(1071.003906 0)"/>
     <use xlink:href="#DejaVuSans-72" transform="translate(1132.185547 0)"/>
     <use xlink:href="#DejaVuSans-65" transform="translate(1171.048828 0)"/>
     <use xlink:href="#DejaVuSans-6e" transform="translate(1232.572266 0)"/>
     <use xlink:href="#DejaVuSans-74" transform="translate(1295.951172 0)"/>
     <use xlink:href="#DejaVuSans-7a" transform="translate(1335.160156 0)"/>
     <use xlink:href="#DejaVuSans-69" transform="translate(1387.650391 0)"/>
     <use xlink:href="#DejaVuSans-61" transform="translate(1415.433594 0)"/>
     <use xlink:href="#DejaVuSans-6e" transform="translate(1476.712891 0)"/>
    </g>
    <!-- $H_1$=318.6222 T, $H_2$=318.6270 T, R²=0.924 -->
    <g transform="translate(100.251 61.56) scale(0.161 -0.161)">
     <defs>
      <path id="DejaVuSans-Oblique-48" d="M 1081 4666 
L 1716 4666 
L 1344 2753 
L 3634 2753 
L 4006 4666 
L 4641 4666 
L 3731 0 
L 3097 0 
L 3531 2222 
L 1241 2222 
L 806 0 
L 172 0 
L 1081 4666 
z
" transform="scale(0.015625)"/>
      <path id="DejaVuSans-38" d="M 2034 2216 
Q 1584 2216 1326 1975 
Q 1069 1734 1069 1313 
Q 1069 891 1326 650 
Q 1584 409 2034 409 
Q 2484 409 2743 651 
Q 3003 894 3003 1313 
Q 3003 1734 2745 1975 
Q 2488 2216 2034 2216 
z
M 1403 2484 
Q 997 2584 770 2862 
Q 544 3141 544 3541 
Q 544 4100 942 4425 
Q 1341 4750 2034 4750 
Q 2731 4750 3128 4425 
Q 3525 4100 3525 3541 
Q 3525 3141 3298 2862 
Q 3072 2584 2669 2484 
Q 3125 2378 3379 2068 
Q 3634 1759 3634 1313 
Q 3634 634 3220 271 
Q 2806 -91 2034 -91 
Q 1263 -91 848 271 
Q 434 634 434 1313 
Q 434 1759 690 2068 
Q 947 2378 1403 2484 
z
M 1172 3481 
Q 1172 3119 1398 2916 
Q 1625 2713 2034 2713 
Q 2441 2713 2670 2916 
Q 2900 3119 2900 3481 
Q 2900 3844 2670 4047 
Q 2441 4250 2034 4250 
Q 1625 4250 1398 4047 
Q 1172 3844 1172 3481 
z
" transform="scale(0.015625)"/>
      <path id="DejaVuSans-2e" d="M 684 794 
L 1344 794 
L 1344 0 
L 684 0 
L 684 794 
z
" transform="scale(0.015625)"/>
      <path id="DejaVuSans-36" d="M 2113 2584 
Q 1688 2584 1439 2293 
Q 1191 2003 1191 1497 
Q 1191 994 1439 701 
Q 1688 409 2113 409 
Q 2538 409 2786 701 
Q 3034 994 3034 1497 
Q 3034 2003 2786 2293 
Q 2538 2584 2113 2584 
z
M 3366 4563 
L 3366 3988 
Q 3128 4100 2886 4159 
Q 2644 4219 2406 4219 
Q 1781 4219 1451 3797 
Q 1122 3375 1075 2522 
Q 1259 2794 1537 2939 
Q 1816 3084 2150 3084 
Q 2853 3084 3261 2657 
Q 3669 2231 3669 1497 
Q 3669 778 3244 343 
Q 2819 -91 2113 -91 
Q 1303 -91 875 529 
Q 447 1150 447 2328 
Q 447 3434 972 4092 
Q 1497 4750 2381 4750 
Q 2619 4750 2861 4703 
Q 3103 4656 3366 4563 
z
" transform="scale(0.015625)"/>
      <path id="DejaVuSans-37" d="M 525 4666 
L 3525 4666 
L 3525 4397 
L 1831 0 
L 1172 0 
L 2766 4134 
L 525 4134 
L 525 4666 
z
" transform="scale(0.015625)"/>
      <path id="DejaVuSans-52" d="M 2841 2188 
Q 3044 2119 3236 1894 
Q 3428 1669 3622 1275 
L 4263 0 
L 3584 0 
L 2988 1197 
Q 2756 1666 2539 1819 
Q 2322 1972 1947 1972 
L 1259 1972 
L 1259 0 
L 628 0 
L 628 4666 
L 2053 4666 
Q 2853 4666 3247 4331 
Q 3641 3997 3641 3322 
Q 3641 2881 3436 2590 
Q 3231 2300 2841 2188 
z
M 1259 4147 
L 1259 2491 
L 2053 2491 
Q 2509 2491 2742 2702 
Q 2975 2913 2975 3322 
Q 2975 3731 2742 3939 
Q 2509 4147 2053 4147 
L 1259 4147 
z
" transform="scale(0.015625)"/>
      <path id="DejaVuSans-b2" d="M 838 2444 
L 2163 2444 
L 2163 2088 
L 294 2088 
L 294 2431 
Q 400 2528 597 2703 
Q 1672 3656 1672 3950 
Q 1672 4156 1509 4282 
Q 1347 4409 1081 4409 
Q 919 4409 728 4354 
Q 538 4300 313 4191 
L 313 4575 
Q 553 4663 761 4706 
Q 969 4750 1147 4750 
Q 1600 4750 1872 4544 
Q 2144 4338 2144 4000 
Q 2144 3566 1109 2678 
Q 934 2528 838 2444 
z
" transform="scale(0.015625)"/>
      <path id="DejaVuSans-39" d="M 703 97 
L 703 672 
Q 941 559 1184 500 
Q 1428 441 1663 441 
Q 2288 441 2617 861 
Q 2947 1281 2994 2138 
Q 2813 1869 2534 1725 
Q 2256 1581 1919 1581 
Q 1219 1581 811 2004 
Q 403 2428 403 3163 
Q 403 3881 828 4315 
Q 1253 4750 1959 4750 
Q 2769 4750 3195 4129 
Q 3622 3509 3622 2328 
Q 3622 1225 3098 567 
Q 2575 -91 1691 -91 
Q 1453 -91 1209 -44 
Q 966 3 703 97 
z
M 1959 2075 
Q 2384 2075 2632 2365 
Q 2881 2656 2881 3163 
Q 2881 3666 2632 3958 
Q 2384 4250 1959 4250 
Q 1534 4250 1286 3958 
Q 1038 3666 1038 3163 
Q 1038 2656 1286 2365 
Q 1534 2075 1959 2075 
z
" transform="scale(0.015625)"/>
     </defs>
     <use xlink:href="#DejaVuSans-Oblique-48" transform="translate(0 0.78125)"/>
     <use xlink:href="#DejaVuSans-31" transform="translate(75.195312 -15.625) scale(0.7)"/>
     <use xlink:href="#DejaVuSans-3d" transform="translate(122.46582 0.78125)"/>
     <use xlink:href="#DejaVuSans-33" transform="translate(206.254883 0.78125)"/>
     <use xlink:href="#DejaVuSans-31" transform="translate(269.87793 0.78125)"/>
     <use xlink:href="#DejaVuSans-38" transform="translate(333.500977 0.78125)"/>
     <use xlink:href="#DejaVuSans-2e" transform="translate(397.124023 0.78125)"/>
     <use xlink:href="#DejaVuSans-36" transform="translate(428.911133 0.78125)"/>
     <use xlink:href="#DejaVuSans-32" transform="translate(492.53418 0.78125)"/>
     <use xlink:href="#DejaVuSans-32" transform="translate(556.157227 0.78125)"/>
     <use xlink:href="#DejaVuSans-32" transform="translate(619.780273 0.78125)"/>
     <use xlink:href="#DejaVuSans-20" transform="translate(683.40332 0.78125)"/>
     <use xlink:href="#DejaVuSans-54" transform="translate(715.19043 0.78125)"/>
     <use xlink:href="#DejaVuSans-2c" transform="translate(776.274414 0.78125)"/>
     <use xlink:href="#DejaVuSans-20" transform="translate(808.061523 0.78125)"/>
     <use xlink:href="#DejaVuSans-Oblique-48" transform="translate(839.848633 0.78125)"/>
     <use xlink:href="#DejaVuSans-32" transform="translate(915.043945 -15.625) scale(0.7)"/>
     <use xlink:href="#DejaVuSans-3d" transform="translate(962.314453 0.78125)"/>
     <use xlink:href="#DejaVuSans-33" transform="translate(1046.103516 0.78125)"/>
     <use xlink:href="#DejaVuSans-31" transform="translate(1109.726562 0.78125)"/>
     <use xlink:href="#DejaVuSans-38" transform="translate(1173.349609 0.78125)"/>
     <use xlink:href="#DejaVuSans-2e" transform="translate(1236.972656 0.78125)"/>
     <use xlink:href="#DejaVuSans-36" transform="translate(1268.759766 0.78125)"/>
     <use xlink:href="#DejaVuSans-32" transform="translate(1332.382812 0.78125)"/>
     <use xlink:href="#DejaVuSans-37" transform="translate(1396.005859 0.78125)"/>
     <use xlink:href="#DejaVuSans-30" transform="translate(1459.628906 0.78125)"/>
     <use xlink:href="#DejaVuSans-20" transform="translate(1523.251953 0.78125)"/>
     <use xlink:href="#DejaVuSans-54" transform="translate(1555.039062 0.78125)"/>
     <use xlink:href="#DejaVuSans-2c" transform="translate(1616.123047 0.78125)"/>
     <use xlink:href="#DejaVuSans-20" transform="translate(1647.910156 0.78125)"/>
     <use xlink:href="#DejaVuSans-52" transform="translate(1679.697266 0.78125)"/>
     <use xlink:href="#DejaVuSans-b2" transform="translate(1749.179688 0.78125)"/>
     <use xlink:href="#DejaVuSans-3d" transform="translate(1789.267578 0.78125)"/>
     <use xlink:href="#DejaVuSans-30" transform="translate(1873.056641 0.78125)"/>
     <use xlink:href="#DejaVuSans-2e" transform="translate(1936.679688 0.78125)"/>
     <use xlink:href="#DejaVuSans-39" transform="translate(1968.466797 0.78125)"/>
     <use xlink:href="#DejaVuSans-32" transform="translate(2030.339844 0.78125)"/>
     <use xlink:href="#DejaVuSans-34" transform="translate(2093.962891 0.78125)"/>
    </g>
   </g>
   <g id="legend_1">
    <g id="patch_7">
     <path d="M 287.695781 139.367437 
L 479.436 139.367437 
Q 482.196 139.367437 482.196 136.607438 
L 482.196 77.22 
Q 482.196 74.46 479.436 74.46 
L 287.695781 74.46 
Q 284.935781 74.46 284.935781 77.22 
L 284.935781 136.607438 
Q 284.935781 139.367437 287.695781 139.367437 
z
" style="fill: #ffffff; opacity: 0.8; stroke: #cccccc; stroke-linejoin: miter"/>
    </g>
    <g id="line2d_16">
     <path d="M 290.455781 85.635844 
L 304.255781 85.635844 
L 318.055781 85.635844 
" style="fill: none; stroke: #cc7000; stroke-opacity: 0.7; stroke-width: 1.4; stroke-linecap: square"/>
    </g>
    <g id="text_16">
     <!-- Raw data (curve) -->
     <g transform="translate(329.095781 90.465844) scale(0.138 -0.138)">
      <defs>
       <path id="DejaVuSans-77" d="M 269 3500 
L 844 3500 
L 1563 769 
L 2278 3500 
L 2956 3500 
L 3675 769 
L 4391 3500 
L 4966 3500 
L 4050 0 
L 3372 0 
L 2619 2869 
L 1863 0 
L 1184 0 
L 269 3500 
z
" transform="scale(0.015625)"/>
       <path id="DejaVuSans-76" d="M 191 3500 
L 800 3500 
L 1894 563 
L 2988 3500 
L 3597 3500 
L 2284 0 
L 1503 0 
L 191 3500 
z
" transform="scale(0.015625)"/>
      </defs>
      <use xlink:href="#DejaVuSans-52"/>
      <use xlink:href="#DejaVuSans-61" transform="translate(67.232422 0)"/>
      <use xlink:href="#DejaVuSans-77" transform="translate(128.511719 0)"/>
      <use xlink:href="#DejaVuSans-20" transform="translate(210.298828 0)"/>
      <use xlink:href="#DejaVuSans-64" transform="translate(242.085938 0)"/>
      <use xlink:href="#DejaVuSans-61" transform="translate(305.5625 0)"/>
      <use xlink:href="#DejaVuSans-74" transform="translate(366.841797 0)"/>
      <use xlink:href="#DejaVuSans-61" transform="translate(406.050781 0)"/>
      <use xlink:href="#DejaVuSans-20" transform="translate(467.330078 0)"/>
      <use xlink:href="#DejaVuSans-28" transform="translate(499.117188 0)"/>
      <use xlink:href="#DejaVuSans-63" transform="translate(538.130859 0)"/>
      <use xlink:href="#DejaVuSans-75" transform="translate(593.111328 0)"/>
      <use xlink:href="#DejaVuSans-72" transform="translate(656.490234 0)"/>
      <use xlink:href="#DejaVuSans-76" transform="translate(697.603516 0)"/>
      <use xlink:href="#DejaVuSans-65" transform="translate(756.783203 0)"/>
      <use xlink:href="#DejaVuSans-29" transform="translate(818.306641 0)"/>
     </g>
    </g>
    <g id="line2d_17">
     <path d="M 290.455781 105.891656 
L 304.255781 105.891656 
L 318.055781 105.891656 
" style="fill: none; stroke: #2980b9; stroke-width: 2; stroke-linecap: square"/>
    </g>
    <g id="text_17">
     <!-- Aggregated (median) -->
     <g transform="translate(329.095781 110.721656) scale(0.138 -0.138)">
      <defs>
       <path id="DejaVuSans-67" d="M 2906 1791 
Q 2906 2416 2648 2759 
Q 2391 3103 1925 3103 
Q 1463 3103 1205 2759 
Q 947 2416 947 1791 
Q 947 1169 1205 825 
Q 1463 481 1925 481 
Q 2391 481 2648 825 
Q 2906 1169 2906 1791 
z
M 3481 434 
Q 3481 -459 3084 -895 
Q 2688 -1331 1869 -1331 
Q 1566 -1331 1297 -1286 
Q 1028 -1241 775 -1147 
L 775 -588 
Q 1028 -725 1275 -790 
Q 1522 -856 1778 -856 
Q 2344 -856 2625 -561 
Q 2906 -266 2906 331 
L 2906 616 
Q 2728 306 2450 153 
Q 2172 0 1784 0 
Q 1141 0 747 490 
Q 353 981 353 1791 
Q 353 2603 747 3093 
Q 1141 3584 1784 3584 
Q 2172 3584 2450 3431 
Q 2728 3278 2906 2969 
L 2906 3500 
L 3481 3500 
L 3481 434 
z
" transform="scale(0.015625)"/>
      </defs>
      <use xlink:href="#DejaVuSans-41"/>
      <use xlink:href="#DejaVuSans-67" transform="translate(68.408203 0)"/>
      <use xlink:href="#DejaVuSans-67" transform="translate(131.884766 0)"/>
      <use xlink:href="#DejaVuSans-72" transform="translate(195.361328 0)"/>
      <use xlink:href="#DejaVuSans-65" transform="translate(234.224609 0)"/>
      <use xlink:href="#DejaVuSans-67" transform="translate(295.748047 0)"/>
      <use xlink:href="#DejaVuSans-61" transform="translate(359.224609 0)"/>
      <use xlink:href="#DejaVuSans-74" transform="translate(420.503906 0)"/>
      <use xlink:href="#DejaVuSans-65" transform="translate(459.712891 0)"/>
      <use xlink:href="#DejaVuSans-64" transform="translate(521.236328 0)"/>
      <use xlink:href="#DejaVuSans-20" transform="translate(584.712891 0)"/>
      <use xlink:href="#DejaVuSans-28" transform="translate(616.5 0)"/>
      <use xlink:href="#DejaVuSans-6d" transform="translate(655.513672 0)"/>
      <use xlink:href="#DejaVuSans-65" transform="translate(752.925781 0)"/>
      <use xlink:href="#DejaVuSans-64" transform="translate(814.449219 0)"/>
      <use xlink:href="#DejaVuSans-69" transform="translate(877.925781 0)"/>
      <use xlink:href="#DejaVuSans-61" transform="translate(905.708984 0)"/>
      <use xlink:href="#DejaVuSans-6e" transform="translate(966.988281 0)"/>
      <use xlink:href="#DejaVuSans-29" transform="translate(1030.367188 0)"/>
     </g>
    </g>
    <g id="line2d_18">
     <path d="M 290.455781 126.147469 
L 304.255781 126.147469 
L 318.055781 126.147469 
" style="fill: none; stroke: #ffa500; stroke-width: 2.5; stroke-linecap: square"/>
    </g>
    <g id="text_18">
     <!-- Fit -->
     <g transform="translate(329.095781 130.977469) scale(0.138 -0.138)">
      <defs>
       <path id="DejaVuSans-46" d="M 628 4666 
L 3309 4666 
L 3309 4134 
L 1259 4134 
L 1259 2759 
L 3109 2759 
L 3109 2228 
L 1259 2228 
L 1259 0 
L 628 0 
L 628 4666 
z
" transform="scale(0.015625)"/>
      </defs>
      <use xlink:href="#DejaVuSans-46"/>
      <use xlink:href="#DejaVuSans-69" transform="translate(50.269531 0)"/>
      <use xlink:href="#DejaVuSans-74" transform="translate(78.052734 0)"/>
     </g>
    </g>
   </g>
  </g>
 </g>
 <defs>
  <clipPath id="p95243a06f2">
   <rect x="58.844" y="67.56" width="430.252" height="167.176"/>
  </clipPath>
 </defs>
</svg>
