<?xml version="1.0" encoding="utf-8" standalone="no"?>
<!DOCTYPE svg PUBLIC "-//W3C//DTD SVG 1.1//EN"
  "http://www.w3.org/Graphics/SVG/1.1/DTD/svg11.dtd">
<svg xmlns:xlink="http://www.w3.org/1999/xlink" width="504pt" height="288pt" viewBox="0 0 504 288" xmlns="http://www.w3.org/2000/svg" version="1.1">
 <metadata>
  <rdf:RDF xmlns:dc="http://purl.org/dc/elements/1.1/" xmlns:cc="http://creativecommons.org/ns#" xmlns:rdf="http://www.w3.org/1999/02/22-rdf-syntax-ns#">
   <cc:Work>
    <dc:type rdf:resource="http://purl.org/dc/dcmitype/StillImage"/>
    <dc:date>2025-10-06T17:42:50.614396</dc:date>
    <dc:format>image/svg+xml</dc:format>
    <dc:creator>
     <cc:Agent>
      <dc:title>Matplotlib v3.10.6, https://matplotlib.org/</dc:title>
     </cc:Agent>
    </dc:creator>
   </cc:Work>
  </rdf:RDF>
 </metadata>
 <defs>
  <style type="text/css">*{stroke-linejoin: round; stroke-linecap: butt}</style>
 </defs>
 <g id="figure_1">
  <g id="patch_1">
   <path d="M 0 288 
L 504 288 
L 504 0 
L 0 0 
z
" style="fill: #ffffff"/>
  </g>
  <g id="axes_1">
   <g id="patch_2">
    <path d="M 58.844 234.736 
L 483.169406 234.736 
L 483.169406 67.56 
L 58.844 67.56 
z
" style="fill: #ffffff"/>
   </g>
   <g id="matplotlib.axis_1">
    <g id="xtick_1">
     <g id="line2d_1">
      <defs>
       <path id="m969cd2d7d8" d="M 0 0 
L 0 3.5 
" style="stroke: #000000; stroke-width: 0.8"/>
      </defs>
      <g>
       <use xlink:href="#m969cd2d7d8" x="71.766633" y="234.736" style="stroke: #000000; stroke-width: 0.8"/>
      </g>
     </g>
     <g id="text_1">
      <!-- 342.5 -->
      <g transform="translate(53.659344 251.348023) scale(0.1265 -0.1265)">
       <defs>
        <path id="DejaVuSans-33" d="M 2597 2516 
Q 3050 2419 3304 2112 
Q 3559 1806 3559 1356 
Q 3559 666 3084 287 
Q 2609 -91 1734 -91 
Q 1441 -91 1130 -33 
Q 819 25 488 141 
L 488 750 
Q 750 597 1062 519 
Q 1375 441 1716 441 
Q 2309 441 2620 675 
Q 2931 909 2931 1356 
Q 2931 1769 2642 2001 
Q 2353 2234 1838 2234 
L 1294 2234 
L 1294 2753 
L 1863 2753 
Q 2328 2753 2575 2939 
Q 2822 3125 2822 3475 
Q 2822 3834 2567 4026 
Q 2313 4219 1838 4219 
Q 1578 4219 1281 4162 
Q 984 4106 628 3988 
L 628 4550 
Q 988 4650 1302 4700 
Q 1616 4750 1894 4750 
Q 2613 4750 3031 4423 
Q 3450 4097 3450 3541 
Q 3450 3153 3228 2886 
Q 3006 2619 2597 2516 
z
" transform="scale(0.015625)"/>
        <path id="DejaVuSans-34" d="M 2419 4116 
L 825 1625 
L 2419 1625 
L 2419 4116 
z
M 2253 4666 
L 3047 4666 
L 3047 1625 
L 3713 1625 
L 3713 1100 
L 3047 1100 
L 3047 0 
L 2419 0 
L 2419 1100 
L 313 1100 
L 313 1709 
L 2253 4666 
z
" transform="scale(0.015625)"/>
        <path id="DejaVuSans-32" d="M 1228 531 
L 3431 531 
L 3431 0 
L 469 0 
L 469 531 
Q 828 903 1448 1529 
Q 2069 2156 2228 2338 
Q 2531 2678 2651 2914 
Q 2772 3150 2772 3378 
Q 2772 3750 2511 3984 
Q 2250 4219 1831 4219 
Q 1534 4219 1204 4116 
Q 875 4013 500 3803 
L 500 4441 
Q 881 4594 1212 4672 
Q 1544 4750 1819 4750 
Q 2544 4750 2975 4387 
Q 3406 4025 3406 3419 
Q 3406 3131 3298 2873 
Q 3191 2616 2906 2266 
Q 2828 2175 2409 1742 
Q 1991 1309 1228 531 
z
" transform="scale(0.015625)"/>
        <path id="DejaVuSans-2e" d="M 684 794 
L 1344 794 
L 1344 0 
L 684 0 
L 684 794 
z
" transform="scale(0.015625)"/>
        <path id="DejaVuSans-35" d="M 691 4666 
L 3169 4666 
L 3169 4134 
L 1269 4134 
L 1269 2991 
Q 1406 3038 1543 3061 
Q 1681 3084 1819 3084 
Q 2600 3084 3056 2656 
Q 3513 2228 3513 1497 
Q 3513 744 3044 326 
Q 2575 -91 1722 -91 
Q 1428 -91 1123 -41 
Q 819 9 494 109 
L 494 744 
Q 775 591 1075 516 
Q 1375 441 1709 441 
Q 2250 441 2565 725 
Q 2881 1009 2881 1497 
Q 2881 1984 2565 2268 
Q 2250 2553 1709 2553 
Q 1456 2553 1204 2497 
Q 953 2441 691 2322 
L 691 4666 
z
" transform="scale(0.015625)"/>
       </defs>
       <use xlink:href="#DejaVuSans-33"/>
       <use xlink:href="#DejaVuSans-34" transform="translate(63.623047 0)"/>
       <use xlink:href="#DejaVuSans-32" transform="translate(127.246094 0)"/>
       <use xlink:href="#DejaVuSans-2e" transform="translate(190.869141 0)"/>
       <use xlink:href="#DejaVuSans-35" transform="translate(222.65625 0)"/>
      </g>
     </g>
    </g>
    <g id="xtick_2">
     <g id="line2d_2">
      <g>
       <use xlink:href="#m969cd2d7d8" x="121.679471" y="234.736" style="stroke: #000000; stroke-width: 0.8"/>
      </g>
     </g>
     <g id="text_2">
      <!-- 345.0 -->
      <g transform="translate(103.572182 251.348023) scale(0.1265 -0.1265)">
       <defs>
        <path id="DejaVuSans-30" d="M 2034 4250 
Q 1547 4250 1301 3770 
Q 1056 3291 1056 2328 
Q 1056 1369 1301 889 
Q 1547 409 2034 409 
Q 2525 409 2770 889 
Q 3016 1369 3016 2328 
Q 3016 3291 2770 3770 
Q 2525 4250 2034 4250 
z
M 2034 4750 
Q 2819 4750 3233 4129 
Q 3647 3509 3647 2328 
Q 3647 1150 3233 529 
Q 2819 -91 2034 -91 
Q 1250 -91 836 529 
Q 422 1150 422 2328 
Q 422 3509 836 4129 
Q 1250 4750 2034 4750 
z
" transform="scale(0.015625)"/>
       </defs>
       <use xlink:href="#DejaVuSans-33"/>
       <use xlink:href="#DejaVuSans-34" transform="translate(63.623047 0)"/>
       <use xlink:href="#DejaVuSans-35" transform="translate(127.246094 0)"/>
       <use xlink:href="#DejaVuSans-2e" transform="translate(190.869141 0)"/>
       <use xlink:href="#DejaVuSans-30" transform="translate(222.65625 0)"/>
      </g>
     </g>
    </g>
    <g id="xtick_3">
     <g id="line2d_3">
      <g>
       <use xlink:href="#m969cd2d7d8" x="171.592309" y="234.736" style="stroke: #000000; stroke-width: 0.8"/>
      </g>
     </g>
     <g id="text_3">
      <!-- 347.5 -->
      <g transform="translate(153.48502 251.348023) scale(0.1265 -0.1265)">
       <defs>
        <path id="DejaVuSans-37" d="M 525 4666 
L 3525 4666 
L 3525 4397 
L 1831 0 
L 1172 0 
L 2766 4134 
L 525 4134 
L 525 4666 
z
" transform="scale(0.015625)"/>
       </defs>
       <use xlink:href="#DejaVuSans-33"/>
       <use xlink:href="#DejaVuSans-34" transform="translate(63.623047 0)"/>
       <use xlink:href="#DejaVuSans-37" transform="translate(127.246094 0)"/>
       <use xlink:href="#DejaVuSans-2e" transform="translate(190.869141 0)"/>
       <use xlink:href="#DejaVuSans-35" transform="translate(222.65625 0)"/>
      </g>
     </g>
    </g>
    <g id="xtick_4">
     <g id="line2d_4">
      <g>
       <use xlink:href="#m969cd2d7d8" x="221.505147" y="234.736" style="stroke: #000000; stroke-width: 0.8"/>
      </g>
     </g>
     <g id="text_4">
      <!-- 350.0 -->
      <g transform="translate(203.397858 251.348023) scale(0.1265 -0.1265)">
       <use xlink:href="#DejaVuSans-33"/>
       <use xlink:href="#DejaVuSans-35" transform="translate(63.623047 0)"/>
       <use xlink:href="#DejaVuSans-30" transform="translate(127.246094 0)"/>
       <use xlink:href="#DejaVuSans-2e" transform="translate(190.869141 0)"/>
       <use xlink:href="#DejaVuSans-30" transform="translate(222.65625 0)"/>
      </g>
     </g>
    </g>
    <g id="xtick_5">
     <g id="line2d_5">
      <g>
       <use xlink:href="#m969cd2d7d8" x="271.417985" y="234.736" style="stroke: #000000; stroke-width: 0.8"/>
      </g>
     </g>
     <g id="text_5">
      <!-- 352.5 -->
      <g transform="translate(253.310696 251.348023) scale(0.1265 -0.1265)">
       <use xlink:href="#DejaVuSans-33"/>
       <use xlink:href="#DejaVuSans-35" transform="translate(63.623047 0)"/>
       <use xlink:href="#DejaVuSans-32" transform="translate(127.246094 0)"/>
       <use xlink:href="#DejaVuSans-2e" transform="translate(190.869141 0)"/>
       <use xlink:href="#DejaVuSans-35" transform="translate(222.65625 0)"/>
      </g>
     </g>
    </g>
    <g id="xtick_6">
     <g id="line2d_6">
      <g>
       <use xlink:href="#m969cd2d7d8" x="321.330823" y="234.736" style="stroke: #000000; stroke-width: 0.8"/>
      </g>
     </g>
     <g id="text_6">
      <!-- 355.0 -->
      <g transform="translate(303.223534 251.348023) scale(0.1265 -0.1265)">
       <use xlink:href="#DejaVuSans-33"/>
       <use xlink:href="#DejaVuSans-35" transform="translate(63.623047 0)"/>
       <use xlink:href="#DejaVuSans-35" transform="translate(127.246094 0)"/>
       <use xlink:href="#DejaVuSans-2e" transform="translate(190.869141 0)"/>
       <use xlink:href="#DejaVuSans-30" transform="translate(222.65625 0)"/>
      </g>
     </g>
    </g>
    <g id="xtick_7">
     <g id="line2d_7">
      <g>
       <use xlink:href="#m969cd2d7d8" x="371.24366" y="234.736" style="stroke: #000000; stroke-width: 0.8"/>
      </g>
     </g>
     <g id="text_7">
      <!-- 357.5 -->
      <g transform="translate(353.136371 251.348023) scale(0.1265 -0.1265)">
       <use xlink:href="#DejaVuSans-33"/>
       <use xlink:href="#DejaVuSans-35" transform="translate(63.623047 0)"/>
       <use xlink:href="#DejaVuSans-37" transform="translate(127.246094 0)"/>
       <use xlink:href="#DejaVuSans-2e" transform="translate(190.869141 0)"/>
       <use xlink:href="#DejaVuSans-35" transform="translate(222.65625 0)"/>
      </g>
     </g>
    </g>
    <g id="xtick_8">
     <g id="line2d_8">
      <g>
       <use xlink:href="#m969cd2d7d8" x="421.156498" y="234.736" style="stroke: #000000; stroke-width: 0.8"/>
      </g>
     </g>
     <g id="text_8">
      <!-- 360.0 -->
      <g transform="translate(403.049209 251.348023) scale(0.1265 -0.1265)">
       <defs>
        <path id="DejaVuSans-36" d="M 2113 2584 
Q 1688 2584 1439 2293 
Q 1191 2003 1191 1497 
Q 1191 994 1439 701 
Q 1688 409 2113 409 
Q 2538 409 2786 701 
Q 3034 994 3034 1497 
Q 3034 2003 2786 2293 
Q 2538 2584 2113 2584 
z
M 3366 4563 
L 3366 3988 
Q 3128 4100 2886 4159 
Q 2644 4219 2406 4219 
Q 1781 4219 1451 3797 
Q 1122 3375 1075 2522 
Q 1259 2794 1537 2939 
Q 1816 3084 2150 3084 
Q 2853 3084 3261 2657 
Q 3669 2231 3669 1497 
Q 3669 778 3244 343 
Q 2819 -91 2113 -91 
Q 1303 -91 875 529 
Q 447 1150 447 2328 
Q 447 3434 972 4092 
Q 1497 4750 2381 4750 
Q 2619 4750 2861 4703 
Q 3103 4656 3366 4563 
z
" transform="scale(0.015625)"/>
       </defs>
       <use xlink:href="#DejaVuSans-33"/>
       <use xlink:href="#DejaVuSans-36" transform="translate(63.623047 0)"/>
       <use xlink:href="#DejaVuSans-30" transform="translate(127.246094 0)"/>
       <use xlink:href="#DejaVuSans-2e" transform="translate(190.869141 0)"/>
       <use xlink:href="#DejaVuSans-30" transform="translate(222.65625 0)"/>
      </g>
     </g>
    </g>
    <g id="xtick_9">
     <g id="line2d_9">
      <g>
       <use xlink:href="#m969cd2d7d8" x="471.069336" y="234.736" style="stroke: #000000; stroke-width: 0.8"/>
      </g>
     </g>
     <g id="text_9">
      <!-- 362.5 -->
      <g transform="translate(452.962047 251.348023) scale(0.1265 -0.1265)">
       <use xlink:href="#DejaVuSans-33"/>
       <use xlink:href="#DejaVuSans-36" transform="translate(63.623047 0)"/>
       <use xlink:href="#DejaVuSans-32" transform="translate(127.246094 0)"/>
       <use xlink:href="#DejaVuSans-2e" transform="translate(190.869141 0)"/>
       <use xlink:href="#DejaVuSans-35" transform="translate(222.65625 0)"/>
      </g>
     </g>
    </g>
    <g id="text_10">
     <!-- H (T) -->
     <g transform="translate(252.611195 269.338492) scale(0.1495 -0.1495)">
      <defs>
       <path id="DejaVuSans-48" d="M 628 4666 
L 1259 4666 
L 1259 2753 
L 3553 2753 
L 3553 4666 
L 4184 4666 
L 4184 0 
L 3553 0 
L 3553 2222 
L 1259 2222 
L 1259 0 
L 628 0 
L 628 4666 
z
" transform="scale(0.015625)"/>
       <path id="DejaVuSans-20" transform="scale(0.015625)"/>
       <path id="DejaVuSans-28" d="M 1984 4856 
Q 1566 4138 1362 3434 
Q 1159 2731 1159 2009 
Q 1159 1288 1364 580 
Q 1569 -128 1984 -844 
L 1484 -844 
Q 1016 -109 783 600 
Q 550 1309 550 2009 
Q 550 2706 781 3412 
Q 1013 4119 1484 4856 
L 1984 4856 
z
" transform="scale(0.015625)"/>
       <path id="DejaVuSans-54" d="M -19 4666 
L 3928 4666 
L 3928 4134 
L 2272 4134 
L 2272 0 
L 1638 0 
L 1638 4134 
L -19 4134 
L -19 4666 
z
" transform="scale(0.015625)"/>
       <path id="DejaVuSans-29" d="M 513 4856 
L 1013 4856 
Q 1481 4119 1714 3412 
Q 1947 2706 1947 2009 
Q 1947 1309 1714 600 
Q 1481 -109 1013 -844 
L 513 -844 
Q 928 -128 1133 580 
Q 1338 1288 1338 2009 
Q 1338 2731 1133 3434 
Q 928 4138 513 4856 
z
" transform="scale(0.015625)"/>
      </defs>
      <use xlink:href="#DejaVuSans-48"/>
      <use xlink:href="#DejaVuSans-20" transform="translate(75.195312 0)"/>
      <use xlink:href="#DejaVuSans-28" transform="translate(106.982422 0)"/>
      <use xlink:href="#DejaVuSans-54" transform="translate(145.996094 0)"/>
      <use xlink:href="#DejaVuSans-29" transform="translate(207.080078 0)"/>
     </g>
    </g>
   </g>
   <g id="matplotlib.axis_2">
    <g id="ytick_1">
     <g id="line2d_10">
      <defs>
       <path id="m5cdd044315" d="M 0 0 
L -3.5 0 
" style="stroke: #000000; stroke-width: 0.8"/>
      </defs>
      <g>
       <use xlink:href="#m5cdd044315" x="58.844" y="223.180195" style="stroke: #000000; stroke-width: 0.8"/>
      </g>
     </g>
     <g id="text_11">
      <!-- −2 -->
      <g transform="translate(33.195133 227.986207) scale(0.1265 -0.1265)">
       <defs>
        <path id="DejaVuSans-2212" d="M 678 2272 
L 4684 2272 
L 4684 1741 
L 678 1741 
L 678 2272 
z
" transform="scale(0.015625)"/>
       </defs>
       <use xlink:href="#DejaVuSans-2212"/>
       <use xlink:href="#DejaVuSans-32" transform="translate(83.789062 0)"/>
      </g>
     </g>
    </g>
    <g id="ytick_2">
     <g id="line2d_11">
      <g>
       <use xlink:href="#m5cdd044315" x="58.844" y="182.086458" style="stroke: #000000; stroke-width: 0.8"/>
      </g>
     </g>
     <g id="text_12">
      <!-- 0 -->
      <g transform="translate(43.795438 186.89247) scale(0.1265 -0.1265)">
       <use xlink:href="#DejaVuSans-30"/>
      </g>
     </g>
    </g>
    <g id="ytick_3">
     <g id="line2d_12">
      <g>
       <use xlink:href="#m5cdd044315" x="58.844" y="140.99272" style="stroke: #000000; stroke-width: 0.8"/>
      </g>
     </g>
     <g id="text_13">
      <!-- 2 -->
      <g transform="translate(43.795438 145.798732) scale(0.1265 -0.1265)">
       <use xlink:href="#DejaVuSans-32"/>
      </g>
     </g>
    </g>
    <g id="ytick_4">
     <g id="line2d_13">
      <g>
       <use xlink:href="#m5cdd044315" x="58.844" y="99.898983" style="stroke: #000000; stroke-width: 0.8"/>
      </g>
     </g>
     <g id="text_14">
      <!-- 4 -->
      <g transform="translate(43.795438 104.704995) scale(0.1265 -0.1265)">
       <use xlink:href="#DejaVuSans-34"/>
      </g>
     </g>
    </g>
    <g id="text_15">
     <!-- dP/dH -->
     <g transform="translate(26.086 173.28568) rotate(-90) scale(0.1495 -0.1495)">
      <defs>
       <path id="DejaVuSans-64" d="M 2906 2969 
L 2906 4863 
L 3481 4863 
L 3481 0 
L 2906 0 
L 2906 525 
Q 2725 213 2448 61 
Q 2172 -91 1784 -91 
Q 1150 -91 751 415 
Q 353 922 353 1747 
Q 353 2572 751 3078 
Q 1150 3584 1784 3584 
Q 2172 3584 2448 3432 
Q 2725 3281 2906 2969 
z
M 947 1747 
Q 947 1113 1208 752 
Q 1469 391 1925 391 
Q 2381 391 2643 752 
Q 2906 1113 2906 1747 
Q 2906 2381 2643 2742 
Q 2381 3103 1925 3103 
Q 1469 3103 1208 2742 
Q 947 2381 947 1747 
z
" transform="scale(0.015625)"/>
       <path id="DejaVuSans-50" d="M 1259 4147 
L 1259 2394 
L 2053 2394 
Q 2494 2394 2734 2622 
Q 2975 2850 2975 3272 
Q 2975 3691 2734 3919 
Q 2494 4147 2053 4147 
L 1259 4147 
z
M 628 4666 
L 2053 4666 
Q 2838 4666 3239 4311 
Q 3641 3956 3641 3272 
Q 3641 2581 3239 2228 
Q 2838 1875 2053 1875 
L 1259 1875 
L 1259 0 
L 628 0 
L 628 4666 
z
" transform="scale(0.015625)"/>
       <path id="DejaVuSans-2f" d="M 1625 4666 
L 2156 4666 
L 531 -594 
L 0 -594 
L 1625 4666 
z
" transform="scale(0.015625)"/>
      </defs>
      <use xlink:href="#DejaVuSans-64"/>
      <use xlink:href="#DejaVuSans-50" transform="translate(63.476562 0)"/>
      <use xlink:href="#DejaVuSans-2f" transform="translate(123.779297 0)"/>
      <use xlink:href="#DejaVuSans-64" transform="translate(157.470703 0)"/>
      <use xlink:href="#DejaVuSans-48" transform="translate(220.947266 0)"/>
     </g>
    </g>
   </g>
   <g id="line2d_14">
    <path d="M 78.131518 183.097878 
L 80.703188 183.130999 
L 80.703188 184.647296 
L 80.703188 183.203817 
L 83.274857 184.402316 
L 83.274857 182.740321 
L 83.274857 183.574627 
L 85.846526 184.355962 
L 85.846526 182.058309 
L 85.846526 183.713688 
L 88.418195 184.733388 
L 88.418195 184.197053 
L 88.418195 184.985005 
L 90.989864 185.488239 
L 90.989864 184.925398 
L 93.561533 185.349177 
L 93.561533 181.131296 
L 93.561533 186.739687 
L 96.133202 186.408615 
L 96.133202 186.560908 
L 96.133202 185.600794 
L 96.133202 186.454969 
L 98.704871 186.905233 
L 98.704871 187.302507 
L 98.704871 186.461585 
L 101.276541 187.017789 
L 101.276541 187.15685 
L 101.276541 186.878748 
L 103.84821 187.799124 
L 103.84821 187.309143 
L 103.84821 190.222586 
L 106.419879 187.964671 
L 106.419879 186.991304 
L 106.419879 187.136981 
L 108.991548 185.494855 
L 108.991548 187.441568 
L 111.563217 186.123897 
L 111.563217 186.739687 
L 111.563217 185.223369 
L 114.134886 186.243089 
L 114.134886 184.845943 
L 114.134886 185.554441 
L 116.706555 183.627596 
L 116.706555 184.64068 
L 119.278224 183.071393 
L 119.278224 184.104345 
L 119.278224 182.819776 
L 119.278224 183.488556 
L 121.849894 183.236939 
L 121.849894 183.084645 
L 121.849894 183.601111 
L 124.421563 183.296525 
L 124.421563 181.707368 
L 124.421563 182.343027 
L 126.993232 183.501788 
L 126.993232 182.376148 
L 126.993232 183.448818 
L 129.564901 183.455434 
L 129.564901 183.501788 
L 129.564901 182.237087 
L 132.13657 183.938799 
L 132.13657 182.521805 
L 132.13657 183.488556 
L 134.708239 180.906184 
L 134.708239 183.640849 
L 134.708239 182.376148 
L 137.279908 182.217218 
L 137.279908 181.568328 
L 139.851577 182.475472 
L 139.851577 181.773591 
L 139.851577 182.647613 
L 139.851577 182.263572 
L 142.423247 182.111279 
L 142.423247 183.190585 
L 144.994916 183.084645 
L 144.994916 183.72692 
L 144.994916 182.667482 
L 144.994916 182.713836 
L 147.566585 182.753574 
L 147.566585 186.322544 
L 147.566585 183.462071 
L 150.138254 182.799907 
L 150.138254 182.316542 
L 150.138254 185.322692 
L 152.709923 181.608045 
L 152.709923 182.117895 
L 152.709923 182.111279 
L 155.281592 181.872914 
L 155.281592 181.296842 
L 155.281592 183.144231 
L 157.853261 182.561543 
L 157.853261 183.932183 
L 157.853261 182.316542 
L 157.853261 183.846112 
L 160.424931 183.21707 
L 160.424931 182.700583 
L 160.424931 183.77989 
L 162.9966 182.49532 
L 162.9966 181.846429 
L 162.9966 182.9522 
L 165.568269 183.587879 
L 165.568269 179.886464 
L 165.568269 184.475155 
L 168.139938 183.932183 
L 168.139938 183.938799 
L 168.139938 181.819944 
L 170.711607 181.561691 
L 170.711607 185.753088 
L 173.283276 183.932183 
L 173.283276 183.468687 
L 173.283276 186.673485 
L 175.854945 183.978537 
L 175.854945 184.627448 
L 175.854945 183.812991 
L 178.426614 184.064608 
L 178.426614 183.786506 
L 178.426614 184.349346 
L 180.998284 184.362578 
L 180.998284 184.965136 
L 180.998284 184.057992 
L 183.569953 185.024722 
L 183.569953 183.885829 
L 183.569953 184.58771 
L 186.141622 184.190416 
L 186.141622 182.177501 
L 186.141622 184.23677 
L 188.713291 184.826095 
L 188.713291 182.60128 
L 188.713291 186.223221 
L 188.713291 183.786506 
L 191.28496 187.057526 
L 191.28496 184.647296 
L 191.28496 184.660549 
L 193.856629 186.521191 
L 193.856629 185.229985 
L 193.856629 188.116964 
L 196.428298 185.885512 
L 196.428298 184.925398 
L 198.999967 183.455434 
L 198.999967 186.156998 
L 198.999967 185.706734 
L 201.571637 184.627448 
L 201.571637 184.720135 
L 201.571637 185.971604 
L 201.571637 183.753405 
L 204.143306 184.733388 
L 204.143306 185.786189 
L 204.143306 184.58771 
L 204.143306 184.680418 
L 206.714975 183.574627 
L 206.714975 183.448818 
L 206.714975 188.030873 
L 209.286644 183.932183 
L 209.286644 184.203669 
L 209.286644 182.985322 
L 209.286644 184.018275 
L 211.858313 183.548142 
L 211.858313 184.812842 
L 211.858313 183.210454 
L 211.858313 183.932183 
L 214.429982 184.309609 
L 214.429982 184.250023 
L 214.429982 184.90555 
L 214.429982 184.137446 
L 217.001651 184.1838 
L 217.001651 184.302992 
L 217.001651 180.820093 
L 219.57332 185.739856 
L 219.57332 184.600963 
L 219.57332 184.932035 
L 222.14499 187.779256 
L 222.14499 185.845795 
L 224.716659 191.50052 
L 224.716659 188.156681 
L 224.716659 190.441082 
L 227.288328 197.824003 
L 227.288328 192.142794 
L 229.859997 204.849368 
L 229.859997 204.505044 
L 229.859997 200.346789 
L 232.431666 210.040576 
L 232.431666 211.616459 
L 232.431666 205.796229 
L 232.431666 206.988092 
L 235.003335 211.450933 
L 235.003335 210.610012 
L 235.003335 210.802022 
L 237.575004 202.564967 
L 237.575004 209.292341 
L 240.146673 194.890712 
L 240.146673 199.936242 
L 242.718343 191.738884 
L 242.718343 194.950298 
L 245.290012 194.798004 
L 245.290012 191.089993 
L 247.861681 198.843703 
L 247.861681 195.731633 
L 250.43335 203.200626 
L 250.43335 205.763128 
L 250.43335 201.214196 
L 253.005019 205.061247 
L 253.005019 206.04121 
L 253.005019 204.028295 
L 255.576688 204.101133 
L 255.576688 200.704346 
L 255.576688 201.008932 
L 258.148357 198.737764 
L 258.148357 197.843872 
L 258.148357 200.194496 
L 260.720026 198.472915 
L 260.720026 196.685111 
L 263.291696 203.220495 
L 263.291696 202.988726 
L 263.291696 194.764903 
L 265.863365 214.92056 
L 265.863365 207.425103 
L 268.435034 225.349308 
L 268.435034 224.79972 
L 268.435034 216.90699 
L 271.006703 227.137091 
L 271.006703 222.978836 
L 271.006703 225.249984 
L 273.578372 225.759834 
L 273.578372 225.686996 
L 273.578372 215.158924 
L 276.150041 207.908468 
L 276.150041 185.660401 
L 278.72171 175.450066 
L 278.72171 140.117609 
L 281.293379 125.569974 
L 281.293379 97.090185 
L 283.865049 89.89237 
L 283.865049 76.052862 
L 286.436718 75.158909 
L 286.436718 75.165546 
L 286.436718 82.767353 
L 289.008387 88.124374 
L 289.008387 112.492241 
L 291.580056 119.968075 
L 291.580056 141.349229 
L 294.151725 147.335107 
L 294.151725 162.266661 
L 296.723394 165.855521 
L 296.723394 171.927449 
L 299.295063 173.159028 
L 299.295063 177.277607 
L 301.866732 176.913414 
L 301.866732 178.886632 
L 304.438402 182.846261 
L 304.438402 179.17135 
L 304.438402 180.369829 
L 307.010071 180.773739 
L 307.010071 180.204303 
L 307.010071 181.667651 
L 309.58174 181.045225 
L 309.58174 181.939116 
L 309.58174 181.310074 
L 312.153409 181.939116 
L 312.153409 182.237087 
L 312.153409 181.813308 
L 314.725078 182.184117 
L 314.725078 181.707368 
L 314.725078 182.051693 
L 317.296747 181.939116 
L 317.296747 182.30331 
L 317.296747 180.939285 
L 317.296747 182.25034 
L 319.868416 175.536157 
L 319.868416 182.19737 
L 319.868416 180.707537 
L 322.440085 182.243703 
L 322.440085 182.415865 
L 322.440085 181.939116 
L 325.011755 182.799907 
L 325.011755 180.495637 
L 327.583424 181.296842 
L 327.583424 182.296693 
L 327.583424 180.588345 
L 327.583424 181.906015 
L 330.155093 182.058309 
L 330.155093 182.991938 
L 330.155093 182.151016 
L 332.726762 182.14438 
L 332.726762 182.290057 
L 332.726762 181.376297 
L 335.298431 182.508573 
L 335.298431 183.031676 
L 335.298431 182.157632 
L 335.298431 182.938968 
L 337.8701 183.422333 
L 337.8701 182.409249 
L 337.8701 182.561543 
L 340.441769 182.81316 
L 340.441769 183.819627 
L 340.441769 179.78714 
L 340.441769 182.535058 
L 343.013438 181.608045 
L 343.013438 183.713688 
L 343.013438 181.594812 
L 345.585108 182.071561 
L 345.585108 182.81316 
L 345.585108 182.621129 
L 348.156777 184.574478 
L 348.156777 181.025356 
L 348.156777 181.336579 
L 350.728446 182.621129 
L 350.728446 181.608045 
L 350.728446 183.647465 
L 350.728446 182.713836 
L 353.300115 182.131147 
L 353.300115 181.859662 
L 353.300115 183.223686 
L 353.300115 182.872745 
L 355.871784 181.270357 
L 355.871784 182.766806 
L 358.443453 182.395997 
L 358.443453 182.535058 
L 358.443453 182.515189 
L 361.015122 182.70722 
L 361.015122 183.316393 
L 361.015122 181.760338 
L 363.586792 184.051376 
L 363.586792 189.527322 
L 363.586792 182.640997 
L 366.158461 181.972238 
L 366.158461 184.461902 
L 368.73013 182.157632 
L 368.73013 183.660697 
L 368.73013 182.44235 
L 371.301799 182.680735 
L 371.301799 183.236939 
L 373.873468 182.376148 
L 373.873468 183.117746 
L 373.873468 182.799907 
L 376.445137 183.826243 
L 376.445137 182.607896 
L 376.445137 183.654081 
L 379.016806 181.906015 
L 379.016806 182.349663 
L 381.588475 183.084645 
L 381.588475 183.051524 
L 381.588475 182.382764 
L 384.160145 182.435734 
L 384.160145 183.018423 
L 384.160145 182.634381 
L 386.731814 182.660866 
L 386.731814 187.785872 
L 386.731814 181.303458 
L 386.731814 182.786675 
L 389.303483 184.44867 
L 389.303483 182.151016 
L 391.875152 183.627596 
L 391.875152 181.343195 
L 391.875152 182.740321 
L 394.446821 183.753405 
L 394.446821 181.276973 
L 394.446821 183.097878 
L 397.01849 182.806543 
L 397.01849 181.12468 
L 397.01849 183.21707 
L 399.590159 182.435734 
L 399.590159 183.137615 
L 399.590159 182.19737 
L 402.161828 182.111279 
L 402.161828 183.031676 
L 402.161828 182.568159 
L 404.733498 182.667482 
L 404.733498 182.468835 
L 404.733498 183.336262 
L 407.305167 182.859513 
L 407.305167 183.395848 
L 407.305167 181.627913 
L 409.876836 182.667482 
L 409.876836 180.661183 
L 409.876836 183.230302 
L 409.876836 182.627765 
L 412.448505 182.919099 
L 412.448505 182.243703 
L 415.020174 182.025208 
L 415.020174 184.024891 
L 417.591843 179.614978 
L 417.591843 182.998554 
L 417.591843 181.363064 
L 420.163512 182.687351 
L 420.163512 182.362895 
L 420.163512 184.69365 
L 420.163512 182.806543 
L 422.735181 182.680735 
L 422.735181 184.806226 
L 422.735181 182.415865 
L 422.735181 182.687351 
L 425.306851 182.872745 
L 425.306851 182.084794 
L 425.306851 182.343027 
L 427.87852 182.475472 
L 427.87852 182.448987 
L 427.87852 183.071393 
L 427.87852 182.561543 
L 430.450189 182.124531 
L 430.450189 184.34271 
L 430.450189 182.70722 
L 433.021858 182.607896 
L 433.021858 181.978854 
L 433.021858 183.210454 
L 435.593527 179.131613 
L 435.593527 185.647148 
L 438.165196 182.713836 
L 438.165196 183.375979 
L 438.165196 179.641463 
L 440.736865 181.925884 
L 440.736865 183.56801 
L 440.736865 182.508573 
L 443.308534 182.614512 
L 443.308534 183.091261 
L 443.308534 182.09141 
L 443.308534 182.409249 
L 445.880204 183.250171 
L 445.880204 183.455434 
L 445.880204 182.879382 
L 445.880204 183.276656 
L 448.451873 181.555075 
L 448.451873 183.336262 
L 448.451873 182.70722 
L 451.023542 182.687351 
L 451.023542 184.296376 
L 451.023542 182.786675 
L 453.595211 181.515358 
L 453.595211 182.985322 
L 456.16688 181.747106 
L 456.16688 182.740321 
L 456.16688 180.945901 
L 456.16688 181.296842 
L 458.738549 182.131147 
L 458.738549 181.899399 
L 458.738549 183.342878 
L 458.738549 182.720452 
L 461.310218 182.687351 
L 461.310218 181.800076 
L 461.310218 182.38938 
L 463.881887 182.660866 
L 463.881887 182.65425 
L 463.881887 183.501788 
L 463.881887 182.554927 
L 463.881887 182.958837 
" clip-path="url(#p2cd04f09ad)" style="fill: none; stroke: #cc7000; stroke-opacity: 0.7; stroke-width: 1.4; stroke-linecap: square"/>
   </g>
   <g id="line2d_15">
    <path d="M 78.131518 183.097878 
L 80.703188 183.167408 
L 83.274857 183.448818 
L 85.846526 184.001714 
L 88.418195 184.773115 
L 90.989864 185.064449 
L 98.704871 187.087319 
L 101.276541 187.074077 
L 103.84821 187.600477 
L 108.991548 186.719828 
L 111.563217 185.902073 
L 114.134886 185.335935 
L 116.706555 184.13083 
L 119.278224 183.279974 
L 121.849894 183.263424 
L 124.421563 182.819776 
L 126.993232 183.465369 
L 129.564901 183.174024 
L 132.13657 183.515041 
L 134.708239 182.121213 
L 137.279908 182.041758 
L 139.851577 182.369522 
L 142.423247 182.402633 
L 147.566585 183.309777 
L 150.138254 183.034973 
L 152.709923 181.912631 
L 155.281592 182.180809 
L 157.853261 183.203827 
L 160.424931 183.21707 
L 162.9966 182.637689 
L 165.568269 183.776592 
L 168.139938 183.816309 
L 173.283276 184.875747 
L 175.854945 184.048067 
L 178.426614 183.981845 
L 180.998284 184.352644 
L 183.569953 184.276508 
L 186.141622 183.640839 
L 188.713291 184.306301 
L 191.28496 184.826085 
L 193.856629 185.898765 
L 196.428298 185.213445 
L 198.999967 185.488228 
L 201.571637 184.673792 
L 204.143306 184.706903 
L 206.714975 184.163942 
L 211.858313 183.740162 
L 214.429982 184.279816 
L 217.001651 182.929034 
L 222.14499 186.630439 
L 224.716659 189.964343 
L 227.288328 194.900636 
L 229.859997 202.972186 
L 232.431666 208.514334 
L 235.003335 210.782163 
L 237.575004 205.024828 
L 240.146673 196.969839 
L 242.718343 192.341451 
L 245.290012 193.043322 
L 247.861681 198.078939 
L 250.43335 202.674215 
L 253.005019 205.028136 
L 255.576688 202.078294 
L 258.148357 198.466288 
L 260.720026 197.433346 
L 263.291696 201.263847 
L 265.863365 211.100003 
L 268.435034 222.753704 
L 271.006703 226.08428 
L 273.578372 222.482229 
L 276.150041 198.502697 
L 278.72171 159.065161 
L 281.293379 111.664521 
L 283.865049 81.598616 
L 286.436718 77.029578 
L 289.008387 100.665905 
L 291.580056 130.933467 
L 294.151725 155.761029 
L 296.723394 170.225716 
L 301.866732 178.27413 
L 304.438402 180.118212 
L 307.010071 180.992255 
L 312.153409 181.912631 
L 317.296747 182.094728 
L 319.868416 181.366372 
L 322.440085 182.190733 
L 325.011755 182.078178 
L 327.583424 181.601429 
L 330.155093 182.558235 
L 332.726762 181.836485 
L 335.298431 182.72377 
L 337.8701 182.899241 
L 340.441769 182.674109 
L 343.013438 182.071551 
L 345.585108 182.631063 
L 348.156777 181.932511 
L 350.728446 182.667482 
L 353.300115 182.501946 
L 358.443453 182.501946 
L 361.015122 182.432426 
L 363.586792 183.475303 
L 366.158461 182.223845 
L 368.73013 182.697275 
L 371.301799 182.965453 
L 373.873468 182.733695 
L 376.445137 183.488545 
L 379.016806 182.230471 
L 381.588475 182.895922 
L 386.731814 182.72377 
L 391.875152 182.766806 
L 394.446821 182.65424 
L 397.01849 182.405941 
L 399.590159 182.538366 
L 402.161828 182.462219 
L 404.733498 182.919099 
L 407.305167 182.677417 
L 412.448505 182.637689 
L 415.020174 182.809852 
L 417.591843 181.922576 
L 420.163512 182.746947 
L 422.735181 182.684043 
L 425.306851 182.273506 
L 427.87852 182.518507 
L 430.450189 182.4258 
L 435.593527 182.551608 
L 438.165196 182.819776 
L 440.736865 182.561543 
L 443.308534 182.511881 
L 445.880204 183.263413 
L 448.451873 182.60127 
L 451.023542 183.160782 
L 453.595211 182.823094 
L 456.16688 181.521974 
L 458.738549 182.4258 
L 461.310218 182.151006 
L 463.881887 182.660866 
L 463.881887 182.660866 
" clip-path="url(#p2cd04f09ad)" style="fill: none; stroke: #2980b9; stroke-width: 2; stroke-linecap: square"/>
   </g>
   <g id="line2d_16">
    <path d="M 78.131518 183.424738 
L 121.849894 184.180895 
L 152.709923 184.929392 
L 173.283276 185.627761 
L 188.713291 186.344099 
L 201.571637 187.157251 
L 211.858313 188.040978 
L 219.57332 188.918737 
L 224.716659 189.654367 
L 229.859997 190.558251 
L 235.003335 191.693413 
L 240.146673 193.155738 
L 242.718343 194.053661 
L 245.290012 195.096032 
L 247.861681 196.316662 
L 250.43335 197.759112 
L 253.005019 199.479511 
L 255.576688 201.549496 
L 258.148357 204.057725 
L 260.720026 207.104946 
L 263.291696 210.777572 
L 268.435034 219.527644 
L 271.006703 222.589278 
L 273.578372 219.581329 
L 276.150041 200.929542 
L 278.72171 159.563688 
L 281.293379 110.869104 
L 283.865049 80.946301 
L 286.436718 78.521934 
L 289.008387 99.875977 
L 291.580056 130.911059 
L 294.151725 155.453022 
L 296.723394 169.411364 
L 299.295063 176.207058 
L 301.866732 179.310423 
L 304.438402 180.678416 
L 307.010071 181.253435 
L 309.58174 181.471227 
L 314.725078 181.530814 
L 330.155093 181.476474 
L 348.156777 181.716808 
L 435.593527 183.171099 
L 463.881887 183.533247 
L 463.881887 183.533247 
" clip-path="url(#p2cd04f09ad)" style="fill: none; stroke: #ffa500; stroke-width: 2.5; stroke-linecap: square"/>
   </g>
   <g id="patch_3">
    <path d="M 58.844 234.736 
L 58.844 67.56 
" style="fill: none; stroke: #000000; stroke-width: 0.8; stroke-linejoin: miter; stroke-linecap: square"/>
   </g>
   <g id="patch_4">
    <path d="M 483.169406 234.736 
L 483.169406 67.56 
" style="fill: none; stroke: #000000; stroke-width: 0.8; stroke-linejoin: miter; stroke-linecap: square"/>
   </g>
   <g id="patch_5">
    <path d="M 58.844 234.736 
L 483.169406 234.736 
" style="fill: none; stroke: #000000; stroke-width: 0.8; stroke-linejoin: miter; stroke-linecap: square"/>
   </g>
   <g id="patch_6">
    <path d="M 58.844 67.56 
L 483.169406 67.56 
" style="fill: none; stroke: #000000; stroke-width: 0.8; stroke-linejoin: miter; stroke-linecap: square"/>
   </g>
   <g id="text_16">
    <!-- AZ5, f=13 GHz, 10 dB -->
    <g transform="translate(182.296961 25.503044) scale(0.161 -0.161)">
     <defs>
      <path id="DejaVuSans-41" d="M 2188 4044 
L 1331 1722 
L 3047 1722 
L 2188 4044 
z
M 1831 4666 
L 2547 4666 
L 4325 0 
L 3669 0 
L 3244 1197 
L 1141 1197 
L 716 0 
L 50 0 
L 1831 4666 
z
" transform="scale(0.015625)"/>
      <path id="DejaVuSans-5a" d="M 359 4666 
L 4025 4666 
L 4025 4184 
L 1075 531 
L 4097 531 
L 4097 0 
L 288 0 
L 288 481 
L 3238 4134 
L 359 4134 
L 359 4666 
z
" transform="scale(0.015625)"/>
      <path id="DejaVuSans-2c" d="M 750 794 
L 1409 794 
L 1409 256 
L 897 -744 
L 494 -744 
L 750 256 
L 750 794 
z
" transform="scale(0.015625)"/>
      <path id="DejaVuSans-66" d="M 2375 4863 
L 2375 4384 
L 1825 4384 
Q 1516 4384 1395 4259 
Q 1275 4134 1275 3809 
L 1275 3500 
L 2222 3500 
L 2222 3053 
L 1275 3053 
L 1275 0 
L 697 0 
L 697 3053 
L 147 3053 
L 147 3500 
L 697 3500 
L 697 3744 
Q 697 4328 969 4595 
Q 1241 4863 1831 4863 
L 2375 4863 
z
" transform="scale(0.015625)"/>
      <path id="DejaVuSans-3d" d="M 678 2906 
L 4684 2906 
L 4684 2381 
L 678 2381 
L 678 2906 
z
M 678 1631 
L 4684 1631 
L 4684 1100 
L 678 1100 
L 678 1631 
z
" transform="scale(0.015625)"/>
      <path id="DejaVuSans-31" d="M 794 531 
L 1825 531 
L 1825 4091 
L 703 3866 
L 703 4441 
L 1819 4666 
L 2450 4666 
L 2450 531 
L 3481 531 
L 3481 0 
L 794 0 
L 794 531 
z
" transform="scale(0.015625)"/>
      <path id="DejaVuSans-47" d="M 3809 666 
L 3809 1919 
L 2778 1919 
L 2778 2438 
L 4434 2438 
L 4434 434 
Q 4069 175 3628 42 
Q 3188 -91 2688 -91 
Q 1594 -91 976 548 
Q 359 1188 359 2328 
Q 359 3472 976 4111 
Q 1594 4750 2688 4750 
Q 3144 4750 3555 4637 
Q 3966 4525 4313 4306 
L 4313 3634 
Q 3963 3931 3569 4081 
Q 3175 4231 2741 4231 
Q 1884 4231 1454 3753 
Q 1025 3275 1025 2328 
Q 1025 1384 1454 906 
Q 1884 428 2741 428 
Q 3075 428 3337 486 
Q 3600 544 3809 666 
z
" transform="scale(0.015625)"/>
      <path id="DejaVuSans-7a" d="M 353 3500 
L 3084 3500 
L 3084 2975 
L 922 459 
L 3084 459 
L 3084 0 
L 275 0 
L 275 525 
L 2438 3041 
L 353 3041 
L 353 3500 
z
" transform="scale(0.015625)"/>
      <path id="DejaVuSans-42" d="M 1259 2228 
L 1259 519 
L 2272 519 
Q 2781 519 3026 730 
Q 3272 941 3272 1375 
Q 3272 1813 3026 2020 
Q 2781 2228 2272 2228 
L 1259 2228 
z
M 1259 4147 
L 1259 2741 
L 2194 2741 
Q 2656 2741 2882 2914 
Q 3109 3088 3109 3444 
Q 3109 3797 2882 3972 
Q 2656 4147 2194 4147 
L 1259 4147 
z
M 628 4666 
L 2241 4666 
Q 2963 4666 3353 4366 
Q 3744 4066 3744 3513 
Q 3744 3084 3544 2831 
Q 3344 2578 2956 2516 
Q 3422 2416 3680 2098 
Q 3938 1781 3938 1306 
Q 3938 681 3513 340 
Q 3088 0 2303 0 
L 628 0 
L 628 4666 
z
" transform="scale(0.015625)"/>
     </defs>
     <use xlink:href="#DejaVuSans-41"/>
     <use xlink:href="#DejaVuSans-5a" transform="translate(68.408203 0)"/>
     <use xlink:href="#DejaVuSans-35" transform="translate(136.914062 0)"/>
     <use xlink:href="#DejaVuSans-2c" transform="translate(200.537109 0)"/>
     <use xlink:href="#DejaVuSans-20" transform="translate(232.324219 0)"/>
     <use xlink:href="#DejaVuSans-66" transform="translate(264.111328 0)"/>
     <use xlink:href="#DejaVuSans-3d" transform="translate(299.316406 0)"/>
     <use xlink:href="#DejaVuSans-31" transform="translate(383.105469 0)"/>
     <use xlink:href="#DejaVuSans-33" transform="translate(446.728516 0)"/>
     <use xlink:href="#DejaVuSans-20" transform="translate(510.351562 0)"/>
     <use xlink:href="#DejaVuSans-47" transform="translate(542.138672 0)"/>
     <use xlink:href="#DejaVuSans-48" transform="translate(619.628906 0)"/>
     <use xlink:href="#DejaVuSans-7a" transform="translate(694.824219 0)"/>
     <use xlink:href="#DejaVuSans-2c" transform="translate(747.314453 0)"/>
     <use xlink:href="#DejaVuSans-20" transform="translate(779.101562 0)"/>
     <use xlink:href="#DejaVuSans-31" transform="translate(810.888672 0)"/>
     <use xlink:href="#DejaVuSans-30" transform="translate(874.511719 0)"/>
     <use xlink:href="#DejaVuSans-20" transform="translate(938.134766 0)"/>
     <use xlink:href="#DejaVuSans-64" transform="translate(969.921875 0)"/>
     <use xlink:href="#DejaVuSans-42" transform="translate(1033.398438 0)"/>
    </g>
    <!-- Double Asymmetric Lorentzian -->
    <g transform="translate(147.030414 43.531522) scale(0.161 -0.161)">
     <defs>
      <path id="DejaVuSans-44" d="M 1259 4147 
L 1259 519 
L 2022 519 
Q 2988 519 3436 956 
Q 3884 1394 3884 2338 
Q 3884 3275 3436 3711 
Q 2988 4147 2022 4147 
L 1259 4147 
z
M 628 4666 
L 1925 4666 
Q 3281 4666 3915 4102 
Q 4550 3538 4550 2338 
Q 4550 1131 3912 565 
Q 3275 0 1925 0 
L 628 0 
L 628 4666 
z
" transform="scale(0.015625)"/>
      <path id="DejaVuSans-6f" d="M 1959 3097 
Q 1497 3097 1228 2736 
Q 959 2375 959 1747 
Q 959 1119 1226 758 
Q 1494 397 1959 397 
Q 2419 397 2687 759 
Q 2956 1122 2956 1747 
Q 2956 2369 2687 2733 
Q 2419 3097 1959 3097 
z
M 1959 3584 
Q 2709 3584 3137 3096 
Q 3566 2609 3566 1747 
Q 3566 888 3137 398 
Q 2709 -91 1959 -91 
Q 1206 -91 779 398 
Q 353 888 353 1747 
Q 353 2609 779 3096 
Q 1206 3584 1959 3584 
z
" transform="scale(0.015625)"/>
      <path id="DejaVuSans-75" d="M 544 1381 
L 544 3500 
L 1119 3500 
L 1119 1403 
Q 1119 906 1312 657 
Q 1506 409 1894 409 
Q 2359 409 2629 706 
Q 2900 1003 2900 1516 
L 2900 3500 
L 3475 3500 
L 3475 0 
L 2900 0 
L 2900 538 
Q 2691 219 2414 64 
Q 2138 -91 1772 -91 
Q 1169 -91 856 284 
Q 544 659 544 1381 
z
M 1991 3584 
L 1991 3584 
z
" transform="scale(0.015625)"/>
      <path id="DejaVuSans-62" d="M 3116 1747 
Q 3116 2381 2855 2742 
Q 2594 3103 2138 3103 
Q 1681 3103 1420 2742 
Q 1159 2381 1159 1747 
Q 1159 1113 1420 752 
Q 1681 391 2138 391 
Q 2594 391 2855 752 
Q 3116 1113 3116 1747 
z
M 1159 2969 
Q 1341 3281 1617 3432 
Q 1894 3584 2278 3584 
Q 2916 3584 3314 3078 
Q 3713 2572 3713 1747 
Q 3713 922 3314 415 
Q 2916 -91 2278 -91 
Q 1894 -91 1617 61 
Q 1341 213 1159 525 
L 1159 0 
L 581 0 
L 581 4863 
L 1159 4863 
L 1159 2969 
z
" transform="scale(0.015625)"/>
      <path id="DejaVuSans-6c" d="M 603 4863 
L 1178 4863 
L 1178 0 
L 603 0 
L 603 4863 
z
" transform="scale(0.015625)"/>
      <path id="DejaVuSans-65" d="M 3597 1894 
L 3597 1613 
L 953 1613 
Q 991 1019 1311 708 
Q 1631 397 2203 397 
Q 2534 397 2845 478 
Q 3156 559 3463 722 
L 3463 178 
Q 3153 47 2828 -22 
Q 2503 -91 2169 -91 
Q 1331 -91 842 396 
Q 353 884 353 1716 
Q 353 2575 817 3079 
Q 1281 3584 2069 3584 
Q 2775 3584 3186 3129 
Q 3597 2675 3597 1894 
z
M 3022 2063 
Q 3016 2534 2758 2815 
Q 2500 3097 2075 3097 
Q 1594 3097 1305 2825 
Q 1016 2553 972 2059 
L 3022 2063 
z
" transform="scale(0.015625)"/>
      <path id="DejaVuSans-73" d="M 2834 3397 
L 2834 2853 
Q 2591 2978 2328 3040 
Q 2066 3103 1784 3103 
Q 1356 3103 1142 2972 
Q 928 2841 928 2578 
Q 928 2378 1081 2264 
Q 1234 2150 1697 2047 
L 1894 2003 
Q 2506 1872 2764 1633 
Q 3022 1394 3022 966 
Q 3022 478 2636 193 
Q 2250 -91 1575 -91 
Q 1294 -91 989 -36 
Q 684 19 347 128 
L 347 722 
Q 666 556 975 473 
Q 1284 391 1588 391 
Q 1994 391 2212 530 
Q 2431 669 2431 922 
Q 2431 1156 2273 1281 
Q 2116 1406 1581 1522 
L 1381 1569 
Q 847 1681 609 1914 
Q 372 2147 372 2553 
Q 372 3047 722 3315 
Q 1072 3584 1716 3584 
Q 2034 3584 2315 3537 
Q 2597 3491 2834 3397 
z
" transform="scale(0.015625)"/>
      <path id="DejaVuSans-79" d="M 2059 -325 
Q 1816 -950 1584 -1140 
Q 1353 -1331 966 -1331 
L 506 -1331 
L 506 -850 
L 844 -850 
Q 1081 -850 1212 -737 
Q 1344 -625 1503 -206 
L 1606 56 
L 191 3500 
L 800 3500 
L 1894 763 
L 2988 3500 
L 3597 3500 
L 2059 -325 
z
" transform="scale(0.015625)"/>
      <path id="DejaVuSans-6d" d="M 3328 2828 
Q 3544 3216 3844 3400 
Q 4144 3584 4550 3584 
Q 5097 3584 5394 3201 
Q 5691 2819 5691 2113 
L 5691 0 
L 5113 0 
L 5113 2094 
Q 5113 2597 4934 2840 
Q 4756 3084 4391 3084 
Q 3944 3084 3684 2787 
Q 3425 2491 3425 1978 
L 3425 0 
L 2847 0 
L 2847 2094 
Q 2847 2600 2669 2842 
Q 2491 3084 2119 3084 
Q 1678 3084 1418 2786 
Q 1159 2488 1159 1978 
L 1159 0 
L 581 0 
L 581 3500 
L 1159 3500 
L 1159 2956 
Q 1356 3278 1631 3431 
Q 1906 3584 2284 3584 
Q 2666 3584 2933 3390 
Q 3200 3197 3328 2828 
z
" transform="scale(0.015625)"/>
      <path id="DejaVuSans-74" d="M 1172 4494 
L 1172 3500 
L 2356 3500 
L 2356 3053 
L 1172 3053 
L 1172 1153 
Q 1172 725 1289 603 
Q 1406 481 1766 481 
L 2356 481 
L 2356 0 
L 1766 0 
Q 1100 0 847 248 
Q 594 497 594 1153 
L 594 3053 
L 172 3053 
L 172 3500 
L 594 3500 
L 594 4494 
L 1172 4494 
z
" transform="scale(0.015625)"/>
      <path id="DejaVuSans-72" d="M 2631 2963 
Q 2534 3019 2420 3045 
Q 2306 3072 2169 3072 
Q 1681 3072 1420 2755 
Q 1159 2438 1159 1844 
L 1159 0 
L 581 0 
L 581 3500 
L 1159 3500 
L 1159 2956 
Q 1341 3275 1631 3429 
Q 1922 3584 2338 3584 
Q 2397 3584 2469 3576 
Q 2541 3569 2628 3553 
L 2631 2963 
z
" transform="scale(0.015625)"/>
      <path id="DejaVuSans-69" d="M 603 3500 
L 1178 3500 
L 1178 0 
L 603 0 
L 603 3500 
z
M 603 4863 
L 1178 4863 
L 1178 4134 
L 603 4134 
L 603 4863 
z
" transform="scale(0.015625)"/>
      <path id="DejaVuSans-63" d="M 3122 3366 
L 3122 2828 
Q 2878 2963 2633 3030 
Q 2388 3097 2138 3097 
Q 1578 3097 1268 2742 
Q 959 2388 959 1747 
Q 959 1106 1268 751 
Q 1578 397 2138 397 
Q 2388 397 2633 464 
Q 2878 531 3122 666 
L 3122 134 
Q 2881 22 2623 -34 
Q 2366 -91 2075 -91 
Q 1284 -91 818 406 
Q 353 903 353 1747 
Q 353 2603 823 3093 
Q 1294 3584 2113 3584 
Q 2378 3584 2631 3529 
Q 2884 3475 3122 3366 
z
" transform="scale(0.015625)"/>
      <path id="DejaVuSans-4c" d="M 628 4666 
L 1259 4666 
L 1259 531 
L 3531 531 
L 3531 0 
L 628 0 
L 628 4666 
z
" transform="scale(0.015625)"/>
      <path id="DejaVuSans-6e" d="M 3513 2113 
L 3513 0 
L 2938 0 
L 2938 2094 
Q 2938 2591 2744 2837 
Q 2550 3084 2163 3084 
Q 1697 3084 1428 2787 
Q 1159 2491 1159 1978 
L 1159 0 
L 581 0 
L 581 3500 
L 1159 3500 
L 1159 2956 
Q 1366 3272 1645 3428 
Q 1925 3584 2291 3584 
Q 2894 3584 3203 3211 
Q 3513 2838 3513 2113 
z
" transform="scale(0.015625)"/>
      <path id="DejaVuSans-61" d="M 2194 1759 
Q 1497 1759 1228 1600 
Q 959 1441 959 1056 
Q 959 750 1161 570 
Q 1363 391 1709 391 
Q 2188 391 2477 730 
Q 2766 1069 2766 1631 
L 2766 1759 
L 2194 1759 
z
M 3341 1997 
L 3341 0 
L 2766 0 
L 2766 531 
Q 2569 213 2275 61 
Q 1981 -91 1556 -91 
Q 1019 -91 701 211 
Q 384 513 384 1019 
Q 384 1609 779 1909 
Q 1175 2209 1959 2209 
L 2766 2209 
L 2766 2266 
Q 2766 2663 2505 2880 
Q 2244 3097 1772 3097 
Q 1472 3097 1187 3025 
Q 903 2953 641 2809 
L 641 3341 
Q 956 3463 1253 3523 
Q 1550 3584 1831 3584 
Q 2591 3584 2966 3190 
Q 3341 2797 3341 1997 
z
" transform="scale(0.015625)"/>
     </defs>
     <use xlink:href="#DejaVuSans-44"/>
     <use xlink:href="#DejaVuSans-6f" transform="translate(77.001953 0)"/>
     <use xlink:href="#DejaVuSans-75" transform="translate(138.183594 0)"/>
     <use xlink:href="#DejaVuSans-62" transform="translate(201.5625 0)"/>
     <use xlink:href="#DejaVuSans-6c" transform="translate(265.039062 0)"/>
     <use xlink:href="#DejaVuSans-65" transform="translate(292.822266 0)"/>
     <use xlink:href="#DejaVuSans-20" transform="translate(354.345703 0)"/>
     <use xlink:href="#DejaVuSans-41" transform="translate(386.132812 0)"/>
     <use xlink:href="#DejaVuSans-73" transform="translate(454.541016 0)"/>
     <use xlink:href="#DejaVuSans-79" transform="translate(506.640625 0)"/>
     <use xlink:href="#DejaVuSans-6d" transform="translate(565.820312 0)"/>
     <use xlink:href="#DejaVuSans-6d" transform="translate(663.232422 0)"/>
     <use xlink:href="#DejaVuSans-65" transform="translate(760.644531 0)"/>
     <use xlink:href="#DejaVuSans-74" transform="translate(822.167969 0)"/>
     <use xlink:href="#DejaVuSans-72" transform="translate(861.376953 0)"/>
     <use xlink:href="#DejaVuSans-69" transform="translate(902.490234 0)"/>
     <use xlink:href="#DejaVuSans-63" transform="translate(930.273438 0)"/>
     <use xlink:href="#DejaVuSans-20" transform="translate(985.253906 0)"/>
     <use xlink:href="#DejaVuSans-4c" transform="translate(1017.041016 0)"/>
     <use xlink:href="#DejaVuSans-6f" transform="translate(1071.003906 0)"/>
     <use xlink:href="#DejaVuSans-72" transform="translate(1132.185547 0)"/>
     <use xlink:href="#DejaVuSans-65" transform="translate(1171.048828 0)"/>
     <use xlink:href="#DejaVuSans-6e" transform="translate(1232.572266 0)"/>
     <use xlink:href="#DejaVuSans-74" transform="translate(1295.951172 0)"/>
     <use xlink:href="#DejaVuSans-7a" transform="translate(1335.160156 0)"/>
     <use xlink:href="#DejaVuSans-69" transform="translate(1387.650391 0)"/>
     <use xlink:href="#DejaVuSans-61" transform="translate(1415.433594 0)"/>
     <use xlink:href="#DejaVuSans-6e" transform="translate(1476.712891 0)"/>
    </g>
    <!-- $H_1$=352.8770 T, $H_2$=353.3840 T, R²=0.965 -->
    <g transform="translate(97.529203 61.56) scale(0.161 -0.161)">
     <defs>
      <path id="DejaVuSans-Oblique-48" d="M 1081 4666 
L 1716 4666 
L 1344 2753 
L 3634 2753 
L 4006 4666 
L 4641 4666 
L 3731 0 
L 3097 0 
L 3531 2222 
L 1241 2222 
L 806 0 
L 172 0 
L 1081 4666 
z
" transform="scale(0.015625)"/>
      <path id="DejaVuSans-38" d="M 2034 2216 
Q 1584 2216 1326 1975 
Q 1069 1734 1069 1313 
Q 1069 891 1326 650 
Q 1584 409 2034 409 
Q 2484 409 2743 651 
Q 3003 894 3003 1313 
Q 3003 1734 2745 1975 
Q 2488 2216 2034 2216 
z
M 1403 2484 
Q 997 2584 770 2862 
Q 544 3141 544 3541 
Q 544 4100 942 4425 
Q 1341 4750 2034 4750 
Q 2731 4750 3128 4425 
Q 3525 4100 3525 3541 
Q 3525 3141 3298 2862 
Q 3072 2584 2669 2484 
Q 3125 2378 3379 2068 
Q 3634 1759 3634 1313 
Q 3634 634 3220 271 
Q 2806 -91 2034 -91 
Q 1263 -91 848 271 
Q 434 634 434 1313 
Q 434 1759 690 2068 
Q 947 2378 1403 2484 
z
M 1172 3481 
Q 1172 3119 1398 2916 
Q 1625 2713 2034 2713 
Q 2441 2713 2670 2916 
Q 2900 3119 2900 3481 
Q 2900 3844 2670 4047 
Q 2441 4250 2034 4250 
Q 1625 4250 1398 4047 
Q 1172 3844 1172 3481 
z
" transform="scale(0.015625)"/>
      <path id="DejaVuSans-52" d="M 2841 2188 
Q 3044 2119 3236 1894 
Q 3428 1669 3622 1275 
L 4263 0 
L 3584 0 
L 2988 1197 
Q 2756 1666 2539 1819 
Q 2322 1972 1947 1972 
L 1259 1972 
L 1259 0 
L 628 0 
L 628 4666 
L 2053 4666 
Q 2853 4666 3247 4331 
Q 3641 3997 3641 3322 
Q 3641 2881 3436 2590 
Q 3231 2300 2841 2188 
z
M 1259 4147 
L 1259 2491 
L 2053 2491 
Q 2509 2491 2742 2702 
Q 2975 2913 2975 3322 
Q 2975 3731 2742 3939 
Q 2509 4147 2053 4147 
L 1259 4147 
z
" transform="scale(0.015625)"/>
      <path id="DejaVuSans-b2" d="M 838 2444 
L 2163 2444 
L 2163 2088 
L 294 2088 
L 294 2431 
Q 400 2528 597 2703 
Q 1672 3656 1672 3950 
Q 1672 4156 1509 4282 
Q 1347 4409 1081 4409 
Q 919 4409 728 4354 
Q 538 4300 313 4191 
L 313 4575 
Q 553 4663 761 4706 
Q 969 4750 1147 4750 
Q 1600 4750 1872 4544 
Q 2144 4338 2144 4000 
Q 2144 3566 1109 2678 
Q 934 2528 838 2444 
z
" transform="scale(0.015625)"/>
      <path id="DejaVuSans-39" d="M 703 97 
L 703 672 
Q 941 559 1184 500 
Q 1428 441 1663 441 
Q 2288 441 2617 861 
Q 2947 1281 2994 2138 
Q 2813 1869 2534 1725 
Q 2256 1581 1919 1581 
Q 1219 1581 811 2004 
Q 403 2428 403 3163 
Q 403 3881 828 4315 
Q 1253 4750 1959 4750 
Q 2769 4750 3195 4129 
Q 3622 3509 3622 2328 
Q 3622 1225 3098 567 
Q 2575 -91 1691 -91 
Q 1453 -91 1209 -44 
Q 966 3 703 97 
z
M 1959 2075 
Q 2384 2075 2632 2365 
Q 2881 2656 2881 3163 
Q 2881 3666 2632 3958 
Q 2384 4250 1959 4250 
Q 1534 4250 1286 3958 
Q 1038 3666 1038 3163 
Q 1038 2656 1286 2365 
Q 1534 2075 1959 2075 
z
" transform="scale(0.015625)"/>
     </defs>
     <use xlink:href="#DejaVuSans-Oblique-48" transform="translate(0 0.78125)"/>
     <use xlink:href="#DejaVuSans-31" transform="translate(75.195312 -15.625) scale(0.7)"/>
     <use xlink:href="#DejaVuSans-3d" transform="translate(122.46582 0.78125)"/>
     <use xlink:href="#DejaVuSans-33" transform="translate(206.254883 0.78125)"/>
     <use xlink:href="#DejaVuSans-35" transform="translate(269.87793 0.78125)"/>
     <use xlink:href="#DejaVuSans-32" transform="translate(333.500977 0.78125)"/>
     <use xlink:href="#DejaVuSans-2e" transform="translate(397.124023 0.78125)"/>
     <use xlink:href="#DejaVuSans-38" transform="translate(426.286133 0.78125)"/>
     <use xlink:href="#DejaVuSans-37" transform="translate(489.90918 0.78125)"/>
     <use xlink:href="#DejaVuSans-37" transform="translate(551.782227 0.78125)"/>
     <use xlink:href="#DejaVuSans-30" transform="translate(615.405273 0.78125)"/>
     <use xlink:href="#DejaVuSans-20" transform="translate(679.02832 0.78125)"/>
     <use xlink:href="#DejaVuSans-54" transform="translate(710.81543 0.78125)"/>
     <use xlink:href="#DejaVuSans-2c" transform="translate(771.899414 0.78125)"/>
     <use xlink:href="#DejaVuSans-20" transform="translate(803.686523 0.78125)"/>
     <use xlink:href="#DejaVuSans-Oblique-48" transform="translate(835.473633 0.78125)"/>
     <use xlink:href="#DejaVuSans-32" transform="translate(910.668945 -15.625) scale(0.7)"/>
     <use xlink:href="#DejaVuSans-3d" transform="translate(957.939453 0.78125)"/>
     <use xlink:href="#DejaVuSans-33" transform="translate(1041.728516 0.78125)"/>
     <use xlink:href="#DejaVuSans-35" transform="translate(1105.351562 0.78125)"/>
     <use xlink:href="#DejaVuSans-33" transform="translate(1168.974609 0.78125)"/>
     <use xlink:href="#DejaVuSans-2e" transform="translate(1232.597656 0.78125)"/>
     <use xlink:href="#DejaVuSans-33" transform="translate(1264.384766 0.78125)"/>
     <use xlink:href="#DejaVuSans-38" transform="translate(1328.007812 0.78125)"/>
     <use xlink:href="#DejaVuSans-34" transform="translate(1391.630859 0.78125)"/>
     <use xlink:href="#DejaVuSans-30" transform="translate(1455.253906 0.78125)"/>
     <use xlink:href="#DejaVuSans-20" transform="translate(1518.876953 0.78125)"/>
     <use xlink:href="#DejaVuSans-54" transform="translate(1550.664062 0.78125)"/>
     <use xlink:href="#DejaVuSans-2c" transform="translate(1611.748047 0.78125)"/>
     <use xlink:href="#DejaVuSans-20" transform="translate(1643.535156 0.78125)"/>
     <use xlink:href="#DejaVuSans-52" transform="translate(1675.322266 0.78125)"/>
     <use xlink:href="#DejaVuSans-b2" transform="translate(1744.804688 0.78125)"/>
     <use xlink:href="#DejaVuSans-3d" transform="translate(1784.892578 0.78125)"/>
     <use xlink:href="#DejaVuSans-30" transform="translate(1868.681641 0.78125)"/>
     <use xlink:href="#DejaVuSans-2e" transform="translate(1932.304688 0.78125)"/>
     <use xlink:href="#DejaVuSans-39" transform="translate(1964.091797 0.78125)"/>
     <use xlink:href="#DejaVuSans-36" transform="translate(2027.714844 0.78125)"/>
     <use xlink:href="#DejaVuSans-35" transform="translate(2091.337891 0.78125)"/>
    </g>
   </g>
   <g id="legend_1">
    <g id="patch_7">
     <path d="M 68.504 139.367437 
L 260.244219 139.367437 
Q 263.004219 139.367437 263.004219 136.607438 
L 263.004219 77.22 
Q 263.004219 74.46 260.244219 74.46 
L 68.504 74.46 
Q 65.744 74.46 65.744 77.22 
L 65.744 136.607438 
Q 65.744 139.367437 68.504 139.367437 
z
" style="fill: #ffffff; opacity: 0.8; stroke: #cccccc; stroke-linejoin: miter"/>
    </g>
    <g id="line2d_17">
     <path d="M 71.264 85.635844 
L 85.064 85.635844 
L 98.864 85.635844 
" style="fill: none; stroke: #cc7000; stroke-opacity: 0.7; stroke-width: 1.4; stroke-linecap: square"/>
    </g>
    <g id="text_17">
     <!-- Raw data (curve) -->
     <g transform="translate(109.904 90.465844) scale(0.138 -0.138)">
      <defs>
       <path id="DejaVuSans-77" d="M 269 3500 
L 844 3500 
L 1563 769 
L 2278 3500 
L 2956 3500 
L 3675 769 
L 4391 3500 
L 4966 3500 
L 4050 0 
L 3372 0 
L 2619 2869 
L 1863 0 
L 1184 0 
L 269 3500 
z
" transform="scale(0.015625)"/>
       <path id="DejaVuSans-76" d="M 191 3500 
L 800 3500 
L 1894 563 
L 2988 3500 
L 3597 3500 
L 2284 0 
L 1503 0 
L 191 3500 
z
" transform="scale(0.015625)"/>
      </defs>
      <use xlink:href="#DejaVuSans-52"/>
      <use xlink:href="#DejaVuSans-61" transform="translate(67.232422 0)"/>
      <use xlink:href="#DejaVuSans-77" transform="translate(128.511719 0)"/>
      <use xlink:href="#DejaVuSans-20" transform="translate(210.298828 0)"/>
      <use xlink:href="#DejaVuSans-64" transform="translate(242.085938 0)"/>
      <use xlink:href="#DejaVuSans-61" transform="translate(305.5625 0)"/>
      <use xlink:href="#DejaVuSans-74" transform="translate(366.841797 0)"/>
      <use xlink:href="#DejaVuSans-61" transform="translate(406.050781 0)"/>
      <use xlink:href="#DejaVuSans-20" transform="translate(467.330078 0)"/>
      <use xlink:href="#DejaVuSans-28" transform="translate(499.117188 0)"/>
      <use xlink:href="#DejaVuSans-63" transform="translate(538.130859 0)"/>
      <use xlink:href="#DejaVuSans-75" transform="translate(593.111328 0)"/>
      <use xlink:href="#DejaVuSans-72" transform="translate(656.490234 0)"/>
      <use xlink:href="#DejaVuSans-76" transform="translate(697.603516 0)"/>
      <use xlink:href="#DejaVuSans-65" transform="translate(756.783203 0)"/>
      <use xlink:href="#DejaVuSans-29" transform="translate(818.306641 0)"/>
     </g>
    </g>
    <g id="line2d_18">
     <path d="M 71.264 105.891656 
L 85.064 105.891656 
L 98.864 105.891656 
" style="fill: none; stroke: #2980b9; stroke-width: 2; stroke-linecap: square"/>
    </g>
    <g id="text_18">
     <!-- Aggregated (median) -->
     <g transform="translate(109.904 110.721656) scale(0.138 -0.138)">
      <defs>
       <path id="DejaVuSans-67" d="M 2906 1791 
Q 2906 2416 2648 2759 
Q 2391 3103 1925 3103 
Q 1463 3103 1205 2759 
Q 947 2416 947 1791 
Q 947 1169 1205 825 
Q 1463 481 1925 481 
Q 2391 481 2648 825 
Q 2906 1169 2906 1791 
z
M 3481 434 
Q 3481 -459 3084 -895 
Q 2688 -1331 1869 -1331 
Q 1566 -1331 1297 -1286 
Q 1028 -1241 775 -1147 
L 775 -588 
Q 1028 -725 1275 -790 
Q 1522 -856 1778 -856 
Q 2344 -856 2625 -561 
Q 2906 -266 2906 331 
L 2906 616 
Q 2728 306 2450 153 
Q 2172 0 1784 0 
Q 1141 0 747 490 
Q 353 981 353 1791 
Q 353 2603 747 3093 
Q 1141 3584 1784 3584 
Q 2172 3584 2450 3431 
Q 2728 3278 2906 2969 
L 2906 3500 
L 3481 3500 
L 3481 434 
z
" transform="scale(0.015625)"/>
      </defs>
      <use xlink:href="#DejaVuSans-41"/>
      <use xlink:href="#DejaVuSans-67" transform="translate(68.408203 0)"/>
      <use xlink:href="#DejaVuSans-67" transform="translate(131.884766 0)"/>
      <use xlink:href="#DejaVuSans-72" transform="translate(195.361328 0)"/>
      <use xlink:href="#DejaVuSans-65" transform="translate(234.224609 0)"/>
      <use xlink:href="#DejaVuSans-67" transform="translate(295.748047 0)"/>
      <use xlink:href="#DejaVuSans-61" transform="translate(359.224609 0)"/>
      <use xlink:href="#DejaVuSans-74" transform="translate(420.503906 0)"/>
      <use xlink:href="#DejaVuSans-65" transform="translate(459.712891 0)"/>
      <use xlink:href="#DejaVuSans-64" transform="translate(521.236328 0)"/>
      <use xlink:href="#DejaVuSans-20" transform="translate(584.712891 0)"/>
      <use xlink:href="#DejaVuSans-28" transform="translate(616.5 0)"/>
      <use xlink:href="#DejaVuSans-6d" transform="translate(655.513672 0)"/>
      <use xlink:href="#DejaVuSans-65" transform="translate(752.925781 0)"/>
      <use xlink:href="#DejaVuSans-64" transform="translate(814.449219 0)"/>
      <use xlink:href="#DejaVuSans-69" transform="translate(877.925781 0)"/>
      <use xlink:href="#DejaVuSans-61" transform="translate(905.708984 0)"/>
      <use xlink:href="#DejaVuSans-6e" transform="translate(966.988281 0)"/>
      <use xlink:href="#DejaVuSans-29" transform="translate(1030.367188 0)"/>
     </g>
    </g>
    <g id="line2d_19">
     <path d="M 71.264 126.147469 
L 85.064 126.147469 
L 98.864 126.147469 
" style="fill: none; stroke: #ffa500; stroke-width: 2.5; stroke-linecap: square"/>
    </g>
    <g id="text_19">
     <!-- Fit -->
     <g transform="translate(109.904 130.977469) scale(0.138 -0.138)">
      <defs>
       <path id="DejaVuSans-46" d="M 628 4666 
L 3309 4666 
L 3309 4134 
L 1259 4134 
L 1259 2759 
L 3109 2759 
L 3109 2228 
L 1259 2228 
L 1259 0 
L 628 0 
L 628 4666 
z
" transform="scale(0.015625)"/>
      </defs>
      <use xlink:href="#DejaVuSans-46"/>
      <use xlink:href="#DejaVuSans-69" transform="translate(50.269531 0)"/>
      <use xlink:href="#DejaVuSans-74" transform="translate(78.052734 0)"/>
     </g>
    </g>
   </g>
  </g>
 </g>
 <defs>
  <clipPath id="p2cd04f09ad">
   <rect x="58.844" y="67.56" width="424.325406" height="167.176"/>
  </clipPath>
 </defs>
</svg>
