<?xml version="1.0" encoding="utf-8" standalone="no"?>
<!DOCTYPE svg PUBLIC "-//W3C//DTD SVG 1.1//EN"
  "http://www.w3.org/Graphics/SVG/1.1/DTD/svg11.dtd">
<svg xmlns:xlink="http://www.w3.org/1999/xlink" width="504pt" height="288pt" viewBox="0 0 504 288" xmlns="http://www.w3.org/2000/svg" version="1.1">
 <metadata>
  <rdf:RDF xmlns:dc="http://purl.org/dc/elements/1.1/" xmlns:cc="http://creativecommons.org/ns#" xmlns:rdf="http://www.w3.org/1999/02/22-rdf-syntax-ns#">
   <cc:Work>
    <dc:type rdf:resource="http://purl.org/dc/dcmitype/StillImage"/>
    <dc:date>2025-10-06T06:21:30.061208</dc:date>
    <dc:format>image/svg+xml</dc:format>
    <dc:creator>
     <cc:Agent>
      <dc:title>Matplotlib v3.10.6, https://matplotlib.org/</dc:title>
     </cc:Agent>
    </dc:creator>
   </cc:Work>
  </rdf:RDF>
 </metadata>
 <defs>
  <style type="text/css">*{stroke-linejoin: round; stroke-linecap: butt}</style>
 </defs>
 <g id="figure_1">
  <g id="patch_1">
   <path d="M 0 288 
L 504 288 
L 504 0 
L 0 0 
z
" style="fill: #ffffff"/>
  </g>
  <g id="axes_1">
   <g id="patch_2">
    <path d="M 58.844 234.736 
L 489.096 234.736 
L 489.096 32.424 
L 58.844 32.424 
z
" style="fill: #ffffff"/>
   </g>
   <g id="matplotlib.axis_1">
    <g id="xtick_1">
     <g id="line2d_1">
      <defs>
       <path id="m47d5c55529" d="M 0 0 
L 0 3.5 
" style="stroke: #000000; stroke-width: 0.8"/>
      </defs>
      <g>
       <use xlink:href="#m47d5c55529" x="98.426264" y="234.736" style="stroke: #000000; stroke-width: 0.8"/>
      </g>
     </g>
     <g id="text_1">
      <!-- 215.0 -->
      <g transform="translate(80.318975 251.348023) scale(0.1265 -0.1265)">
       <defs>
        <path id="DejaVuSans-32" d="M 1228 531 
L 3431 531 
L 3431 0 
L 469 0 
L 469 531 
Q 828 903 1448 1529 
Q 2069 2156 2228 2338 
Q 2531 2678 2651 2914 
Q 2772 3150 2772 3378 
Q 2772 3750 2511 3984 
Q 2250 4219 1831 4219 
Q 1534 4219 1204 4116 
Q 875 4013 500 3803 
L 500 4441 
Q 881 4594 1212 4672 
Q 1544 4750 1819 4750 
Q 2544 4750 2975 4387 
Q 3406 4025 3406 3419 
Q 3406 3131 3298 2873 
Q 3191 2616 2906 2266 
Q 2828 2175 2409 1742 
Q 1991 1309 1228 531 
z
" transform="scale(0.015625)"/>
        <path id="DejaVuSans-31" d="M 794 531 
L 1825 531 
L 1825 4091 
L 703 3866 
L 703 4441 
L 1819 4666 
L 2450 4666 
L 2450 531 
L 3481 531 
L 3481 0 
L 794 0 
L 794 531 
z
" transform="scale(0.015625)"/>
        <path id="DejaVuSans-35" d="M 691 4666 
L 3169 4666 
L 3169 4134 
L 1269 4134 
L 1269 2991 
Q 1406 3038 1543 3061 
Q 1681 3084 1819 3084 
Q 2600 3084 3056 2656 
Q 3513 2228 3513 1497 
Q 3513 744 3044 326 
Q 2575 -91 1722 -91 
Q 1428 -91 1123 -41 
Q 819 9 494 109 
L 494 744 
Q 775 591 1075 516 
Q 1375 441 1709 441 
Q 2250 441 2565 725 
Q 2881 1009 2881 1497 
Q 2881 1984 2565 2268 
Q 2250 2553 1709 2553 
Q 1456 2553 1204 2497 
Q 953 2441 691 2322 
L 691 4666 
z
" transform="scale(0.015625)"/>
        <path id="DejaVuSans-2e" d="M 684 794 
L 1344 794 
L 1344 0 
L 684 0 
L 684 794 
z
" transform="scale(0.015625)"/>
        <path id="DejaVuSans-30" d="M 2034 4250 
Q 1547 4250 1301 3770 
Q 1056 3291 1056 2328 
Q 1056 1369 1301 889 
Q 1547 409 2034 409 
Q 2525 409 2770 889 
Q 3016 1369 3016 2328 
Q 3016 3291 2770 3770 
Q 2525 4250 2034 4250 
z
M 2034 4750 
Q 2819 4750 3233 4129 
Q 3647 3509 3647 2328 
Q 3647 1150 3233 529 
Q 2819 -91 2034 -91 
Q 1250 -91 836 529 
Q 422 1150 422 2328 
Q 422 3509 836 4129 
Q 1250 4750 2034 4750 
z
" transform="scale(0.015625)"/>
       </defs>
       <use xlink:href="#DejaVuSans-32"/>
       <use xlink:href="#DejaVuSans-31" transform="translate(63.623047 0)"/>
       <use xlink:href="#DejaVuSans-35" transform="translate(127.246094 0)"/>
       <use xlink:href="#DejaVuSans-2e" transform="translate(190.869141 0)"/>
       <use xlink:href="#DejaVuSans-30" transform="translate(222.65625 0)"/>
      </g>
     </g>
    </g>
    <g id="xtick_2">
     <g id="line2d_2">
      <g>
       <use xlink:href="#m47d5c55529" x="149.036239" y="234.736" style="stroke: #000000; stroke-width: 0.8"/>
      </g>
     </g>
     <g id="text_2">
      <!-- 217.5 -->
      <g transform="translate(130.92895 251.348023) scale(0.1265 -0.1265)">
       <defs>
        <path id="DejaVuSans-37" d="M 525 4666 
L 3525 4666 
L 3525 4397 
L 1831 0 
L 1172 0 
L 2766 4134 
L 525 4134 
L 525 4666 
z
" transform="scale(0.015625)"/>
       </defs>
       <use xlink:href="#DejaVuSans-32"/>
       <use xlink:href="#DejaVuSans-31" transform="translate(63.623047 0)"/>
       <use xlink:href="#DejaVuSans-37" transform="translate(127.246094 0)"/>
       <use xlink:href="#DejaVuSans-2e" transform="translate(190.869141 0)"/>
       <use xlink:href="#DejaVuSans-35" transform="translate(222.65625 0)"/>
      </g>
     </g>
    </g>
    <g id="xtick_3">
     <g id="line2d_3">
      <g>
       <use xlink:href="#m47d5c55529" x="199.646215" y="234.736" style="stroke: #000000; stroke-width: 0.8"/>
      </g>
     </g>
     <g id="text_3">
      <!-- 220.0 -->
      <g transform="translate(181.538926 251.348023) scale(0.1265 -0.1265)">
       <use xlink:href="#DejaVuSans-32"/>
       <use xlink:href="#DejaVuSans-32" transform="translate(63.623047 0)"/>
       <use xlink:href="#DejaVuSans-30" transform="translate(127.246094 0)"/>
       <use xlink:href="#DejaVuSans-2e" transform="translate(190.869141 0)"/>
       <use xlink:href="#DejaVuSans-30" transform="translate(222.65625 0)"/>
      </g>
     </g>
    </g>
    <g id="xtick_4">
     <g id="line2d_4">
      <g>
       <use xlink:href="#m47d5c55529" x="250.25619" y="234.736" style="stroke: #000000; stroke-width: 0.8"/>
      </g>
     </g>
     <g id="text_4">
      <!-- 222.5 -->
      <g transform="translate(232.148901 251.348023) scale(0.1265 -0.1265)">
       <use xlink:href="#DejaVuSans-32"/>
       <use xlink:href="#DejaVuSans-32" transform="translate(63.623047 0)"/>
       <use xlink:href="#DejaVuSans-32" transform="translate(127.246094 0)"/>
       <use xlink:href="#DejaVuSans-2e" transform="translate(190.869141 0)"/>
       <use xlink:href="#DejaVuSans-35" transform="translate(222.65625 0)"/>
      </g>
     </g>
    </g>
    <g id="xtick_5">
     <g id="line2d_5">
      <g>
       <use xlink:href="#m47d5c55529" x="300.866165" y="234.736" style="stroke: #000000; stroke-width: 0.8"/>
      </g>
     </g>
     <g id="text_5">
      <!-- 225.0 -->
      <g transform="translate(282.758876 251.348023) scale(0.1265 -0.1265)">
       <use xlink:href="#DejaVuSans-32"/>
       <use xlink:href="#DejaVuSans-32" transform="translate(63.623047 0)"/>
       <use xlink:href="#DejaVuSans-35" transform="translate(127.246094 0)"/>
       <use xlink:href="#DejaVuSans-2e" transform="translate(190.869141 0)"/>
       <use xlink:href="#DejaVuSans-30" transform="translate(222.65625 0)"/>
      </g>
     </g>
    </g>
    <g id="xtick_6">
     <g id="line2d_6">
      <g>
       <use xlink:href="#m47d5c55529" x="351.476141" y="234.736" style="stroke: #000000; stroke-width: 0.8"/>
      </g>
     </g>
     <g id="text_6">
      <!-- 227.5 -->
      <g transform="translate(333.368851 251.348023) scale(0.1265 -0.1265)">
       <use xlink:href="#DejaVuSans-32"/>
       <use xlink:href="#DejaVuSans-32" transform="translate(63.623047 0)"/>
       <use xlink:href="#DejaVuSans-37" transform="translate(127.246094 0)"/>
       <use xlink:href="#DejaVuSans-2e" transform="translate(190.869141 0)"/>
       <use xlink:href="#DejaVuSans-35" transform="translate(222.65625 0)"/>
      </g>
     </g>
    </g>
    <g id="xtick_7">
     <g id="line2d_7">
      <g>
       <use xlink:href="#m47d5c55529" x="402.086116" y="234.736" style="stroke: #000000; stroke-width: 0.8"/>
      </g>
     </g>
     <g id="text_7">
      <!-- 230.0 -->
      <g transform="translate(383.978827 251.348023) scale(0.1265 -0.1265)">
       <defs>
        <path id="DejaVuSans-33" d="M 2597 2516 
Q 3050 2419 3304 2112 
Q 3559 1806 3559 1356 
Q 3559 666 3084 287 
Q 2609 -91 1734 -91 
Q 1441 -91 1130 -33 
Q 819 25 488 141 
L 488 750 
Q 750 597 1062 519 
Q 1375 441 1716 441 
Q 2309 441 2620 675 
Q 2931 909 2931 1356 
Q 2931 1769 2642 2001 
Q 2353 2234 1838 2234 
L 1294 2234 
L 1294 2753 
L 1863 2753 
Q 2328 2753 2575 2939 
Q 2822 3125 2822 3475 
Q 2822 3834 2567 4026 
Q 2313 4219 1838 4219 
Q 1578 4219 1281 4162 
Q 984 4106 628 3988 
L 628 4550 
Q 988 4650 1302 4700 
Q 1616 4750 1894 4750 
Q 2613 4750 3031 4423 
Q 3450 4097 3450 3541 
Q 3450 3153 3228 2886 
Q 3006 2619 2597 2516 
z
" transform="scale(0.015625)"/>
       </defs>
       <use xlink:href="#DejaVuSans-32"/>
       <use xlink:href="#DejaVuSans-33" transform="translate(63.623047 0)"/>
       <use xlink:href="#DejaVuSans-30" transform="translate(127.246094 0)"/>
       <use xlink:href="#DejaVuSans-2e" transform="translate(190.869141 0)"/>
       <use xlink:href="#DejaVuSans-30" transform="translate(222.65625 0)"/>
      </g>
     </g>
    </g>
    <g id="xtick_8">
     <g id="line2d_8">
      <g>
       <use xlink:href="#m47d5c55529" x="452.696091" y="234.736" style="stroke: #000000; stroke-width: 0.8"/>
      </g>
     </g>
     <g id="text_8">
      <!-- 232.5 -->
      <g transform="translate(434.588802 251.348023) scale(0.1265 -0.1265)">
       <use xlink:href="#DejaVuSans-32"/>
       <use xlink:href="#DejaVuSans-33" transform="translate(63.623047 0)"/>
       <use xlink:href="#DejaVuSans-32" transform="translate(127.246094 0)"/>
       <use xlink:href="#DejaVuSans-2e" transform="translate(190.869141 0)"/>
       <use xlink:href="#DejaVuSans-35" transform="translate(222.65625 0)"/>
      </g>
     </g>
    </g>
    <g id="text_9">
     <!-- H (T) -->
     <g transform="translate(255.574492 269.338492) scale(0.1495 -0.1495)">
      <defs>
       <path id="DejaVuSans-48" d="M 628 4666 
L 1259 4666 
L 1259 2753 
L 3553 2753 
L 3553 4666 
L 4184 4666 
L 4184 0 
L 3553 0 
L 3553 2222 
L 1259 2222 
L 1259 0 
L 628 0 
L 628 4666 
z
" transform="scale(0.015625)"/>
       <path id="DejaVuSans-20" transform="scale(0.015625)"/>
       <path id="DejaVuSans-28" d="M 1984 4856 
Q 1566 4138 1362 3434 
Q 1159 2731 1159 2009 
Q 1159 1288 1364 580 
Q 1569 -128 1984 -844 
L 1484 -844 
Q 1016 -109 783 600 
Q 550 1309 550 2009 
Q 550 2706 781 3412 
Q 1013 4119 1484 4856 
L 1984 4856 
z
" transform="scale(0.015625)"/>
       <path id="DejaVuSans-54" d="M -19 4666 
L 3928 4666 
L 3928 4134 
L 2272 4134 
L 2272 0 
L 1638 0 
L 1638 4134 
L -19 4134 
L -19 4666 
z
" transform="scale(0.015625)"/>
       <path id="DejaVuSans-29" d="M 513 4856 
L 1013 4856 
Q 1481 4119 1714 3412 
Q 1947 2706 1947 2009 
Q 1947 1309 1714 600 
Q 1481 -109 1013 -844 
L 513 -844 
Q 928 -128 1133 580 
Q 1338 1288 1338 2009 
Q 1338 2731 1133 3434 
Q 928 4138 513 4856 
z
" transform="scale(0.015625)"/>
      </defs>
      <use xlink:href="#DejaVuSans-48"/>
      <use xlink:href="#DejaVuSans-20" transform="translate(75.195312 0)"/>
      <use xlink:href="#DejaVuSans-28" transform="translate(106.982422 0)"/>
      <use xlink:href="#DejaVuSans-54" transform="translate(145.996094 0)"/>
      <use xlink:href="#DejaVuSans-29" transform="translate(207.080078 0)"/>
     </g>
    </g>
   </g>
   <g id="matplotlib.axis_2">
    <g id="ytick_1">
     <g id="line2d_9">
      <defs>
       <path id="ma5a09e0722" d="M 0 0 
L -3.5 0 
" style="stroke: #000000; stroke-width: 0.8"/>
      </defs>
      <g>
       <use xlink:href="#ma5a09e0722" x="58.844" y="204.583844" style="stroke: #000000; stroke-width: 0.8"/>
      </g>
     </g>
     <g id="text_10">
      <!-- −2 -->
      <g transform="translate(33.195133 209.389856) scale(0.1265 -0.1265)">
       <defs>
        <path id="DejaVuSans-2212" d="M 678 2272 
L 4684 2272 
L 4684 1741 
L 678 1741 
L 678 2272 
z
" transform="scale(0.015625)"/>
       </defs>
       <use xlink:href="#DejaVuSans-2212"/>
       <use xlink:href="#DejaVuSans-32" transform="translate(83.789062 0)"/>
      </g>
     </g>
    </g>
    <g id="ytick_2">
     <g id="line2d_10">
      <g>
       <use xlink:href="#ma5a09e0722" x="58.844" y="161.866176" style="stroke: #000000; stroke-width: 0.8"/>
      </g>
     </g>
     <g id="text_11">
      <!-- 0 -->
      <g transform="translate(43.795438 166.672188) scale(0.1265 -0.1265)">
       <use xlink:href="#DejaVuSans-30"/>
      </g>
     </g>
    </g>
    <g id="ytick_3">
     <g id="line2d_11">
      <g>
       <use xlink:href="#ma5a09e0722" x="58.844" y="119.148509" style="stroke: #000000; stroke-width: 0.8"/>
      </g>
     </g>
     <g id="text_12">
      <!-- 2 -->
      <g transform="translate(43.795438 123.95452) scale(0.1265 -0.1265)">
       <use xlink:href="#DejaVuSans-32"/>
      </g>
     </g>
    </g>
    <g id="ytick_4">
     <g id="line2d_12">
      <g>
       <use xlink:href="#ma5a09e0722" x="58.844" y="76.430841" style="stroke: #000000; stroke-width: 0.8"/>
      </g>
     </g>
     <g id="text_13">
      <!-- 4 -->
      <g transform="translate(43.795438 81.236853) scale(0.1265 -0.1265)">
       <defs>
        <path id="DejaVuSans-34" d="M 2419 4116 
L 825 1625 
L 2419 1625 
L 2419 4116 
z
M 2253 4666 
L 3047 4666 
L 3047 1625 
L 3713 1625 
L 3713 1100 
L 3047 1100 
L 3047 0 
L 2419 0 
L 2419 1100 
L 313 1100 
L 313 1709 
L 2253 4666 
z
" transform="scale(0.015625)"/>
       </defs>
       <use xlink:href="#DejaVuSans-34"/>
      </g>
     </g>
    </g>
    <g id="ytick_5">
     <g id="line2d_13">
      <g>
       <use xlink:href="#ma5a09e0722" x="58.844" y="33.713173" style="stroke: #000000; stroke-width: 0.8"/>
      </g>
     </g>
     <g id="text_14">
      <!-- 6 -->
      <g transform="translate(43.795438 38.519185) scale(0.1265 -0.1265)">
       <defs>
        <path id="DejaVuSans-36" d="M 2113 2584 
Q 1688 2584 1439 2293 
Q 1191 2003 1191 1497 
Q 1191 994 1439 701 
Q 1688 409 2113 409 
Q 2538 409 2786 701 
Q 3034 994 3034 1497 
Q 3034 2003 2786 2293 
Q 2538 2584 2113 2584 
z
M 3366 4563 
L 3366 3988 
Q 3128 4100 2886 4159 
Q 2644 4219 2406 4219 
Q 1781 4219 1451 3797 
Q 1122 3375 1075 2522 
Q 1259 2794 1537 2939 
Q 1816 3084 2150 3084 
Q 2853 3084 3261 2657 
Q 3669 2231 3669 1497 
Q 3669 778 3244 343 
Q 2819 -91 2113 -91 
Q 1303 -91 875 529 
Q 447 1150 447 2328 
Q 447 3434 972 4092 
Q 1497 4750 2381 4750 
Q 2619 4750 2861 4703 
Q 3103 4656 3366 4563 
z
" transform="scale(0.015625)"/>
       </defs>
       <use xlink:href="#DejaVuSans-36"/>
      </g>
     </g>
    </g>
    <g id="text_15">
     <!-- dP/dH -->
     <g transform="translate(26.086 155.71768) rotate(-90) scale(0.1495 -0.1495)">
      <defs>
       <path id="DejaVuSans-64" d="M 2906 2969 
L 2906 4863 
L 3481 4863 
L 3481 0 
L 2906 0 
L 2906 525 
Q 2725 213 2448 61 
Q 2172 -91 1784 -91 
Q 1150 -91 751 415 
Q 353 922 353 1747 
Q 353 2572 751 3078 
Q 1150 3584 1784 3584 
Q 2172 3584 2448 3432 
Q 2725 3281 2906 2969 
z
M 947 1747 
Q 947 1113 1208 752 
Q 1469 391 1925 391 
Q 2381 391 2643 752 
Q 2906 1113 2906 1747 
Q 2906 2381 2643 2742 
Q 2381 3103 1925 3103 
Q 1469 3103 1208 2742 
Q 947 2381 947 1747 
z
" transform="scale(0.015625)"/>
       <path id="DejaVuSans-50" d="M 1259 4147 
L 1259 2394 
L 2053 2394 
Q 2494 2394 2734 2622 
Q 2975 2850 2975 3272 
Q 2975 3691 2734 3919 
Q 2494 4147 2053 4147 
L 1259 4147 
z
M 628 4666 
L 2053 4666 
Q 2838 4666 3239 4311 
Q 3641 3956 3641 3272 
Q 3641 2581 3239 2228 
Q 2838 1875 2053 1875 
L 1259 1875 
L 1259 0 
L 628 0 
L 628 4666 
z
" transform="scale(0.015625)"/>
       <path id="DejaVuSans-2f" d="M 1625 4666 
L 2156 4666 
L 531 -594 
L 0 -594 
L 1625 4666 
z
" transform="scale(0.015625)"/>
      </defs>
      <use xlink:href="#DejaVuSans-64"/>
      <use xlink:href="#DejaVuSans-50" transform="translate(63.476562 0)"/>
      <use xlink:href="#DejaVuSans-2f" transform="translate(123.779297 0)"/>
      <use xlink:href="#DejaVuSans-64" transform="translate(157.470703 0)"/>
      <use xlink:href="#DejaVuSans-48" transform="translate(220.947266 0)"/>
     </g>
    </g>
   </g>
   <g id="line2d_14">
    <path d="M 78.400909 163.3925 
L 78.400909 162.814316 
L 78.400909 162.965751 
L 81.008497 162.945097 
L 81.008497 162.559655 
L 83.616085 163.481994 
L 83.616085 162.621596 
L 83.616085 164.610829 
L 86.223673 163.247965 
L 86.223673 161.540946 
L 86.223673 162.77303 
L 88.831261 163.172248 
L 88.831261 164.480049 
L 88.831261 162.18107 
L 91.438848 163.894967 
L 91.438848 164.005114 
L 91.438848 162.002104 
L 94.046436 163.137839 
L 94.046436 163.027691 
L 94.046436 163.481994 
L 96.654024 162.346259 
L 96.654024 164.225366 
L 96.654024 163.764187 
L 99.261612 162.132884 
L 99.261612 164.025747 
L 99.261612 162.366913 
L 101.8692 165.457451 
L 101.8692 164.34237 
L 101.8692 165.574455 
L 101.8692 165.133929 
L 104.476788 164.190957 
L 104.476788 165.767197 
L 107.084376 165.608885 
L 107.084376 165.223422 
L 107.084376 167.770185 
L 109.691964 165.175237 
L 109.691964 166.744598 
L 109.691964 166.338481 
L 112.299552 166.937319 
L 112.299552 166.717067 
L 112.299552 167.969784 
L 114.907139 167.185103 
L 114.907139 167.315883 
L 114.907139 166.916665 
L 117.514727 167.240187 
L 117.514727 166.957973 
L 120.122315 166.324726 
L 120.122315 164.941208 
L 120.122315 167.054323 
L 122.729903 163.784841 
L 122.729903 164.486927 
L 125.337491 161.91951 
L 125.337491 160.315739 
L 125.337491 162.428875 
L 127.945079 161.355102 
L 127.945079 157.349104 
L 130.552667 160.487827 
L 130.552667 164.87239 
L 130.552667 163.316783 
L 133.160255 160.694324 
L 133.160255 160.77002 
L 133.160255 160.067955 
L 133.160255 160.9008 
L 135.767842 161.733666 
L 135.767842 157.727689 
L 135.767842 161.417043 
L 138.37543 161.499638 
L 138.37543 156.653916 
L 140.983018 160.377701 
L 140.983018 160.301984 
L 140.983018 160.893922 
L 143.590606 159.455341 
L 143.590606 160.694324 
L 146.198194 160.983416 
L 146.198194 161.410165 
L 146.198194 160.825104 
L 148.805782 160.604831 
L 148.805782 161.217445 
L 148.805782 159.778863 
L 151.41337 161.141728 
L 151.41337 159.964706 
L 151.41337 161.16236 
L 154.020958 160.880167 
L 154.020958 161.644194 
L 156.628545 164.555766 
L 156.628545 159.33146 
L 159.236133 163.247965 
L 159.236133 165.092642 
L 159.236133 162.690435 
L 161.843721 162.821215 
L 161.843721 163.695368 
L 164.451309 162.83497 
L 164.451309 164.548867 
L 164.451309 161.396389 
L 167.058897 163.95003 
L 167.058897 163.00016 
L 167.058897 164.307961 
L 169.666485 164.452518 
L 169.666485 167.887189 
L 169.666485 162.463284 
L 172.274073 167.157571 
L 172.274073 164.418087 
L 172.274073 165.760298 
L 174.881661 168.334593 
L 174.881661 165.62264 
L 174.881661 167.006159 
L 177.489248 167.680692 
L 177.489248 169.663048 
L 180.096836 169.532268 
L 180.096836 173.428098 
L 182.704424 176.305261 
L 182.704424 181.164737 
L 182.704424 176.167582 
L 185.312012 189.410678 
L 185.312012 184.977973 
L 185.312012 192.466786 
L 187.9196 203.878939 
L 187.9196 194.834562 
L 187.9196 201.573103 
L 190.527188 208.235927 
L 190.527188 206.226082 
L 190.527188 207.774769 
L 193.134776 206.976333 
L 193.134776 199.074547 
L 193.134776 205.179841 
L 195.742364 185.377191 
L 195.742364 195.350805 
L 198.349952 175.988637 
L 198.349952 182.713424 
L 198.349952 178.59732 
L 200.957539 175.906021 
L 200.957539 174.488115 
L 200.957539 176.532391 
L 203.565127 181.144083 
L 203.565127 177.957196 
L 203.565127 179.918876 
L 206.172715 181.116552 
L 206.172715 181.075244 
L 206.172715 179.485249 
L 208.780303 181.921865 
L 208.780303 180.676026 
L 208.780303 181.281741 
L 211.387891 187.256277 
L 211.387891 184.2346 
L 211.387891 191.59951 
L 213.995479 208.325421 
L 213.995479 195.075468 
L 213.995479 197.780522 
L 216.603067 219.730675 
L 216.603067 211.257604 
L 216.603067 213.680443 
L 219.210655 225.54 
L 219.210655 221.891975 
L 219.210655 224.060132 
L 221.818242 223.67469 
L 221.818242 224.762197 
L 221.818242 219.358988 
L 224.42583 189.362514 
L 224.42583 214.595904 
L 224.42583 208.22905 
L 227.033418 138.984821 
L 227.033418 177.317071 
L 227.033418 166.021858 
L 229.641006 105.477253 
L 229.641006 124.261643 
L 229.641006 82.122159 
L 232.248594 51.841996 
L 232.248594 44.958493 
L 232.248594 70.069347 
L 232.248594 59.482649 
L 234.856182 44.476659 
L 234.856182 46.114924 
L 234.856182 41.62 
L 234.856182 42.989806 
L 237.46377 58.181661 
L 237.46377 51.325732 
L 237.46377 70.179495 
L 237.46377 65.622673 
L 240.071358 81.853699 
L 240.071358 106.124276 
L 240.071358 90.437238 
L 242.678945 119.815075 
L 242.678945 128.57743 
L 242.678945 112.773516 
L 245.286533 134.448803 
L 245.286533 140.994708 
L 245.286533 137.264025 
L 247.894121 144.911235 
L 247.894121 147.85036 
L 247.894121 146.721503 
L 250.501709 148.683205 
L 250.501709 146.432411 
L 250.501709 151.505305 
L 253.109297 154.327405 
L 253.109297 152.70298 
L 253.109297 153.411944 
L 255.716885 157.025603 
L 255.716885 154.14844 
L 258.324473 157.741444 
L 258.324473 156.144551 
L 260.932061 156.178981 
L 260.932061 157.638195 
L 260.932061 155.332338 
L 263.539648 158.491716 
L 263.539648 156.750266 
L 263.539648 160.240022 
L 266.147236 161.258731 
L 266.147236 159.042368 
L 266.147236 160.370802 
L 268.754824 159.407177 
L 268.754824 160.714957 
L 271.362412 159.999115 
L 271.362412 160.088609 
L 271.362412 162.256787 
L 271.362412 160.432764 
L 273.97 159.482872 
L 273.97 158.842748 
L 273.97 160.584177 
L 276.577588 160.653016 
L 276.577588 159.882112 
L 276.577588 160.680548 
L 279.185176 160.866391 
L 279.185176 161.389511 
L 279.185176 160.735611 
L 281.792764 162.580288 
L 281.792764 160.687425 
L 281.792764 162.119129 
L 284.400352 160.914576 
L 284.400352 159.716901 
L 284.400352 161.265609 
L 287.007939 161.341326 
L 287.007939 161.596009 
L 287.007939 161.36198 
L 289.615527 165.540045 
L 289.615527 161.657949 
L 289.615527 162.057167 
L 292.223115 160.625485 
L 292.223115 162.167315 
L 294.830703 163.894967 
L 294.830703 161.499638 
L 294.830703 161.5616 
L 297.438291 161.891978 
L 297.438291 161.534068 
L 297.438291 162.153538 
L 300.045879 159.861458 
L 300.045879 161.678603 
L 302.653467 161.726789 
L 302.653467 161.582232 
L 302.653467 162.036535 
L 305.261055 161.905754 
L 305.261055 162.373812 
L 305.261055 161.430819 
L 307.868642 160.054178 
L 307.868642 161.857569 
L 307.868642 161.733666 
L 310.47623 162.05029 
L 310.47623 163.426931 
L 310.47623 162.002104 
L 313.083818 160.969639 
L 313.083818 162.910688 
L 313.083818 162.249909 
L 315.691406 161.42392 
L 315.691406 162.676659 
L 315.691406 160.653016 
L 315.691406 161.836915 
L 318.298994 162.126007 
L 318.298994 161.513414 
L 318.298994 162.112252 
L 320.906582 160.907699 
L 320.906582 162.587187 
L 320.906582 161.981471 
L 323.51417 161.169259 
L 323.51417 162.51147 
L 323.51417 161.91951 
L 326.121758 161.781852 
L 326.121758 163.59212 
L 326.121758 162.477039 
L 328.729345 161.713012 
L 328.729345 166.249009 
L 331.336933 164.982516 
L 331.336933 161.857569 
L 333.944521 162.263664 
L 333.944521 162.477039 
L 333.944521 161.8851 
L 336.552109 159.902744 
L 336.552109 163.013936 
L 336.552109 161.430819 
L 339.159697 162.153538 
L 339.159697 161.589131 
L 339.159697 162.187947 
L 341.767285 164.239122 
L 341.767285 161.272508 
L 344.374873 161.637295 
L 344.374873 162.890034 
L 344.374873 160.329515 
L 346.982461 162.270563 
L 346.982461 162.70419 
L 346.982461 161.534068 
L 346.982461 162.532124 
L 349.590048 162.277441 
L 349.590048 161.719911 
L 349.590048 163.98446 
L 349.590048 162.552756 
L 352.197636 164.032646 
L 352.197636 161.155483 
L 352.197636 162.401343 
L 354.805224 162.201724 
L 354.805224 162.229255 
L 354.805224 161.355102 
L 357.412812 162.456407 
L 357.412812 163.660938 
L 357.412812 161.417043 
L 360.0204 162.015881 
L 360.0204 161.141728 
L 360.0204 163.254842 
L 360.0204 162.194846 
L 362.627988 162.31185 
L 362.627988 160.907699 
L 362.627988 162.236133 
L 365.235576 162.194846 
L 365.235576 161.781852 
L 365.235576 162.318727 
L 367.843164 163.516403 
L 367.843164 160.295085 
L 367.843164 162.249909 
L 370.450752 162.360035 
L 370.450752 161.836915 
L 370.450752 162.662904 
L 370.450752 162.353158 
L 373.058339 161.747443 
L 373.058339 163.096531 
L 373.058339 155.986239 
L 373.058339 162.958873 
L 375.665927 163.791718 
L 375.665927 161.685481 
L 378.273515 160.198735 
L 378.273515 162.649127 
L 378.273515 161.940163 
L 380.881103 161.540946 
L 380.881103 162.90381 
L 380.881103 162.318727 
L 383.488691 161.589131 
L 383.488691 162.119129 
L 383.488691 162.043412 
L 386.096279 161.830037 
L 386.096279 162.587187 
L 386.096279 160.322616 
L 386.096279 162.139783 
L 388.703867 163.068999 
L 388.703867 161.093542 
L 388.703867 162.236133 
L 391.311455 161.589131 
L 391.311455 163.578343 
L 391.311455 162.353158 
L 393.919042 162.428875 
L 393.919042 162.656005 
L 393.919042 158.608719 
L 393.919042 162.318727 
L 396.52663 162.387567 
L 396.52663 166.118229 
L 396.52663 162.222378 
L 399.134218 160.859513 
L 399.134218 160.295085 
L 399.134218 162.77303 
L 401.741806 162.717967 
L 401.741806 161.947041 
L 404.349394 162.435753 
L 404.349394 162.958873 
L 404.349394 161.981471 
L 406.956982 162.979527 
L 406.956982 159.33146 
L 409.56457 162.807439 
L 409.56457 161.816261 
L 409.56457 162.160416 
L 412.172158 162.525225 
L 412.172158 159.888989 
L 412.172158 162.270563 
L 414.779745 163.254842 
L 414.779745 161.540946 
L 414.779745 162.44263 
L 417.387333 161.809383 
L 417.387333 161.678603 
L 417.387333 162.539001 
L 419.994921 162.428875 
L 419.994921 162.277441 
L 419.994921 163.364969 
L 422.602509 162.126007 
L 422.602509 162.236133 
L 422.602509 161.313794 
L 422.602509 162.745498 
L 425.210097 161.95394 
L 425.210097 163.977583 
L 425.210097 163.013936 
L 427.817685 162.607819 
L 427.817685 160.418987 
L 427.817685 163.234188 
L 430.425273 162.187947 
L 430.425273 161.836915 
L 430.425273 162.86938 
L 433.032861 163.433808 
L 433.032861 162.408221 
L 433.032861 166.166415 
L 435.640448 162.428875 
L 435.640448 163.275496 
L 435.640448 161.891978 
L 438.248036 161.713012 
L 438.248036 164.184059 
L 438.248036 161.520292 
L 440.855624 162.360035 
L 440.855624 161.121074 
L 440.855624 162.449508 
L 443.463212 162.277441 
L 443.463212 163.977583 
L 443.463212 162.580288 
L 446.0708 162.380689 
L 446.0708 163.055223 
L 446.0708 162.649127 
L 448.678388 163.041468 
L 448.678388 160.749387 
L 448.678388 164.094586 
L 451.285976 164.610829 
L 451.285976 161.926387 
L 453.893564 163.426931 
L 453.893564 161.905754 
L 453.893564 162.401343 
L 456.501152 161.10042 
L 456.501152 162.497693 
L 456.501152 162.236133 
L 459.108739 164.067055 
L 459.108739 161.107297 
L 459.108739 162.373812 
L 461.716327 161.045357 
L 461.716327 163.798617 
L 461.716327 162.346259 
L 464.323915 162.380689 
L 464.323915 168.169403 
L 464.323915 162.353158 
L 466.931503 162.360035 
L 466.931503 163.068999 
L 466.931503 161.82316 
L 469.539091 160.859513 
L 469.539091 163.413154 
L 469.539091 162.821215 
" clip-path="url(#pcae753c9fa)" style="fill: none; stroke: #cc7000; stroke-opacity: 0.7; stroke-width: 1.4; stroke-linecap: square"/>
   </g>
   <g id="line2d_15">
    <path d="M 78.400909 162.965751 
L 81.008497 162.73861 
L 83.616085 163.636856 
L 86.223673 162.662893 
L 88.831261 162.979516 
L 91.438848 163.024252 
L 94.046436 163.299589 
L 96.654024 163.771075 
L 99.261612 162.810878 
L 101.8692 165.29569 
L 104.476788 165.075427 
L 107.084376 165.653621 
L 109.691964 166.486477 
L 112.299552 167.057772 
L 114.907139 167.109396 
L 117.514727 167.023352 
L 122.729903 164.225366 
L 125.337491 162.067494 
L 127.945079 160.893922 
L 130.552667 162.504581 
L 133.160255 160.732172 
L 135.767842 160.394895 
L 143.590606 160.422437 
L 146.198194 161.010947 
L 148.805782 160.670221 
L 154.020958 161.207107 
L 156.628545 162.742049 
L 159.236133 163.086204 
L 164.451309 163.124062 
L 167.058897 163.925948 
L 169.666485 164.531674 
L 172.274073 165.866985 
L 174.881661 166.689535 
L 177.489248 168.420637 
L 180.096836 170.798761 
L 182.704424 177.475383 
L 185.312012 188.016854 
L 187.9196 200.430512 
L 190.527188 207.165615 
L 193.134776 203.730954 
L 195.742364 189.79958 
L 198.349952 180.607197 
L 200.957539 176.202002 
L 203.565127 179.492127 
L 206.172715 180.731089 
L 208.780303 180.978883 
L 211.387891 188.464258 
L 213.995479 200.299732 
L 216.603067 215.494139 
L 219.210655 222.98637 
L 221.818242 222.380665 
L 224.42583 203.638032 
L 227.033418 159.169688 
L 229.641006 100.820707 
L 232.248594 55.662323 
L 234.856182 43.733232 
L 237.46377 61.902167 
L 240.071358 95.971419 
L 242.678945 122.365309 
L 245.286533 138.633778 
L 247.894121 147.230858 
L 250.501709 150.008222 
L 253.109297 153.738895 
L 255.716885 155.752221 
L 258.324473 156.781247 
L 260.932061 156.726184 
L 263.539648 157.944502 
L 266.147236 159.899306 
L 268.754824 159.544834 
L 271.362412 160.260686 
L 273.97 159.892428 
L 276.577588 160.591065 
L 279.185176 160.976528 
L 281.792764 161.499648 
L 284.400352 160.622046 
L 287.007939 161.465228 
L 289.615527 161.926398 
L 292.223115 161.413604 
L 297.438291 161.847242 
L 300.045879 160.955874 
L 302.653467 161.847242 
L 305.261055 161.95049 
L 307.868642 161.306917 
L 310.47623 162.070944 
L 313.083818 162.122568 
L 315.691406 161.630418 
L 318.298994 161.891989 
L 323.51417 162.015881 
L 326.121758 162.40821 
L 328.729345 164.128995 
L 331.336933 162.033096 
L 333.944521 162.126007 
L 336.552109 161.816272 
L 339.159697 161.909193 
L 341.767285 163.048345 
L 344.374873 162.14665 
L 346.982461 162.401343 
L 349.590048 162.415099 
L 352.197636 161.878223 
L 354.805224 162.201724 
L 357.412812 161.957379 
L 362.627988 162.225806 
L 365.235576 162.246471 
L 367.843164 162.611269 
L 370.450752 162.356597 
L 375.665927 162.311861 
L 378.273515 162.060617 
L 380.881103 162.11568 
L 388.703867 161.843792 
L 391.311455 162.329065 
L 396.52663 162.415099 
L 399.134218 161.606336 
L 401.741806 162.174192 
L 404.349394 162.24646 
L 406.956982 162.57341 
L 409.56457 162.294645 
L 412.172158 162.218939 
L 414.779745 162.428864 
L 417.387333 162.136334 
L 419.994921 162.421987 
L 422.602509 162.18107 
L 425.210097 162.848736 
L 427.817685 162.525225 
L 430.425273 162.34282 
L 433.032861 162.958873 
L 435.640448 162.287768 
L 438.248036 162.026197 
L 440.855624 162.205163 
L 443.463212 162.597503 
L 446.0708 162.793673 
L 451.285976 162.518347 
L 453.893564 162.611279 
L 456.501152 162.298084 
L 461.716327 162.569961 
L 464.323915 162.44263 
L 466.931503 162.532113 
L 469.539091 162.497693 
L 469.539091 162.497693 
" clip-path="url(#pcae753c9fa)" style="fill: none; stroke: #2980b9; stroke-width: 2; stroke-linecap: square"/>
   </g>
   <g id="patch_3">
    <path d="M 58.844 234.736 
L 58.844 32.424 
" style="fill: none; stroke: #000000; stroke-width: 0.8; stroke-linejoin: miter; stroke-linecap: square"/>
   </g>
   <g id="patch_4">
    <path d="M 489.096 234.736 
L 489.096 32.424 
" style="fill: none; stroke: #000000; stroke-width: 0.8; stroke-linejoin: miter; stroke-linecap: square"/>
   </g>
   <g id="patch_5">
    <path d="M 58.844 234.736 
L 489.096 234.736 
" style="fill: none; stroke: #000000; stroke-width: 0.8; stroke-linejoin: miter; stroke-linecap: square"/>
   </g>
   <g id="patch_6">
    <path d="M 58.844 32.424 
L 489.096 32.424 
" style="fill: none; stroke: #000000; stroke-width: 0.8; stroke-linejoin: miter; stroke-linecap: square"/>
   </g>
   <g id="text_16">
    <!-- AZ5, f=9 GHz, 10 dB -->
    <g transform="translate(190.38207 26.424) scale(0.161 -0.161)">
     <defs>
      <path id="DejaVuSans-41" d="M 2188 4044 
L 1331 1722 
L 3047 1722 
L 2188 4044 
z
M 1831 4666 
L 2547 4666 
L 4325 0 
L 3669 0 
L 3244 1197 
L 1141 1197 
L 716 0 
L 50 0 
L 1831 4666 
z
" transform="scale(0.015625)"/>
      <path id="DejaVuSans-5a" d="M 359 4666 
L 4025 4666 
L 4025 4184 
L 1075 531 
L 4097 531 
L 4097 0 
L 288 0 
L 288 481 
L 3238 4134 
L 359 4134 
L 359 4666 
z
" transform="scale(0.015625)"/>
      <path id="DejaVuSans-2c" d="M 750 794 
L 1409 794 
L 1409 256 
L 897 -744 
L 494 -744 
L 750 256 
L 750 794 
z
" transform="scale(0.015625)"/>
      <path id="DejaVuSans-66" d="M 2375 4863 
L 2375 4384 
L 1825 4384 
Q 1516 4384 1395 4259 
Q 1275 4134 1275 3809 
L 1275 3500 
L 2222 3500 
L 2222 3053 
L 1275 3053 
L 1275 0 
L 697 0 
L 697 3053 
L 147 3053 
L 147 3500 
L 697 3500 
L 697 3744 
Q 697 4328 969 4595 
Q 1241 4863 1831 4863 
L 2375 4863 
z
" transform="scale(0.015625)"/>
      <path id="DejaVuSans-3d" d="M 678 2906 
L 4684 2906 
L 4684 2381 
L 678 2381 
L 678 2906 
z
M 678 1631 
L 4684 1631 
L 4684 1100 
L 678 1100 
L 678 1631 
z
" transform="scale(0.015625)"/>
      <path id="DejaVuSans-39" d="M 703 97 
L 703 672 
Q 941 559 1184 500 
Q 1428 441 1663 441 
Q 2288 441 2617 861 
Q 2947 1281 2994 2138 
Q 2813 1869 2534 1725 
Q 2256 1581 1919 1581 
Q 1219 1581 811 2004 
Q 403 2428 403 3163 
Q 403 3881 828 4315 
Q 1253 4750 1959 4750 
Q 2769 4750 3195 4129 
Q 3622 3509 3622 2328 
Q 3622 1225 3098 567 
Q 2575 -91 1691 -91 
Q 1453 -91 1209 -44 
Q 966 3 703 97 
z
M 1959 2075 
Q 2384 2075 2632 2365 
Q 2881 2656 2881 3163 
Q 2881 3666 2632 3958 
Q 2384 4250 1959 4250 
Q 1534 4250 1286 3958 
Q 1038 3666 1038 3163 
Q 1038 2656 1286 2365 
Q 1534 2075 1959 2075 
z
" transform="scale(0.015625)"/>
      <path id="DejaVuSans-47" d="M 3809 666 
L 3809 1919 
L 2778 1919 
L 2778 2438 
L 4434 2438 
L 4434 434 
Q 4069 175 3628 42 
Q 3188 -91 2688 -91 
Q 1594 -91 976 548 
Q 359 1188 359 2328 
Q 359 3472 976 4111 
Q 1594 4750 2688 4750 
Q 3144 4750 3555 4637 
Q 3966 4525 4313 4306 
L 4313 3634 
Q 3963 3931 3569 4081 
Q 3175 4231 2741 4231 
Q 1884 4231 1454 3753 
Q 1025 3275 1025 2328 
Q 1025 1384 1454 906 
Q 1884 428 2741 428 
Q 3075 428 3337 486 
Q 3600 544 3809 666 
z
" transform="scale(0.015625)"/>
      <path id="DejaVuSans-7a" d="M 353 3500 
L 3084 3500 
L 3084 2975 
L 922 459 
L 3084 459 
L 3084 0 
L 275 0 
L 275 525 
L 2438 3041 
L 353 3041 
L 353 3500 
z
" transform="scale(0.015625)"/>
      <path id="DejaVuSans-42" d="M 1259 2228 
L 1259 519 
L 2272 519 
Q 2781 519 3026 730 
Q 3272 941 3272 1375 
Q 3272 1813 3026 2020 
Q 2781 2228 2272 2228 
L 1259 2228 
z
M 1259 4147 
L 1259 2741 
L 2194 2741 
Q 2656 2741 2882 2914 
Q 3109 3088 3109 3444 
Q 3109 3797 2882 3972 
Q 2656 4147 2194 4147 
L 1259 4147 
z
M 628 4666 
L 2241 4666 
Q 2963 4666 3353 4366 
Q 3744 4066 3744 3513 
Q 3744 3084 3544 2831 
Q 3344 2578 2956 2516 
Q 3422 2416 3680 2098 
Q 3938 1781 3938 1306 
Q 3938 681 3513 340 
Q 3088 0 2303 0 
L 628 0 
L 628 4666 
z
" transform="scale(0.015625)"/>
     </defs>
     <use xlink:href="#DejaVuSans-41"/>
     <use xlink:href="#DejaVuSans-5a" transform="translate(68.408203 0)"/>
     <use xlink:href="#DejaVuSans-35" transform="translate(136.914062 0)"/>
     <use xlink:href="#DejaVuSans-2c" transform="translate(200.537109 0)"/>
     <use xlink:href="#DejaVuSans-20" transform="translate(232.324219 0)"/>
     <use xlink:href="#DejaVuSans-66" transform="translate(264.111328 0)"/>
     <use xlink:href="#DejaVuSans-3d" transform="translate(299.316406 0)"/>
     <use xlink:href="#DejaVuSans-39" transform="translate(383.105469 0)"/>
     <use xlink:href="#DejaVuSans-20" transform="translate(446.728516 0)"/>
     <use xlink:href="#DejaVuSans-47" transform="translate(478.515625 0)"/>
     <use xlink:href="#DejaVuSans-48" transform="translate(556.005859 0)"/>
     <use xlink:href="#DejaVuSans-7a" transform="translate(631.201172 0)"/>
     <use xlink:href="#DejaVuSans-2c" transform="translate(683.691406 0)"/>
     <use xlink:href="#DejaVuSans-20" transform="translate(715.478516 0)"/>
     <use xlink:href="#DejaVuSans-31" transform="translate(747.265625 0)"/>
     <use xlink:href="#DejaVuSans-30" transform="translate(810.888672 0)"/>
     <use xlink:href="#DejaVuSans-20" transform="translate(874.511719 0)"/>
     <use xlink:href="#DejaVuSans-64" transform="translate(906.298828 0)"/>
     <use xlink:href="#DejaVuSans-42" transform="translate(969.775391 0)"/>
    </g>
   </g>
   <g id="legend_1">
    <g id="patch_7">
     <path d="M 287.695781 83.975625 
L 479.436 83.975625 
Q 482.196 83.975625 482.196 81.215625 
L 482.196 42.084 
Q 482.196 39.324 479.436 39.324 
L 287.695781 39.324 
Q 284.935781 39.324 284.935781 42.084 
L 284.935781 81.215625 
Q 284.935781 83.975625 287.695781 83.975625 
z
" style="fill: #ffffff; opacity: 0.8; stroke: #cccccc; stroke-linejoin: miter"/>
    </g>
    <g id="line2d_16">
     <path d="M 290.455781 50.499844 
L 304.255781 50.499844 
L 318.055781 50.499844 
" style="fill: none; stroke: #cc7000; stroke-opacity: 0.7; stroke-width: 1.4; stroke-linecap: square"/>
    </g>
    <g id="text_17">
     <!-- Raw data (curve) -->
     <g transform="translate(329.095781 55.329844) scale(0.138 -0.138)">
      <defs>
       <path id="DejaVuSans-52" d="M 2841 2188 
Q 3044 2119 3236 1894 
Q 3428 1669 3622 1275 
L 4263 0 
L 3584 0 
L 2988 1197 
Q 2756 1666 2539 1819 
Q 2322 1972 1947 1972 
L 1259 1972 
L 1259 0 
L 628 0 
L 628 4666 
L 2053 4666 
Q 2853 4666 3247 4331 
Q 3641 3997 3641 3322 
Q 3641 2881 3436 2590 
Q 3231 2300 2841 2188 
z
M 1259 4147 
L 1259 2491 
L 2053 2491 
Q 2509 2491 2742 2702 
Q 2975 2913 2975 3322 
Q 2975 3731 2742 3939 
Q 2509 4147 2053 4147 
L 1259 4147 
z
" transform="scale(0.015625)"/>
       <path id="DejaVuSans-61" d="M 2194 1759 
Q 1497 1759 1228 1600 
Q 959 1441 959 1056 
Q 959 750 1161 570 
Q 1363 391 1709 391 
Q 2188 391 2477 730 
Q 2766 1069 2766 1631 
L 2766 1759 
L 2194 1759 
z
M 3341 1997 
L 3341 0 
L 2766 0 
L 2766 531 
Q 2569 213 2275 61 
Q 1981 -91 1556 -91 
Q 1019 -91 701 211 
Q 384 513 384 1019 
Q 384 1609 779 1909 
Q 1175 2209 1959 2209 
L 2766 2209 
L 2766 2266 
Q 2766 2663 2505 2880 
Q 2244 3097 1772 3097 
Q 1472 3097 1187 3025 
Q 903 2953 641 2809 
L 641 3341 
Q 956 3463 1253 3523 
Q 1550 3584 1831 3584 
Q 2591 3584 2966 3190 
Q 3341 2797 3341 1997 
z
" transform="scale(0.015625)"/>
       <path id="DejaVuSans-77" d="M 269 3500 
L 844 3500 
L 1563 769 
L 2278 3500 
L 2956 3500 
L 3675 769 
L 4391 3500 
L 4966 3500 
L 4050 0 
L 3372 0 
L 2619 2869 
L 1863 0 
L 1184 0 
L 269 3500 
z
" transform="scale(0.015625)"/>
       <path id="DejaVuSans-74" d="M 1172 4494 
L 1172 3500 
L 2356 3500 
L 2356 3053 
L 1172 3053 
L 1172 1153 
Q 1172 725 1289 603 
Q 1406 481 1766 481 
L 2356 481 
L 2356 0 
L 1766 0 
Q 1100 0 847 248 
Q 594 497 594 1153 
L 594 3053 
L 172 3053 
L 172 3500 
L 594 3500 
L 594 4494 
L 1172 4494 
z
" transform="scale(0.015625)"/>
       <path id="DejaVuSans-63" d="M 3122 3366 
L 3122 2828 
Q 2878 2963 2633 3030 
Q 2388 3097 2138 3097 
Q 1578 3097 1268 2742 
Q 959 2388 959 1747 
Q 959 1106 1268 751 
Q 1578 397 2138 397 
Q 2388 397 2633 464 
Q 2878 531 3122 666 
L 3122 134 
Q 2881 22 2623 -34 
Q 2366 -91 2075 -91 
Q 1284 -91 818 406 
Q 353 903 353 1747 
Q 353 2603 823 3093 
Q 1294 3584 2113 3584 
Q 2378 3584 2631 3529 
Q 2884 3475 3122 3366 
z
" transform="scale(0.015625)"/>
       <path id="DejaVuSans-75" d="M 544 1381 
L 544 3500 
L 1119 3500 
L 1119 1403 
Q 1119 906 1312 657 
Q 1506 409 1894 409 
Q 2359 409 2629 706 
Q 2900 1003 2900 1516 
L 2900 3500 
L 3475 3500 
L 3475 0 
L 2900 0 
L 2900 538 
Q 2691 219 2414 64 
Q 2138 -91 1772 -91 
Q 1169 -91 856 284 
Q 544 659 544 1381 
z
M 1991 3584 
L 1991 3584 
z
" transform="scale(0.015625)"/>
       <path id="DejaVuSans-72" d="M 2631 2963 
Q 2534 3019 2420 3045 
Q 2306 3072 2169 3072 
Q 1681 3072 1420 2755 
Q 1159 2438 1159 1844 
L 1159 0 
L 581 0 
L 581 3500 
L 1159 3500 
L 1159 2956 
Q 1341 3275 1631 3429 
Q 1922 3584 2338 3584 
Q 2397 3584 2469 3576 
Q 2541 3569 2628 3553 
L 2631 2963 
z
" transform="scale(0.015625)"/>
       <path id="DejaVuSans-76" d="M 191 3500 
L 800 3500 
L 1894 563 
L 2988 3500 
L 3597 3500 
L 2284 0 
L 1503 0 
L 191 3500 
z
" transform="scale(0.015625)"/>
       <path id="DejaVuSans-65" d="M 3597 1894 
L 3597 1613 
L 953 1613 
Q 991 1019 1311 708 
Q 1631 397 2203 397 
Q 2534 397 2845 478 
Q 3156 559 3463 722 
L 3463 178 
Q 3153 47 2828 -22 
Q 2503 -91 2169 -91 
Q 1331 -91 842 396 
Q 353 884 353 1716 
Q 353 2575 817 3079 
Q 1281 3584 2069 3584 
Q 2775 3584 3186 3129 
Q 3597 2675 3597 1894 
z
M 3022 2063 
Q 3016 2534 2758 2815 
Q 2500 3097 2075 3097 
Q 1594 3097 1305 2825 
Q 1016 2553 972 2059 
L 3022 2063 
z
" transform="scale(0.015625)"/>
      </defs>
      <use xlink:href="#DejaVuSans-52"/>
      <use xlink:href="#DejaVuSans-61" transform="translate(67.232422 0)"/>
      <use xlink:href="#DejaVuSans-77" transform="translate(128.511719 0)"/>
      <use xlink:href="#DejaVuSans-20" transform="translate(210.298828 0)"/>
      <use xlink:href="#DejaVuSans-64" transform="translate(242.085938 0)"/>
      <use xlink:href="#DejaVuSans-61" transform="translate(305.5625 0)"/>
      <use xlink:href="#DejaVuSans-74" transform="translate(366.841797 0)"/>
      <use xlink:href="#DejaVuSans-61" transform="translate(406.050781 0)"/>
      <use xlink:href="#DejaVuSans-20" transform="translate(467.330078 0)"/>
      <use xlink:href="#DejaVuSans-28" transform="translate(499.117188 0)"/>
      <use xlink:href="#DejaVuSans-63" transform="translate(538.130859 0)"/>
      <use xlink:href="#DejaVuSans-75" transform="translate(593.111328 0)"/>
      <use xlink:href="#DejaVuSans-72" transform="translate(656.490234 0)"/>
      <use xlink:href="#DejaVuSans-76" transform="translate(697.603516 0)"/>
      <use xlink:href="#DejaVuSans-65" transform="translate(756.783203 0)"/>
      <use xlink:href="#DejaVuSans-29" transform="translate(818.306641 0)"/>
     </g>
    </g>
    <g id="line2d_17">
     <path d="M 290.455781 70.755656 
L 304.255781 70.755656 
L 318.055781 70.755656 
" style="fill: none; stroke: #2980b9; stroke-width: 2; stroke-linecap: square"/>
    </g>
    <g id="text_18">
     <!-- Aggregated (median) -->
     <g transform="translate(329.095781 75.585656) scale(0.138 -0.138)">
      <defs>
       <path id="DejaVuSans-67" d="M 2906 1791 
Q 2906 2416 2648 2759 
Q 2391 3103 1925 3103 
Q 1463 3103 1205 2759 
Q 947 2416 947 1791 
Q 947 1169 1205 825 
Q 1463 481 1925 481 
Q 2391 481 2648 825 
Q 2906 1169 2906 1791 
z
M 3481 434 
Q 3481 -459 3084 -895 
Q 2688 -1331 1869 -1331 
Q 1566 -1331 1297 -1286 
Q 1028 -1241 775 -1147 
L 775 -588 
Q 1028 -725 1275 -790 
Q 1522 -856 1778 -856 
Q 2344 -856 2625 -561 
Q 2906 -266 2906 331 
L 2906 616 
Q 2728 306 2450 153 
Q 2172 0 1784 0 
Q 1141 0 747 490 
Q 353 981 353 1791 
Q 353 2603 747 3093 
Q 1141 3584 1784 3584 
Q 2172 3584 2450 3431 
Q 2728 3278 2906 2969 
L 2906 3500 
L 3481 3500 
L 3481 434 
z
" transform="scale(0.015625)"/>
       <path id="DejaVuSans-6d" d="M 3328 2828 
Q 3544 3216 3844 3400 
Q 4144 3584 4550 3584 
Q 5097 3584 5394 3201 
Q 5691 2819 5691 2113 
L 5691 0 
L 5113 0 
L 5113 2094 
Q 5113 2597 4934 2840 
Q 4756 3084 4391 3084 
Q 3944 3084 3684 2787 
Q 3425 2491 3425 1978 
L 3425 0 
L 2847 0 
L 2847 2094 
Q 2847 2600 2669 2842 
Q 2491 3084 2119 3084 
Q 1678 3084 1418 2786 
Q 1159 2488 1159 1978 
L 1159 0 
L 581 0 
L 581 3500 
L 1159 3500 
L 1159 2956 
Q 1356 3278 1631 3431 
Q 1906 3584 2284 3584 
Q 2666 3584 2933 3390 
Q 3200 3197 3328 2828 
z
" transform="scale(0.015625)"/>
       <path id="DejaVuSans-69" d="M 603 3500 
L 1178 3500 
L 1178 0 
L 603 0 
L 603 3500 
z
M 603 4863 
L 1178 4863 
L 1178 4134 
L 603 4134 
L 603 4863 
z
" transform="scale(0.015625)"/>
       <path id="DejaVuSans-6e" d="M 3513 2113 
L 3513 0 
L 2938 0 
L 2938 2094 
Q 2938 2591 2744 2837 
Q 2550 3084 2163 3084 
Q 1697 3084 1428 2787 
Q 1159 2491 1159 1978 
L 1159 0 
L 581 0 
L 581 3500 
L 1159 3500 
L 1159 2956 
Q 1366 3272 1645 3428 
Q 1925 3584 2291 3584 
Q 2894 3584 3203 3211 
Q 3513 2838 3513 2113 
z
" transform="scale(0.015625)"/>
      </defs>
      <use xlink:href="#DejaVuSans-41"/>
      <use xlink:href="#DejaVuSans-67" transform="translate(68.408203 0)"/>
      <use xlink:href="#DejaVuSans-67" transform="translate(131.884766 0)"/>
      <use xlink:href="#DejaVuSans-72" transform="translate(195.361328 0)"/>
      <use xlink:href="#DejaVuSans-65" transform="translate(234.224609 0)"/>
      <use xlink:href="#DejaVuSans-67" transform="translate(295.748047 0)"/>
      <use xlink:href="#DejaVuSans-61" transform="translate(359.224609 0)"/>
      <use xlink:href="#DejaVuSans-74" transform="translate(420.503906 0)"/>
      <use xlink:href="#DejaVuSans-65" transform="translate(459.712891 0)"/>
      <use xlink:href="#DejaVuSans-64" transform="translate(521.236328 0)"/>
      <use xlink:href="#DejaVuSans-20" transform="translate(584.712891 0)"/>
      <use xlink:href="#DejaVuSans-28" transform="translate(616.5 0)"/>
      <use xlink:href="#DejaVuSans-6d" transform="translate(655.513672 0)"/>
      <use xlink:href="#DejaVuSans-65" transform="translate(752.925781 0)"/>
      <use xlink:href="#DejaVuSans-64" transform="translate(814.449219 0)"/>
      <use xlink:href="#DejaVuSans-69" transform="translate(877.925781 0)"/>
      <use xlink:href="#DejaVuSans-61" transform="translate(905.708984 0)"/>
      <use xlink:href="#DejaVuSans-6e" transform="translate(966.988281 0)"/>
      <use xlink:href="#DejaVuSans-29" transform="translate(1030.367188 0)"/>
     </g>
    </g>
   </g>
  </g>
 </g>
 <defs>
  <clipPath id="pcae753c9fa">
   <rect x="58.844" y="32.424" width="430.252" height="202.312"/>
  </clipPath>
 </defs>
</svg>
