<?xml version="1.0" encoding="utf-8" standalone="no"?>
<!DOCTYPE svg PUBLIC "-//W3C//DTD SVG 1.1//EN"
  "http://www.w3.org/Graphics/SVG/1.1/DTD/svg11.dtd">
<svg xmlns:xlink="http://www.w3.org/1999/xlink" width="504pt" height="288pt" viewBox="0 0 504 288" xmlns="http://www.w3.org/2000/svg" version="1.1">
 <metadata>
  <rdf:RDF xmlns:dc="http://purl.org/dc/elements/1.1/" xmlns:cc="http://creativecommons.org/ns#" xmlns:rdf="http://www.w3.org/1999/02/22-rdf-syntax-ns#">
   <cc:Work>
    <dc:type rdf:resource="http://purl.org/dc/dcmitype/StillImage"/>
    <dc:date>2025-10-06T17:42:39.012339</dc:date>
    <dc:format>image/svg+xml</dc:format>
    <dc:creator>
     <cc:Agent>
      <dc:title>Matplotlib v3.10.6, https://matplotlib.org/</dc:title>
     </cc:Agent>
    </dc:creator>
   </cc:Work>
  </rdf:RDF>
 </metadata>
 <defs>
  <style type="text/css">*{stroke-linejoin: round; stroke-linecap: butt}</style>
 </defs>
 <g id="figure_1">
  <g id="patch_1">
   <path d="M 0 288 
L 504 288 
L 504 0 
L 0 0 
z
" style="fill: #ffffff"/>
  </g>
  <g id="axes_1">
   <g id="patch_2">
    <path d="M 58.844 234.736 
L 489.096 234.736 
L 489.096 67.56 
L 58.844 67.56 
z
" style="fill: #ffffff"/>
   </g>
   <g id="matplotlib.axis_1">
    <g id="xtick_1">
     <g id="line2d_1">
      <defs>
       <path id="md4437692e0" d="M 0 0 
L 0 3.5 
" style="stroke: #000000; stroke-width: 0.8"/>
      </defs>
      <g>
       <use xlink:href="#md4437692e0" x="89.284735" y="234.736" style="stroke: #000000; stroke-width: 0.8"/>
      </g>
     </g>
     <g id="text_1">
      <!-- 120 -->
      <g transform="translate(77.211891 251.348023) scale(0.1265 -0.1265)">
       <defs>
        <path id="DejaVuSans-31" d="M 794 531 
L 1825 531 
L 1825 4091 
L 703 3866 
L 703 4441 
L 1819 4666 
L 2450 4666 
L 2450 531 
L 3481 531 
L 3481 0 
L 794 0 
L 794 531 
z
" transform="scale(0.015625)"/>
        <path id="DejaVuSans-32" d="M 1228 531 
L 3431 531 
L 3431 0 
L 469 0 
L 469 531 
Q 828 903 1448 1529 
Q 2069 2156 2228 2338 
Q 2531 2678 2651 2914 
Q 2772 3150 2772 3378 
Q 2772 3750 2511 3984 
Q 2250 4219 1831 4219 
Q 1534 4219 1204 4116 
Q 875 4013 500 3803 
L 500 4441 
Q 881 4594 1212 4672 
Q 1544 4750 1819 4750 
Q 2544 4750 2975 4387 
Q 3406 4025 3406 3419 
Q 3406 3131 3298 2873 
Q 3191 2616 2906 2266 
Q 2828 2175 2409 1742 
Q 1991 1309 1228 531 
z
" transform="scale(0.015625)"/>
        <path id="DejaVuSans-30" d="M 2034 4250 
Q 1547 4250 1301 3770 
Q 1056 3291 1056 2328 
Q 1056 1369 1301 889 
Q 1547 409 2034 409 
Q 2525 409 2770 889 
Q 3016 1369 3016 2328 
Q 3016 3291 2770 3770 
Q 2525 4250 2034 4250 
z
M 2034 4750 
Q 2819 4750 3233 4129 
Q 3647 3509 3647 2328 
Q 3647 1150 3233 529 
Q 2819 -91 2034 -91 
Q 1250 -91 836 529 
Q 422 1150 422 2328 
Q 422 3509 836 4129 
Q 1250 4750 2034 4750 
z
" transform="scale(0.015625)"/>
       </defs>
       <use xlink:href="#DejaVuSans-31"/>
       <use xlink:href="#DejaVuSans-32" transform="translate(63.623047 0)"/>
       <use xlink:href="#DejaVuSans-30" transform="translate(127.246094 0)"/>
      </g>
     </g>
    </g>
    <g id="xtick_2">
     <g id="line2d_2">
      <g>
       <use xlink:href="#md4437692e0" x="171.354965" y="234.736" style="stroke: #000000; stroke-width: 0.8"/>
      </g>
     </g>
     <g id="text_2">
      <!-- 125 -->
      <g transform="translate(159.282121 251.348023) scale(0.1265 -0.1265)">
       <defs>
        <path id="DejaVuSans-35" d="M 691 4666 
L 3169 4666 
L 3169 4134 
L 1269 4134 
L 1269 2991 
Q 1406 3038 1543 3061 
Q 1681 3084 1819 3084 
Q 2600 3084 3056 2656 
Q 3513 2228 3513 1497 
Q 3513 744 3044 326 
Q 2575 -91 1722 -91 
Q 1428 -91 1123 -41 
Q 819 9 494 109 
L 494 744 
Q 775 591 1075 516 
Q 1375 441 1709 441 
Q 2250 441 2565 725 
Q 2881 1009 2881 1497 
Q 2881 1984 2565 2268 
Q 2250 2553 1709 2553 
Q 1456 2553 1204 2497 
Q 953 2441 691 2322 
L 691 4666 
z
" transform="scale(0.015625)"/>
       </defs>
       <use xlink:href="#DejaVuSans-31"/>
       <use xlink:href="#DejaVuSans-32" transform="translate(63.623047 0)"/>
       <use xlink:href="#DejaVuSans-35" transform="translate(127.246094 0)"/>
      </g>
     </g>
    </g>
    <g id="xtick_3">
     <g id="line2d_3">
      <g>
       <use xlink:href="#md4437692e0" x="253.425195" y="234.736" style="stroke: #000000; stroke-width: 0.8"/>
      </g>
     </g>
     <g id="text_3">
      <!-- 130 -->
      <g transform="translate(241.352351 251.348023) scale(0.1265 -0.1265)">
       <defs>
        <path id="DejaVuSans-33" d="M 2597 2516 
Q 3050 2419 3304 2112 
Q 3559 1806 3559 1356 
Q 3559 666 3084 287 
Q 2609 -91 1734 -91 
Q 1441 -91 1130 -33 
Q 819 25 488 141 
L 488 750 
Q 750 597 1062 519 
Q 1375 441 1716 441 
Q 2309 441 2620 675 
Q 2931 909 2931 1356 
Q 2931 1769 2642 2001 
Q 2353 2234 1838 2234 
L 1294 2234 
L 1294 2753 
L 1863 2753 
Q 2328 2753 2575 2939 
Q 2822 3125 2822 3475 
Q 2822 3834 2567 4026 
Q 2313 4219 1838 4219 
Q 1578 4219 1281 4162 
Q 984 4106 628 3988 
L 628 4550 
Q 988 4650 1302 4700 
Q 1616 4750 1894 4750 
Q 2613 4750 3031 4423 
Q 3450 4097 3450 3541 
Q 3450 3153 3228 2886 
Q 3006 2619 2597 2516 
z
" transform="scale(0.015625)"/>
       </defs>
       <use xlink:href="#DejaVuSans-31"/>
       <use xlink:href="#DejaVuSans-33" transform="translate(63.623047 0)"/>
       <use xlink:href="#DejaVuSans-30" transform="translate(127.246094 0)"/>
      </g>
     </g>
    </g>
    <g id="xtick_4">
     <g id="line2d_4">
      <g>
       <use xlink:href="#md4437692e0" x="335.495425" y="234.736" style="stroke: #000000; stroke-width: 0.8"/>
      </g>
     </g>
     <g id="text_4">
      <!-- 135 -->
      <g transform="translate(323.422582 251.348023) scale(0.1265 -0.1265)">
       <use xlink:href="#DejaVuSans-31"/>
       <use xlink:href="#DejaVuSans-33" transform="translate(63.623047 0)"/>
       <use xlink:href="#DejaVuSans-35" transform="translate(127.246094 0)"/>
      </g>
     </g>
    </g>
    <g id="xtick_5">
     <g id="line2d_5">
      <g>
       <use xlink:href="#md4437692e0" x="417.565656" y="234.736" style="stroke: #000000; stroke-width: 0.8"/>
      </g>
     </g>
     <g id="text_5">
      <!-- 140 -->
      <g transform="translate(405.492812 251.348023) scale(0.1265 -0.1265)">
       <defs>
        <path id="DejaVuSans-34" d="M 2419 4116 
L 825 1625 
L 2419 1625 
L 2419 4116 
z
M 2253 4666 
L 3047 4666 
L 3047 1625 
L 3713 1625 
L 3713 1100 
L 3047 1100 
L 3047 0 
L 2419 0 
L 2419 1100 
L 313 1100 
L 313 1709 
L 2253 4666 
z
" transform="scale(0.015625)"/>
       </defs>
       <use xlink:href="#DejaVuSans-31"/>
       <use xlink:href="#DejaVuSans-34" transform="translate(63.623047 0)"/>
       <use xlink:href="#DejaVuSans-30" transform="translate(127.246094 0)"/>
      </g>
     </g>
    </g>
    <g id="text_6">
     <!-- H (T) -->
     <g transform="translate(255.574492 269.338492) scale(0.1495 -0.1495)">
      <defs>
       <path id="DejaVuSans-48" d="M 628 4666 
L 1259 4666 
L 1259 2753 
L 3553 2753 
L 3553 4666 
L 4184 4666 
L 4184 0 
L 3553 0 
L 3553 2222 
L 1259 2222 
L 1259 0 
L 628 0 
L 628 4666 
z
" transform="scale(0.015625)"/>
       <path id="DejaVuSans-20" transform="scale(0.015625)"/>
       <path id="DejaVuSans-28" d="M 1984 4856 
Q 1566 4138 1362 3434 
Q 1159 2731 1159 2009 
Q 1159 1288 1364 580 
Q 1569 -128 1984 -844 
L 1484 -844 
Q 1016 -109 783 600 
Q 550 1309 550 2009 
Q 550 2706 781 3412 
Q 1013 4119 1484 4856 
L 1984 4856 
z
" transform="scale(0.015625)"/>
       <path id="DejaVuSans-54" d="M -19 4666 
L 3928 4666 
L 3928 4134 
L 2272 4134 
L 2272 0 
L 1638 0 
L 1638 4134 
L -19 4134 
L -19 4666 
z
" transform="scale(0.015625)"/>
       <path id="DejaVuSans-29" d="M 513 4856 
L 1013 4856 
Q 1481 4119 1714 3412 
Q 1947 2706 1947 2009 
Q 1947 1309 1714 600 
Q 1481 -109 1013 -844 
L 513 -844 
Q 928 -128 1133 580 
Q 1338 1288 1338 2009 
Q 1338 2731 1133 3434 
Q 928 4138 513 4856 
z
" transform="scale(0.015625)"/>
      </defs>
      <use xlink:href="#DejaVuSans-48"/>
      <use xlink:href="#DejaVuSans-20" transform="translate(75.195312 0)"/>
      <use xlink:href="#DejaVuSans-28" transform="translate(106.982422 0)"/>
      <use xlink:href="#DejaVuSans-54" transform="translate(145.996094 0)"/>
      <use xlink:href="#DejaVuSans-29" transform="translate(207.080078 0)"/>
     </g>
    </g>
   </g>
   <g id="matplotlib.axis_2">
    <g id="ytick_1">
     <g id="line2d_6">
      <defs>
       <path id="mc941b7697a" d="M 0 0 
L -3.5 0 
" style="stroke: #000000; stroke-width: 0.8"/>
      </defs>
      <g>
       <use xlink:href="#mc941b7697a" x="58.844" y="217.227191" style="stroke: #000000; stroke-width: 0.8"/>
      </g>
     </g>
     <g id="text_7">
      <!-- −2 -->
      <g transform="translate(33.195133 222.033202) scale(0.1265 -0.1265)">
       <defs>
        <path id="DejaVuSans-2212" d="M 678 2272 
L 4684 2272 
L 4684 1741 
L 678 1741 
L 678 2272 
z
" transform="scale(0.015625)"/>
       </defs>
       <use xlink:href="#DejaVuSans-2212"/>
       <use xlink:href="#DejaVuSans-32" transform="translate(83.789062 0)"/>
      </g>
     </g>
    </g>
    <g id="ytick_2">
     <g id="line2d_7">
      <g>
       <use xlink:href="#mc941b7697a" x="58.844" y="177.460575" style="stroke: #000000; stroke-width: 0.8"/>
      </g>
     </g>
     <g id="text_8">
      <!-- 0 -->
      <g transform="translate(43.795438 182.266587) scale(0.1265 -0.1265)">
       <use xlink:href="#DejaVuSans-30"/>
      </g>
     </g>
    </g>
    <g id="ytick_3">
     <g id="line2d_8">
      <g>
       <use xlink:href="#mc941b7697a" x="58.844" y="137.69396" style="stroke: #000000; stroke-width: 0.8"/>
      </g>
     </g>
     <g id="text_9">
      <!-- 2 -->
      <g transform="translate(43.795438 142.499972) scale(0.1265 -0.1265)">
       <use xlink:href="#DejaVuSans-32"/>
      </g>
     </g>
    </g>
    <g id="ytick_4">
     <g id="line2d_9">
      <g>
       <use xlink:href="#mc941b7697a" x="58.844" y="97.927344" style="stroke: #000000; stroke-width: 0.8"/>
      </g>
     </g>
     <g id="text_10">
      <!-- 4 -->
      <g transform="translate(43.795438 102.733356) scale(0.1265 -0.1265)">
       <use xlink:href="#DejaVuSans-34"/>
      </g>
     </g>
    </g>
    <g id="text_11">
     <!-- dP/dH -->
     <g transform="translate(26.086 173.28568) rotate(-90) scale(0.1495 -0.1495)">
      <defs>
       <path id="DejaVuSans-64" d="M 2906 2969 
L 2906 4863 
L 3481 4863 
L 3481 0 
L 2906 0 
L 2906 525 
Q 2725 213 2448 61 
Q 2172 -91 1784 -91 
Q 1150 -91 751 415 
Q 353 922 353 1747 
Q 353 2572 751 3078 
Q 1150 3584 1784 3584 
Q 2172 3584 2448 3432 
Q 2725 3281 2906 2969 
z
M 947 1747 
Q 947 1113 1208 752 
Q 1469 391 1925 391 
Q 2381 391 2643 752 
Q 2906 1113 2906 1747 
Q 2906 2381 2643 2742 
Q 2381 3103 1925 3103 
Q 1469 3103 1208 2742 
Q 947 2381 947 1747 
z
" transform="scale(0.015625)"/>
       <path id="DejaVuSans-50" d="M 1259 4147 
L 1259 2394 
L 2053 2394 
Q 2494 2394 2734 2622 
Q 2975 2850 2975 3272 
Q 2975 3691 2734 3919 
Q 2494 4147 2053 4147 
L 1259 4147 
z
M 628 4666 
L 2053 4666 
Q 2838 4666 3239 4311 
Q 3641 3956 3641 3272 
Q 3641 2581 3239 2228 
Q 2838 1875 2053 1875 
L 1259 1875 
L 1259 0 
L 628 0 
L 628 4666 
z
" transform="scale(0.015625)"/>
       <path id="DejaVuSans-2f" d="M 1625 4666 
L 2156 4666 
L 531 -594 
L 0 -594 
L 1625 4666 
z
" transform="scale(0.015625)"/>
      </defs>
      <use xlink:href="#DejaVuSans-64"/>
      <use xlink:href="#DejaVuSans-50" transform="translate(63.476562 0)"/>
      <use xlink:href="#DejaVuSans-2f" transform="translate(123.779297 0)"/>
      <use xlink:href="#DejaVuSans-64" transform="translate(157.470703 0)"/>
      <use xlink:href="#DejaVuSans-48" transform="translate(220.947266 0)"/>
     </g>
    </g>
   </g>
   <g id="line2d_10">
    <path d="M 78.400909 178.62516 
L 78.400909 177.612742 
L 80.51517 177.817799 
L 80.51517 178.509817 
L 80.51517 177.785747 
L 82.62943 178.388072 
L 82.62943 176.971983 
L 84.74369 178.420104 
L 84.74369 177.76654 
L 84.74369 178.65079 
L 86.857951 178.336813 
L 86.857951 178.926313 
L 86.857951 177.984401 
L 88.972211 177.708858 
L 88.972211 180.906273 
L 88.972211 177.977979 
L 91.086472 179.233888 
L 91.086472 177.587113 
L 91.086472 178.49059 
L 93.200732 178.074095 
L 93.200732 177.843428 
L 93.200732 179.951536 
L 95.314993 180.284741 
L 95.314993 178.138179 
L 95.314993 178.150983 
L 97.429253 178.849424 
L 97.429253 177.561483 
L 99.543514 176.882289 
L 99.543514 178.086919 
L 99.543514 173.51187 
L 101.657774 178.868651 
L 101.657774 176.24151 
L 103.772034 178.067692 
L 103.772034 177.478192 
L 105.886295 178.644388 
L 105.886295 177.548678 
L 105.886295 178.362442 
L 108.000555 177.824201 
L 108.000555 177.625567 
L 108.000555 178.97117 
L 108.000555 177.913915 
L 110.114816 178.163808 
L 110.114816 176.414514 
L 110.114816 178.503415 
L 112.229076 180.919098 
L 112.229076 177.209071 
L 112.229076 178.33041 
L 114.343337 177.760117 
L 114.343337 176.53626 
L 114.343337 178.51622 
L 116.457597 178.234294 
L 116.457597 177.157812 
L 118.571857 178.304781 
L 118.571857 176.779751 
L 118.571857 178.054867 
L 120.686118 178.631563 
L 120.686118 182.213421 
L 120.686118 177.042469 
L 122.800378 178.541849 
L 122.800378 178.125354 
L 124.914639 179.406893 
L 124.914639 177.977979 
L 124.914639 178.080517 
L 127.028899 178.714854 
L 127.028899 178.817392 
L 127.028899 176.984807 
L 129.14316 178.291956 
L 129.14316 179.98999 
L 129.14316 176.645201 
L 131.25742 178.375267 
L 131.25742 175.722496 
L 131.25742 180.521809 
L 133.371681 178.086919 
L 133.371681 178.163808 
L 133.371681 179.381263 
L 135.485941 178.266326 
L 135.485941 177.676826 
L 135.485941 179.637559 
L 137.600201 178.894281 
L 137.600201 177.548678 
L 137.600201 178.778938 
L 139.714462 180.778125 
L 139.714462 178.843022 
L 139.714462 180.541036 
L 141.828722 178.452156 
L 141.828722 178.497013 
L 141.828722 177.523049 
L 143.942983 178.49059 
L 143.942983 178.484188 
L 143.942983 178.939138 
L 143.942983 178.727679 
L 146.057243 179.272322 
L 146.057243 176.920724 
L 146.057243 178.381669 
L 148.171504 179.567073 
L 148.171504 176.452969 
L 148.171504 178.368845 
L 150.285764 178.509817 
L 150.285764 178.753308 
L 150.285764 174.838245 
L 150.285764 177.933142 
L 152.400025 178.048465 
L 152.400025 177.28596 
L 152.400025 178.97117 
L 154.514285 179.137772 
L 154.514285 180.118138 
L 154.514285 178.843022 
L 156.628545 179.253095 
L 156.628545 179.208258 
L 156.628545 178.298358 
L 156.628545 179.285147 
L 158.742806 179.413295 
L 158.742806 179.913082 
L 158.742806 175.165028 
L 158.742806 179.85542 
L 160.857066 182.264681 
L 160.857066 179.733675 
L 160.857066 180.412889 
L 162.971327 181.374028 
L 162.971327 180.348805 
L 162.971327 181.265107 
L 165.085587 181.277912 
L 165.085587 183.264274 
L 165.085587 183.187385 
L 167.199848 183.007978 
L 167.199848 183.956293 
L 167.199848 183.257872 
L 169.314108 182.283908 
L 169.314108 184.347159 
L 169.314108 184.206206 
L 171.428369 183.751256 
L 171.428369 184.827738 
L 171.428369 182.867006 
L 173.542629 182.31596 
L 173.542629 181.201023 
L 173.542629 182.924667 
L 175.656889 181.188198 
L 175.656889 180.227059 
L 175.656889 184.59065 
L 177.77115 176.741316 
L 177.77115 180.438518 
L 177.77115 178.849424 
L 179.88541 178.830197 
L 179.88541 176.126187 
L 179.88541 178.8366 
L 181.999671 177.90109 
L 181.999671 178.439331 
L 181.999671 177.599937 
L 184.113931 177.958771 
L 184.113931 177.958771 
L 184.113931 181.277912 
L 184.113931 177.548678 
L 186.228192 178.497013 
L 186.228192 176.837432 
L 186.228192 179.765707 
L 188.342452 179.182629 
L 188.342452 180.380857 
L 188.342452 179.957939 
L 190.456713 181.809751 
L 190.456713 183.014381 
L 190.456713 181.367625 
L 190.456713 182.482542 
L 192.570973 186.70518 
L 192.570973 182.553028 
L 194.685233 194.054707 
L 194.685233 195.265739 
L 194.685233 188.537745 
L 196.799494 203.999303 
L 196.799494 207.907924 
L 196.799494 196.758717 
L 198.913754 218.640635 
L 198.913754 220.934553 
L 198.913754 211.970342 
L 201.028015 227.137091 
L 201.028015 223.984553 
L 201.028015 224.843174 
L 203.142275 220.582141 
L 203.142275 217.922987 
L 203.142275 224.330562 
L 203.142275 224.099896 
L 205.256536 208.100156 
L 205.256536 204.52472 
L 205.256536 214.661528 
L 205.256536 211.976745 
L 207.370796 194.644207 
L 207.370796 192.632215 
L 207.370796 201.237631 
L 209.485057 189.415593 
L 209.485057 191.86971 
L 209.485057 190.146066 
L 211.599317 195.24011 
L 211.599317 197.585286 
L 211.599317 191.075173 
L 211.599317 192.529697 
L 213.713577 206.338077 
L 213.713577 208.036092 
L 213.713577 201.372181 
L 213.713577 204.101822 
L 215.827838 217.897358 
L 215.827838 218.986645 
L 215.827838 212.136945 
L 217.942098 215.001135 
L 217.942098 220.332248 
L 217.942098 219.947784 
L 220.056359 195.605346 
L 220.056359 184.481729 
L 220.056359 209.68925 
L 220.056359 204.422201 
L 222.170619 151.405429 
L 222.170619 139.980481 
L 222.170619 173.044115 
L 222.170619 163.150698 
L 224.28488 108.255629 
L 224.28488 97.06755 
L 224.28488 127.998024 
L 226.39914 75.158909 
L 226.39914 89.390904 
L 226.39914 84.021078 
L 228.5134 83.482817 
L 228.5134 89.807419 
L 228.5134 78.061713 
L 228.5134 79.272805 
L 230.627661 111.107114 
L 230.627661 118.251803 
L 230.627661 95.734713 
L 230.627661 101.892653 
L 232.741921 140.396996 
L 232.741921 147.157122 
L 232.741921 126.86384 
L 234.856182 164.099032 
L 234.856182 152.956089 
L 234.856182 156.38419 
L 236.970442 169.410977 
L 236.970442 170.199112 
L 236.970442 166.213542 
L 236.970442 167.136247 
L 239.084703 172.89672 
L 239.084703 171.128219 
L 239.084703 171.948405 
L 241.198963 174.39612 
L 241.198963 173.396527 
L 243.313224 175.485407 
L 243.313224 174.69087 
L 243.313224 175.446973 
L 245.427484 176.017246 
L 245.427484 175.735321 
L 245.427484 176.100557 
L 247.541744 177.324414 
L 247.541744 175.876273 
L 249.656005 176.677233 
L 249.656005 176.138991 
L 249.656005 177.164215 
L 251.770265 175.479005 
L 251.770265 174.23592 
L 251.770265 177.497419 
L 253.884526 176.177446 
L 253.884526 176.209478 
L 253.884526 177.036067 
L 253.884526 176.888692 
L 255.998786 176.927126 
L 255.998786 176.363255 
L 255.998786 177.247506 
L 258.113047 175.780157 
L 258.113047 177.452562 
L 258.113047 177.016839 
L 260.227307 178.849424 
L 260.227307 176.183848 
L 260.227307 177.843428 
L 262.341568 177.407706 
L 262.341568 178.464961 
L 262.341568 177.394901 
L 262.341568 177.837026 
L 264.455828 178.067692 
L 264.455828 177.023242 
L 264.455828 177.401303 
L 266.570088 177.189844 
L 266.570088 179.080091 
L 266.570088 177.523049 
L 268.684349 177.612742 
L 268.684349 177.471789 
L 268.684349 177.734488 
L 270.798609 177.58071 
L 270.798609 180.118138 
L 270.798609 176.869464 
L 270.798609 178.272729 
L 272.91287 178.086919 
L 272.91287 178.381669 
L 272.91287 175.844241 
L 275.02713 177.036067 
L 275.02713 178.150983 
L 275.02713 177.388478 
L 277.141391 177.971576 
L 277.141391 181.040823 
L 277.141391 178.394474 
L 279.255651 174.485834 
L 279.255651 178.042063 
L 279.255651 171.884321 
L 281.369912 177.997206 
L 281.369912 177.792169 
L 283.484172 177.664021 
L 283.484172 174.921537 
L 283.484172 180.214254 
L 285.598432 177.548678 
L 285.598432 178.881456 
L 285.598432 176.818205 
L 285.598432 177.869058 
L 287.712693 178.176613 
L 287.712693 178.554674 
L 287.712693 177.31159 
L 289.826953 177.202669 
L 289.826953 176.728492 
L 289.826953 178.144581 
L 291.941214 178.432929 
L 291.941214 178.913508 
L 291.941214 177.990803 
L 294.055474 177.952349 
L 294.055474 178.003608 
L 294.055474 177.523049 
L 296.169735 177.971576 
L 296.169735 179.112142 
L 298.283995 181.720037 
L 298.283995 176.754121 
L 300.398256 178.003608 
L 300.398256 177.157812 
L 300.398256 178.381669 
L 302.512516 177.856233 
L 302.512516 176.96558 
L 302.512516 178.029238 
L 302.512516 177.881863 
L 304.626776 177.90109 
L 304.626776 178.67642 
L 304.626776 177.760117 
L 304.626776 178.19584 
L 306.741037 178.291956 
L 306.741037 179.003202 
L 306.741037 177.881863 
L 306.741037 178.272729 
L 308.855297 176.773348 
L 308.855297 178.022835 
L 310.969558 178.003608 
L 310.969558 177.452562 
L 310.969558 178.618758 
L 313.083818 178.394474 
L 313.083818 177.542276 
L 315.198079 178.484188 
L 315.198079 173.005661 
L 315.198079 177.798572 
L 317.312339 177.721683 
L 317.312339 178.746906 
L 319.4266 178.279151 
L 319.4266 175.652009 
L 319.4266 178.080517 
L 321.54086 176.388885 
L 321.54086 178.983975 
L 321.54086 178.349637 
L 323.65512 178.343215 
L 323.65512 177.087326 
L 325.769381 177.76654 
L 325.769381 182.47614 
L 327.883641 178.561077 
L 327.883641 177.933142 
L 327.883641 179.278745 
L 329.997902 178.048465 
L 329.997902 178.432929 
L 329.997902 175.741723 
L 332.112162 178.183035 
L 332.112162 176.440144 
L 332.112162 179.547865 
L 332.112162 178.618758 
L 334.226423 177.945947 
L 334.226423 175.927552 
L 334.226423 178.855827 
L 334.226423 177.984401 
L 336.340683 177.772942 
L 336.340683 178.074095 
L 336.340683 177.760117 
L 338.454943 178.106146 
L 338.454943 177.888285 
L 338.454943 177.958771 
L 340.569204 177.670424 
L 340.569204 177.734488 
L 340.569204 179.29155 
L 342.683464 178.503415 
L 342.683464 176.811803 
L 342.683464 177.869058 
L 344.797725 177.612742 
L 344.797725 178.06129 
L 344.797725 174.165434 
L 346.911985 177.965174 
L 346.911985 177.888285 
L 346.911985 178.695647 
L 349.026246 175.536686 
L 349.026246 178.202262 
L 349.026246 177.990803 
L 351.140506 177.997206 
L 351.140506 177.587113 
L 351.140506 182.168585 
L 351.140506 178.240697 
L 353.254767 177.830604 
L 353.254767 178.682822 
L 353.254767 177.44616 
L 355.369027 177.548678 
L 355.369027 178.240697 
L 355.369027 178.074095 
L 357.483287 177.881863 
L 357.483287 176.414514 
L 357.483287 177.664021 
L 359.597548 181.604694 
L 359.597548 176.760544 
L 361.711808 178.093322 
L 361.711808 176.37608 
L 361.711808 177.728085 
L 363.826069 178.298358 
L 363.826069 175.421343 
L 365.940329 178.054867 
L 365.940329 178.054867 
L 365.940329 178.631563 
L 368.05459 176.53626 
L 368.05459 178.977572 
L 368.05459 178.19584 
L 370.16885 178.477785 
L 370.16885 177.599937 
L 370.16885 177.721683 
L 372.283111 178.183035 
L 372.283111 179.804161 
L 372.283111 177.933142 
L 372.283111 178.106146 
L 374.397371 177.26033 
L 374.397371 178.875054 
L 376.511631 178.022835 
L 376.511631 178.791763 
L 376.511631 176.933548 
L 378.625892 176.779751 
L 378.625892 176.164621 
L 378.625892 177.945947 
L 380.740152 178.067692 
L 380.740152 179.451749 
L 380.740152 177.804974 
L 382.854413 177.157812 
L 382.854413 178.317586 
L 384.968673 178.400897 
L 384.968673 177.228298 
L 384.968673 177.343622 
L 387.082934 178.183035 
L 387.082934 178.612336 
L 387.082934 178.144581 
L 389.197194 175.158625 
L 389.197194 178.163808 
L 389.197194 178.106146 
L 391.311455 177.433335 
L 391.311455 178.753308 
L 391.311455 177.670424 
L 393.425715 177.612742 
L 393.425715 179.913082 
L 393.425715 177.478192 
L 395.539975 177.747312 
L 395.539975 177.414108 
L 395.539975 177.933142 
L 397.654236 178.727679 
L 397.654236 179.080091 
L 397.654236 177.997206 
L 399.768496 177.305187 
L 399.768496 178.567479 
L 399.768496 178.336813 
L 401.882757 180.624328 
L 401.882757 177.753715 
L 401.882757 177.760117 
L 403.997017 178.234294 
L 403.997017 177.90109 
L 403.997017 177.984401 
L 406.111278 176.702862 
L 406.111278 180.079684 
L 408.225538 178.336813 
L 408.225538 175.414941 
L 408.225538 177.542276 
L 410.339799 178.682822 
L 410.339799 177.804974 
L 410.339799 179.355633 
L 412.454059 178.157406 
L 412.454059 176.984807 
L 412.454059 177.587113 
L 414.568319 178.253522 
L 414.568319 179.060883 
L 414.568319 177.490997 
L 416.68258 178.042063 
L 416.68258 178.573901 
L 416.68258 177.772942 
L 418.79684 177.478192 
L 418.79684 177.548678 
L 418.79684 178.964767 
L 420.911101 177.696053 
L 420.911101 178.074095 
L 420.911101 177.997206 
L 423.025361 177.612742 
L 423.025361 182.90546 
L 423.025361 177.144987 
L 423.025361 178.727679 
L 425.139622 178.042063 
L 425.139622 177.587113 
L 425.139622 178.618758 
L 427.253882 176.67083 
L 427.253882 179.714448 
L 427.253882 178.080517 
L 429.368143 177.990803 
L 429.368143 178.33041 
L 429.368143 177.247506 
L 431.482403 177.734488 
L 431.482403 178.202262 
L 431.482403 176.414514 
L 433.596663 176.901496 
L 433.596663 175.197079 
L 433.596663 177.760117 
L 433.596663 177.305187 
L 435.710924 178.086919 
L 435.710924 176.254335 
L 435.710924 178.33041 
L 437.825184 177.144987 
L 437.825184 178.49059 
L 437.825184 177.958771 
L 439.939445 177.599937 
L 439.939445 180.207832 
L 439.939445 177.266733 
L 439.939445 179.464554 
L 442.053705 176.939951 
L 442.053705 178.118951 
L 442.053705 177.279558 
L 444.167966 178.336813 
L 444.167966 178.778938 
L 444.167966 174.7165 
L 446.282226 178.22147 
L 446.282226 177.939544 
L 446.282226 179.42612 
L 446.282226 178.112549 
L 448.396486 181.239477 
L 448.396486 177.965174 
L 450.510747 178.503415 
L 450.510747 177.305187 
L 450.510747 178.266326 
L 452.625007 178.644388 
L 452.625007 176.766946 
L 452.625007 177.119358 
L 454.739268 178.484188 
L 454.739268 177.984401 
L 456.853528 178.682822 
L 456.853528 177.574308 
L 456.853528 178.247099 
L 458.967789 178.311183 
L 458.967789 179.483781 
L 458.967789 178.016433 
L 461.082049 177.856233 
L 461.082049 181.463741 
L 463.19631 178.003608 
L 463.19631 178.311183 
L 463.19631 177.465367 
L 465.31057 178.227892 
L 465.31057 178.484188 
L 465.31057 178.016433 
L 465.31057 178.343215 
L 467.42483 177.856233 
L 467.42483 177.651197 
L 467.42483 177.785747 
L 469.539091 177.44616 
L 469.539091 179.913082 
L 469.539091 175.869871 
L 469.539091 175.869871 
" clip-path="url(#p70cf1e0d47)" style="fill: none; stroke: #cc7000; stroke-opacity: 0.7; stroke-width: 1.4; stroke-linecap: square"/>
   </g>
   <g id="line2d_11">
    <path d="M 78.400909 178.016433 
L 80.51517 177.869058 
L 82.62943 177.523049 
L 84.74369 178.102925 
L 86.857951 178.189438 
L 88.972211 178.074095 
L 93.200732 178.734081 
L 95.314993 178.183025 
L 97.429253 178.484188 
L 99.543514 177.369261 
L 101.657774 177.792159 
L 103.772034 177.692842 
L 105.886295 178.253512 
L 108.000555 177.869058 
L 110.114816 178.253512 
L 112.229076 177.907502 
L 116.457597 178.096533 
L 118.571857 177.987592 
L 120.686118 178.772536 
L 122.800378 178.285554 
L 124.914639 178.208665 
L 127.028899 178.67641 
L 129.14316 178.304771 
L 131.25742 178.176623 
L 133.371681 178.285554 
L 135.485941 178.173422 
L 137.600201 178.480987 
L 139.714462 179.813775 
L 141.828722 178.272739 
L 143.942983 178.609135 
L 146.057243 178.263125 
L 148.171504 178.692436 
L 150.285764 178.22148 
L 152.400025 178.058079 
L 154.514285 179.499797 
L 156.628545 179.230677 
L 158.742806 179.634358 
L 162.971327 181.018405 
L 165.085587 182.732445 
L 167.199848 183.552622 
L 169.314108 184.212609 
L 171.428369 183.667955 
L 175.656889 180.95112 
L 177.77115 179.374851 
L 181.999671 178.064491 
L 184.113931 177.958771 
L 186.228192 178.199051 
L 188.342452 179.887452 
L 190.456713 182.146146 
L 192.570973 185.50054 
L 194.685233 192.183687 
L 196.799494 201.750233 
L 198.913754 217.333487 
L 201.028015 225.256458 
L 203.142275 222.341018 
L 205.256536 210.03845 
L 207.370796 196.146789 
L 209.485057 190.482462 
L 211.599317 193.884903 
L 215.827838 216.452448 
L 217.942098 219.146835 
L 220.056359 200.013774 
L 222.170619 157.278064 
L 224.28488 112.183616 
L 226.39914 81.24004 
L 228.5134 81.377811 
L 230.627661 106.499883 
L 232.741921 136.888765 
L 234.856182 157.816305 
L 236.970442 168.273612 
L 239.084703 172.012479 
L 241.198963 173.809821 
L 243.313224 175.136197 
L 245.427484 175.988415 
L 249.656005 176.658015 
L 251.770265 175.482206 
L 253.884526 176.549085 
L 255.998786 176.67082 
L 260.227307 177.583921 
L 262.341568 177.622366 
L 264.455828 177.221886 
L 266.570088 177.667222 
L 268.684349 177.583911 
L 270.798609 177.92672 
L 272.91287 177.853042 
L 275.02713 177.571097 
L 277.141391 178.359231 
L 279.255651 175.962786 
L 281.369912 177.734498 
L 283.484172 177.305187 
L 285.598432 177.708868 
L 287.712693 177.817789 
L 289.826953 177.215484 
L 291.941214 178.497003 
L 294.055474 177.881873 
L 296.169735 178.199051 
L 298.283995 178.256713 
L 300.398256 178.186227 
L 302.512516 177.869048 
L 306.741037 178.282342 
L 308.855297 177.753715 
L 313.083818 178.010031 
L 315.198079 177.324404 
L 317.312339 178.109348 
L 319.4266 177.885084 
L 321.54086 178.167019 
L 323.65512 178.125364 
L 325.769381 179.019228 
L 327.883641 178.307972 
L 329.997902 178.118951 
L 332.112162 178.400897 
L 334.226423 177.965174 
L 338.454943 177.926729 
L 340.569204 178.074095 
L 342.683464 177.945947 
L 344.797725 177.221876 
L 346.911985 178.253512 
L 349.026246 177.939544 
L 351.140506 178.118951 
L 353.254767 177.888275 
L 355.369027 177.942745 
L 357.483287 177.442949 
L 359.597548 178.077306 
L 361.711808 177.513435 
L 365.940329 178.3304 
L 368.05459 178.311183 
L 370.16885 177.731296 
L 372.283111 178.144591 
L 374.397371 177.756916 
L 376.511631 177.945947 
L 378.625892 177.253918 
L 380.740152 178.051676 
L 384.968673 177.728085 
L 387.082934 178.22148 
L 393.425715 177.747303 
L 395.539975 177.817799 
L 397.654236 178.381669 
L 399.768496 177.949148 
L 403.997017 178.051676 
L 406.111278 177.888275 
L 408.225538 177.433345 
L 410.339799 178.298368 
L 412.454059 177.401293 
L 414.568319 178.186236 
L 416.68258 178.029248 
L 418.79684 178.157406 
L 420.911101 177.923518 
L 423.025361 178.170211 
L 425.139622 178.038861 
L 427.253882 178.269538 
L 429.368143 177.779354 
L 431.482403 177.574298 
L 433.596663 177.103342 
L 435.710924 177.994005 
L 437.825184 178.160607 
L 439.939445 178.532246 
L 442.053705 177.359648 
L 444.167966 177.84663 
L 446.282226 178.167009 
L 448.396486 178.199051 
L 450.510747 178.045264 
L 452.625007 177.571097 
L 454.739268 178.186227 
L 456.853528 178.365644 
L 458.967789 178.227882 
L 461.082049 178.205464 
L 463.19631 177.958761 
L 465.31057 178.285554 
L 467.42483 177.763328 
L 469.539091 178.298358 
L 469.539091 178.298358 
" clip-path="url(#p70cf1e0d47)" style="fill: none; stroke: #2980b9; stroke-width: 2; stroke-linecap: square"/>
   </g>
   <g id="line2d_12">
    <path d="M 78.400909 177.253677 
L 105.886295 178.041272 
L 124.914639 178.784637 
L 139.714462 179.572812 
L 150.285764 180.329382 
L 158.742806 181.122337 
L 165.085587 181.881942 
L 171.428369 182.848908 
L 175.656889 183.654765 
L 179.88541 184.638061 
L 184.113931 185.860526 
L 188.342452 187.412363 
L 190.456713 188.351461 
L 192.570973 189.427892 
L 194.685233 190.669236 
L 196.799494 192.109241 
L 198.913754 193.788738 
L 201.028015 195.755901 
L 203.142275 198.064529 
L 205.256536 200.767283 
L 207.370796 203.896775 
L 213.713577 214.35304 
L 215.827838 215.521075 
L 217.942098 211.148694 
L 220.056359 195.098876 
L 222.170619 161.002635 
L 224.28488 113.632424 
L 226.39914 79.425253 
L 228.5134 81.453347 
L 232.741921 136.172891 
L 234.856182 155.547267 
L 236.970442 166.785626 
L 239.084703 172.763697 
L 241.198963 175.769526 
L 243.313224 177.18689 
L 245.427484 177.778366 
L 247.541744 177.950397 
L 251.770265 177.791214 
L 262.341568 177.051529 
L 270.798609 176.739492 
L 281.369912 176.614517 
L 298.283995 176.698719 
L 332.112162 177.160797 
L 450.510747 178.844335 
L 469.539091 179.090356 
L 469.539091 179.090356 
" clip-path="url(#p70cf1e0d47)" style="fill: none; stroke: #ffa500; stroke-width: 2.5; stroke-linecap: square"/>
   </g>
   <g id="patch_3">
    <path d="M 58.844 234.736 
L 58.844 67.56 
" style="fill: none; stroke: #000000; stroke-width: 0.8; stroke-linejoin: miter; stroke-linecap: square"/>
   </g>
   <g id="patch_4">
    <path d="M 489.096 234.736 
L 489.096 67.56 
" style="fill: none; stroke: #000000; stroke-width: 0.8; stroke-linejoin: miter; stroke-linecap: square"/>
   </g>
   <g id="patch_5">
    <path d="M 58.844 234.736 
L 489.096 234.736 
" style="fill: none; stroke: #000000; stroke-width: 0.8; stroke-linejoin: miter; stroke-linecap: square"/>
   </g>
   <g id="patch_6">
    <path d="M 58.844 67.56 
L 489.096 67.56 
" style="fill: none; stroke: #000000; stroke-width: 0.8; stroke-linejoin: miter; stroke-linecap: square"/>
   </g>
   <g id="text_12">
    <!-- AZ5, f=6 GHz, 10 dB -->
    <g transform="translate(190.38207 25.503044) scale(0.161 -0.161)">
     <defs>
      <path id="DejaVuSans-41" d="M 2188 4044 
L 1331 1722 
L 3047 1722 
L 2188 4044 
z
M 1831 4666 
L 2547 4666 
L 4325 0 
L 3669 0 
L 3244 1197 
L 1141 1197 
L 716 0 
L 50 0 
L 1831 4666 
z
" transform="scale(0.015625)"/>
      <path id="DejaVuSans-5a" d="M 359 4666 
L 4025 4666 
L 4025 4184 
L 1075 531 
L 4097 531 
L 4097 0 
L 288 0 
L 288 481 
L 3238 4134 
L 359 4134 
L 359 4666 
z
" transform="scale(0.015625)"/>
      <path id="DejaVuSans-2c" d="M 750 794 
L 1409 794 
L 1409 256 
L 897 -744 
L 494 -744 
L 750 256 
L 750 794 
z
" transform="scale(0.015625)"/>
      <path id="DejaVuSans-66" d="M 2375 4863 
L 2375 4384 
L 1825 4384 
Q 1516 4384 1395 4259 
Q 1275 4134 1275 3809 
L 1275 3500 
L 2222 3500 
L 2222 3053 
L 1275 3053 
L 1275 0 
L 697 0 
L 697 3053 
L 147 3053 
L 147 3500 
L 697 3500 
L 697 3744 
Q 697 4328 969 4595 
Q 1241 4863 1831 4863 
L 2375 4863 
z
" transform="scale(0.015625)"/>
      <path id="DejaVuSans-3d" d="M 678 2906 
L 4684 2906 
L 4684 2381 
L 678 2381 
L 678 2906 
z
M 678 1631 
L 4684 1631 
L 4684 1100 
L 678 1100 
L 678 1631 
z
" transform="scale(0.015625)"/>
      <path id="DejaVuSans-36" d="M 2113 2584 
Q 1688 2584 1439 2293 
Q 1191 2003 1191 1497 
Q 1191 994 1439 701 
Q 1688 409 2113 409 
Q 2538 409 2786 701 
Q 3034 994 3034 1497 
Q 3034 2003 2786 2293 
Q 2538 2584 2113 2584 
z
M 3366 4563 
L 3366 3988 
Q 3128 4100 2886 4159 
Q 2644 4219 2406 4219 
Q 1781 4219 1451 3797 
Q 1122 3375 1075 2522 
Q 1259 2794 1537 2939 
Q 1816 3084 2150 3084 
Q 2853 3084 3261 2657 
Q 3669 2231 3669 1497 
Q 3669 778 3244 343 
Q 2819 -91 2113 -91 
Q 1303 -91 875 529 
Q 447 1150 447 2328 
Q 447 3434 972 4092 
Q 1497 4750 2381 4750 
Q 2619 4750 2861 4703 
Q 3103 4656 3366 4563 
z
" transform="scale(0.015625)"/>
      <path id="DejaVuSans-47" d="M 3809 666 
L 3809 1919 
L 2778 1919 
L 2778 2438 
L 4434 2438 
L 4434 434 
Q 4069 175 3628 42 
Q 3188 -91 2688 -91 
Q 1594 -91 976 548 
Q 359 1188 359 2328 
Q 359 3472 976 4111 
Q 1594 4750 2688 4750 
Q 3144 4750 3555 4637 
Q 3966 4525 4313 4306 
L 4313 3634 
Q 3963 3931 3569 4081 
Q 3175 4231 2741 4231 
Q 1884 4231 1454 3753 
Q 1025 3275 1025 2328 
Q 1025 1384 1454 906 
Q 1884 428 2741 428 
Q 3075 428 3337 486 
Q 3600 544 3809 666 
z
" transform="scale(0.015625)"/>
      <path id="DejaVuSans-7a" d="M 353 3500 
L 3084 3500 
L 3084 2975 
L 922 459 
L 3084 459 
L 3084 0 
L 275 0 
L 275 525 
L 2438 3041 
L 353 3041 
L 353 3500 
z
" transform="scale(0.015625)"/>
      <path id="DejaVuSans-42" d="M 1259 2228 
L 1259 519 
L 2272 519 
Q 2781 519 3026 730 
Q 3272 941 3272 1375 
Q 3272 1813 3026 2020 
Q 2781 2228 2272 2228 
L 1259 2228 
z
M 1259 4147 
L 1259 2741 
L 2194 2741 
Q 2656 2741 2882 2914 
Q 3109 3088 3109 3444 
Q 3109 3797 2882 3972 
Q 2656 4147 2194 4147 
L 1259 4147 
z
M 628 4666 
L 2241 4666 
Q 2963 4666 3353 4366 
Q 3744 4066 3744 3513 
Q 3744 3084 3544 2831 
Q 3344 2578 2956 2516 
Q 3422 2416 3680 2098 
Q 3938 1781 3938 1306 
Q 3938 681 3513 340 
Q 3088 0 2303 0 
L 628 0 
L 628 4666 
z
" transform="scale(0.015625)"/>
     </defs>
     <use xlink:href="#DejaVuSans-41"/>
     <use xlink:href="#DejaVuSans-5a" transform="translate(68.408203 0)"/>
     <use xlink:href="#DejaVuSans-35" transform="translate(136.914062 0)"/>
     <use xlink:href="#DejaVuSans-2c" transform="translate(200.537109 0)"/>
     <use xlink:href="#DejaVuSans-20" transform="translate(232.324219 0)"/>
     <use xlink:href="#DejaVuSans-66" transform="translate(264.111328 0)"/>
     <use xlink:href="#DejaVuSans-3d" transform="translate(299.316406 0)"/>
     <use xlink:href="#DejaVuSans-36" transform="translate(383.105469 0)"/>
     <use xlink:href="#DejaVuSans-20" transform="translate(446.728516 0)"/>
     <use xlink:href="#DejaVuSans-47" transform="translate(478.515625 0)"/>
     <use xlink:href="#DejaVuSans-48" transform="translate(556.005859 0)"/>
     <use xlink:href="#DejaVuSans-7a" transform="translate(631.201172 0)"/>
     <use xlink:href="#DejaVuSans-2c" transform="translate(683.691406 0)"/>
     <use xlink:href="#DejaVuSans-20" transform="translate(715.478516 0)"/>
     <use xlink:href="#DejaVuSans-31" transform="translate(747.265625 0)"/>
     <use xlink:href="#DejaVuSans-30" transform="translate(810.888672 0)"/>
     <use xlink:href="#DejaVuSans-20" transform="translate(874.511719 0)"/>
     <use xlink:href="#DejaVuSans-64" transform="translate(906.298828 0)"/>
     <use xlink:href="#DejaVuSans-42" transform="translate(969.775391 0)"/>
    </g>
    <!-- Double Asymmetric Lorentzian -->
    <g transform="translate(149.993711 43.531522) scale(0.161 -0.161)">
     <defs>
      <path id="DejaVuSans-44" d="M 1259 4147 
L 1259 519 
L 2022 519 
Q 2988 519 3436 956 
Q 3884 1394 3884 2338 
Q 3884 3275 3436 3711 
Q 2988 4147 2022 4147 
L 1259 4147 
z
M 628 4666 
L 1925 4666 
Q 3281 4666 3915 4102 
Q 4550 3538 4550 2338 
Q 4550 1131 3912 565 
Q 3275 0 1925 0 
L 628 0 
L 628 4666 
z
" transform="scale(0.015625)"/>
      <path id="DejaVuSans-6f" d="M 1959 3097 
Q 1497 3097 1228 2736 
Q 959 2375 959 1747 
Q 959 1119 1226 758 
Q 1494 397 1959 397 
Q 2419 397 2687 759 
Q 2956 1122 2956 1747 
Q 2956 2369 2687 2733 
Q 2419 3097 1959 3097 
z
M 1959 3584 
Q 2709 3584 3137 3096 
Q 3566 2609 3566 1747 
Q 3566 888 3137 398 
Q 2709 -91 1959 -91 
Q 1206 -91 779 398 
Q 353 888 353 1747 
Q 353 2609 779 3096 
Q 1206 3584 1959 3584 
z
" transform="scale(0.015625)"/>
      <path id="DejaVuSans-75" d="M 544 1381 
L 544 3500 
L 1119 3500 
L 1119 1403 
Q 1119 906 1312 657 
Q 1506 409 1894 409 
Q 2359 409 2629 706 
Q 2900 1003 2900 1516 
L 2900 3500 
L 3475 3500 
L 3475 0 
L 2900 0 
L 2900 538 
Q 2691 219 2414 64 
Q 2138 -91 1772 -91 
Q 1169 -91 856 284 
Q 544 659 544 1381 
z
M 1991 3584 
L 1991 3584 
z
" transform="scale(0.015625)"/>
      <path id="DejaVuSans-62" d="M 3116 1747 
Q 3116 2381 2855 2742 
Q 2594 3103 2138 3103 
Q 1681 3103 1420 2742 
Q 1159 2381 1159 1747 
Q 1159 1113 1420 752 
Q 1681 391 2138 391 
Q 2594 391 2855 752 
Q 3116 1113 3116 1747 
z
M 1159 2969 
Q 1341 3281 1617 3432 
Q 1894 3584 2278 3584 
Q 2916 3584 3314 3078 
Q 3713 2572 3713 1747 
Q 3713 922 3314 415 
Q 2916 -91 2278 -91 
Q 1894 -91 1617 61 
Q 1341 213 1159 525 
L 1159 0 
L 581 0 
L 581 4863 
L 1159 4863 
L 1159 2969 
z
" transform="scale(0.015625)"/>
      <path id="DejaVuSans-6c" d="M 603 4863 
L 1178 4863 
L 1178 0 
L 603 0 
L 603 4863 
z
" transform="scale(0.015625)"/>
      <path id="DejaVuSans-65" d="M 3597 1894 
L 3597 1613 
L 953 1613 
Q 991 1019 1311 708 
Q 1631 397 2203 397 
Q 2534 397 2845 478 
Q 3156 559 3463 722 
L 3463 178 
Q 3153 47 2828 -22 
Q 2503 -91 2169 -91 
Q 1331 -91 842 396 
Q 353 884 353 1716 
Q 353 2575 817 3079 
Q 1281 3584 2069 3584 
Q 2775 3584 3186 3129 
Q 3597 2675 3597 1894 
z
M 3022 2063 
Q 3016 2534 2758 2815 
Q 2500 3097 2075 3097 
Q 1594 3097 1305 2825 
Q 1016 2553 972 2059 
L 3022 2063 
z
" transform="scale(0.015625)"/>
      <path id="DejaVuSans-73" d="M 2834 3397 
L 2834 2853 
Q 2591 2978 2328 3040 
Q 2066 3103 1784 3103 
Q 1356 3103 1142 2972 
Q 928 2841 928 2578 
Q 928 2378 1081 2264 
Q 1234 2150 1697 2047 
L 1894 2003 
Q 2506 1872 2764 1633 
Q 3022 1394 3022 966 
Q 3022 478 2636 193 
Q 2250 -91 1575 -91 
Q 1294 -91 989 -36 
Q 684 19 347 128 
L 347 722 
Q 666 556 975 473 
Q 1284 391 1588 391 
Q 1994 391 2212 530 
Q 2431 669 2431 922 
Q 2431 1156 2273 1281 
Q 2116 1406 1581 1522 
L 1381 1569 
Q 847 1681 609 1914 
Q 372 2147 372 2553 
Q 372 3047 722 3315 
Q 1072 3584 1716 3584 
Q 2034 3584 2315 3537 
Q 2597 3491 2834 3397 
z
" transform="scale(0.015625)"/>
      <path id="DejaVuSans-79" d="M 2059 -325 
Q 1816 -950 1584 -1140 
Q 1353 -1331 966 -1331 
L 506 -1331 
L 506 -850 
L 844 -850 
Q 1081 -850 1212 -737 
Q 1344 -625 1503 -206 
L 1606 56 
L 191 3500 
L 800 3500 
L 1894 763 
L 2988 3500 
L 3597 3500 
L 2059 -325 
z
" transform="scale(0.015625)"/>
      <path id="DejaVuSans-6d" d="M 3328 2828 
Q 3544 3216 3844 3400 
Q 4144 3584 4550 3584 
Q 5097 3584 5394 3201 
Q 5691 2819 5691 2113 
L 5691 0 
L 5113 0 
L 5113 2094 
Q 5113 2597 4934 2840 
Q 4756 3084 4391 3084 
Q 3944 3084 3684 2787 
Q 3425 2491 3425 1978 
L 3425 0 
L 2847 0 
L 2847 2094 
Q 2847 2600 2669 2842 
Q 2491 3084 2119 3084 
Q 1678 3084 1418 2786 
Q 1159 2488 1159 1978 
L 1159 0 
L 581 0 
L 581 3500 
L 1159 3500 
L 1159 2956 
Q 1356 3278 1631 3431 
Q 1906 3584 2284 3584 
Q 2666 3584 2933 3390 
Q 3200 3197 3328 2828 
z
" transform="scale(0.015625)"/>
      <path id="DejaVuSans-74" d="M 1172 4494 
L 1172 3500 
L 2356 3500 
L 2356 3053 
L 1172 3053 
L 1172 1153 
Q 1172 725 1289 603 
Q 1406 481 1766 481 
L 2356 481 
L 2356 0 
L 1766 0 
Q 1100 0 847 248 
Q 594 497 594 1153 
L 594 3053 
L 172 3053 
L 172 3500 
L 594 3500 
L 594 4494 
L 1172 4494 
z
" transform="scale(0.015625)"/>
      <path id="DejaVuSans-72" d="M 2631 2963 
Q 2534 3019 2420 3045 
Q 2306 3072 2169 3072 
Q 1681 3072 1420 2755 
Q 1159 2438 1159 1844 
L 1159 0 
L 581 0 
L 581 3500 
L 1159 3500 
L 1159 2956 
Q 1341 3275 1631 3429 
Q 1922 3584 2338 3584 
Q 2397 3584 2469 3576 
Q 2541 3569 2628 3553 
L 2631 2963 
z
" transform="scale(0.015625)"/>
      <path id="DejaVuSans-69" d="M 603 3500 
L 1178 3500 
L 1178 0 
L 603 0 
L 603 3500 
z
M 603 4863 
L 1178 4863 
L 1178 4134 
L 603 4134 
L 603 4863 
z
" transform="scale(0.015625)"/>
      <path id="DejaVuSans-63" d="M 3122 3366 
L 3122 2828 
Q 2878 2963 2633 3030 
Q 2388 3097 2138 3097 
Q 1578 3097 1268 2742 
Q 959 2388 959 1747 
Q 959 1106 1268 751 
Q 1578 397 2138 397 
Q 2388 397 2633 464 
Q 2878 531 3122 666 
L 3122 134 
Q 2881 22 2623 -34 
Q 2366 -91 2075 -91 
Q 1284 -91 818 406 
Q 353 903 353 1747 
Q 353 2603 823 3093 
Q 1294 3584 2113 3584 
Q 2378 3584 2631 3529 
Q 2884 3475 3122 3366 
z
" transform="scale(0.015625)"/>
      <path id="DejaVuSans-4c" d="M 628 4666 
L 1259 4666 
L 1259 531 
L 3531 531 
L 3531 0 
L 628 0 
L 628 4666 
z
" transform="scale(0.015625)"/>
      <path id="DejaVuSans-6e" d="M 3513 2113 
L 3513 0 
L 2938 0 
L 2938 2094 
Q 2938 2591 2744 2837 
Q 2550 3084 2163 3084 
Q 1697 3084 1428 2787 
Q 1159 2491 1159 1978 
L 1159 0 
L 581 0 
L 581 3500 
L 1159 3500 
L 1159 2956 
Q 1366 3272 1645 3428 
Q 1925 3584 2291 3584 
Q 2894 3584 3203 3211 
Q 3513 2838 3513 2113 
z
" transform="scale(0.015625)"/>
      <path id="DejaVuSans-61" d="M 2194 1759 
Q 1497 1759 1228 1600 
Q 959 1441 959 1056 
Q 959 750 1161 570 
Q 1363 391 1709 391 
Q 2188 391 2477 730 
Q 2766 1069 2766 1631 
L 2766 1759 
L 2194 1759 
z
M 3341 1997 
L 3341 0 
L 2766 0 
L 2766 531 
Q 2569 213 2275 61 
Q 1981 -91 1556 -91 
Q 1019 -91 701 211 
Q 384 513 384 1019 
Q 384 1609 779 1909 
Q 1175 2209 1959 2209 
L 2766 2209 
L 2766 2266 
Q 2766 2663 2505 2880 
Q 2244 3097 1772 3097 
Q 1472 3097 1187 3025 
Q 903 2953 641 2809 
L 641 3341 
Q 956 3463 1253 3523 
Q 1550 3584 1831 3584 
Q 2591 3584 2966 3190 
Q 3341 2797 3341 1997 
z
" transform="scale(0.015625)"/>
     </defs>
     <use xlink:href="#DejaVuSans-44"/>
     <use xlink:href="#DejaVuSans-6f" transform="translate(77.001953 0)"/>
     <use xlink:href="#DejaVuSans-75" transform="translate(138.183594 0)"/>
     <use xlink:href="#DejaVuSans-62" transform="translate(201.5625 0)"/>
     <use xlink:href="#DejaVuSans-6c" transform="translate(265.039062 0)"/>
     <use xlink:href="#DejaVuSans-65" transform="translate(292.822266 0)"/>
     <use xlink:href="#DejaVuSans-20" transform="translate(354.345703 0)"/>
     <use xlink:href="#DejaVuSans-41" transform="translate(386.132812 0)"/>
     <use xlink:href="#DejaVuSans-73" transform="translate(454.541016 0)"/>
     <use xlink:href="#DejaVuSans-79" transform="translate(506.640625 0)"/>
     <use xlink:href="#DejaVuSans-6d" transform="translate(565.820312 0)"/>
     <use xlink:href="#DejaVuSans-6d" transform="translate(663.232422 0)"/>
     <use xlink:href="#DejaVuSans-65" transform="translate(760.644531 0)"/>
     <use xlink:href="#DejaVuSans-74" transform="translate(822.167969 0)"/>
     <use xlink:href="#DejaVuSans-72" transform="translate(861.376953 0)"/>
     <use xlink:href="#DejaVuSans-69" transform="translate(902.490234 0)"/>
     <use xlink:href="#DejaVuSans-63" transform="translate(930.273438 0)"/>
     <use xlink:href="#DejaVuSans-20" transform="translate(985.253906 0)"/>
     <use xlink:href="#DejaVuSans-4c" transform="translate(1017.041016 0)"/>
     <use xlink:href="#DejaVuSans-6f" transform="translate(1071.003906 0)"/>
     <use xlink:href="#DejaVuSans-72" transform="translate(1132.185547 0)"/>
     <use xlink:href="#DejaVuSans-65" transform="translate(1171.048828 0)"/>
     <use xlink:href="#DejaVuSans-6e" transform="translate(1232.572266 0)"/>
     <use xlink:href="#DejaVuSans-74" transform="translate(1295.951172 0)"/>
     <use xlink:href="#DejaVuSans-7a" transform="translate(1335.160156 0)"/>
     <use xlink:href="#DejaVuSans-69" transform="translate(1387.650391 0)"/>
     <use xlink:href="#DejaVuSans-61" transform="translate(1415.433594 0)"/>
     <use xlink:href="#DejaVuSans-6e" transform="translate(1476.712891 0)"/>
    </g>
    <!-- $H_1$=128.3309 T, $H_2$=128.3289 T, R²=0.919 -->
    <g transform="translate(100.09 61.56) scale(0.161 -0.161)">
     <defs>
      <path id="DejaVuSans-Oblique-48" d="M 1081 4666 
L 1716 4666 
L 1344 2753 
L 3634 2753 
L 4006 4666 
L 4641 4666 
L 3731 0 
L 3097 0 
L 3531 2222 
L 1241 2222 
L 806 0 
L 172 0 
L 1081 4666 
z
" transform="scale(0.015625)"/>
      <path id="DejaVuSans-38" d="M 2034 2216 
Q 1584 2216 1326 1975 
Q 1069 1734 1069 1313 
Q 1069 891 1326 650 
Q 1584 409 2034 409 
Q 2484 409 2743 651 
Q 3003 894 3003 1313 
Q 3003 1734 2745 1975 
Q 2488 2216 2034 2216 
z
M 1403 2484 
Q 997 2584 770 2862 
Q 544 3141 544 3541 
Q 544 4100 942 4425 
Q 1341 4750 2034 4750 
Q 2731 4750 3128 4425 
Q 3525 4100 3525 3541 
Q 3525 3141 3298 2862 
Q 3072 2584 2669 2484 
Q 3125 2378 3379 2068 
Q 3634 1759 3634 1313 
Q 3634 634 3220 271 
Q 2806 -91 2034 -91 
Q 1263 -91 848 271 
Q 434 634 434 1313 
Q 434 1759 690 2068 
Q 947 2378 1403 2484 
z
M 1172 3481 
Q 1172 3119 1398 2916 
Q 1625 2713 2034 2713 
Q 2441 2713 2670 2916 
Q 2900 3119 2900 3481 
Q 2900 3844 2670 4047 
Q 2441 4250 2034 4250 
Q 1625 4250 1398 4047 
Q 1172 3844 1172 3481 
z
" transform="scale(0.015625)"/>
      <path id="DejaVuSans-2e" d="M 684 794 
L 1344 794 
L 1344 0 
L 684 0 
L 684 794 
z
" transform="scale(0.015625)"/>
      <path id="DejaVuSans-39" d="M 703 97 
L 703 672 
Q 941 559 1184 500 
Q 1428 441 1663 441 
Q 2288 441 2617 861 
Q 2947 1281 2994 2138 
Q 2813 1869 2534 1725 
Q 2256 1581 1919 1581 
Q 1219 1581 811 2004 
Q 403 2428 403 3163 
Q 403 3881 828 4315 
Q 1253 4750 1959 4750 
Q 2769 4750 3195 4129 
Q 3622 3509 3622 2328 
Q 3622 1225 3098 567 
Q 2575 -91 1691 -91 
Q 1453 -91 1209 -44 
Q 966 3 703 97 
z
M 1959 2075 
Q 2384 2075 2632 2365 
Q 2881 2656 2881 3163 
Q 2881 3666 2632 3958 
Q 2384 4250 1959 4250 
Q 1534 4250 1286 3958 
Q 1038 3666 1038 3163 
Q 1038 2656 1286 2365 
Q 1534 2075 1959 2075 
z
" transform="scale(0.015625)"/>
      <path id="DejaVuSans-52" d="M 2841 2188 
Q 3044 2119 3236 1894 
Q 3428 1669 3622 1275 
L 4263 0 
L 3584 0 
L 2988 1197 
Q 2756 1666 2539 1819 
Q 2322 1972 1947 1972 
L 1259 1972 
L 1259 0 
L 628 0 
L 628 4666 
L 2053 4666 
Q 2853 4666 3247 4331 
Q 3641 3997 3641 3322 
Q 3641 2881 3436 2590 
Q 3231 2300 2841 2188 
z
M 1259 4147 
L 1259 2491 
L 2053 2491 
Q 2509 2491 2742 2702 
Q 2975 2913 2975 3322 
Q 2975 3731 2742 3939 
Q 2509 4147 2053 4147 
L 1259 4147 
z
" transform="scale(0.015625)"/>
      <path id="DejaVuSans-b2" d="M 838 2444 
L 2163 2444 
L 2163 2088 
L 294 2088 
L 294 2431 
Q 400 2528 597 2703 
Q 1672 3656 1672 3950 
Q 1672 4156 1509 4282 
Q 1347 4409 1081 4409 
Q 919 4409 728 4354 
Q 538 4300 313 4191 
L 313 4575 
Q 553 4663 761 4706 
Q 969 4750 1147 4750 
Q 1600 4750 1872 4544 
Q 2144 4338 2144 4000 
Q 2144 3566 1109 2678 
Q 934 2528 838 2444 
z
" transform="scale(0.015625)"/>
     </defs>
     <use xlink:href="#DejaVuSans-Oblique-48" transform="translate(0 0.78125)"/>
     <use xlink:href="#DejaVuSans-31" transform="translate(75.195312 -15.625) scale(0.7)"/>
     <use xlink:href="#DejaVuSans-3d" transform="translate(122.46582 0.78125)"/>
     <use xlink:href="#DejaVuSans-31" transform="translate(206.254883 0.78125)"/>
     <use xlink:href="#DejaVuSans-32" transform="translate(269.87793 0.78125)"/>
     <use xlink:href="#DejaVuSans-38" transform="translate(333.500977 0.78125)"/>
     <use xlink:href="#DejaVuSans-2e" transform="translate(397.124023 0.78125)"/>
     <use xlink:href="#DejaVuSans-33" transform="translate(428.911133 0.78125)"/>
     <use xlink:href="#DejaVuSans-33" transform="translate(492.53418 0.78125)"/>
     <use xlink:href="#DejaVuSans-30" transform="translate(556.157227 0.78125)"/>
     <use xlink:href="#DejaVuSans-39" transform="translate(619.780273 0.78125)"/>
     <use xlink:href="#DejaVuSans-20" transform="translate(683.40332 0.78125)"/>
     <use xlink:href="#DejaVuSans-54" transform="translate(715.19043 0.78125)"/>
     <use xlink:href="#DejaVuSans-2c" transform="translate(776.274414 0.78125)"/>
     <use xlink:href="#DejaVuSans-20" transform="translate(808.061523 0.78125)"/>
     <use xlink:href="#DejaVuSans-Oblique-48" transform="translate(839.848633 0.78125)"/>
     <use xlink:href="#DejaVuSans-32" transform="translate(915.043945 -15.625) scale(0.7)"/>
     <use xlink:href="#DejaVuSans-3d" transform="translate(962.314453 0.78125)"/>
     <use xlink:href="#DejaVuSans-31" transform="translate(1046.103516 0.78125)"/>
     <use xlink:href="#DejaVuSans-32" transform="translate(1109.726562 0.78125)"/>
     <use xlink:href="#DejaVuSans-38" transform="translate(1173.349609 0.78125)"/>
     <use xlink:href="#DejaVuSans-2e" transform="translate(1236.972656 0.78125)"/>
     <use xlink:href="#DejaVuSans-33" transform="translate(1268.759766 0.78125)"/>
     <use xlink:href="#DejaVuSans-32" transform="translate(1332.382812 0.78125)"/>
     <use xlink:href="#DejaVuSans-38" transform="translate(1396.005859 0.78125)"/>
     <use xlink:href="#DejaVuSans-39" transform="translate(1459.628906 0.78125)"/>
     <use xlink:href="#DejaVuSans-20" transform="translate(1523.251953 0.78125)"/>
     <use xlink:href="#DejaVuSans-54" transform="translate(1555.039062 0.78125)"/>
     <use xlink:href="#DejaVuSans-2c" transform="translate(1616.123047 0.78125)"/>
     <use xlink:href="#DejaVuSans-20" transform="translate(1647.910156 0.78125)"/>
     <use xlink:href="#DejaVuSans-52" transform="translate(1679.697266 0.78125)"/>
     <use xlink:href="#DejaVuSans-b2" transform="translate(1749.179688 0.78125)"/>
     <use xlink:href="#DejaVuSans-3d" transform="translate(1789.267578 0.78125)"/>
     <use xlink:href="#DejaVuSans-30" transform="translate(1873.056641 0.78125)"/>
     <use xlink:href="#DejaVuSans-2e" transform="translate(1936.679688 0.78125)"/>
     <use xlink:href="#DejaVuSans-39" transform="translate(1968.466797 0.78125)"/>
     <use xlink:href="#DejaVuSans-31" transform="translate(2032.089844 0.78125)"/>
     <use xlink:href="#DejaVuSans-39" transform="translate(2095.712891 0.78125)"/>
    </g>
   </g>
   <g id="legend_1">
    <g id="patch_7">
     <path d="M 287.695781 139.367437 
L 479.436 139.367437 
Q 482.196 139.367437 482.196 136.607438 
L 482.196 77.22 
Q 482.196 74.46 479.436 74.46 
L 287.695781 74.46 
Q 284.935781 74.46 284.935781 77.22 
L 284.935781 136.607438 
Q 284.935781 139.367437 287.695781 139.367437 
z
" style="fill: #ffffff; opacity: 0.8; stroke: #cccccc; stroke-linejoin: miter"/>
    </g>
    <g id="line2d_13">
     <path d="M 290.455781 85.635844 
L 304.255781 85.635844 
L 318.055781 85.635844 
" style="fill: none; stroke: #cc7000; stroke-opacity: 0.7; stroke-width: 1.4; stroke-linecap: square"/>
    </g>
    <g id="text_13">
     <!-- Raw data (curve) -->
     <g transform="translate(329.095781 90.465844) scale(0.138 -0.138)">
      <defs>
       <path id="DejaVuSans-77" d="M 269 3500 
L 844 3500 
L 1563 769 
L 2278 3500 
L 2956 3500 
L 3675 769 
L 4391 3500 
L 4966 3500 
L 4050 0 
L 3372 0 
L 2619 2869 
L 1863 0 
L 1184 0 
L 269 3500 
z
" transform="scale(0.015625)"/>
       <path id="DejaVuSans-76" d="M 191 3500 
L 800 3500 
L 1894 563 
L 2988 3500 
L 3597 3500 
L 2284 0 
L 1503 0 
L 191 3500 
z
" transform="scale(0.015625)"/>
      </defs>
      <use xlink:href="#DejaVuSans-52"/>
      <use xlink:href="#DejaVuSans-61" transform="translate(67.232422 0)"/>
      <use xlink:href="#DejaVuSans-77" transform="translate(128.511719 0)"/>
      <use xlink:href="#DejaVuSans-20" transform="translate(210.298828 0)"/>
      <use xlink:href="#DejaVuSans-64" transform="translate(242.085938 0)"/>
      <use xlink:href="#DejaVuSans-61" transform="translate(305.5625 0)"/>
      <use xlink:href="#DejaVuSans-74" transform="translate(366.841797 0)"/>
      <use xlink:href="#DejaVuSans-61" transform="translate(406.050781 0)"/>
      <use xlink:href="#DejaVuSans-20" transform="translate(467.330078 0)"/>
      <use xlink:href="#DejaVuSans-28" transform="translate(499.117188 0)"/>
      <use xlink:href="#DejaVuSans-63" transform="translate(538.130859 0)"/>
      <use xlink:href="#DejaVuSans-75" transform="translate(593.111328 0)"/>
      <use xlink:href="#DejaVuSans-72" transform="translate(656.490234 0)"/>
      <use xlink:href="#DejaVuSans-76" transform="translate(697.603516 0)"/>
      <use xlink:href="#DejaVuSans-65" transform="translate(756.783203 0)"/>
      <use xlink:href="#DejaVuSans-29" transform="translate(818.306641 0)"/>
     </g>
    </g>
    <g id="line2d_14">
     <path d="M 290.455781 105.891656 
L 304.255781 105.891656 
L 318.055781 105.891656 
" style="fill: none; stroke: #2980b9; stroke-width: 2; stroke-linecap: square"/>
    </g>
    <g id="text_14">
     <!-- Aggregated (median) -->
     <g transform="translate(329.095781 110.721656) scale(0.138 -0.138)">
      <defs>
       <path id="DejaVuSans-67" d="M 2906 1791 
Q 2906 2416 2648 2759 
Q 2391 3103 1925 3103 
Q 1463 3103 1205 2759 
Q 947 2416 947 1791 
Q 947 1169 1205 825 
Q 1463 481 1925 481 
Q 2391 481 2648 825 
Q 2906 1169 2906 1791 
z
M 3481 434 
Q 3481 -459 3084 -895 
Q 2688 -1331 1869 -1331 
Q 1566 -1331 1297 -1286 
Q 1028 -1241 775 -1147 
L 775 -588 
Q 1028 -725 1275 -790 
Q 1522 -856 1778 -856 
Q 2344 -856 2625 -561 
Q 2906 -266 2906 331 
L 2906 616 
Q 2728 306 2450 153 
Q 2172 0 1784 0 
Q 1141 0 747 490 
Q 353 981 353 1791 
Q 353 2603 747 3093 
Q 1141 3584 1784 3584 
Q 2172 3584 2450 3431 
Q 2728 3278 2906 2969 
L 2906 3500 
L 3481 3500 
L 3481 434 
z
" transform="scale(0.015625)"/>
      </defs>
      <use xlink:href="#DejaVuSans-41"/>
      <use xlink:href="#DejaVuSans-67" transform="translate(68.408203 0)"/>
      <use xlink:href="#DejaVuSans-67" transform="translate(131.884766 0)"/>
      <use xlink:href="#DejaVuSans-72" transform="translate(195.361328 0)"/>
      <use xlink:href="#DejaVuSans-65" transform="translate(234.224609 0)"/>
      <use xlink:href="#DejaVuSans-67" transform="translate(295.748047 0)"/>
      <use xlink:href="#DejaVuSans-61" transform="translate(359.224609 0)"/>
      <use xlink:href="#DejaVuSans-74" transform="translate(420.503906 0)"/>
      <use xlink:href="#DejaVuSans-65" transform="translate(459.712891 0)"/>
      <use xlink:href="#DejaVuSans-64" transform="translate(521.236328 0)"/>
      <use xlink:href="#DejaVuSans-20" transform="translate(584.712891 0)"/>
      <use xlink:href="#DejaVuSans-28" transform="translate(616.5 0)"/>
      <use xlink:href="#DejaVuSans-6d" transform="translate(655.513672 0)"/>
      <use xlink:href="#DejaVuSans-65" transform="translate(752.925781 0)"/>
      <use xlink:href="#DejaVuSans-64" transform="translate(814.449219 0)"/>
      <use xlink:href="#DejaVuSans-69" transform="translate(877.925781 0)"/>
      <use xlink:href="#DejaVuSans-61" transform="translate(905.708984 0)"/>
      <use xlink:href="#DejaVuSans-6e" transform="translate(966.988281 0)"/>
      <use xlink:href="#DejaVuSans-29" transform="translate(1030.367188 0)"/>
     </g>
    </g>
    <g id="line2d_15">
     <path d="M 290.455781 126.147469 
L 304.255781 126.147469 
L 318.055781 126.147469 
" style="fill: none; stroke: #ffa500; stroke-width: 2.5; stroke-linecap: square"/>
    </g>
    <g id="text_15">
     <!-- Fit -->
     <g transform="translate(329.095781 130.977469) scale(0.138 -0.138)">
      <defs>
       <path id="DejaVuSans-46" d="M 628 4666 
L 3309 4666 
L 3309 4134 
L 1259 4134 
L 1259 2759 
L 3109 2759 
L 3109 2228 
L 1259 2228 
L 1259 0 
L 628 0 
L 628 4666 
z
" transform="scale(0.015625)"/>
      </defs>
      <use xlink:href="#DejaVuSans-46"/>
      <use xlink:href="#DejaVuSans-69" transform="translate(50.269531 0)"/>
      <use xlink:href="#DejaVuSans-74" transform="translate(78.052734 0)"/>
     </g>
    </g>
   </g>
  </g>
 </g>
 <defs>
  <clipPath id="p70cf1e0d47">
   <rect x="58.844" y="67.56" width="430.252" height="167.176"/>
  </clipPath>
 </defs>
</svg>
