<?xml version="1.0" encoding="utf-8" standalone="no"?>
<!DOCTYPE svg PUBLIC "-//W3C//DTD SVG 1.1//EN"
  "http://www.w3.org/Graphics/SVG/1.1/DTD/svg11.dtd">
<svg xmlns:xlink="http://www.w3.org/1999/xlink" width="504pt" height="288pt" viewBox="0 0 504 288" xmlns="http://www.w3.org/2000/svg" version="1.1">
 <metadata>
  <rdf:RDF xmlns:dc="http://purl.org/dc/elements/1.1/" xmlns:cc="http://creativecommons.org/ns#" xmlns:rdf="http://www.w3.org/1999/02/22-rdf-syntax-ns#">
   <cc:Work>
    <dc:type rdf:resource="http://purl.org/dc/dcmitype/StillImage"/>
    <dc:date>2025-10-06T06:58:59.148930</dc:date>
    <dc:format>image/svg+xml</dc:format>
    <dc:creator>
     <cc:Agent>
      <dc:title>Matplotlib v3.10.6, https://matplotlib.org/</dc:title>
     </cc:Agent>
    </dc:creator>
   </cc:Work>
  </rdf:RDF>
 </metadata>
 <defs>
  <style type="text/css">*{stroke-linejoin: round; stroke-linecap: butt}</style>
 </defs>
 <g id="figure_1">
  <g id="patch_1">
   <path d="M 0 288 
L 504 288 
L 504 0 
L 0 0 
z
" style="fill: #ffffff"/>
  </g>
  <g id="axes_1">
   <g id="patch_2">
    <path d="M 58.844 234.736 
L 489.096 234.736 
L 489.096 67.56 
L 58.844 67.56 
z
" style="fill: #ffffff"/>
   </g>
   <g id="matplotlib.axis_1">
    <g id="xtick_1">
     <g id="line2d_1">
      <defs>
       <path id="mabd08a7357" d="M 0 0 
L 0 3.5 
" style="stroke: #000000; stroke-width: 0.8"/>
      </defs>
      <g>
       <use xlink:href="#mabd08a7357" x="98.426264" y="234.736" style="stroke: #000000; stroke-width: 0.8"/>
      </g>
     </g>
     <g id="text_1">
      <!-- 215.0 -->
      <g transform="translate(80.318975 251.348023) scale(0.1265 -0.1265)">
       <defs>
        <path id="DejaVuSans-32" d="M 1228 531 
L 3431 531 
L 3431 0 
L 469 0 
L 469 531 
Q 828 903 1448 1529 
Q 2069 2156 2228 2338 
Q 2531 2678 2651 2914 
Q 2772 3150 2772 3378 
Q 2772 3750 2511 3984 
Q 2250 4219 1831 4219 
Q 1534 4219 1204 4116 
Q 875 4013 500 3803 
L 500 4441 
Q 881 4594 1212 4672 
Q 1544 4750 1819 4750 
Q 2544 4750 2975 4387 
Q 3406 4025 3406 3419 
Q 3406 3131 3298 2873 
Q 3191 2616 2906 2266 
Q 2828 2175 2409 1742 
Q 1991 1309 1228 531 
z
" transform="scale(0.015625)"/>
        <path id="DejaVuSans-31" d="M 794 531 
L 1825 531 
L 1825 4091 
L 703 3866 
L 703 4441 
L 1819 4666 
L 2450 4666 
L 2450 531 
L 3481 531 
L 3481 0 
L 794 0 
L 794 531 
z
" transform="scale(0.015625)"/>
        <path id="DejaVuSans-35" d="M 691 4666 
L 3169 4666 
L 3169 4134 
L 1269 4134 
L 1269 2991 
Q 1406 3038 1543 3061 
Q 1681 3084 1819 3084 
Q 2600 3084 3056 2656 
Q 3513 2228 3513 1497 
Q 3513 744 3044 326 
Q 2575 -91 1722 -91 
Q 1428 -91 1123 -41 
Q 819 9 494 109 
L 494 744 
Q 775 591 1075 516 
Q 1375 441 1709 441 
Q 2250 441 2565 725 
Q 2881 1009 2881 1497 
Q 2881 1984 2565 2268 
Q 2250 2553 1709 2553 
Q 1456 2553 1204 2497 
Q 953 2441 691 2322 
L 691 4666 
z
" transform="scale(0.015625)"/>
        <path id="DejaVuSans-2e" d="M 684 794 
L 1344 794 
L 1344 0 
L 684 0 
L 684 794 
z
" transform="scale(0.015625)"/>
        <path id="DejaVuSans-30" d="M 2034 4250 
Q 1547 4250 1301 3770 
Q 1056 3291 1056 2328 
Q 1056 1369 1301 889 
Q 1547 409 2034 409 
Q 2525 409 2770 889 
Q 3016 1369 3016 2328 
Q 3016 3291 2770 3770 
Q 2525 4250 2034 4250 
z
M 2034 4750 
Q 2819 4750 3233 4129 
Q 3647 3509 3647 2328 
Q 3647 1150 3233 529 
Q 2819 -91 2034 -91 
Q 1250 -91 836 529 
Q 422 1150 422 2328 
Q 422 3509 836 4129 
Q 1250 4750 2034 4750 
z
" transform="scale(0.015625)"/>
       </defs>
       <use xlink:href="#DejaVuSans-32"/>
       <use xlink:href="#DejaVuSans-31" transform="translate(63.623047 0)"/>
       <use xlink:href="#DejaVuSans-35" transform="translate(127.246094 0)"/>
       <use xlink:href="#DejaVuSans-2e" transform="translate(190.869141 0)"/>
       <use xlink:href="#DejaVuSans-30" transform="translate(222.65625 0)"/>
      </g>
     </g>
    </g>
    <g id="xtick_2">
     <g id="line2d_2">
      <g>
       <use xlink:href="#mabd08a7357" x="149.036239" y="234.736" style="stroke: #000000; stroke-width: 0.8"/>
      </g>
     </g>
     <g id="text_2">
      <!-- 217.5 -->
      <g transform="translate(130.92895 251.348023) scale(0.1265 -0.1265)">
       <defs>
        <path id="DejaVuSans-37" d="M 525 4666 
L 3525 4666 
L 3525 4397 
L 1831 0 
L 1172 0 
L 2766 4134 
L 525 4134 
L 525 4666 
z
" transform="scale(0.015625)"/>
       </defs>
       <use xlink:href="#DejaVuSans-32"/>
       <use xlink:href="#DejaVuSans-31" transform="translate(63.623047 0)"/>
       <use xlink:href="#DejaVuSans-37" transform="translate(127.246094 0)"/>
       <use xlink:href="#DejaVuSans-2e" transform="translate(190.869141 0)"/>
       <use xlink:href="#DejaVuSans-35" transform="translate(222.65625 0)"/>
      </g>
     </g>
    </g>
    <g id="xtick_3">
     <g id="line2d_3">
      <g>
       <use xlink:href="#mabd08a7357" x="199.646215" y="234.736" style="stroke: #000000; stroke-width: 0.8"/>
      </g>
     </g>
     <g id="text_3">
      <!-- 220.0 -->
      <g transform="translate(181.538926 251.348023) scale(0.1265 -0.1265)">
       <use xlink:href="#DejaVuSans-32"/>
       <use xlink:href="#DejaVuSans-32" transform="translate(63.623047 0)"/>
       <use xlink:href="#DejaVuSans-30" transform="translate(127.246094 0)"/>
       <use xlink:href="#DejaVuSans-2e" transform="translate(190.869141 0)"/>
       <use xlink:href="#DejaVuSans-30" transform="translate(222.65625 0)"/>
      </g>
     </g>
    </g>
    <g id="xtick_4">
     <g id="line2d_4">
      <g>
       <use xlink:href="#mabd08a7357" x="250.25619" y="234.736" style="stroke: #000000; stroke-width: 0.8"/>
      </g>
     </g>
     <g id="text_4">
      <!-- 222.5 -->
      <g transform="translate(232.148901 251.348023) scale(0.1265 -0.1265)">
       <use xlink:href="#DejaVuSans-32"/>
       <use xlink:href="#DejaVuSans-32" transform="translate(63.623047 0)"/>
       <use xlink:href="#DejaVuSans-32" transform="translate(127.246094 0)"/>
       <use xlink:href="#DejaVuSans-2e" transform="translate(190.869141 0)"/>
       <use xlink:href="#DejaVuSans-35" transform="translate(222.65625 0)"/>
      </g>
     </g>
    </g>
    <g id="xtick_5">
     <g id="line2d_5">
      <g>
       <use xlink:href="#mabd08a7357" x="300.866165" y="234.736" style="stroke: #000000; stroke-width: 0.8"/>
      </g>
     </g>
     <g id="text_5">
      <!-- 225.0 -->
      <g transform="translate(282.758876 251.348023) scale(0.1265 -0.1265)">
       <use xlink:href="#DejaVuSans-32"/>
       <use xlink:href="#DejaVuSans-32" transform="translate(63.623047 0)"/>
       <use xlink:href="#DejaVuSans-35" transform="translate(127.246094 0)"/>
       <use xlink:href="#DejaVuSans-2e" transform="translate(190.869141 0)"/>
       <use xlink:href="#DejaVuSans-30" transform="translate(222.65625 0)"/>
      </g>
     </g>
    </g>
    <g id="xtick_6">
     <g id="line2d_6">
      <g>
       <use xlink:href="#mabd08a7357" x="351.476141" y="234.736" style="stroke: #000000; stroke-width: 0.8"/>
      </g>
     </g>
     <g id="text_6">
      <!-- 227.5 -->
      <g transform="translate(333.368851 251.348023) scale(0.1265 -0.1265)">
       <use xlink:href="#DejaVuSans-32"/>
       <use xlink:href="#DejaVuSans-32" transform="translate(63.623047 0)"/>
       <use xlink:href="#DejaVuSans-37" transform="translate(127.246094 0)"/>
       <use xlink:href="#DejaVuSans-2e" transform="translate(190.869141 0)"/>
       <use xlink:href="#DejaVuSans-35" transform="translate(222.65625 0)"/>
      </g>
     </g>
    </g>
    <g id="xtick_7">
     <g id="line2d_7">
      <g>
       <use xlink:href="#mabd08a7357" x="402.086116" y="234.736" style="stroke: #000000; stroke-width: 0.8"/>
      </g>
     </g>
     <g id="text_7">
      <!-- 230.0 -->
      <g transform="translate(383.978827 251.348023) scale(0.1265 -0.1265)">
       <defs>
        <path id="DejaVuSans-33" d="M 2597 2516 
Q 3050 2419 3304 2112 
Q 3559 1806 3559 1356 
Q 3559 666 3084 287 
Q 2609 -91 1734 -91 
Q 1441 -91 1130 -33 
Q 819 25 488 141 
L 488 750 
Q 750 597 1062 519 
Q 1375 441 1716 441 
Q 2309 441 2620 675 
Q 2931 909 2931 1356 
Q 2931 1769 2642 2001 
Q 2353 2234 1838 2234 
L 1294 2234 
L 1294 2753 
L 1863 2753 
Q 2328 2753 2575 2939 
Q 2822 3125 2822 3475 
Q 2822 3834 2567 4026 
Q 2313 4219 1838 4219 
Q 1578 4219 1281 4162 
Q 984 4106 628 3988 
L 628 4550 
Q 988 4650 1302 4700 
Q 1616 4750 1894 4750 
Q 2613 4750 3031 4423 
Q 3450 4097 3450 3541 
Q 3450 3153 3228 2886 
Q 3006 2619 2597 2516 
z
" transform="scale(0.015625)"/>
       </defs>
       <use xlink:href="#DejaVuSans-32"/>
       <use xlink:href="#DejaVuSans-33" transform="translate(63.623047 0)"/>
       <use xlink:href="#DejaVuSans-30" transform="translate(127.246094 0)"/>
       <use xlink:href="#DejaVuSans-2e" transform="translate(190.869141 0)"/>
       <use xlink:href="#DejaVuSans-30" transform="translate(222.65625 0)"/>
      </g>
     </g>
    </g>
    <g id="xtick_8">
     <g id="line2d_8">
      <g>
       <use xlink:href="#mabd08a7357" x="452.696091" y="234.736" style="stroke: #000000; stroke-width: 0.8"/>
      </g>
     </g>
     <g id="text_8">
      <!-- 232.5 -->
      <g transform="translate(434.588802 251.348023) scale(0.1265 -0.1265)">
       <use xlink:href="#DejaVuSans-32"/>
       <use xlink:href="#DejaVuSans-33" transform="translate(63.623047 0)"/>
       <use xlink:href="#DejaVuSans-32" transform="translate(127.246094 0)"/>
       <use xlink:href="#DejaVuSans-2e" transform="translate(190.869141 0)"/>
       <use xlink:href="#DejaVuSans-35" transform="translate(222.65625 0)"/>
      </g>
     </g>
    </g>
    <g id="text_9">
     <!-- H (T) -->
     <g transform="translate(255.574492 269.338492) scale(0.1495 -0.1495)">
      <defs>
       <path id="DejaVuSans-48" d="M 628 4666 
L 1259 4666 
L 1259 2753 
L 3553 2753 
L 3553 4666 
L 4184 4666 
L 4184 0 
L 3553 0 
L 3553 2222 
L 1259 2222 
L 1259 0 
L 628 0 
L 628 4666 
z
" transform="scale(0.015625)"/>
       <path id="DejaVuSans-20" transform="scale(0.015625)"/>
       <path id="DejaVuSans-28" d="M 1984 4856 
Q 1566 4138 1362 3434 
Q 1159 2731 1159 2009 
Q 1159 1288 1364 580 
Q 1569 -128 1984 -844 
L 1484 -844 
Q 1016 -109 783 600 
Q 550 1309 550 2009 
Q 550 2706 781 3412 
Q 1013 4119 1484 4856 
L 1984 4856 
z
" transform="scale(0.015625)"/>
       <path id="DejaVuSans-54" d="M -19 4666 
L 3928 4666 
L 3928 4134 
L 2272 4134 
L 2272 0 
L 1638 0 
L 1638 4134 
L -19 4134 
L -19 4666 
z
" transform="scale(0.015625)"/>
       <path id="DejaVuSans-29" d="M 513 4856 
L 1013 4856 
Q 1481 4119 1714 3412 
Q 1947 2706 1947 2009 
Q 1947 1309 1714 600 
Q 1481 -109 1013 -844 
L 513 -844 
Q 928 -128 1133 580 
Q 1338 1288 1338 2009 
Q 1338 2731 1133 3434 
Q 928 4138 513 4856 
z
" transform="scale(0.015625)"/>
      </defs>
      <use xlink:href="#DejaVuSans-48"/>
      <use xlink:href="#DejaVuSans-20" transform="translate(75.195312 0)"/>
      <use xlink:href="#DejaVuSans-28" transform="translate(106.982422 0)"/>
      <use xlink:href="#DejaVuSans-54" transform="translate(145.996094 0)"/>
      <use xlink:href="#DejaVuSans-29" transform="translate(207.080078 0)"/>
     </g>
    </g>
   </g>
   <g id="matplotlib.axis_2">
    <g id="ytick_1">
     <g id="line2d_9">
      <defs>
       <path id="madd06734f6" d="M 0 0 
L -3.5 0 
" style="stroke: #000000; stroke-width: 0.8"/>
      </defs>
      <g>
       <use xlink:href="#madd06734f6" x="58.844" y="209.82044" style="stroke: #000000; stroke-width: 0.8"/>
      </g>
     </g>
     <g id="text_10">
      <!-- −2 -->
      <g transform="translate(33.195133 214.626452) scale(0.1265 -0.1265)">
       <defs>
        <path id="DejaVuSans-2212" d="M 678 2272 
L 4684 2272 
L 4684 1741 
L 678 1741 
L 678 2272 
z
" transform="scale(0.015625)"/>
       </defs>
       <use xlink:href="#DejaVuSans-2212"/>
       <use xlink:href="#DejaVuSans-32" transform="translate(83.789062 0)"/>
      </g>
     </g>
    </g>
    <g id="ytick_2">
     <g id="line2d_10">
      <g>
       <use xlink:href="#madd06734f6" x="58.844" y="174.52165" style="stroke: #000000; stroke-width: 0.8"/>
      </g>
     </g>
     <g id="text_11">
      <!-- 0 -->
      <g transform="translate(43.795438 179.327662) scale(0.1265 -0.1265)">
       <use xlink:href="#DejaVuSans-30"/>
      </g>
     </g>
    </g>
    <g id="ytick_3">
     <g id="line2d_11">
      <g>
       <use xlink:href="#madd06734f6" x="58.844" y="139.22286" style="stroke: #000000; stroke-width: 0.8"/>
      </g>
     </g>
     <g id="text_12">
      <!-- 2 -->
      <g transform="translate(43.795438 144.028871) scale(0.1265 -0.1265)">
       <use xlink:href="#DejaVuSans-32"/>
      </g>
     </g>
    </g>
    <g id="ytick_4">
     <g id="line2d_12">
      <g>
       <use xlink:href="#madd06734f6" x="58.844" y="103.92407" style="stroke: #000000; stroke-width: 0.8"/>
      </g>
     </g>
     <g id="text_13">
      <!-- 4 -->
      <g transform="translate(43.795438 108.730081) scale(0.1265 -0.1265)">
       <defs>
        <path id="DejaVuSans-34" d="M 2419 4116 
L 825 1625 
L 2419 1625 
L 2419 4116 
z
M 2253 4666 
L 3047 4666 
L 3047 1625 
L 3713 1625 
L 3713 1100 
L 3047 1100 
L 3047 0 
L 2419 0 
L 2419 1100 
L 313 1100 
L 313 1709 
L 2253 4666 
z
" transform="scale(0.015625)"/>
       </defs>
       <use xlink:href="#DejaVuSans-34"/>
      </g>
     </g>
    </g>
    <g id="ytick_5">
     <g id="line2d_13">
      <g>
       <use xlink:href="#madd06734f6" x="58.844" y="68.62528" style="stroke: #000000; stroke-width: 0.8"/>
      </g>
     </g>
     <g id="text_14">
      <!-- 6 -->
      <g transform="translate(43.795438 73.431291) scale(0.1265 -0.1265)">
       <defs>
        <path id="DejaVuSans-36" d="M 2113 2584 
Q 1688 2584 1439 2293 
Q 1191 2003 1191 1497 
Q 1191 994 1439 701 
Q 1688 409 2113 409 
Q 2538 409 2786 701 
Q 3034 994 3034 1497 
Q 3034 2003 2786 2293 
Q 2538 2584 2113 2584 
z
M 3366 4563 
L 3366 3988 
Q 3128 4100 2886 4159 
Q 2644 4219 2406 4219 
Q 1781 4219 1451 3797 
Q 1122 3375 1075 2522 
Q 1259 2794 1537 2939 
Q 1816 3084 2150 3084 
Q 2853 3084 3261 2657 
Q 3669 2231 3669 1497 
Q 3669 778 3244 343 
Q 2819 -91 2113 -91 
Q 1303 -91 875 529 
Q 447 1150 447 2328 
Q 447 3434 972 4092 
Q 1497 4750 2381 4750 
Q 2619 4750 2861 4703 
Q 3103 4656 3366 4563 
z
" transform="scale(0.015625)"/>
       </defs>
       <use xlink:href="#DejaVuSans-36"/>
      </g>
     </g>
    </g>
    <g id="text_15">
     <!-- dP/dH -->
     <g transform="translate(26.086 173.28568) rotate(-90) scale(0.1495 -0.1495)">
      <defs>
       <path id="DejaVuSans-64" d="M 2906 2969 
L 2906 4863 
L 3481 4863 
L 3481 0 
L 2906 0 
L 2906 525 
Q 2725 213 2448 61 
Q 2172 -91 1784 -91 
Q 1150 -91 751 415 
Q 353 922 353 1747 
Q 353 2572 751 3078 
Q 1150 3584 1784 3584 
Q 2172 3584 2448 3432 
Q 2725 3281 2906 2969 
z
M 947 1747 
Q 947 1113 1208 752 
Q 1469 391 1925 391 
Q 2381 391 2643 752 
Q 2906 1113 2906 1747 
Q 2906 2381 2643 2742 
Q 2381 3103 1925 3103 
Q 1469 3103 1208 2742 
Q 947 2381 947 1747 
z
" transform="scale(0.015625)"/>
       <path id="DejaVuSans-50" d="M 1259 4147 
L 1259 2394 
L 2053 2394 
Q 2494 2394 2734 2622 
Q 2975 2850 2975 3272 
Q 2975 3691 2734 3919 
Q 2494 4147 2053 4147 
L 1259 4147 
z
M 628 4666 
L 2053 4666 
Q 2838 4666 3239 4311 
Q 3641 3956 3641 3272 
Q 3641 2581 3239 2228 
Q 2838 1875 2053 1875 
L 1259 1875 
L 1259 0 
L 628 0 
L 628 4666 
z
" transform="scale(0.015625)"/>
       <path id="DejaVuSans-2f" d="M 1625 4666 
L 2156 4666 
L 531 -594 
L 0 -594 
L 1625 4666 
z
" transform="scale(0.015625)"/>
      </defs>
      <use xlink:href="#DejaVuSans-64"/>
      <use xlink:href="#DejaVuSans-50" transform="translate(63.476562 0)"/>
      <use xlink:href="#DejaVuSans-2f" transform="translate(123.779297 0)"/>
      <use xlink:href="#DejaVuSans-64" transform="translate(157.470703 0)"/>
      <use xlink:href="#DejaVuSans-48" transform="translate(220.947266 0)"/>
     </g>
    </g>
   </g>
   <g id="line2d_14">
    <path d="M 78.400909 175.782893 
L 78.400909 175.305124 
L 78.400909 175.430258 
L 81.008497 175.413191 
L 81.008497 175.09469 
L 83.616085 175.856844 
L 83.616085 175.145874 
L 83.616085 176.789632 
L 86.223673 175.66346 
L 86.223673 174.252902 
L 86.223673 175.271008 
L 88.831261 175.600893 
L 88.831261 176.681565 
L 88.831261 174.781855 
L 91.438848 176.198095 
L 91.438848 176.289113 
L 91.438848 174.633971 
L 94.046436 175.572459 
L 94.046436 175.481442 
L 94.046436 175.856844 
L 96.654024 174.918355 
L 96.654024 176.471114 
L 96.654024 176.090028 
L 99.261612 174.742038 
L 99.261612 176.306162 
L 99.261612 174.935422 
L 101.8692 177.489219 
L 101.8692 176.567797 
L 101.8692 177.585902 
L 101.8692 177.221884 
L 104.476788 176.442681 
L 104.476788 177.745171 
L 107.084376 177.614353 
L 107.084376 177.295835 
L 107.084376 179.400296 
L 109.691964 177.256018 
L 109.691964 178.552825 
L 109.691964 178.217239 
L 112.299552 178.712075 
L 112.299552 178.530075 
L 112.299552 179.565229 
L 114.907139 178.916826 
L 114.907139 179.024893 
L 114.907139 178.695008 
L 117.514727 178.962344 
L 117.514727 178.729142 
L 120.122315 178.205873 
L 120.122315 177.062633 
L 120.122315 178.808758 
L 122.729903 176.107095 
L 122.729903 176.687248 
L 125.337491 174.56572 
L 125.337491 173.24048 
L 125.337491 174.986623 
L 127.945079 174.099335 
L 127.945079 170.789068 
L 130.552667 173.382681 
L 130.552667 177.005767 
L 130.552667 175.720326 
L 133.160255 173.553316 
L 133.160255 173.615865 
L 133.160255 173.03573 
L 133.160255 173.723932 
L 135.767842 174.412153 
L 135.767842 171.101903 
L 135.767842 174.150518 
L 138.37543 174.218769 
L 138.37543 170.214615 
L 140.983018 173.291681 
L 140.983018 173.229114 
L 140.983018 173.718249 
L 143.590606 172.52951 
L 143.590606 173.553316 
L 146.198194 173.7922 
L 146.198194 174.144835 
L 146.198194 173.661383 
L 148.805782 173.479365 
L 148.805782 173.587432 
L 148.805782 173.985585 
L 148.805782 172.796845 
L 151.41337 173.923018 
L 151.41337 172.950412 
L 151.41337 173.940067 
L 154.020958 173.706883 
L 154.020958 174.33822 
L 156.628545 176.744132 
L 156.628545 172.427143 
L 159.236133 175.66346 
L 159.236133 177.187767 
L 159.236133 175.202758 
L 161.843721 175.310825 
L 161.843721 176.033162 
L 164.451309 175.322191 
L 164.451309 176.738431 
L 164.451309 174.133451 
L 167.058897 176.243595 
L 167.058897 175.458691 
L 167.058897 176.539364 
L 169.666485 176.658815 
L 169.666485 179.496979 
L 169.666485 175.015056 
L 172.274073 178.894076 
L 172.274073 176.630364 
L 172.274073 177.73947 
L 174.881661 179.866681 
L 174.881661 177.62572 
L 174.881661 178.768959 
L 177.489248 179.326345 
L 177.489248 180.96442 
L 180.096836 180.856353 
L 180.096836 184.075585 
L 182.704424 186.453064 
L 182.704424 190.468584 
L 182.704424 186.339296 
L 185.312012 197.282433 
L 185.312012 193.619566 
L 185.312012 199.807779 
L 187.9196 209.237957 
L 187.9196 201.764338 
L 187.9196 207.332581 
L 190.527188 212.838257 
L 190.527188 211.177467 
L 190.527188 212.457189 
L 193.134776 211.797419 
L 193.134776 205.267955 
L 193.134776 210.312929 
L 195.742364 193.949451 
L 195.742364 202.190924 
L 198.349952 186.19143 
L 198.349952 191.748307 
L 198.349952 188.347056 
L 200.957539 186.123162 
L 200.957539 184.951507 
L 200.957539 186.640748 
L 203.565127 190.451517 
L 203.565127 187.818104 
L 203.565127 189.439095 
L 206.172715 190.428767 
L 206.172715 190.394633 
L 206.172715 189.080777 
L 208.780303 191.09422 
L 208.780303 190.064748 
L 208.780303 190.565268 
L 211.387891 195.502192 
L 211.387891 193.005296 
L 211.387891 199.091126 
L 213.995479 212.912208 
L 213.995479 201.963406 
L 213.995479 204.198666 
L 216.603067 222.336685 
L 216.603067 215.335152 
L 216.603067 217.337211 
L 219.210655 227.137091 
L 219.210655 224.122627 
L 219.210655 225.914235 
L 221.818242 225.595734 
L 221.818242 226.494371 
L 221.818242 222.02955 
L 224.42583 197.242634 
L 224.42583 218.093682 
L 224.42583 212.832574 
L 227.033418 155.614153 
L 227.033418 187.289152 
L 227.033418 177.955604 
L 229.641006 127.925923 
L 229.641006 143.447984 
L 229.641006 108.626963 
L 232.248594 83.605627 
L 232.248594 77.917598 
L 232.248594 98.667391 
L 232.248594 89.91931 
L 234.856182 77.519445 
L 234.856182 78.873189 
L 234.856182 75.158909 
L 234.856182 76.290818 
L 237.46377 88.844268 
L 237.46377 83.179024 
L 237.46377 98.758409 
L 237.46377 94.992982 
L 240.071358 108.405127 
L 240.071358 128.460576 
L 240.071358 115.497943 
L 242.678945 139.773662 
L 242.678945 147.014238 
L 242.678945 133.955027 
L 245.286533 151.865916 
L 245.286533 157.274979 
L 245.286533 154.192212 
L 247.894121 160.511313 
L 247.894121 162.939993 
L 247.894121 162.007187 
L 250.501709 163.628196 
L 250.501709 161.768303 
L 250.501709 165.960175 
L 253.109297 168.292155 
L 253.109297 166.949848 
L 253.109297 167.535684 
L 255.716885 170.52175 
L 255.716885 168.14427 
L 258.324473 171.113269 
L 258.324473 169.793712 
L 260.932061 169.822163 
L 260.932061 171.027952 
L 260.932061 169.122559 
L 263.539648 171.73324 
L 263.539648 170.294231 
L 263.539648 173.177913 
L 266.147236 174.019701 
L 266.147236 172.188259 
L 266.147236 173.28598 
L 268.754824 172.48971 
L 268.754824 173.570365 
L 271.362412 172.978846 
L 271.362412 173.052797 
L 271.362412 174.844422 
L 271.362412 173.337181 
L 273.97 172.55226 
L 273.97 172.023307 
L 273.97 173.462298 
L 276.577588 173.519182 
L 276.577588 173.416798 
L 276.577588 172.882162 
L 276.577588 173.541932 
L 279.185176 173.695499 
L 279.185176 174.127768 
L 279.185176 173.587432 
L 281.792764 175.11174 
L 281.792764 173.547615 
L 281.792764 174.730672 
L 284.400352 173.735316 
L 284.400352 172.745644 
L 284.400352 174.025384 
L 287.007939 174.087951 
L 287.007939 174.298403 
L 287.007939 174.105018 
L 289.615527 177.557469 
L 289.615527 174.349586 
L 289.615527 174.679471 
L 292.223115 173.496432 
L 292.223115 174.770489 
L 294.830703 176.198095 
L 294.830703 174.218769 
L 294.830703 174.269969 
L 297.438291 174.54297 
L 297.438291 174.247219 
L 297.438291 174.759105 
L 300.045879 172.865095 
L 300.045879 174.366653 
L 302.653467 174.40647 
L 302.653467 174.287019 
L 302.653467 174.662421 
L 305.261055 174.554354 
L 305.261055 174.941123 
L 305.261055 174.161902 
L 307.868642 173.024346 
L 307.868642 174.514537 
L 307.868642 174.412153 
L 310.47623 174.673788 
L 310.47623 175.811344 
L 310.47623 174.633971 
L 313.083818 173.780816 
L 313.083818 175.384758 
L 313.083818 174.838739 
L 315.691406 174.156201 
L 315.691406 175.191374 
L 315.691406 173.519182 
L 315.691406 174.49747 
L 318.298994 174.736355 
L 318.298994 174.230152 
L 318.298994 174.724988 
L 320.906582 173.729633 
L 320.906582 175.11744 
L 320.906582 174.616921 
L 323.51417 173.945768 
L 323.51417 175.054873 
L 323.51417 174.56572 
L 326.121758 174.45197 
L 326.121758 175.947844 
L 326.121758 175.026423 
L 328.729345 174.395086 
L 328.729345 178.143306 
L 331.336933 177.096767 
L 331.336933 174.514537 
L 333.944521 174.850105 
L 333.944521 175.026423 
L 333.944521 174.537287 
L 336.552109 172.899212 
L 336.552109 175.470075 
L 336.552109 174.161902 
L 339.159697 174.759105 
L 339.159697 174.29272 
L 339.159697 174.787538 
L 341.767285 176.48248 
L 341.767285 174.031085 
L 344.374873 174.332519 
L 344.374873 175.367691 
L 344.374873 173.251864 
L 346.982461 174.855806 
L 346.982461 175.214124 
L 346.982461 174.247219 
L 346.982461 175.07194 
L 349.590048 174.861489 
L 349.590048 174.400787 
L 349.590048 176.272046 
L 349.590048 175.08899 
L 352.197636 176.311863 
L 352.197636 173.934384 
L 352.197636 174.963873 
L 354.805224 174.798922 
L 354.805224 174.821672 
L 354.805224 174.099335 
L 357.412812 175.009373 
L 357.412812 176.004711 
L 357.412812 174.150518 
L 360.0204 174.645354 
L 360.0204 173.923018 
L 360.0204 175.669143 
L 360.0204 174.793239 
L 362.627988 174.889922 
L 362.627988 173.729633 
L 362.627988 174.827355 
L 365.235576 174.793239 
L 365.235576 174.45197 
L 365.235576 174.895605 
L 367.843164 175.885277 
L 367.843164 173.223413 
L 367.843164 174.838739 
L 370.450752 174.929739 
L 370.450752 174.49747 
L 370.450752 175.180008 
L 370.450752 174.924056 
L 373.058339 174.423537 
L 373.058339 175.538326 
L 373.058339 169.662895 
L 373.058339 175.424575 
L 375.665927 176.112778 
L 375.665927 174.372336 
L 378.273515 173.143797 
L 378.273515 175.168624 
L 378.273515 174.582787 
L 380.881103 174.252902 
L 380.881103 175.379075 
L 380.881103 174.895605 
L 383.488691 174.29272 
L 383.488691 174.730672 
L 383.488691 174.668104 
L 386.096279 174.491787 
L 386.096279 175.11744 
L 386.096279 173.246163 
L 386.096279 174.747739 
L 388.703867 175.515575 
L 388.703867 173.883201 
L 388.703867 174.827355 
L 391.311455 174.29272 
L 391.311455 175.936461 
L 391.311455 174.924056 
L 393.919042 174.986623 
L 393.919042 175.174307 
L 393.919042 171.829923 
L 393.919042 174.895605 
L 396.52663 174.952489 
L 396.52663 178.035238 
L 396.52663 174.815989 
L 399.134218 173.689816 
L 399.134218 173.223413 
L 399.134218 175.271008 
L 401.741806 175.225508 
L 401.741806 174.58847 
L 404.349394 174.992306 
L 404.349394 175.424575 
L 404.349394 174.616921 
L 406.956982 175.441642 
L 406.956982 172.427143 
L 409.56457 175.299441 
L 409.56457 174.480403 
L 409.56457 174.764788 
L 412.172158 175.06624 
L 412.172158 172.887845 
L 412.172158 174.855806 
L 414.779745 175.669143 
L 414.779745 174.252902 
L 414.779745 174.997989 
L 417.387333 174.47472 
L 417.387333 174.366653 
L 417.387333 175.077623 
L 419.994921 174.986623 
L 419.994921 174.861489 
L 419.994921 175.760143 
L 422.602509 174.736355 
L 422.602509 174.827355 
L 422.602509 174.065201 
L 422.602509 175.248258 
L 425.210097 174.594171 
L 425.210097 176.266363 
L 425.210097 175.470075 
L 427.817685 175.13449 
L 427.817685 173.325797 
L 427.817685 175.652076 
L 430.425273 174.787538 
L 430.425273 174.49747 
L 430.425273 175.350624 
L 433.032861 175.817027 
L 433.032861 174.969556 
L 433.032861 178.075055 
L 435.640448 174.986623 
L 435.640448 175.68621 
L 435.640448 174.54297 
L 438.248036 174.395086 
L 438.248036 176.43698 
L 438.248036 174.235836 
L 440.855624 174.929739 
L 440.855624 173.905951 
L 440.855624 175.003672 
L 443.463212 174.861489 
L 443.463212 176.266363 
L 443.463212 175.11174 
L 446.0708 174.946806 
L 446.0708 175.504192 
L 446.0708 175.168624 
L 448.678388 175.492825 
L 448.678388 173.598816 
L 448.678388 176.363046 
L 451.285976 176.789632 
L 451.285976 174.571403 
L 453.893564 175.811344 
L 453.893564 174.554354 
L 453.893564 174.963873 
L 456.501152 173.888884 
L 456.501152 175.043489 
L 456.501152 174.827355 
L 459.108739 176.340296 
L 459.108739 173.894567 
L 459.108739 174.941123 
L 461.716327 173.843384 
L 461.716327 176.118479 
L 461.716327 174.918355 
L 464.323915 175.049173 
L 464.323915 179.73018 
L 464.323915 174.924056 
L 466.931503 174.929739 
L 466.931503 175.515575 
L 466.931503 174.486104 
L 469.539091 173.689816 
L 469.539091 175.79996 
L 469.539091 175.310825 
" clip-path="url(#p95f6a0277a)" style="fill: none; stroke: #cc7000; stroke-opacity: 0.7; stroke-width: 1.4; stroke-linecap: square"/>
   </g>
   <g id="line2d_15">
    <path d="M 78.400909 175.430258 
L 81.008497 175.242566 
L 83.616085 175.984811 
L 86.223673 175.179999 
L 88.831261 175.441633 
L 91.438848 175.4786 
L 94.046436 175.706118 
L 96.654024 176.09572 
L 99.261612 175.302283 
L 101.8692 177.355551 
L 104.476788 177.173542 
L 107.084376 177.65132 
L 109.691964 178.339532 
L 112.299552 178.811609 
L 114.907139 178.854267 
L 117.514727 178.783167 
L 122.729903 176.471114 
L 125.337491 174.688004 
L 127.945079 173.718249 
L 130.552667 175.049181 
L 133.160255 173.58459 
L 135.767842 173.305889 
L 143.590606 173.328648 
L 146.198194 173.81495 
L 148.805782 173.533398 
L 154.020958 173.977042 
L 156.628545 175.245407 
L 159.236133 175.529792 
L 164.451309 175.561076 
L 167.058897 176.223696 
L 169.666485 176.724224 
L 172.274073 177.827629 
L 174.881661 178.507324 
L 177.489248 179.937781 
L 180.096836 181.902892 
L 182.704424 187.419969 
L 185.312012 196.130678 
L 187.9196 206.388427 
L 190.527188 211.953828 
L 193.134776 209.115673 
L 195.742364 197.603793 
L 198.349952 190.007873 
L 200.957539 186.367738 
L 203.565127 189.08646 
L 206.172715 190.110249 
L 208.780303 190.315008 
L 211.387891 196.50038 
L 213.995479 206.28036 
L 216.603067 218.835919 
L 219.210655 225.026956 
L 221.818242 224.526445 
L 224.42583 209.038889 
L 227.033418 172.293467 
L 229.641006 124.07809 
L 232.248594 86.762469 
L 234.856182 76.905131 
L 237.46377 91.918625 
L 240.071358 120.070989 
L 242.678945 141.880991 
L 245.286533 155.324076 
L 247.894121 162.428081 
L 250.501709 164.723094 
L 253.109297 167.805852 
L 255.716885 169.469519 
L 258.324473 170.319832 
L 260.932061 170.274332 
L 263.539648 171.281062 
L 266.147236 172.89637 
L 268.754824 172.603461 
L 271.362412 173.194989 
L 273.97 172.890687 
L 276.577588 173.46799 
L 279.185176 173.786508 
L 281.792764 174.218777 
L 284.400352 173.49359 
L 287.007939 174.190335 
L 289.615527 174.571412 
L 292.223115 174.147677 
L 297.438291 174.506004 
L 300.045879 173.769441 
L 302.653467 174.506004 
L 305.261055 174.591321 
L 307.868642 174.059518 
L 310.47623 174.690855 
L 313.083818 174.733513 
L 315.691406 174.326836 
L 318.298994 174.542979 
L 323.51417 174.645354 
L 326.121758 174.969547 
L 328.729345 176.39148 
L 331.336933 174.65958 
L 333.944521 174.736355 
L 336.552109 174.480412 
L 339.159697 174.557196 
L 341.767285 175.498509 
L 344.374873 174.753413 
L 346.982461 174.963873 
L 349.590048 174.975239 
L 352.197636 174.531604 
L 354.805224 174.798922 
L 357.412812 174.597013 
L 362.627988 174.818822 
L 365.235576 174.835897 
L 367.843164 175.13734 
L 370.450752 174.926898 
L 375.665927 174.889931 
L 378.273515 174.682321 
L 383.488691 174.676638 
L 388.703867 174.503153 
L 391.311455 174.904148 
L 396.52663 174.975239 
L 399.134218 174.306936 
L 401.741806 174.776172 
L 404.349394 174.835888 
L 406.956982 175.106057 
L 409.56457 174.875706 
L 412.172158 174.813147 
L 414.779745 174.986614 
L 417.387333 174.744888 
L 419.994921 174.980931 
L 422.602509 174.781855 
L 425.210097 175.333566 
L 427.817685 175.06624 
L 430.425273 174.915514 
L 433.032861 175.424575 
L 435.640448 174.870022 
L 438.248036 174.653879 
L 440.855624 174.801763 
L 443.463212 175.125965 
L 446.0708 175.288066 
L 451.285976 175.060556 
L 453.893564 175.137349 
L 456.501152 174.878547 
L 461.716327 175.103206 
L 464.323915 174.997989 
L 469.539091 175.043489 
L 469.539091 175.043489 
" clip-path="url(#p95f6a0277a)" style="fill: none; stroke: #2980b9; stroke-width: 2; stroke-linecap: square"/>
   </g>
   <g id="line2d_16">
    <path d="M 78.400909 174.935347 
L 167.058897 174.807753 
L 187.9196 174.589897 
L 198.349952 174.296533 
L 206.172715 173.834276 
L 211.387891 173.26327 
L 213.995479 172.831894 
L 216.603067 172.246444 
L 219.210655 171.435731 
L 221.818242 170.288859 
L 224.42583 168.631166 
L 227.033418 166.188961 
L 229.641006 162.553058 
L 232.248594 157.211577 
L 237.46377 142.553024 
L 240.071358 142.503827 
L 242.678945 161.281434 
L 245.286533 191.813155 
L 247.894121 208.174728 
L 250.501709 206.656689 
L 253.109297 199.036667 
L 255.716885 191.973061 
L 258.324473 186.851689 
L 260.932061 183.378311 
L 263.539648 181.044312 
L 266.147236 179.457017 
L 268.754824 178.35619 
L 271.362412 177.576085 
L 273.97 177.011392 
L 279.185176 176.280737 
L 284.400352 175.854551 
L 292.223115 175.49665 
L 305.261055 175.223399 
L 326.121758 175.065572 
L 375.665927 174.978345 
L 469.539091 174.95554 
L 469.539091 174.95554 
" clip-path="url(#p95f6a0277a)" style="fill: none; stroke: #ffa500; stroke-width: 2.5; stroke-linecap: square"/>
   </g>
   <g id="patch_3">
    <path d="M 58.844 234.736 
L 58.844 67.56 
" style="fill: none; stroke: #000000; stroke-width: 0.8; stroke-linejoin: miter; stroke-linecap: square"/>
   </g>
   <g id="patch_4">
    <path d="M 489.096 234.736 
L 489.096 67.56 
" style="fill: none; stroke: #000000; stroke-width: 0.8; stroke-linejoin: miter; stroke-linecap: square"/>
   </g>
   <g id="patch_5">
    <path d="M 58.844 234.736 
L 489.096 234.736 
" style="fill: none; stroke: #000000; stroke-width: 0.8; stroke-linejoin: miter; stroke-linecap: square"/>
   </g>
   <g id="patch_6">
    <path d="M 58.844 67.56 
L 489.096 67.56 
" style="fill: none; stroke: #000000; stroke-width: 0.8; stroke-linejoin: miter; stroke-linecap: square"/>
   </g>
   <g id="text_16">
    <!-- AZ5, f=9 GHz, 10 dB -->
    <g transform="translate(190.38207 25.503044) scale(0.161 -0.161)">
     <defs>
      <path id="DejaVuSans-41" d="M 2188 4044 
L 1331 1722 
L 3047 1722 
L 2188 4044 
z
M 1831 4666 
L 2547 4666 
L 4325 0 
L 3669 0 
L 3244 1197 
L 1141 1197 
L 716 0 
L 50 0 
L 1831 4666 
z
" transform="scale(0.015625)"/>
      <path id="DejaVuSans-5a" d="M 359 4666 
L 4025 4666 
L 4025 4184 
L 1075 531 
L 4097 531 
L 4097 0 
L 288 0 
L 288 481 
L 3238 4134 
L 359 4134 
L 359 4666 
z
" transform="scale(0.015625)"/>
      <path id="DejaVuSans-2c" d="M 750 794 
L 1409 794 
L 1409 256 
L 897 -744 
L 494 -744 
L 750 256 
L 750 794 
z
" transform="scale(0.015625)"/>
      <path id="DejaVuSans-66" d="M 2375 4863 
L 2375 4384 
L 1825 4384 
Q 1516 4384 1395 4259 
Q 1275 4134 1275 3809 
L 1275 3500 
L 2222 3500 
L 2222 3053 
L 1275 3053 
L 1275 0 
L 697 0 
L 697 3053 
L 147 3053 
L 147 3500 
L 697 3500 
L 697 3744 
Q 697 4328 969 4595 
Q 1241 4863 1831 4863 
L 2375 4863 
z
" transform="scale(0.015625)"/>
      <path id="DejaVuSans-3d" d="M 678 2906 
L 4684 2906 
L 4684 2381 
L 678 2381 
L 678 2906 
z
M 678 1631 
L 4684 1631 
L 4684 1100 
L 678 1100 
L 678 1631 
z
" transform="scale(0.015625)"/>
      <path id="DejaVuSans-39" d="M 703 97 
L 703 672 
Q 941 559 1184 500 
Q 1428 441 1663 441 
Q 2288 441 2617 861 
Q 2947 1281 2994 2138 
Q 2813 1869 2534 1725 
Q 2256 1581 1919 1581 
Q 1219 1581 811 2004 
Q 403 2428 403 3163 
Q 403 3881 828 4315 
Q 1253 4750 1959 4750 
Q 2769 4750 3195 4129 
Q 3622 3509 3622 2328 
Q 3622 1225 3098 567 
Q 2575 -91 1691 -91 
Q 1453 -91 1209 -44 
Q 966 3 703 97 
z
M 1959 2075 
Q 2384 2075 2632 2365 
Q 2881 2656 2881 3163 
Q 2881 3666 2632 3958 
Q 2384 4250 1959 4250 
Q 1534 4250 1286 3958 
Q 1038 3666 1038 3163 
Q 1038 2656 1286 2365 
Q 1534 2075 1959 2075 
z
" transform="scale(0.015625)"/>
      <path id="DejaVuSans-47" d="M 3809 666 
L 3809 1919 
L 2778 1919 
L 2778 2438 
L 4434 2438 
L 4434 434 
Q 4069 175 3628 42 
Q 3188 -91 2688 -91 
Q 1594 -91 976 548 
Q 359 1188 359 2328 
Q 359 3472 976 4111 
Q 1594 4750 2688 4750 
Q 3144 4750 3555 4637 
Q 3966 4525 4313 4306 
L 4313 3634 
Q 3963 3931 3569 4081 
Q 3175 4231 2741 4231 
Q 1884 4231 1454 3753 
Q 1025 3275 1025 2328 
Q 1025 1384 1454 906 
Q 1884 428 2741 428 
Q 3075 428 3337 486 
Q 3600 544 3809 666 
z
" transform="scale(0.015625)"/>
      <path id="DejaVuSans-7a" d="M 353 3500 
L 3084 3500 
L 3084 2975 
L 922 459 
L 3084 459 
L 3084 0 
L 275 0 
L 275 525 
L 2438 3041 
L 353 3041 
L 353 3500 
z
" transform="scale(0.015625)"/>
      <path id="DejaVuSans-42" d="M 1259 2228 
L 1259 519 
L 2272 519 
Q 2781 519 3026 730 
Q 3272 941 3272 1375 
Q 3272 1813 3026 2020 
Q 2781 2228 2272 2228 
L 1259 2228 
z
M 1259 4147 
L 1259 2741 
L 2194 2741 
Q 2656 2741 2882 2914 
Q 3109 3088 3109 3444 
Q 3109 3797 2882 3972 
Q 2656 4147 2194 4147 
L 1259 4147 
z
M 628 4666 
L 2241 4666 
Q 2963 4666 3353 4366 
Q 3744 4066 3744 3513 
Q 3744 3084 3544 2831 
Q 3344 2578 2956 2516 
Q 3422 2416 3680 2098 
Q 3938 1781 3938 1306 
Q 3938 681 3513 340 
Q 3088 0 2303 0 
L 628 0 
L 628 4666 
z
" transform="scale(0.015625)"/>
     </defs>
     <use xlink:href="#DejaVuSans-41"/>
     <use xlink:href="#DejaVuSans-5a" transform="translate(68.408203 0)"/>
     <use xlink:href="#DejaVuSans-35" transform="translate(136.914062 0)"/>
     <use xlink:href="#DejaVuSans-2c" transform="translate(200.537109 0)"/>
     <use xlink:href="#DejaVuSans-20" transform="translate(232.324219 0)"/>
     <use xlink:href="#DejaVuSans-66" transform="translate(264.111328 0)"/>
     <use xlink:href="#DejaVuSans-3d" transform="translate(299.316406 0)"/>
     <use xlink:href="#DejaVuSans-39" transform="translate(383.105469 0)"/>
     <use xlink:href="#DejaVuSans-20" transform="translate(446.728516 0)"/>
     <use xlink:href="#DejaVuSans-47" transform="translate(478.515625 0)"/>
     <use xlink:href="#DejaVuSans-48" transform="translate(556.005859 0)"/>
     <use xlink:href="#DejaVuSans-7a" transform="translate(631.201172 0)"/>
     <use xlink:href="#DejaVuSans-2c" transform="translate(683.691406 0)"/>
     <use xlink:href="#DejaVuSans-20" transform="translate(715.478516 0)"/>
     <use xlink:href="#DejaVuSans-31" transform="translate(747.265625 0)"/>
     <use xlink:href="#DejaVuSans-30" transform="translate(810.888672 0)"/>
     <use xlink:href="#DejaVuSans-20" transform="translate(874.511719 0)"/>
     <use xlink:href="#DejaVuSans-64" transform="translate(906.298828 0)"/>
     <use xlink:href="#DejaVuSans-42" transform="translate(969.775391 0)"/>
    </g>
    <!-- Lorentzian Fit -->
    <g transform="translate(219.867711 43.531522) scale(0.161 -0.161)">
     <defs>
      <path id="DejaVuSans-4c" d="M 628 4666 
L 1259 4666 
L 1259 531 
L 3531 531 
L 3531 0 
L 628 0 
L 628 4666 
z
" transform="scale(0.015625)"/>
      <path id="DejaVuSans-6f" d="M 1959 3097 
Q 1497 3097 1228 2736 
Q 959 2375 959 1747 
Q 959 1119 1226 758 
Q 1494 397 1959 397 
Q 2419 397 2687 759 
Q 2956 1122 2956 1747 
Q 2956 2369 2687 2733 
Q 2419 3097 1959 3097 
z
M 1959 3584 
Q 2709 3584 3137 3096 
Q 3566 2609 3566 1747 
Q 3566 888 3137 398 
Q 2709 -91 1959 -91 
Q 1206 -91 779 398 
Q 353 888 353 1747 
Q 353 2609 779 3096 
Q 1206 3584 1959 3584 
z
" transform="scale(0.015625)"/>
      <path id="DejaVuSans-72" d="M 2631 2963 
Q 2534 3019 2420 3045 
Q 2306 3072 2169 3072 
Q 1681 3072 1420 2755 
Q 1159 2438 1159 1844 
L 1159 0 
L 581 0 
L 581 3500 
L 1159 3500 
L 1159 2956 
Q 1341 3275 1631 3429 
Q 1922 3584 2338 3584 
Q 2397 3584 2469 3576 
Q 2541 3569 2628 3553 
L 2631 2963 
z
" transform="scale(0.015625)"/>
      <path id="DejaVuSans-65" d="M 3597 1894 
L 3597 1613 
L 953 1613 
Q 991 1019 1311 708 
Q 1631 397 2203 397 
Q 2534 397 2845 478 
Q 3156 559 3463 722 
L 3463 178 
Q 3153 47 2828 -22 
Q 2503 -91 2169 -91 
Q 1331 -91 842 396 
Q 353 884 353 1716 
Q 353 2575 817 3079 
Q 1281 3584 2069 3584 
Q 2775 3584 3186 3129 
Q 3597 2675 3597 1894 
z
M 3022 2063 
Q 3016 2534 2758 2815 
Q 2500 3097 2075 3097 
Q 1594 3097 1305 2825 
Q 1016 2553 972 2059 
L 3022 2063 
z
" transform="scale(0.015625)"/>
      <path id="DejaVuSans-6e" d="M 3513 2113 
L 3513 0 
L 2938 0 
L 2938 2094 
Q 2938 2591 2744 2837 
Q 2550 3084 2163 3084 
Q 1697 3084 1428 2787 
Q 1159 2491 1159 1978 
L 1159 0 
L 581 0 
L 581 3500 
L 1159 3500 
L 1159 2956 
Q 1366 3272 1645 3428 
Q 1925 3584 2291 3584 
Q 2894 3584 3203 3211 
Q 3513 2838 3513 2113 
z
" transform="scale(0.015625)"/>
      <path id="DejaVuSans-74" d="M 1172 4494 
L 1172 3500 
L 2356 3500 
L 2356 3053 
L 1172 3053 
L 1172 1153 
Q 1172 725 1289 603 
Q 1406 481 1766 481 
L 2356 481 
L 2356 0 
L 1766 0 
Q 1100 0 847 248 
Q 594 497 594 1153 
L 594 3053 
L 172 3053 
L 172 3500 
L 594 3500 
L 594 4494 
L 1172 4494 
z
" transform="scale(0.015625)"/>
      <path id="DejaVuSans-69" d="M 603 3500 
L 1178 3500 
L 1178 0 
L 603 0 
L 603 3500 
z
M 603 4863 
L 1178 4863 
L 1178 4134 
L 603 4134 
L 603 4863 
z
" transform="scale(0.015625)"/>
      <path id="DejaVuSans-61" d="M 2194 1759 
Q 1497 1759 1228 1600 
Q 959 1441 959 1056 
Q 959 750 1161 570 
Q 1363 391 1709 391 
Q 2188 391 2477 730 
Q 2766 1069 2766 1631 
L 2766 1759 
L 2194 1759 
z
M 3341 1997 
L 3341 0 
L 2766 0 
L 2766 531 
Q 2569 213 2275 61 
Q 1981 -91 1556 -91 
Q 1019 -91 701 211 
Q 384 513 384 1019 
Q 384 1609 779 1909 
Q 1175 2209 1959 2209 
L 2766 2209 
L 2766 2266 
Q 2766 2663 2505 2880 
Q 2244 3097 1772 3097 
Q 1472 3097 1187 3025 
Q 903 2953 641 2809 
L 641 3341 
Q 956 3463 1253 3523 
Q 1550 3584 1831 3584 
Q 2591 3584 2966 3190 
Q 3341 2797 3341 1997 
z
" transform="scale(0.015625)"/>
      <path id="DejaVuSans-46" d="M 628 4666 
L 3309 4666 
L 3309 4134 
L 1259 4134 
L 1259 2759 
L 3109 2759 
L 3109 2228 
L 1259 2228 
L 1259 0 
L 628 0 
L 628 4666 
z
" transform="scale(0.015625)"/>
     </defs>
     <use xlink:href="#DejaVuSans-4c"/>
     <use xlink:href="#DejaVuSans-6f" transform="translate(53.962891 0)"/>
     <use xlink:href="#DejaVuSans-72" transform="translate(115.144531 0)"/>
     <use xlink:href="#DejaVuSans-65" transform="translate(154.007812 0)"/>
     <use xlink:href="#DejaVuSans-6e" transform="translate(215.53125 0)"/>
     <use xlink:href="#DejaVuSans-74" transform="translate(278.910156 0)"/>
     <use xlink:href="#DejaVuSans-7a" transform="translate(318.119141 0)"/>
     <use xlink:href="#DejaVuSans-69" transform="translate(370.609375 0)"/>
     <use xlink:href="#DejaVuSans-61" transform="translate(398.392578 0)"/>
     <use xlink:href="#DejaVuSans-6e" transform="translate(459.671875 0)"/>
     <use xlink:href="#DejaVuSans-20" transform="translate(523.050781 0)"/>
     <use xlink:href="#DejaVuSans-46" transform="translate(554.837891 0)"/>
     <use xlink:href="#DejaVuSans-69" transform="translate(605.107422 0)"/>
     <use xlink:href="#DejaVuSans-74" transform="translate(632.890625 0)"/>
    </g>
    <!-- $H_{res}$=222.1827 T, R²=0.151 -->
    <g transform="translate(162.558 61.56) scale(0.161 -0.161)">
     <defs>
      <path id="DejaVuSans-Oblique-48" d="M 1081 4666 
L 1716 4666 
L 1344 2753 
L 3634 2753 
L 4006 4666 
L 4641 4666 
L 3731 0 
L 3097 0 
L 3531 2222 
L 1241 2222 
L 806 0 
L 172 0 
L 1081 4666 
z
" transform="scale(0.015625)"/>
      <path id="DejaVuSans-Oblique-72" d="M 2853 2969 
Q 2766 3016 2653 3041 
Q 2541 3066 2413 3066 
Q 1953 3066 1609 2717 
Q 1266 2369 1153 1784 
L 800 0 
L 225 0 
L 909 3500 
L 1484 3500 
L 1375 2956 
Q 1603 3259 1920 3421 
Q 2238 3584 2597 3584 
Q 2691 3584 2781 3573 
Q 2872 3563 2963 3538 
L 2853 2969 
z
" transform="scale(0.015625)"/>
      <path id="DejaVuSans-Oblique-65" d="M 3078 2063 
Q 3088 2113 3092 2166 
Q 3097 2219 3097 2272 
Q 3097 2653 2873 2875 
Q 2650 3097 2266 3097 
Q 1838 3097 1509 2826 
Q 1181 2556 1013 2059 
L 3078 2063 
z
M 3578 1613 
L 903 1613 
Q 884 1494 878 1425 
Q 872 1356 872 1306 
Q 872 872 1139 634 
Q 1406 397 1894 397 
Q 2269 397 2603 481 
Q 2938 566 3225 728 
L 3116 159 
Q 2806 34 2476 -28 
Q 2147 -91 1806 -91 
Q 1078 -91 686 257 
Q 294 606 294 1247 
Q 294 1794 489 2264 
Q 684 2734 1063 3103 
Q 1306 3334 1642 3459 
Q 1978 3584 2356 3584 
Q 2950 3584 3301 3228 
Q 3653 2872 3653 2272 
Q 3653 2128 3634 1964 
Q 3616 1800 3578 1613 
z
" transform="scale(0.015625)"/>
      <path id="DejaVuSans-Oblique-73" d="M 3200 3397 
L 3091 2853 
Q 2863 2978 2609 3040 
Q 2356 3103 2088 3103 
Q 1634 3103 1373 2948 
Q 1113 2794 1113 2528 
Q 1113 2219 1719 2053 
Q 1766 2041 1788 2034 
L 1972 1978 
Q 2547 1819 2739 1644 
Q 2931 1469 2931 1166 
Q 2931 609 2489 259 
Q 2047 -91 1331 -91 
Q 1053 -91 747 -37 
Q 441 16 72 128 
L 184 722 
Q 500 559 806 475 
Q 1113 391 1394 391 
Q 1816 391 2080 572 
Q 2344 753 2344 1031 
Q 2344 1331 1650 1516 
L 1591 1531 
L 1394 1581 
Q 956 1697 753 1886 
Q 550 2075 550 2369 
Q 550 2928 970 3256 
Q 1391 3584 2113 3584 
Q 2397 3584 2667 3537 
Q 2938 3491 3200 3397 
z
" transform="scale(0.015625)"/>
      <path id="DejaVuSans-38" d="M 2034 2216 
Q 1584 2216 1326 1975 
Q 1069 1734 1069 1313 
Q 1069 891 1326 650 
Q 1584 409 2034 409 
Q 2484 409 2743 651 
Q 3003 894 3003 1313 
Q 3003 1734 2745 1975 
Q 2488 2216 2034 2216 
z
M 1403 2484 
Q 997 2584 770 2862 
Q 544 3141 544 3541 
Q 544 4100 942 4425 
Q 1341 4750 2034 4750 
Q 2731 4750 3128 4425 
Q 3525 4100 3525 3541 
Q 3525 3141 3298 2862 
Q 3072 2584 2669 2484 
Q 3125 2378 3379 2068 
Q 3634 1759 3634 1313 
Q 3634 634 3220 271 
Q 2806 -91 2034 -91 
Q 1263 -91 848 271 
Q 434 634 434 1313 
Q 434 1759 690 2068 
Q 947 2378 1403 2484 
z
M 1172 3481 
Q 1172 3119 1398 2916 
Q 1625 2713 2034 2713 
Q 2441 2713 2670 2916 
Q 2900 3119 2900 3481 
Q 2900 3844 2670 4047 
Q 2441 4250 2034 4250 
Q 1625 4250 1398 4047 
Q 1172 3844 1172 3481 
z
" transform="scale(0.015625)"/>
      <path id="DejaVuSans-52" d="M 2841 2188 
Q 3044 2119 3236 1894 
Q 3428 1669 3622 1275 
L 4263 0 
L 3584 0 
L 2988 1197 
Q 2756 1666 2539 1819 
Q 2322 1972 1947 1972 
L 1259 1972 
L 1259 0 
L 628 0 
L 628 4666 
L 2053 4666 
Q 2853 4666 3247 4331 
Q 3641 3997 3641 3322 
Q 3641 2881 3436 2590 
Q 3231 2300 2841 2188 
z
M 1259 4147 
L 1259 2491 
L 2053 2491 
Q 2509 2491 2742 2702 
Q 2975 2913 2975 3322 
Q 2975 3731 2742 3939 
Q 2509 4147 2053 4147 
L 1259 4147 
z
" transform="scale(0.015625)"/>
      <path id="DejaVuSans-b2" d="M 838 2444 
L 2163 2444 
L 2163 2088 
L 294 2088 
L 294 2431 
Q 400 2528 597 2703 
Q 1672 3656 1672 3950 
Q 1672 4156 1509 4282 
Q 1347 4409 1081 4409 
Q 919 4409 728 4354 
Q 538 4300 313 4191 
L 313 4575 
Q 553 4663 761 4706 
Q 969 4750 1147 4750 
Q 1600 4750 1872 4544 
Q 2144 4338 2144 4000 
Q 2144 3566 1109 2678 
Q 934 2528 838 2444 
z
" transform="scale(0.015625)"/>
     </defs>
     <use xlink:href="#DejaVuSans-Oblique-48" transform="translate(0 0.78125)"/>
     <use xlink:href="#DejaVuSans-Oblique-72" transform="translate(75.195312 -15.625) scale(0.7)"/>
     <use xlink:href="#DejaVuSans-Oblique-65" transform="translate(103.974609 -15.625) scale(0.7)"/>
     <use xlink:href="#DejaVuSans-Oblique-73" transform="translate(147.041016 -15.625) scale(0.7)"/>
     <use xlink:href="#DejaVuSans-3d" transform="translate(186.245117 0.78125)"/>
     <use xlink:href="#DejaVuSans-32" transform="translate(270.03418 0.78125)"/>
     <use xlink:href="#DejaVuSans-32" transform="translate(333.657227 0.78125)"/>
     <use xlink:href="#DejaVuSans-32" transform="translate(397.280273 0.78125)"/>
     <use xlink:href="#DejaVuSans-2e" transform="translate(460.90332 0.78125)"/>
     <use xlink:href="#DejaVuSans-31" transform="translate(492.69043 0.78125)"/>
     <use xlink:href="#DejaVuSans-38" transform="translate(556.313477 0.78125)"/>
     <use xlink:href="#DejaVuSans-32" transform="translate(619.936523 0.78125)"/>
     <use xlink:href="#DejaVuSans-37" transform="translate(683.55957 0.78125)"/>
     <use xlink:href="#DejaVuSans-20" transform="translate(747.182617 0.78125)"/>
     <use xlink:href="#DejaVuSans-54" transform="translate(778.969727 0.78125)"/>
     <use xlink:href="#DejaVuSans-2c" transform="translate(840.053711 0.78125)"/>
     <use xlink:href="#DejaVuSans-20" transform="translate(871.84082 0.78125)"/>
     <use xlink:href="#DejaVuSans-52" transform="translate(903.62793 0.78125)"/>
     <use xlink:href="#DejaVuSans-b2" transform="translate(973.110352 0.78125)"/>
     <use xlink:href="#DejaVuSans-3d" transform="translate(1013.198242 0.78125)"/>
     <use xlink:href="#DejaVuSans-30" transform="translate(1096.987305 0.78125)"/>
     <use xlink:href="#DejaVuSans-2e" transform="translate(1160.610352 0.78125)"/>
     <use xlink:href="#DejaVuSans-31" transform="translate(1192.397461 0.78125)"/>
     <use xlink:href="#DejaVuSans-35" transform="translate(1256.020508 0.78125)"/>
     <use xlink:href="#DejaVuSans-31" transform="translate(1319.643555 0.78125)"/>
    </g>
   </g>
   <g id="legend_1">
    <g id="patch_7">
     <path d="M 287.695781 139.367437 
L 479.436 139.367437 
Q 482.196 139.367437 482.196 136.607438 
L 482.196 77.22 
Q 482.196 74.46 479.436 74.46 
L 287.695781 74.46 
Q 284.935781 74.46 284.935781 77.22 
L 284.935781 136.607438 
Q 284.935781 139.367437 287.695781 139.367437 
z
" style="fill: #ffffff; opacity: 0.8; stroke: #cccccc; stroke-linejoin: miter"/>
    </g>
    <g id="line2d_17">
     <path d="M 290.455781 85.635844 
L 304.255781 85.635844 
L 318.055781 85.635844 
" style="fill: none; stroke: #cc7000; stroke-opacity: 0.7; stroke-width: 1.4; stroke-linecap: square"/>
    </g>
    <g id="text_17">
     <!-- Raw data (curve) -->
     <g transform="translate(329.095781 90.465844) scale(0.138 -0.138)">
      <defs>
       <path id="DejaVuSans-77" d="M 269 3500 
L 844 3500 
L 1563 769 
L 2278 3500 
L 2956 3500 
L 3675 769 
L 4391 3500 
L 4966 3500 
L 4050 0 
L 3372 0 
L 2619 2869 
L 1863 0 
L 1184 0 
L 269 3500 
z
" transform="scale(0.015625)"/>
       <path id="DejaVuSans-63" d="M 3122 3366 
L 3122 2828 
Q 2878 2963 2633 3030 
Q 2388 3097 2138 3097 
Q 1578 3097 1268 2742 
Q 959 2388 959 1747 
Q 959 1106 1268 751 
Q 1578 397 2138 397 
Q 2388 397 2633 464 
Q 2878 531 3122 666 
L 3122 134 
Q 2881 22 2623 -34 
Q 2366 -91 2075 -91 
Q 1284 -91 818 406 
Q 353 903 353 1747 
Q 353 2603 823 3093 
Q 1294 3584 2113 3584 
Q 2378 3584 2631 3529 
Q 2884 3475 3122 3366 
z
" transform="scale(0.015625)"/>
       <path id="DejaVuSans-75" d="M 544 1381 
L 544 3500 
L 1119 3500 
L 1119 1403 
Q 1119 906 1312 657 
Q 1506 409 1894 409 
Q 2359 409 2629 706 
Q 2900 1003 2900 1516 
L 2900 3500 
L 3475 3500 
L 3475 0 
L 2900 0 
L 2900 538 
Q 2691 219 2414 64 
Q 2138 -91 1772 -91 
Q 1169 -91 856 284 
Q 544 659 544 1381 
z
M 1991 3584 
L 1991 3584 
z
" transform="scale(0.015625)"/>
       <path id="DejaVuSans-76" d="M 191 3500 
L 800 3500 
L 1894 563 
L 2988 3500 
L 3597 3500 
L 2284 0 
L 1503 0 
L 191 3500 
z
" transform="scale(0.015625)"/>
      </defs>
      <use xlink:href="#DejaVuSans-52"/>
      <use xlink:href="#DejaVuSans-61" transform="translate(67.232422 0)"/>
      <use xlink:href="#DejaVuSans-77" transform="translate(128.511719 0)"/>
      <use xlink:href="#DejaVuSans-20" transform="translate(210.298828 0)"/>
      <use xlink:href="#DejaVuSans-64" transform="translate(242.085938 0)"/>
      <use xlink:href="#DejaVuSans-61" transform="translate(305.5625 0)"/>
      <use xlink:href="#DejaVuSans-74" transform="translate(366.841797 0)"/>
      <use xlink:href="#DejaVuSans-61" transform="translate(406.050781 0)"/>
      <use xlink:href="#DejaVuSans-20" transform="translate(467.330078 0)"/>
      <use xlink:href="#DejaVuSans-28" transform="translate(499.117188 0)"/>
      <use xlink:href="#DejaVuSans-63" transform="translate(538.130859 0)"/>
      <use xlink:href="#DejaVuSans-75" transform="translate(593.111328 0)"/>
      <use xlink:href="#DejaVuSans-72" transform="translate(656.490234 0)"/>
      <use xlink:href="#DejaVuSans-76" transform="translate(697.603516 0)"/>
      <use xlink:href="#DejaVuSans-65" transform="translate(756.783203 0)"/>
      <use xlink:href="#DejaVuSans-29" transform="translate(818.306641 0)"/>
     </g>
    </g>
    <g id="line2d_18">
     <path d="M 290.455781 105.891656 
L 304.255781 105.891656 
L 318.055781 105.891656 
" style="fill: none; stroke: #2980b9; stroke-width: 2; stroke-linecap: square"/>
    </g>
    <g id="text_18">
     <!-- Aggregated (median) -->
     <g transform="translate(329.095781 110.721656) scale(0.138 -0.138)">
      <defs>
       <path id="DejaVuSans-67" d="M 2906 1791 
Q 2906 2416 2648 2759 
Q 2391 3103 1925 3103 
Q 1463 3103 1205 2759 
Q 947 2416 947 1791 
Q 947 1169 1205 825 
Q 1463 481 1925 481 
Q 2391 481 2648 825 
Q 2906 1169 2906 1791 
z
M 3481 434 
Q 3481 -459 3084 -895 
Q 2688 -1331 1869 -1331 
Q 1566 -1331 1297 -1286 
Q 1028 -1241 775 -1147 
L 775 -588 
Q 1028 -725 1275 -790 
Q 1522 -856 1778 -856 
Q 2344 -856 2625 -561 
Q 2906 -266 2906 331 
L 2906 616 
Q 2728 306 2450 153 
Q 2172 0 1784 0 
Q 1141 0 747 490 
Q 353 981 353 1791 
Q 353 2603 747 3093 
Q 1141 3584 1784 3584 
Q 2172 3584 2450 3431 
Q 2728 3278 2906 2969 
L 2906 3500 
L 3481 3500 
L 3481 434 
z
" transform="scale(0.015625)"/>
       <path id="DejaVuSans-6d" d="M 3328 2828 
Q 3544 3216 3844 3400 
Q 4144 3584 4550 3584 
Q 5097 3584 5394 3201 
Q 5691 2819 5691 2113 
L 5691 0 
L 5113 0 
L 5113 2094 
Q 5113 2597 4934 2840 
Q 4756 3084 4391 3084 
Q 3944 3084 3684 2787 
Q 3425 2491 3425 1978 
L 3425 0 
L 2847 0 
L 2847 2094 
Q 2847 2600 2669 2842 
Q 2491 3084 2119 3084 
Q 1678 3084 1418 2786 
Q 1159 2488 1159 1978 
L 1159 0 
L 581 0 
L 581 3500 
L 1159 3500 
L 1159 2956 
Q 1356 3278 1631 3431 
Q 1906 3584 2284 3584 
Q 2666 3584 2933 3390 
Q 3200 3197 3328 2828 
z
" transform="scale(0.015625)"/>
      </defs>
      <use xlink:href="#DejaVuSans-41"/>
      <use xlink:href="#DejaVuSans-67" transform="translate(68.408203 0)"/>
      <use xlink:href="#DejaVuSans-67" transform="translate(131.884766 0)"/>
      <use xlink:href="#DejaVuSans-72" transform="translate(195.361328 0)"/>
      <use xlink:href="#DejaVuSans-65" transform="translate(234.224609 0)"/>
      <use xlink:href="#DejaVuSans-67" transform="translate(295.748047 0)"/>
      <use xlink:href="#DejaVuSans-61" transform="translate(359.224609 0)"/>
      <use xlink:href="#DejaVuSans-74" transform="translate(420.503906 0)"/>
      <use xlink:href="#DejaVuSans-65" transform="translate(459.712891 0)"/>
      <use xlink:href="#DejaVuSans-64" transform="translate(521.236328 0)"/>
      <use xlink:href="#DejaVuSans-20" transform="translate(584.712891 0)"/>
      <use xlink:href="#DejaVuSans-28" transform="translate(616.5 0)"/>
      <use xlink:href="#DejaVuSans-6d" transform="translate(655.513672 0)"/>
      <use xlink:href="#DejaVuSans-65" transform="translate(752.925781 0)"/>
      <use xlink:href="#DejaVuSans-64" transform="translate(814.449219 0)"/>
      <use xlink:href="#DejaVuSans-69" transform="translate(877.925781 0)"/>
      <use xlink:href="#DejaVuSans-61" transform="translate(905.708984 0)"/>
      <use xlink:href="#DejaVuSans-6e" transform="translate(966.988281 0)"/>
      <use xlink:href="#DejaVuSans-29" transform="translate(1030.367188 0)"/>
     </g>
    </g>
    <g id="line2d_19">
     <path d="M 290.455781 126.147469 
L 304.255781 126.147469 
L 318.055781 126.147469 
" style="fill: none; stroke: #ffa500; stroke-width: 2.5; stroke-linecap: square"/>
    </g>
    <g id="text_19">
     <!-- Fit -->
     <g transform="translate(329.095781 130.977469) scale(0.138 -0.138)">
      <use xlink:href="#DejaVuSans-46"/>
      <use xlink:href="#DejaVuSans-69" transform="translate(50.269531 0)"/>
      <use xlink:href="#DejaVuSans-74" transform="translate(78.052734 0)"/>
     </g>
    </g>
   </g>
  </g>
 </g>
 <defs>
  <clipPath id="p95f6a0277a">
   <rect x="58.844" y="67.56" width="430.252" height="167.176"/>
  </clipPath>
 </defs>
</svg>
