<?xml version="1.0" encoding="utf-8" standalone="no"?>
<!DOCTYPE svg PUBLIC "-//W3C//DTD SVG 1.1//EN"
  "http://www.w3.org/Graphics/SVG/1.1/DTD/svg11.dtd">
<svg xmlns:xlink="http://www.w3.org/1999/xlink" width="504pt" height="288pt" viewBox="0 0 504 288" xmlns="http://www.w3.org/2000/svg" version="1.1">
 <metadata>
  <rdf:RDF xmlns:dc="http://purl.org/dc/elements/1.1/" xmlns:cc="http://creativecommons.org/ns#" xmlns:rdf="http://www.w3.org/1999/02/22-rdf-syntax-ns#">
   <cc:Work>
    <dc:type rdf:resource="http://purl.org/dc/dcmitype/StillImage"/>
    <dc:date>2025-10-06T17:42:42.329766</dc:date>
    <dc:format>image/svg+xml</dc:format>
    <dc:creator>
     <cc:Agent>
      <dc:title>Matplotlib v3.10.6, https://matplotlib.org/</dc:title>
     </cc:Agent>
    </dc:creator>
   </cc:Work>
  </rdf:RDF>
 </metadata>
 <defs>
  <style type="text/css">*{stroke-linejoin: round; stroke-linecap: butt}</style>
 </defs>
 <g id="figure_1">
  <g id="patch_1">
   <path d="M 0 288 
L 504 288 
L 504 0 
L 0 0 
z
" style="fill: #ffffff"/>
  </g>
  <g id="axes_1">
   <g id="patch_2">
    <path d="M 58.844 234.736 
L 489.096 234.736 
L 489.096 67.56 
L 58.844 67.56 
z
" style="fill: #ffffff"/>
   </g>
   <g id="matplotlib.axis_1">
    <g id="xtick_1">
     <g id="line2d_1">
      <defs>
       <path id="mc2776d03d2" d="M 0 0 
L 0 3.5 
" style="stroke: #000000; stroke-width: 0.8"/>
      </defs>
      <g>
       <use xlink:href="#mc2776d03d2" x="68.151377" y="234.736" style="stroke: #000000; stroke-width: 0.8"/>
      </g>
     </g>
     <g id="text_1">
      <!-- 182 -->
      <g transform="translate(56.078533 251.348023) scale(0.1265 -0.1265)">
       <defs>
        <path id="DejaVuSans-31" d="M 794 531 
L 1825 531 
L 1825 4091 
L 703 3866 
L 703 4441 
L 1819 4666 
L 2450 4666 
L 2450 531 
L 3481 531 
L 3481 0 
L 794 0 
L 794 531 
z
" transform="scale(0.015625)"/>
        <path id="DejaVuSans-38" d="M 2034 2216 
Q 1584 2216 1326 1975 
Q 1069 1734 1069 1313 
Q 1069 891 1326 650 
Q 1584 409 2034 409 
Q 2484 409 2743 651 
Q 3003 894 3003 1313 
Q 3003 1734 2745 1975 
Q 2488 2216 2034 2216 
z
M 1403 2484 
Q 997 2584 770 2862 
Q 544 3141 544 3541 
Q 544 4100 942 4425 
Q 1341 4750 2034 4750 
Q 2731 4750 3128 4425 
Q 3525 4100 3525 3541 
Q 3525 3141 3298 2862 
Q 3072 2584 2669 2484 
Q 3125 2378 3379 2068 
Q 3634 1759 3634 1313 
Q 3634 634 3220 271 
Q 2806 -91 2034 -91 
Q 1263 -91 848 271 
Q 434 634 434 1313 
Q 434 1759 690 2068 
Q 947 2378 1403 2484 
z
M 1172 3481 
Q 1172 3119 1398 2916 
Q 1625 2713 2034 2713 
Q 2441 2713 2670 2916 
Q 2900 3119 2900 3481 
Q 2900 3844 2670 4047 
Q 2441 4250 2034 4250 
Q 1625 4250 1398 4047 
Q 1172 3844 1172 3481 
z
" transform="scale(0.015625)"/>
        <path id="DejaVuSans-32" d="M 1228 531 
L 3431 531 
L 3431 0 
L 469 0 
L 469 531 
Q 828 903 1448 1529 
Q 2069 2156 2228 2338 
Q 2531 2678 2651 2914 
Q 2772 3150 2772 3378 
Q 2772 3750 2511 3984 
Q 2250 4219 1831 4219 
Q 1534 4219 1204 4116 
Q 875 4013 500 3803 
L 500 4441 
Q 881 4594 1212 4672 
Q 1544 4750 1819 4750 
Q 2544 4750 2975 4387 
Q 3406 4025 3406 3419 
Q 3406 3131 3298 2873 
Q 3191 2616 2906 2266 
Q 2828 2175 2409 1742 
Q 1991 1309 1228 531 
z
" transform="scale(0.015625)"/>
       </defs>
       <use xlink:href="#DejaVuSans-31"/>
       <use xlink:href="#DejaVuSans-38" transform="translate(63.623047 0)"/>
       <use xlink:href="#DejaVuSans-32" transform="translate(127.246094 0)"/>
      </g>
     </g>
    </g>
    <g id="xtick_2">
     <g id="line2d_2">
      <g>
       <use xlink:href="#mc2776d03d2" x="131.413846" y="234.736" style="stroke: #000000; stroke-width: 0.8"/>
      </g>
     </g>
     <g id="text_2">
      <!-- 184 -->
      <g transform="translate(119.341002 251.348023) scale(0.1265 -0.1265)">
       <defs>
        <path id="DejaVuSans-34" d="M 2419 4116 
L 825 1625 
L 2419 1625 
L 2419 4116 
z
M 2253 4666 
L 3047 4666 
L 3047 1625 
L 3713 1625 
L 3713 1100 
L 3047 1100 
L 3047 0 
L 2419 0 
L 2419 1100 
L 313 1100 
L 313 1709 
L 2253 4666 
z
" transform="scale(0.015625)"/>
       </defs>
       <use xlink:href="#DejaVuSans-31"/>
       <use xlink:href="#DejaVuSans-38" transform="translate(63.623047 0)"/>
       <use xlink:href="#DejaVuSans-34" transform="translate(127.246094 0)"/>
      </g>
     </g>
    </g>
    <g id="xtick_3">
     <g id="line2d_3">
      <g>
       <use xlink:href="#mc2776d03d2" x="194.676315" y="234.736" style="stroke: #000000; stroke-width: 0.8"/>
      </g>
     </g>
     <g id="text_3">
      <!-- 186 -->
      <g transform="translate(182.603471 251.348023) scale(0.1265 -0.1265)">
       <defs>
        <path id="DejaVuSans-36" d="M 2113 2584 
Q 1688 2584 1439 2293 
Q 1191 2003 1191 1497 
Q 1191 994 1439 701 
Q 1688 409 2113 409 
Q 2538 409 2786 701 
Q 3034 994 3034 1497 
Q 3034 2003 2786 2293 
Q 2538 2584 2113 2584 
z
M 3366 4563 
L 3366 3988 
Q 3128 4100 2886 4159 
Q 2644 4219 2406 4219 
Q 1781 4219 1451 3797 
Q 1122 3375 1075 2522 
Q 1259 2794 1537 2939 
Q 1816 3084 2150 3084 
Q 2853 3084 3261 2657 
Q 3669 2231 3669 1497 
Q 3669 778 3244 343 
Q 2819 -91 2113 -91 
Q 1303 -91 875 529 
Q 447 1150 447 2328 
Q 447 3434 972 4092 
Q 1497 4750 2381 4750 
Q 2619 4750 2861 4703 
Q 3103 4656 3366 4563 
z
" transform="scale(0.015625)"/>
       </defs>
       <use xlink:href="#DejaVuSans-31"/>
       <use xlink:href="#DejaVuSans-38" transform="translate(63.623047 0)"/>
       <use xlink:href="#DejaVuSans-36" transform="translate(127.246094 0)"/>
      </g>
     </g>
    </g>
    <g id="xtick_4">
     <g id="line2d_4">
      <g>
       <use xlink:href="#mc2776d03d2" x="257.938784" y="234.736" style="stroke: #000000; stroke-width: 0.8"/>
      </g>
     </g>
     <g id="text_4">
      <!-- 188 -->
      <g transform="translate(245.86594 251.348023) scale(0.1265 -0.1265)">
       <use xlink:href="#DejaVuSans-31"/>
       <use xlink:href="#DejaVuSans-38" transform="translate(63.623047 0)"/>
       <use xlink:href="#DejaVuSans-38" transform="translate(127.246094 0)"/>
      </g>
     </g>
    </g>
    <g id="xtick_5">
     <g id="line2d_5">
      <g>
       <use xlink:href="#mc2776d03d2" x="321.201253" y="234.736" style="stroke: #000000; stroke-width: 0.8"/>
      </g>
     </g>
     <g id="text_5">
      <!-- 190 -->
      <g transform="translate(309.12841 251.348023) scale(0.1265 -0.1265)">
       <defs>
        <path id="DejaVuSans-39" d="M 703 97 
L 703 672 
Q 941 559 1184 500 
Q 1428 441 1663 441 
Q 2288 441 2617 861 
Q 2947 1281 2994 2138 
Q 2813 1869 2534 1725 
Q 2256 1581 1919 1581 
Q 1219 1581 811 2004 
Q 403 2428 403 3163 
Q 403 3881 828 4315 
Q 1253 4750 1959 4750 
Q 2769 4750 3195 4129 
Q 3622 3509 3622 2328 
Q 3622 1225 3098 567 
Q 2575 -91 1691 -91 
Q 1453 -91 1209 -44 
Q 966 3 703 97 
z
M 1959 2075 
Q 2384 2075 2632 2365 
Q 2881 2656 2881 3163 
Q 2881 3666 2632 3958 
Q 2384 4250 1959 4250 
Q 1534 4250 1286 3958 
Q 1038 3666 1038 3163 
Q 1038 2656 1286 2365 
Q 1534 2075 1959 2075 
z
" transform="scale(0.015625)"/>
        <path id="DejaVuSans-30" d="M 2034 4250 
Q 1547 4250 1301 3770 
Q 1056 3291 1056 2328 
Q 1056 1369 1301 889 
Q 1547 409 2034 409 
Q 2525 409 2770 889 
Q 3016 1369 3016 2328 
Q 3016 3291 2770 3770 
Q 2525 4250 2034 4250 
z
M 2034 4750 
Q 2819 4750 3233 4129 
Q 3647 3509 3647 2328 
Q 3647 1150 3233 529 
Q 2819 -91 2034 -91 
Q 1250 -91 836 529 
Q 422 1150 422 2328 
Q 422 3509 836 4129 
Q 1250 4750 2034 4750 
z
" transform="scale(0.015625)"/>
       </defs>
       <use xlink:href="#DejaVuSans-31"/>
       <use xlink:href="#DejaVuSans-39" transform="translate(63.623047 0)"/>
       <use xlink:href="#DejaVuSans-30" transform="translate(127.246094 0)"/>
      </g>
     </g>
    </g>
    <g id="xtick_6">
     <g id="line2d_6">
      <g>
       <use xlink:href="#mc2776d03d2" x="384.463722" y="234.736" style="stroke: #000000; stroke-width: 0.8"/>
      </g>
     </g>
     <g id="text_6">
      <!-- 192 -->
      <g transform="translate(372.390879 251.348023) scale(0.1265 -0.1265)">
       <use xlink:href="#DejaVuSans-31"/>
       <use xlink:href="#DejaVuSans-39" transform="translate(63.623047 0)"/>
       <use xlink:href="#DejaVuSans-32" transform="translate(127.246094 0)"/>
      </g>
     </g>
    </g>
    <g id="xtick_7">
     <g id="line2d_7">
      <g>
       <use xlink:href="#mc2776d03d2" x="447.726192" y="234.736" style="stroke: #000000; stroke-width: 0.8"/>
      </g>
     </g>
     <g id="text_7">
      <!-- 194 -->
      <g transform="translate(435.653348 251.348023) scale(0.1265 -0.1265)">
       <use xlink:href="#DejaVuSans-31"/>
       <use xlink:href="#DejaVuSans-39" transform="translate(63.623047 0)"/>
       <use xlink:href="#DejaVuSans-34" transform="translate(127.246094 0)"/>
      </g>
     </g>
    </g>
    <g id="text_8">
     <!-- H (T) -->
     <g transform="translate(255.574492 269.338492) scale(0.1495 -0.1495)">
      <defs>
       <path id="DejaVuSans-48" d="M 628 4666 
L 1259 4666 
L 1259 2753 
L 3553 2753 
L 3553 4666 
L 4184 4666 
L 4184 0 
L 3553 0 
L 3553 2222 
L 1259 2222 
L 1259 0 
L 628 0 
L 628 4666 
z
" transform="scale(0.015625)"/>
       <path id="DejaVuSans-20" transform="scale(0.015625)"/>
       <path id="DejaVuSans-28" d="M 1984 4856 
Q 1566 4138 1362 3434 
Q 1159 2731 1159 2009 
Q 1159 1288 1364 580 
Q 1569 -128 1984 -844 
L 1484 -844 
Q 1016 -109 783 600 
Q 550 1309 550 2009 
Q 550 2706 781 3412 
Q 1013 4119 1484 4856 
L 1984 4856 
z
" transform="scale(0.015625)"/>
       <path id="DejaVuSans-54" d="M -19 4666 
L 3928 4666 
L 3928 4134 
L 2272 4134 
L 2272 0 
L 1638 0 
L 1638 4134 
L -19 4134 
L -19 4666 
z
" transform="scale(0.015625)"/>
       <path id="DejaVuSans-29" d="M 513 4856 
L 1013 4856 
Q 1481 4119 1714 3412 
Q 1947 2706 1947 2009 
Q 1947 1309 1714 600 
Q 1481 -109 1013 -844 
L 513 -844 
Q 928 -128 1133 580 
Q 1338 1288 1338 2009 
Q 1338 2731 1133 3434 
Q 928 4138 513 4856 
z
" transform="scale(0.015625)"/>
      </defs>
      <use xlink:href="#DejaVuSans-48"/>
      <use xlink:href="#DejaVuSans-20" transform="translate(75.195312 0)"/>
      <use xlink:href="#DejaVuSans-28" transform="translate(106.982422 0)"/>
      <use xlink:href="#DejaVuSans-54" transform="translate(145.996094 0)"/>
      <use xlink:href="#DejaVuSans-29" transform="translate(207.080078 0)"/>
     </g>
    </g>
   </g>
   <g id="matplotlib.axis_2">
    <g id="ytick_1">
     <g id="line2d_8">
      <defs>
       <path id="mfc58a7ad04" d="M 0 0 
L -3.5 0 
" style="stroke: #000000; stroke-width: 0.8"/>
      </defs>
      <g>
       <use xlink:href="#mfc58a7ad04" x="58.844" y="215.480732" style="stroke: #000000; stroke-width: 0.8"/>
      </g>
     </g>
     <g id="text_9">
      <!-- −1 -->
      <g transform="translate(33.195133 220.286743) scale(0.1265 -0.1265)">
       <defs>
        <path id="DejaVuSans-2212" d="M 678 2272 
L 4684 2272 
L 4684 1741 
L 678 1741 
L 678 2272 
z
" transform="scale(0.015625)"/>
       </defs>
       <use xlink:href="#DejaVuSans-2212"/>
       <use xlink:href="#DejaVuSans-31" transform="translate(83.789062 0)"/>
      </g>
     </g>
    </g>
    <g id="ytick_2">
     <g id="line2d_9">
      <g>
       <use xlink:href="#mfc58a7ad04" x="58.844" y="182.256302" style="stroke: #000000; stroke-width: 0.8"/>
      </g>
     </g>
     <g id="text_10">
      <!-- 0 -->
      <g transform="translate(43.795438 187.062314) scale(0.1265 -0.1265)">
       <use xlink:href="#DejaVuSans-30"/>
      </g>
     </g>
    </g>
    <g id="ytick_3">
     <g id="line2d_10">
      <g>
       <use xlink:href="#mfc58a7ad04" x="58.844" y="149.031873" style="stroke: #000000; stroke-width: 0.8"/>
      </g>
     </g>
     <g id="text_11">
      <!-- 1 -->
      <g transform="translate(43.795438 153.837884) scale(0.1265 -0.1265)">
       <use xlink:href="#DejaVuSans-31"/>
      </g>
     </g>
    </g>
    <g id="ytick_4">
     <g id="line2d_11">
      <g>
       <use xlink:href="#mfc58a7ad04" x="58.844" y="115.807443" style="stroke: #000000; stroke-width: 0.8"/>
      </g>
     </g>
     <g id="text_12">
      <!-- 2 -->
      <g transform="translate(43.795438 120.613455) scale(0.1265 -0.1265)">
       <use xlink:href="#DejaVuSans-32"/>
      </g>
     </g>
    </g>
    <g id="ytick_5">
     <g id="line2d_12">
      <g>
       <use xlink:href="#mfc58a7ad04" x="58.844" y="82.583013" style="stroke: #000000; stroke-width: 0.8"/>
      </g>
     </g>
     <g id="text_13">
      <!-- 3 -->
      <g transform="translate(43.795438 87.389025) scale(0.1265 -0.1265)">
       <defs>
        <path id="DejaVuSans-33" d="M 2597 2516 
Q 3050 2419 3304 2112 
Q 3559 1806 3559 1356 
Q 3559 666 3084 287 
Q 2609 -91 1734 -91 
Q 1441 -91 1130 -33 
Q 819 25 488 141 
L 488 750 
Q 750 597 1062 519 
Q 1375 441 1716 441 
Q 2309 441 2620 675 
Q 2931 909 2931 1356 
Q 2931 1769 2642 2001 
Q 2353 2234 1838 2234 
L 1294 2234 
L 1294 2753 
L 1863 2753 
Q 2328 2753 2575 2939 
Q 2822 3125 2822 3475 
Q 2822 3834 2567 4026 
Q 2313 4219 1838 4219 
Q 1578 4219 1281 4162 
Q 984 4106 628 3988 
L 628 4550 
Q 988 4650 1302 4700 
Q 1616 4750 1894 4750 
Q 2613 4750 3031 4423 
Q 3450 4097 3450 3541 
Q 3450 3153 3228 2886 
Q 3006 2619 2597 2516 
z
" transform="scale(0.015625)"/>
       </defs>
       <use xlink:href="#DejaVuSans-33"/>
      </g>
     </g>
    </g>
    <g id="text_14">
     <!-- dP/dH -->
     <g transform="translate(26.086 173.28568) rotate(-90) scale(0.1495 -0.1495)">
      <defs>
       <path id="DejaVuSans-64" d="M 2906 2969 
L 2906 4863 
L 3481 4863 
L 3481 0 
L 2906 0 
L 2906 525 
Q 2725 213 2448 61 
Q 2172 -91 1784 -91 
Q 1150 -91 751 415 
Q 353 922 353 1747 
Q 353 2572 751 3078 
Q 1150 3584 1784 3584 
Q 2172 3584 2448 3432 
Q 2725 3281 2906 2969 
z
M 947 1747 
Q 947 1113 1208 752 
Q 1469 391 1925 391 
Q 2381 391 2643 752 
Q 2906 1113 2906 1747 
Q 2906 2381 2643 2742 
Q 2381 3103 1925 3103 
Q 1469 3103 1208 2742 
Q 947 2381 947 1747 
z
" transform="scale(0.015625)"/>
       <path id="DejaVuSans-50" d="M 1259 4147 
L 1259 2394 
L 2053 2394 
Q 2494 2394 2734 2622 
Q 2975 2850 2975 3272 
Q 2975 3691 2734 3919 
Q 2494 4147 2053 4147 
L 1259 4147 
z
M 628 4666 
L 2053 4666 
Q 2838 4666 3239 4311 
Q 3641 3956 3641 3272 
Q 3641 2581 3239 2228 
Q 2838 1875 2053 1875 
L 1259 1875 
L 1259 0 
L 628 0 
L 628 4666 
z
" transform="scale(0.015625)"/>
       <path id="DejaVuSans-2f" d="M 1625 4666 
L 2156 4666 
L 531 -594 
L 0 -594 
L 1625 4666 
z
" transform="scale(0.015625)"/>
      </defs>
      <use xlink:href="#DejaVuSans-64"/>
      <use xlink:href="#DejaVuSans-50" transform="translate(63.476562 0)"/>
      <use xlink:href="#DejaVuSans-2f" transform="translate(123.779297 0)"/>
      <use xlink:href="#DejaVuSans-64" transform="translate(157.470703 0)"/>
      <use xlink:href="#DejaVuSans-48" transform="translate(220.947266 0)"/>
     </g>
    </g>
   </g>
   <g id="line2d_13">
    <path d="M 78.400909 184.534202 
L 82.475265 183.72047 
L 82.475265 182.617651 
L 82.475265 185.219456 
L 86.549621 183.270777 
L 86.549621 180.72253 
L 86.549621 183.431384 
L 90.623977 182.853212 
L 90.623977 182.863911 
L 90.623977 182.606953 
L 90.623977 183.281475 
L 94.698333 183.581292 
L 94.698333 183.292207 
L 94.698333 183.881076 
L 98.772689 184.759032 
L 98.772689 189.866258 
L 98.772689 181.664741 
L 102.847045 184.352166 
L 102.847045 182.831782 
L 102.847045 182.874609 
L 106.921402 184.277245 
L 106.921402 181.739695 
L 110.995758 182.724733 
L 110.995758 184.534202 
L 110.995758 181.728964 
L 110.995758 183.431384 
L 115.070114 184.384294 
L 115.070114 182.40352 
L 115.070114 182.467742 
L 119.14447 183.260079 
L 119.14447 182.681907 
L 119.14447 183.848948 
L 123.218826 183.238649 
L 123.218826 186.150936 
L 123.218826 181.418482 
L 127.293182 182.863911 
L 127.293182 182.339264 
L 127.293182 184.941069 
L 127.293182 182.574825 
L 131.367538 182.821084 
L 131.367538 186.054585 
L 131.367538 184.56633 
L 135.441894 182.38209 
L 135.441894 180.219279 
L 135.441894 183.613387 
L 135.441894 183.409954 
L 139.51625 183.784726 
L 139.51625 182.531998 
L 139.51625 183.966729 
L 139.51625 183.45278 
L 143.590606 180.893835 
L 143.590606 184.437851 
L 143.590606 183.538466 
L 147.664962 183.388557 
L 147.664962 181.107966 
L 147.664962 184.148732 
L 151.739318 183.731168 
L 151.739318 184.941069 
L 151.739318 183.945332 
L 155.813674 183.581292 
L 155.813674 182.681907 
L 155.813674 184.79116 
L 159.88803 186.001061 
L 159.88803 186.654187 
L 159.88803 180.486968 
L 159.88803 184.384294 
L 163.962386 184.42712 
L 163.962386 183.078042 
L 163.962386 184.759032 
L 168.036742 185.144502 
L 168.036742 185.476414 
L 168.036742 185.17663 
L 172.111098 186.193763 
L 172.111098 184.577029 
L 176.185455 185.990363 
L 176.185455 187.54284 
L 176.185455 185.808326 
L 180.259811 190.326649 
L 180.259811 187.682051 
L 184.334167 191.333117 
L 184.334167 189.994737 
L 184.334167 192.136151 
L 188.408523 194.834307 
L 188.408523 191.697157 
L 192.482879 193.849236 
L 192.482879 197.189819 
L 192.482879 189.919816 
L 196.557235 197.853643 
L 196.557235 194.641572 
L 200.631591 197.9179 
L 200.631591 192.039767 
L 200.631591 197.3076 
L 204.705947 196.022778 
L 204.705947 192.810673 
L 208.780303 195.027009 
L 208.780303 190.401603 
L 208.780303 191.90059 
L 212.854659 189.213132 
L 212.854659 190.44443 
L 212.854659 188.474354 
L 216.929015 187.682051 
L 216.929015 183.72047 
L 216.929015 189.630697 
L 221.003371 185.851152 
L 221.003371 182.906737 
L 221.003371 187.799831 
L 221.003371 184.705507 
L 225.077727 183.185124 
L 225.077727 186.065284 
L 229.152083 186.118841 
L 229.152083 182.478474 
L 229.152083 183.163695 
L 233.226439 182.49987 
L 233.226439 178.688198 
L 233.226439 184.641285 
L 237.300795 182.724733 
L 237.300795 182.114434 
L 237.300795 184.105906 
L 241.375152 182.339264 
L 241.375152 183.923903 
L 241.375152 182.435648 
L 245.449508 183.206521 
L 245.449508 181.932397 
L 245.449508 183.324301 
L 249.523864 185.208725 
L 249.523864 177.831639 
L 249.523864 187.125276 
L 253.59822 186.204494 
L 253.59822 187.842658 
L 253.59822 186.557803 
L 257.672576 188.303049 
L 257.672576 190.2196 
L 257.672576 187.54284 
L 261.746932 188.999001 
L 261.746932 188.966873 
L 261.746932 186.986099 
L 261.746932 189.49152 
L 265.821288 191.226034 
L 265.821288 189.962642 
L 265.821288 191.29029 
L 265.821288 190.476558 
L 269.895644 191.590074 
L 269.895644 190.669293 
L 269.895644 192.48946 
L 273.97 196.343959 
L 273.97 190.005468 
L 273.97 193.410275 
L 278.044356 196.23691 
L 278.044356 196.804383 
L 278.044356 194.416709 
L 282.118712 204.106514 
L 282.118712 198.96716 
L 286.193068 210.648438 
L 286.193068 204.781037 
L 290.267424 217.532972 
L 290.267424 212.77912 
L 294.34178 227.137091 
L 294.34178 220.081219 
L 298.416136 216.462281 
L 298.416136 220.648692 
L 302.490492 206.269292 
L 302.490492 210.862569 
L 302.490492 209.213707 
L 306.564848 193.506626 
L 306.564848 200.64815 
L 310.639205 191.814937 
L 310.639205 187.992533 
L 314.713561 188.131743 
L 314.713561 189.737779 
L 314.713561 188.003265 
L 318.787917 188.485052 
L 318.787917 199.063544 
L 322.862273 196.525995 
L 322.862273 206.215767 
L 322.862273 202.371967 
L 326.936629 209.459967 
L 326.936629 202.040055 
L 331.010985 210.905396 
L 331.010985 212.672038 
L 331.010985 206.30142 
L 335.085341 201.975832 
L 335.085341 208.678362 
L 339.159697 185.990363 
L 339.159697 197.875073 
L 343.234053 178.538289 
L 343.234053 155.250589 
L 347.308409 147.10253 
L 347.308409 118.118468 
L 351.382765 109.317217 
L 351.382765 86.971329 
L 355.457121 75.514582 
L 355.457121 76.306919 
L 359.531477 80.546987 
L 359.531477 97.4751 
L 363.605833 106.918812 
L 363.605833 132.530229 
L 367.680189 139.42556 
L 367.680189 158.976609 
L 371.754545 164.298 
L 371.754545 172.467422 
L 375.828902 170.347437 
L 375.828902 180.155056 
L 379.903258 181.675439 
L 379.903258 181.675439 
L 379.903258 183.281475 
L 379.903258 181.985955 
L 383.977614 182.874609 
L 383.977614 183.773994 
L 383.977614 183.099472 
L 388.05197 182.756828 
L 388.05197 181.225747 
L 388.05197 183.741899 
L 392.126326 183.666945 
L 392.126326 180.808182 
L 396.200682 183.731168 
L 396.200682 185.508542 
L 396.200682 182.896039 
L 400.275038 183.881076 
L 400.275038 183.881076 
L 400.275038 183.185124 
L 400.275038 183.624119 
L 404.349394 182.585523 
L 404.349394 181.900269 
L 404.349394 182.874609 
L 408.42375 184.523504 
L 408.42375 187.08245 
L 408.42375 182.660477 
L 412.498106 183.602689 
L 412.498106 181.825348 
L 412.498106 183.688342 
L 412.498106 183.570561 
L 416.572462 182.949563 
L 416.572462 182.778258 
L 416.572462 186.996797 
L 420.646818 182.628349 
L 420.646818 184.362897 
L 420.646818 183.773994 
L 424.721174 183.549164 
L 424.721174 181.814617 
L 428.79553 181.846745 
L 428.79553 185.219456 
L 432.869886 183.591991 
L 432.869886 179.951623 
L 432.869886 182.970993 
L 436.944242 182.874609 
L 436.944242 182.275041 
L 436.944242 188.495784 
L 441.018598 182.446346 
L 441.018598 184.577029 
L 441.018598 182.5213 
L 445.092955 183.11017 
L 445.092955 184.095208 
L 445.092955 183.463512 
L 449.167311 179.191415 
L 449.167311 183.506338 
L 453.241667 183.227951 
L 453.241667 181.150792 
L 453.241667 184.491376 
L 453.241667 181.77179 
L 457.316023 185.380063 
L 457.316023 182.703304 
L 457.316023 185.016023 
L 461.390379 183.260079 
L 461.390379 184.502074 
L 465.464735 186.204494 
L 465.464735 181.546961 
L 469.539091 183.099472 
L 469.539091 183.763296 
L 469.539091 183.195823 
" clip-path="url(#p3dfafad4a4)" style="fill: none; stroke: #cc7000; stroke-opacity: 0.7; stroke-width: 1.4; stroke-linecap: square"/>
   </g>
   <g id="line2d_14">
    <path d="M 78.400909 184.534202 
L 82.475265 183.800773 
L 86.549621 182.997755 
L 90.623977 182.858561 
L 94.698333 183.522402 
L 98.772689 183.93995 
L 102.847045 183.41532 
L 106.921402 182.601604 
L 110.995758 183.078059 
L 115.070114 182.489156 
L 119.14447 183.5331 
L 123.218826 183.013803 
L 127.293182 182.719368 
L 131.367538 183.752598 
L 135.441894 182.896022 
L 139.51625 183.618753 
L 143.590606 182.590889 
L 147.664962 183.463512 
L 151.739318 184.277245 
L 155.813674 183.923903 
L 159.88803 185.192677 
L 163.962386 184.443184 
L 168.036742 185.289045 
L 172.111098 185.872565 
L 176.185455 186.268733 
L 180.259811 188.950825 
L 184.334167 190.883424 
L 188.408523 192.73037 
L 192.482879 195.428526 
L 196.557235 197.48962 
L 200.631591 195.910347 
L 204.705947 195.176917 
L 208.780303 191.17251 
L 212.854659 188.988286 
L 216.929015 186.766602 
L 221.003371 185.27833 
L 225.077727 184.480661 
L 229.152083 183.575927 
L 233.226439 182.933499 
L 237.300795 182.970993 
L 241.375152 182.805037 
L 245.449508 182.976325 
L 249.523864 185.706609 
L 253.59822 186.648821 
L 257.672576 188.586785 
L 261.746932 188.982937 
L 265.821288 190.851296 
L 269.895644 191.804222 
L 273.97 193.447752 
L 278.044356 196.087001 
L 282.118712 200.407257 
L 286.193068 207.912805 
L 290.267424 215.193523 
L 294.34178 221.794337 
L 298.416136 218.17005 
L 302.490492 208.126953 
L 306.564848 197.527097 
L 310.639205 189.716366 
L 314.713561 188.709915 
L 318.787917 193.051584 
L 322.862273 200.251999 
L 326.936629 206.981308 
L 331.010985 210.883982 
L 335.085341 206.349612 
L 339.159697 192.195025 
L 343.234053 170.117242 
L 347.308409 133.065557 
L 351.382765 96.52214 
L 355.457121 76.226632 
L 359.531477 88.052751 
L 363.605833 119.451498 
L 367.680189 148.767473 
L 371.754545 168.034735 
L 375.828902 177.531838 
L 379.903258 181.830697 
L 383.977614 182.98704 
L 388.05197 182.56411 
L 392.126326 182.569476 
L 396.200682 183.447431 
L 400.275038 183.752598 
L 404.349394 182.542697 
L 408.42375 185.508542 
L 412.498106 183.586625 
L 416.572462 182.970976 
L 420.646818 183.47421 
L 424.721174 183.308254 
L 428.79553 183.661579 
L 432.869886 181.937763 
L 436.944242 182.735432 
L 441.018598 183.126234 
L 445.092955 183.308254 
L 449.167311 181.231096 
L 453.241667 182.49987 
L 457.316023 184.44855 
L 461.390379 183.972095 
L 465.464735 184.255815 
L 469.539091 183.227951 
" clip-path="url(#p3dfafad4a4)" style="fill: none; stroke: #2980b9; stroke-width: 2; stroke-linecap: square"/>
   </g>
   <g id="line2d_15">
    <path d="M 78.400909 182.665911 
L 82.475265 182.796442 
L 86.549621 182.928394 
L 90.623977 183.061837 
L 94.698333 183.196844 
L 98.772689 183.333496 
L 102.847045 183.471876 
L 106.921402 183.612075 
L 110.995758 183.754189 
L 115.070114 183.898322 
L 119.14447 184.044585 
L 123.218826 184.193096 
L 127.293182 184.343984 
L 131.367538 184.497385 
L 135.441894 184.653449 
L 139.51625 184.812335 
L 143.590606 184.974216 
L 147.664962 185.139278 
L 151.739318 185.307723 
L 155.813674 185.479771 
L 159.88803 185.655661 
L 163.962386 185.83565 
L 168.036742 186.020022 
L 172.111098 186.209085 
L 176.185455 186.403175 
L 180.259811 186.602663 
L 184.334167 186.807953 
L 188.408523 187.01949 
L 192.482879 187.237766 
L 196.557235 187.463322 
L 200.631591 187.696757 
L 204.705947 187.938735 
L 208.780303 188.189995 
L 212.854659 188.451358 
L 216.929015 188.723741 
L 221.003371 189.00817 
L 225.077727 189.305797 
L 229.152083 189.617915 
L 233.226439 189.945983 
L 237.300795 190.291649 
L 241.375152 190.656778 
L 245.449508 191.043491 
L 249.523864 191.454197 
L 253.59822 191.891644 
L 257.672576 192.358969 
L 261.746932 192.859756 
L 265.821288 193.398102 
L 269.895644 193.97868 
L 273.97 194.606806 
L 278.044356 195.288492 
L 282.118712 196.030451 
L 286.193068 196.84004 
L 290.267424 197.725035 
L 294.34178 198.693116 
L 298.416136 199.750789 
L 302.490492 200.901258 
L 306.564848 202.140308 
L 310.639205 203.44843 
L 314.713561 204.775741 
L 318.787917 206.013003 
L 322.862273 206.935823 
L 326.936629 207.097832 
L 331.010985 205.632159 
L 335.085341 200.914099 
L 339.159697 190.130863 
L 343.234053 169.322835 
L 347.308409 135.984742 
L 351.382765 97.137758 
L 355.457121 75.158909 
L 359.531477 87.307788 
L 363.605833 120.029097 
L 367.680189 149.751418 
L 371.754545 168.020137 
L 375.828902 177.186352 
L 379.903258 181.222446 
L 383.977614 182.772345 
L 388.05197 183.222873 
L 392.126326 183.233312 
L 396.200682 183.100292 
L 400.275038 182.950172 
L 404.349394 182.831791 
L 408.42375 182.759696 
L 412.498106 182.733991 
L 416.572462 182.749327 
L 420.646818 182.798878 
L 424.721174 182.876006 
L 428.79553 182.974875 
L 432.869886 183.0906 
L 436.944242 183.219197 
L 441.018598 183.35747 
L 445.092955 183.502878 
L 449.167311 183.653412 
L 453.241667 183.807493 
L 457.316023 183.963884 
L 461.390379 184.121618 
L 465.464735 184.279944 
L 469.539091 184.438279 
" clip-path="url(#p3dfafad4a4)" style="fill: none; stroke: #ffa500; stroke-width: 2.5; stroke-linecap: square"/>
   </g>
   <g id="patch_3">
    <path d="M 58.844 234.736 
L 58.844 67.56 
" style="fill: none; stroke: #000000; stroke-width: 0.8; stroke-linejoin: miter; stroke-linecap: square"/>
   </g>
   <g id="patch_4">
    <path d="M 489.096 234.736 
L 489.096 67.56 
" style="fill: none; stroke: #000000; stroke-width: 0.8; stroke-linejoin: miter; stroke-linecap: square"/>
   </g>
   <g id="patch_5">
    <path d="M 58.844 234.736 
L 489.096 234.736 
" style="fill: none; stroke: #000000; stroke-width: 0.8; stroke-linejoin: miter; stroke-linecap: square"/>
   </g>
   <g id="patch_6">
    <path d="M 58.844 67.56 
L 489.096 67.56 
" style="fill: none; stroke: #000000; stroke-width: 0.8; stroke-linejoin: miter; stroke-linecap: square"/>
   </g>
   <g id="text_15">
    <!-- AZ5, f=8 GHz, 10 dB -->
    <g transform="translate(190.38207 25.503044) scale(0.161 -0.161)">
     <defs>
      <path id="DejaVuSans-41" d="M 2188 4044 
L 1331 1722 
L 3047 1722 
L 2188 4044 
z
M 1831 4666 
L 2547 4666 
L 4325 0 
L 3669 0 
L 3244 1197 
L 1141 1197 
L 716 0 
L 50 0 
L 1831 4666 
z
" transform="scale(0.015625)"/>
      <path id="DejaVuSans-5a" d="M 359 4666 
L 4025 4666 
L 4025 4184 
L 1075 531 
L 4097 531 
L 4097 0 
L 288 0 
L 288 481 
L 3238 4134 
L 359 4134 
L 359 4666 
z
" transform="scale(0.015625)"/>
      <path id="DejaVuSans-35" d="M 691 4666 
L 3169 4666 
L 3169 4134 
L 1269 4134 
L 1269 2991 
Q 1406 3038 1543 3061 
Q 1681 3084 1819 3084 
Q 2600 3084 3056 2656 
Q 3513 2228 3513 1497 
Q 3513 744 3044 326 
Q 2575 -91 1722 -91 
Q 1428 -91 1123 -41 
Q 819 9 494 109 
L 494 744 
Q 775 591 1075 516 
Q 1375 441 1709 441 
Q 2250 441 2565 725 
Q 2881 1009 2881 1497 
Q 2881 1984 2565 2268 
Q 2250 2553 1709 2553 
Q 1456 2553 1204 2497 
Q 953 2441 691 2322 
L 691 4666 
z
" transform="scale(0.015625)"/>
      <path id="DejaVuSans-2c" d="M 750 794 
L 1409 794 
L 1409 256 
L 897 -744 
L 494 -744 
L 750 256 
L 750 794 
z
" transform="scale(0.015625)"/>
      <path id="DejaVuSans-66" d="M 2375 4863 
L 2375 4384 
L 1825 4384 
Q 1516 4384 1395 4259 
Q 1275 4134 1275 3809 
L 1275 3500 
L 2222 3500 
L 2222 3053 
L 1275 3053 
L 1275 0 
L 697 0 
L 697 3053 
L 147 3053 
L 147 3500 
L 697 3500 
L 697 3744 
Q 697 4328 969 4595 
Q 1241 4863 1831 4863 
L 2375 4863 
z
" transform="scale(0.015625)"/>
      <path id="DejaVuSans-3d" d="M 678 2906 
L 4684 2906 
L 4684 2381 
L 678 2381 
L 678 2906 
z
M 678 1631 
L 4684 1631 
L 4684 1100 
L 678 1100 
L 678 1631 
z
" transform="scale(0.015625)"/>
      <path id="DejaVuSans-47" d="M 3809 666 
L 3809 1919 
L 2778 1919 
L 2778 2438 
L 4434 2438 
L 4434 434 
Q 4069 175 3628 42 
Q 3188 -91 2688 -91 
Q 1594 -91 976 548 
Q 359 1188 359 2328 
Q 359 3472 976 4111 
Q 1594 4750 2688 4750 
Q 3144 4750 3555 4637 
Q 3966 4525 4313 4306 
L 4313 3634 
Q 3963 3931 3569 4081 
Q 3175 4231 2741 4231 
Q 1884 4231 1454 3753 
Q 1025 3275 1025 2328 
Q 1025 1384 1454 906 
Q 1884 428 2741 428 
Q 3075 428 3337 486 
Q 3600 544 3809 666 
z
" transform="scale(0.015625)"/>
      <path id="DejaVuSans-7a" d="M 353 3500 
L 3084 3500 
L 3084 2975 
L 922 459 
L 3084 459 
L 3084 0 
L 275 0 
L 275 525 
L 2438 3041 
L 353 3041 
L 353 3500 
z
" transform="scale(0.015625)"/>
      <path id="DejaVuSans-42" d="M 1259 2228 
L 1259 519 
L 2272 519 
Q 2781 519 3026 730 
Q 3272 941 3272 1375 
Q 3272 1813 3026 2020 
Q 2781 2228 2272 2228 
L 1259 2228 
z
M 1259 4147 
L 1259 2741 
L 2194 2741 
Q 2656 2741 2882 2914 
Q 3109 3088 3109 3444 
Q 3109 3797 2882 3972 
Q 2656 4147 2194 4147 
L 1259 4147 
z
M 628 4666 
L 2241 4666 
Q 2963 4666 3353 4366 
Q 3744 4066 3744 3513 
Q 3744 3084 3544 2831 
Q 3344 2578 2956 2516 
Q 3422 2416 3680 2098 
Q 3938 1781 3938 1306 
Q 3938 681 3513 340 
Q 3088 0 2303 0 
L 628 0 
L 628 4666 
z
" transform="scale(0.015625)"/>
     </defs>
     <use xlink:href="#DejaVuSans-41"/>
     <use xlink:href="#DejaVuSans-5a" transform="translate(68.408203 0)"/>
     <use xlink:href="#DejaVuSans-35" transform="translate(136.914062 0)"/>
     <use xlink:href="#DejaVuSans-2c" transform="translate(200.537109 0)"/>
     <use xlink:href="#DejaVuSans-20" transform="translate(232.324219 0)"/>
     <use xlink:href="#DejaVuSans-66" transform="translate(264.111328 0)"/>
     <use xlink:href="#DejaVuSans-3d" transform="translate(299.316406 0)"/>
     <use xlink:href="#DejaVuSans-38" transform="translate(383.105469 0)"/>
     <use xlink:href="#DejaVuSans-20" transform="translate(446.728516 0)"/>
     <use xlink:href="#DejaVuSans-47" transform="translate(478.515625 0)"/>
     <use xlink:href="#DejaVuSans-48" transform="translate(556.005859 0)"/>
     <use xlink:href="#DejaVuSans-7a" transform="translate(631.201172 0)"/>
     <use xlink:href="#DejaVuSans-2c" transform="translate(683.691406 0)"/>
     <use xlink:href="#DejaVuSans-20" transform="translate(715.478516 0)"/>
     <use xlink:href="#DejaVuSans-31" transform="translate(747.265625 0)"/>
     <use xlink:href="#DejaVuSans-30" transform="translate(810.888672 0)"/>
     <use xlink:href="#DejaVuSans-20" transform="translate(874.511719 0)"/>
     <use xlink:href="#DejaVuSans-64" transform="translate(906.298828 0)"/>
     <use xlink:href="#DejaVuSans-42" transform="translate(969.775391 0)"/>
    </g>
    <!-- Double Asymmetric Lorentzian -->
    <g transform="translate(149.993711 43.531522) scale(0.161 -0.161)">
     <defs>
      <path id="DejaVuSans-44" d="M 1259 4147 
L 1259 519 
L 2022 519 
Q 2988 519 3436 956 
Q 3884 1394 3884 2338 
Q 3884 3275 3436 3711 
Q 2988 4147 2022 4147 
L 1259 4147 
z
M 628 4666 
L 1925 4666 
Q 3281 4666 3915 4102 
Q 4550 3538 4550 2338 
Q 4550 1131 3912 565 
Q 3275 0 1925 0 
L 628 0 
L 628 4666 
z
" transform="scale(0.015625)"/>
      <path id="DejaVuSans-6f" d="M 1959 3097 
Q 1497 3097 1228 2736 
Q 959 2375 959 1747 
Q 959 1119 1226 758 
Q 1494 397 1959 397 
Q 2419 397 2687 759 
Q 2956 1122 2956 1747 
Q 2956 2369 2687 2733 
Q 2419 3097 1959 3097 
z
M 1959 3584 
Q 2709 3584 3137 3096 
Q 3566 2609 3566 1747 
Q 3566 888 3137 398 
Q 2709 -91 1959 -91 
Q 1206 -91 779 398 
Q 353 888 353 1747 
Q 353 2609 779 3096 
Q 1206 3584 1959 3584 
z
" transform="scale(0.015625)"/>
      <path id="DejaVuSans-75" d="M 544 1381 
L 544 3500 
L 1119 3500 
L 1119 1403 
Q 1119 906 1312 657 
Q 1506 409 1894 409 
Q 2359 409 2629 706 
Q 2900 1003 2900 1516 
L 2900 3500 
L 3475 3500 
L 3475 0 
L 2900 0 
L 2900 538 
Q 2691 219 2414 64 
Q 2138 -91 1772 -91 
Q 1169 -91 856 284 
Q 544 659 544 1381 
z
M 1991 3584 
L 1991 3584 
z
" transform="scale(0.015625)"/>
      <path id="DejaVuSans-62" d="M 3116 1747 
Q 3116 2381 2855 2742 
Q 2594 3103 2138 3103 
Q 1681 3103 1420 2742 
Q 1159 2381 1159 1747 
Q 1159 1113 1420 752 
Q 1681 391 2138 391 
Q 2594 391 2855 752 
Q 3116 1113 3116 1747 
z
M 1159 2969 
Q 1341 3281 1617 3432 
Q 1894 3584 2278 3584 
Q 2916 3584 3314 3078 
Q 3713 2572 3713 1747 
Q 3713 922 3314 415 
Q 2916 -91 2278 -91 
Q 1894 -91 1617 61 
Q 1341 213 1159 525 
L 1159 0 
L 581 0 
L 581 4863 
L 1159 4863 
L 1159 2969 
z
" transform="scale(0.015625)"/>
      <path id="DejaVuSans-6c" d="M 603 4863 
L 1178 4863 
L 1178 0 
L 603 0 
L 603 4863 
z
" transform="scale(0.015625)"/>
      <path id="DejaVuSans-65" d="M 3597 1894 
L 3597 1613 
L 953 1613 
Q 991 1019 1311 708 
Q 1631 397 2203 397 
Q 2534 397 2845 478 
Q 3156 559 3463 722 
L 3463 178 
Q 3153 47 2828 -22 
Q 2503 -91 2169 -91 
Q 1331 -91 842 396 
Q 353 884 353 1716 
Q 353 2575 817 3079 
Q 1281 3584 2069 3584 
Q 2775 3584 3186 3129 
Q 3597 2675 3597 1894 
z
M 3022 2063 
Q 3016 2534 2758 2815 
Q 2500 3097 2075 3097 
Q 1594 3097 1305 2825 
Q 1016 2553 972 2059 
L 3022 2063 
z
" transform="scale(0.015625)"/>
      <path id="DejaVuSans-73" d="M 2834 3397 
L 2834 2853 
Q 2591 2978 2328 3040 
Q 2066 3103 1784 3103 
Q 1356 3103 1142 2972 
Q 928 2841 928 2578 
Q 928 2378 1081 2264 
Q 1234 2150 1697 2047 
L 1894 2003 
Q 2506 1872 2764 1633 
Q 3022 1394 3022 966 
Q 3022 478 2636 193 
Q 2250 -91 1575 -91 
Q 1294 -91 989 -36 
Q 684 19 347 128 
L 347 722 
Q 666 556 975 473 
Q 1284 391 1588 391 
Q 1994 391 2212 530 
Q 2431 669 2431 922 
Q 2431 1156 2273 1281 
Q 2116 1406 1581 1522 
L 1381 1569 
Q 847 1681 609 1914 
Q 372 2147 372 2553 
Q 372 3047 722 3315 
Q 1072 3584 1716 3584 
Q 2034 3584 2315 3537 
Q 2597 3491 2834 3397 
z
" transform="scale(0.015625)"/>
      <path id="DejaVuSans-79" d="M 2059 -325 
Q 1816 -950 1584 -1140 
Q 1353 -1331 966 -1331 
L 506 -1331 
L 506 -850 
L 844 -850 
Q 1081 -850 1212 -737 
Q 1344 -625 1503 -206 
L 1606 56 
L 191 3500 
L 800 3500 
L 1894 763 
L 2988 3500 
L 3597 3500 
L 2059 -325 
z
" transform="scale(0.015625)"/>
      <path id="DejaVuSans-6d" d="M 3328 2828 
Q 3544 3216 3844 3400 
Q 4144 3584 4550 3584 
Q 5097 3584 5394 3201 
Q 5691 2819 5691 2113 
L 5691 0 
L 5113 0 
L 5113 2094 
Q 5113 2597 4934 2840 
Q 4756 3084 4391 3084 
Q 3944 3084 3684 2787 
Q 3425 2491 3425 1978 
L 3425 0 
L 2847 0 
L 2847 2094 
Q 2847 2600 2669 2842 
Q 2491 3084 2119 3084 
Q 1678 3084 1418 2786 
Q 1159 2488 1159 1978 
L 1159 0 
L 581 0 
L 581 3500 
L 1159 3500 
L 1159 2956 
Q 1356 3278 1631 3431 
Q 1906 3584 2284 3584 
Q 2666 3584 2933 3390 
Q 3200 3197 3328 2828 
z
" transform="scale(0.015625)"/>
      <path id="DejaVuSans-74" d="M 1172 4494 
L 1172 3500 
L 2356 3500 
L 2356 3053 
L 1172 3053 
L 1172 1153 
Q 1172 725 1289 603 
Q 1406 481 1766 481 
L 2356 481 
L 2356 0 
L 1766 0 
Q 1100 0 847 248 
Q 594 497 594 1153 
L 594 3053 
L 172 3053 
L 172 3500 
L 594 3500 
L 594 4494 
L 1172 4494 
z
" transform="scale(0.015625)"/>
      <path id="DejaVuSans-72" d="M 2631 2963 
Q 2534 3019 2420 3045 
Q 2306 3072 2169 3072 
Q 1681 3072 1420 2755 
Q 1159 2438 1159 1844 
L 1159 0 
L 581 0 
L 581 3500 
L 1159 3500 
L 1159 2956 
Q 1341 3275 1631 3429 
Q 1922 3584 2338 3584 
Q 2397 3584 2469 3576 
Q 2541 3569 2628 3553 
L 2631 2963 
z
" transform="scale(0.015625)"/>
      <path id="DejaVuSans-69" d="M 603 3500 
L 1178 3500 
L 1178 0 
L 603 0 
L 603 3500 
z
M 603 4863 
L 1178 4863 
L 1178 4134 
L 603 4134 
L 603 4863 
z
" transform="scale(0.015625)"/>
      <path id="DejaVuSans-63" d="M 3122 3366 
L 3122 2828 
Q 2878 2963 2633 3030 
Q 2388 3097 2138 3097 
Q 1578 3097 1268 2742 
Q 959 2388 959 1747 
Q 959 1106 1268 751 
Q 1578 397 2138 397 
Q 2388 397 2633 464 
Q 2878 531 3122 666 
L 3122 134 
Q 2881 22 2623 -34 
Q 2366 -91 2075 -91 
Q 1284 -91 818 406 
Q 353 903 353 1747 
Q 353 2603 823 3093 
Q 1294 3584 2113 3584 
Q 2378 3584 2631 3529 
Q 2884 3475 3122 3366 
z
" transform="scale(0.015625)"/>
      <path id="DejaVuSans-4c" d="M 628 4666 
L 1259 4666 
L 1259 531 
L 3531 531 
L 3531 0 
L 628 0 
L 628 4666 
z
" transform="scale(0.015625)"/>
      <path id="DejaVuSans-6e" d="M 3513 2113 
L 3513 0 
L 2938 0 
L 2938 2094 
Q 2938 2591 2744 2837 
Q 2550 3084 2163 3084 
Q 1697 3084 1428 2787 
Q 1159 2491 1159 1978 
L 1159 0 
L 581 0 
L 581 3500 
L 1159 3500 
L 1159 2956 
Q 1366 3272 1645 3428 
Q 1925 3584 2291 3584 
Q 2894 3584 3203 3211 
Q 3513 2838 3513 2113 
z
" transform="scale(0.015625)"/>
      <path id="DejaVuSans-61" d="M 2194 1759 
Q 1497 1759 1228 1600 
Q 959 1441 959 1056 
Q 959 750 1161 570 
Q 1363 391 1709 391 
Q 2188 391 2477 730 
Q 2766 1069 2766 1631 
L 2766 1759 
L 2194 1759 
z
M 3341 1997 
L 3341 0 
L 2766 0 
L 2766 531 
Q 2569 213 2275 61 
Q 1981 -91 1556 -91 
Q 1019 -91 701 211 
Q 384 513 384 1019 
Q 384 1609 779 1909 
Q 1175 2209 1959 2209 
L 2766 2209 
L 2766 2266 
Q 2766 2663 2505 2880 
Q 2244 3097 1772 3097 
Q 1472 3097 1187 3025 
Q 903 2953 641 2809 
L 641 3341 
Q 956 3463 1253 3523 
Q 1550 3584 1831 3584 
Q 2591 3584 2966 3190 
Q 3341 2797 3341 1997 
z
" transform="scale(0.015625)"/>
     </defs>
     <use xlink:href="#DejaVuSans-44"/>
     <use xlink:href="#DejaVuSans-6f" transform="translate(77.001953 0)"/>
     <use xlink:href="#DejaVuSans-75" transform="translate(138.183594 0)"/>
     <use xlink:href="#DejaVuSans-62" transform="translate(201.5625 0)"/>
     <use xlink:href="#DejaVuSans-6c" transform="translate(265.039062 0)"/>
     <use xlink:href="#DejaVuSans-65" transform="translate(292.822266 0)"/>
     <use xlink:href="#DejaVuSans-20" transform="translate(354.345703 0)"/>
     <use xlink:href="#DejaVuSans-41" transform="translate(386.132812 0)"/>
     <use xlink:href="#DejaVuSans-73" transform="translate(454.541016 0)"/>
     <use xlink:href="#DejaVuSans-79" transform="translate(506.640625 0)"/>
     <use xlink:href="#DejaVuSans-6d" transform="translate(565.820312 0)"/>
     <use xlink:href="#DejaVuSans-6d" transform="translate(663.232422 0)"/>
     <use xlink:href="#DejaVuSans-65" transform="translate(760.644531 0)"/>
     <use xlink:href="#DejaVuSans-74" transform="translate(822.167969 0)"/>
     <use xlink:href="#DejaVuSans-72" transform="translate(861.376953 0)"/>
     <use xlink:href="#DejaVuSans-69" transform="translate(902.490234 0)"/>
     <use xlink:href="#DejaVuSans-63" transform="translate(930.273438 0)"/>
     <use xlink:href="#DejaVuSans-20" transform="translate(985.253906 0)"/>
     <use xlink:href="#DejaVuSans-4c" transform="translate(1017.041016 0)"/>
     <use xlink:href="#DejaVuSans-6f" transform="translate(1071.003906 0)"/>
     <use xlink:href="#DejaVuSans-72" transform="translate(1132.185547 0)"/>
     <use xlink:href="#DejaVuSans-65" transform="translate(1171.048828 0)"/>
     <use xlink:href="#DejaVuSans-6e" transform="translate(1232.572266 0)"/>
     <use xlink:href="#DejaVuSans-74" transform="translate(1295.951172 0)"/>
     <use xlink:href="#DejaVuSans-7a" transform="translate(1335.160156 0)"/>
     <use xlink:href="#DejaVuSans-69" transform="translate(1387.650391 0)"/>
     <use xlink:href="#DejaVuSans-61" transform="translate(1415.433594 0)"/>
     <use xlink:href="#DejaVuSans-6e" transform="translate(1476.712891 0)"/>
    </g>
    <!-- $H_1$=191.1053 T, $H_2$=191.1043 T, R²=0.935 -->
    <g transform="translate(100.09 61.56) scale(0.161 -0.161)">
     <defs>
      <path id="DejaVuSans-Oblique-48" d="M 1081 4666 
L 1716 4666 
L 1344 2753 
L 3634 2753 
L 4006 4666 
L 4641 4666 
L 3731 0 
L 3097 0 
L 3531 2222 
L 1241 2222 
L 806 0 
L 172 0 
L 1081 4666 
z
" transform="scale(0.015625)"/>
      <path id="DejaVuSans-2e" d="M 684 794 
L 1344 794 
L 1344 0 
L 684 0 
L 684 794 
z
" transform="scale(0.015625)"/>
      <path id="DejaVuSans-52" d="M 2841 2188 
Q 3044 2119 3236 1894 
Q 3428 1669 3622 1275 
L 4263 0 
L 3584 0 
L 2988 1197 
Q 2756 1666 2539 1819 
Q 2322 1972 1947 1972 
L 1259 1972 
L 1259 0 
L 628 0 
L 628 4666 
L 2053 4666 
Q 2853 4666 3247 4331 
Q 3641 3997 3641 3322 
Q 3641 2881 3436 2590 
Q 3231 2300 2841 2188 
z
M 1259 4147 
L 1259 2491 
L 2053 2491 
Q 2509 2491 2742 2702 
Q 2975 2913 2975 3322 
Q 2975 3731 2742 3939 
Q 2509 4147 2053 4147 
L 1259 4147 
z
" transform="scale(0.015625)"/>
      <path id="DejaVuSans-b2" d="M 838 2444 
L 2163 2444 
L 2163 2088 
L 294 2088 
L 294 2431 
Q 400 2528 597 2703 
Q 1672 3656 1672 3950 
Q 1672 4156 1509 4282 
Q 1347 4409 1081 4409 
Q 919 4409 728 4354 
Q 538 4300 313 4191 
L 313 4575 
Q 553 4663 761 4706 
Q 969 4750 1147 4750 
Q 1600 4750 1872 4544 
Q 2144 4338 2144 4000 
Q 2144 3566 1109 2678 
Q 934 2528 838 2444 
z
" transform="scale(0.015625)"/>
     </defs>
     <use xlink:href="#DejaVuSans-Oblique-48" transform="translate(0 0.78125)"/>
     <use xlink:href="#DejaVuSans-31" transform="translate(75.195312 -15.625) scale(0.7)"/>
     <use xlink:href="#DejaVuSans-3d" transform="translate(122.46582 0.78125)"/>
     <use xlink:href="#DejaVuSans-31" transform="translate(206.254883 0.78125)"/>
     <use xlink:href="#DejaVuSans-39" transform="translate(269.87793 0.78125)"/>
     <use xlink:href="#DejaVuSans-31" transform="translate(333.500977 0.78125)"/>
     <use xlink:href="#DejaVuSans-2e" transform="translate(397.124023 0.78125)"/>
     <use xlink:href="#DejaVuSans-31" transform="translate(428.911133 0.78125)"/>
     <use xlink:href="#DejaVuSans-30" transform="translate(492.53418 0.78125)"/>
     <use xlink:href="#DejaVuSans-35" transform="translate(556.157227 0.78125)"/>
     <use xlink:href="#DejaVuSans-33" transform="translate(619.780273 0.78125)"/>
     <use xlink:href="#DejaVuSans-20" transform="translate(683.40332 0.78125)"/>
     <use xlink:href="#DejaVuSans-54" transform="translate(715.19043 0.78125)"/>
     <use xlink:href="#DejaVuSans-2c" transform="translate(776.274414 0.78125)"/>
     <use xlink:href="#DejaVuSans-20" transform="translate(808.061523 0.78125)"/>
     <use xlink:href="#DejaVuSans-Oblique-48" transform="translate(839.848633 0.78125)"/>
     <use xlink:href="#DejaVuSans-32" transform="translate(915.043945 -15.625) scale(0.7)"/>
     <use xlink:href="#DejaVuSans-3d" transform="translate(962.314453 0.78125)"/>
     <use xlink:href="#DejaVuSans-31" transform="translate(1046.103516 0.78125)"/>
     <use xlink:href="#DejaVuSans-39" transform="translate(1109.726562 0.78125)"/>
     <use xlink:href="#DejaVuSans-31" transform="translate(1173.349609 0.78125)"/>
     <use xlink:href="#DejaVuSans-2e" transform="translate(1236.972656 0.78125)"/>
     <use xlink:href="#DejaVuSans-31" transform="translate(1268.759766 0.78125)"/>
     <use xlink:href="#DejaVuSans-30" transform="translate(1332.382812 0.78125)"/>
     <use xlink:href="#DejaVuSans-34" transform="translate(1396.005859 0.78125)"/>
     <use xlink:href="#DejaVuSans-33" transform="translate(1459.628906 0.78125)"/>
     <use xlink:href="#DejaVuSans-20" transform="translate(1523.251953 0.78125)"/>
     <use xlink:href="#DejaVuSans-54" transform="translate(1555.039062 0.78125)"/>
     <use xlink:href="#DejaVuSans-2c" transform="translate(1616.123047 0.78125)"/>
     <use xlink:href="#DejaVuSans-20" transform="translate(1647.910156 0.78125)"/>
     <use xlink:href="#DejaVuSans-52" transform="translate(1679.697266 0.78125)"/>
     <use xlink:href="#DejaVuSans-b2" transform="translate(1749.179688 0.78125)"/>
     <use xlink:href="#DejaVuSans-3d" transform="translate(1789.267578 0.78125)"/>
     <use xlink:href="#DejaVuSans-30" transform="translate(1873.056641 0.78125)"/>
     <use xlink:href="#DejaVuSans-2e" transform="translate(1936.679688 0.78125)"/>
     <use xlink:href="#DejaVuSans-39" transform="translate(1968.466797 0.78125)"/>
     <use xlink:href="#DejaVuSans-33" transform="translate(2032.089844 0.78125)"/>
     <use xlink:href="#DejaVuSans-35" transform="translate(2095.712891 0.78125)"/>
    </g>
   </g>
   <g id="legend_1">
    <g id="patch_7">
     <path d="M 68.504 139.367437 
L 260.244219 139.367437 
Q 263.004219 139.367437 263.004219 136.607438 
L 263.004219 77.22 
Q 263.004219 74.46 260.244219 74.46 
L 68.504 74.46 
Q 65.744 74.46 65.744 77.22 
L 65.744 136.607438 
Q 65.744 139.367437 68.504 139.367437 
z
" style="fill: #ffffff; opacity: 0.8; stroke: #cccccc; stroke-linejoin: miter"/>
    </g>
    <g id="line2d_16">
     <path d="M 71.264 85.635844 
L 85.064 85.635844 
L 98.864 85.635844 
" style="fill: none; stroke: #cc7000; stroke-opacity: 0.7; stroke-width: 1.4; stroke-linecap: square"/>
    </g>
    <g id="text_16">
     <!-- Raw data (curve) -->
     <g transform="translate(109.904 90.465844) scale(0.138 -0.138)">
      <defs>
       <path id="DejaVuSans-77" d="M 269 3500 
L 844 3500 
L 1563 769 
L 2278 3500 
L 2956 3500 
L 3675 769 
L 4391 3500 
L 4966 3500 
L 4050 0 
L 3372 0 
L 2619 2869 
L 1863 0 
L 1184 0 
L 269 3500 
z
" transform="scale(0.015625)"/>
       <path id="DejaVuSans-76" d="M 191 3500 
L 800 3500 
L 1894 563 
L 2988 3500 
L 3597 3500 
L 2284 0 
L 1503 0 
L 191 3500 
z
" transform="scale(0.015625)"/>
      </defs>
      <use xlink:href="#DejaVuSans-52"/>
      <use xlink:href="#DejaVuSans-61" transform="translate(67.232422 0)"/>
      <use xlink:href="#DejaVuSans-77" transform="translate(128.511719 0)"/>
      <use xlink:href="#DejaVuSans-20" transform="translate(210.298828 0)"/>
      <use xlink:href="#DejaVuSans-64" transform="translate(242.085938 0)"/>
      <use xlink:href="#DejaVuSans-61" transform="translate(305.5625 0)"/>
      <use xlink:href="#DejaVuSans-74" transform="translate(366.841797 0)"/>
      <use xlink:href="#DejaVuSans-61" transform="translate(406.050781 0)"/>
      <use xlink:href="#DejaVuSans-20" transform="translate(467.330078 0)"/>
      <use xlink:href="#DejaVuSans-28" transform="translate(499.117188 0)"/>
      <use xlink:href="#DejaVuSans-63" transform="translate(538.130859 0)"/>
      <use xlink:href="#DejaVuSans-75" transform="translate(593.111328 0)"/>
      <use xlink:href="#DejaVuSans-72" transform="translate(656.490234 0)"/>
      <use xlink:href="#DejaVuSans-76" transform="translate(697.603516 0)"/>
      <use xlink:href="#DejaVuSans-65" transform="translate(756.783203 0)"/>
      <use xlink:href="#DejaVuSans-29" transform="translate(818.306641 0)"/>
     </g>
    </g>
    <g id="line2d_17">
     <path d="M 71.264 105.891656 
L 85.064 105.891656 
L 98.864 105.891656 
" style="fill: none; stroke: #2980b9; stroke-width: 2; stroke-linecap: square"/>
    </g>
    <g id="text_17">
     <!-- Aggregated (median) -->
     <g transform="translate(109.904 110.721656) scale(0.138 -0.138)">
      <defs>
       <path id="DejaVuSans-67" d="M 2906 1791 
Q 2906 2416 2648 2759 
Q 2391 3103 1925 3103 
Q 1463 3103 1205 2759 
Q 947 2416 947 1791 
Q 947 1169 1205 825 
Q 1463 481 1925 481 
Q 2391 481 2648 825 
Q 2906 1169 2906 1791 
z
M 3481 434 
Q 3481 -459 3084 -895 
Q 2688 -1331 1869 -1331 
Q 1566 -1331 1297 -1286 
Q 1028 -1241 775 -1147 
L 775 -588 
Q 1028 -725 1275 -790 
Q 1522 -856 1778 -856 
Q 2344 -856 2625 -561 
Q 2906 -266 2906 331 
L 2906 616 
Q 2728 306 2450 153 
Q 2172 0 1784 0 
Q 1141 0 747 490 
Q 353 981 353 1791 
Q 353 2603 747 3093 
Q 1141 3584 1784 3584 
Q 2172 3584 2450 3431 
Q 2728 3278 2906 2969 
L 2906 3500 
L 3481 3500 
L 3481 434 
z
" transform="scale(0.015625)"/>
      </defs>
      <use xlink:href="#DejaVuSans-41"/>
      <use xlink:href="#DejaVuSans-67" transform="translate(68.408203 0)"/>
      <use xlink:href="#DejaVuSans-67" transform="translate(131.884766 0)"/>
      <use xlink:href="#DejaVuSans-72" transform="translate(195.361328 0)"/>
      <use xlink:href="#DejaVuSans-65" transform="translate(234.224609 0)"/>
      <use xlink:href="#DejaVuSans-67" transform="translate(295.748047 0)"/>
      <use xlink:href="#DejaVuSans-61" transform="translate(359.224609 0)"/>
      <use xlink:href="#DejaVuSans-74" transform="translate(420.503906 0)"/>
      <use xlink:href="#DejaVuSans-65" transform="translate(459.712891 0)"/>
      <use xlink:href="#DejaVuSans-64" transform="translate(521.236328 0)"/>
      <use xlink:href="#DejaVuSans-20" transform="translate(584.712891 0)"/>
      <use xlink:href="#DejaVuSans-28" transform="translate(616.5 0)"/>
      <use xlink:href="#DejaVuSans-6d" transform="translate(655.513672 0)"/>
      <use xlink:href="#DejaVuSans-65" transform="translate(752.925781 0)"/>
      <use xlink:href="#DejaVuSans-64" transform="translate(814.449219 0)"/>
      <use xlink:href="#DejaVuSans-69" transform="translate(877.925781 0)"/>
      <use xlink:href="#DejaVuSans-61" transform="translate(905.708984 0)"/>
      <use xlink:href="#DejaVuSans-6e" transform="translate(966.988281 0)"/>
      <use xlink:href="#DejaVuSans-29" transform="translate(1030.367188 0)"/>
     </g>
    </g>
    <g id="line2d_18">
     <path d="M 71.264 126.147469 
L 85.064 126.147469 
L 98.864 126.147469 
" style="fill: none; stroke: #ffa500; stroke-width: 2.5; stroke-linecap: square"/>
    </g>
    <g id="text_18">
     <!-- Fit -->
     <g transform="translate(109.904 130.977469) scale(0.138 -0.138)">
      <defs>
       <path id="DejaVuSans-46" d="M 628 4666 
L 3309 4666 
L 3309 4134 
L 1259 4134 
L 1259 2759 
L 3109 2759 
L 3109 2228 
L 1259 2228 
L 1259 0 
L 628 0 
L 628 4666 
z
" transform="scale(0.015625)"/>
      </defs>
      <use xlink:href="#DejaVuSans-46"/>
      <use xlink:href="#DejaVuSans-69" transform="translate(50.269531 0)"/>
      <use xlink:href="#DejaVuSans-74" transform="translate(78.052734 0)"/>
     </g>
    </g>
   </g>
  </g>
 </g>
 <defs>
  <clipPath id="p3dfafad4a4">
   <rect x="58.844" y="67.56" width="430.252" height="167.176"/>
  </clipPath>
 </defs>
</svg>
